<?xml version="1.0" encoding="iso-8859-1"?>
<!-- Generator: Adobe Illustrator 19.0.0, SVG Export Plug-In . SVG Version: 6.00 Build 0)  -->
<svg xmlns="http://www.w3.org/2000/svg" xmlns:xlink="http://www.w3.org/1999/xlink" version="1.1" id="Layer_1" x="0px" y="0px" viewBox="0 0 512 512" style="enable-background:new 0 0 512 512;" xml:space="preserve" width="512" height="512">
<g id="XMLID_3105_">
	<g id="XMLID_3106_">
		<rect id="XMLID_3109_" x="77.404" y="150.768" style="fill:#48709B;" width="357.191" height="210.464"/>
		<rect id="XMLID_3113_" x="77.4" y="150.767" style="fill:#629ACC;" width="357.2" height="13"/>
		<rect id="XMLID_3117_" x="77.4" y="348.228" style="fill:#304E75;" width="357.2" height="13"/>
		<g id="XMLID_3123_">
			<g id="XMLID_3125_">
				<path id="XMLID_3128_" style="fill:#01D2FF;" d="M96.598,361.23h-71.31c-9.824,0-17.787-7.964-17.787-17.787v-174.89      c0-9.824,7.964-17.787,17.787-17.787h71.31V361.23z"/>
				<path id="XMLID_3133_" style="fill:#97EBFF;" d="M96.6,150.767v13H25.29c-9.83,0-17.79,7.96-17.79,17.79v-13      c0-9.83,7.96-17.79,17.79-17.79H96.6z"/>
				<path id="XMLID_3136_" style="fill:#0086F4;" d="M96.6,348.228v13H25.29c-9.83,0-17.79-7.96-17.79-17.78v-13      c0,9.82,7.96,17.78,17.79,17.78H96.6z"/>
			</g>
			<g id="XMLID_3137_">
				<path id="XMLID_3141_" style="fill:#E94141;" d="M415.402,361.23h71.31c9.824,0,17.787-7.964,17.787-17.787v-174.89      c0-9.824-7.964-17.787-17.787-17.787h-71.31V361.23z"/>
				<path id="XMLID_3143_" style="fill:#F28383;" d="M504.5,168.557v13c0-9.83-7.96-17.79-17.79-17.79H415.4v-13h71.31      C496.54,150.767,504.5,158.728,504.5,168.557z"/>
				<path id="XMLID_3144_" style="fill:#C62525;" d="M504.5,330.448v13c0,9.82-7.96,17.78-17.79,17.78H415.4v-13h71.31      C496.54,348.228,504.5,340.267,504.5,330.448z"/>
			</g>
		</g>
		<rect id="XMLID_3149_" x="127.67" y="181.688" style="fill:#00F0F5;" width="256.66" height="148.62"/>
		<polygon id="XMLID_3151_" style="fill:#6CFFFF;" points="384.33,186.598 384.33,217.978 272,330.307 240.62,330.307   "/>
		<polygon id="XMLID_3153_" style="fill:#6CFFFF;" points="358.48,181.688 209.87,330.307 137.05,330.307 285.67,181.688   "/>
		<g id="XMLID_3154_">
			<circle id="XMLID_3161_" style="fill:#48709B;" cx="459.951" cy="206.024" r="15"/>
		</g>
		<g id="XMLID_3163_">
			<circle id="XMLID_3169_" style="fill:#48709B;" cx="52.049" cy="206.024" r="15"/>
		</g>
	</g>
	<g id="XMLID_3170_">
		<path id="XMLID_3171_" d="M334.911,353.732H104.098V158.268h32.813c4.142,0,7.5-3.358,7.5-7.5s-3.358-7.5-7.5-7.5H25.287    C11.344,143.268,0,154.612,0,168.555v76.355c0,4.142,3.358,7.5,7.5,7.5s7.5-3.358,7.5-7.5v-76.355    c0-5.672,4.615-10.287,10.287-10.287h63.811v195.464H25.287c-5.672,0-10.287-4.615-10.287-10.287v-64.357    c0-4.142-3.358-7.5-7.5-7.5s-7.5,3.358-7.5,7.5v64.357c0,13.943,11.344,25.287,25.287,25.287h309.624c4.142,0,7.5-3.358,7.5-7.5    S339.053,353.732,334.911,353.732z"/>
		<path id="XMLID_3173_" d="M486.713,143.268H171.089c-4.142,0-7.5,3.358-7.5,7.5s3.358,7.5,7.5,7.5h236.813v195.464h-38.813    c-4.142,0-7.5,3.358-7.5,7.5s3.358,7.5,7.5,7.5h117.624c13.943,0,25.287-11.344,25.287-25.287v-174.89    C512,154.612,500.656,143.268,486.713,143.268z M497,343.445c0,5.672-4.615,10.287-10.287,10.287h-52.117h-11.693V158.268h63.811    c5.672,0,10.287,4.615,10.287,10.287V343.445z"/>
		<path id="XMLID_3179_" d="M120.167,181.691v148.619c0,4.142,3.358,7.5,7.5,7.5h256.667c4.142,0,7.5-3.358,7.5-7.5V181.691    c0-4.142-3.358-7.5-7.5-7.5H127.667C123.524,174.191,120.167,177.549,120.167,181.691z M135.167,189.191h241.667v133.619H135.167    V189.191z"/>
		<path id="XMLID_3184_" d="M459.951,228.524c12.407,0,22.5-10.093,22.5-22.5s-10.093-22.5-22.5-22.5s-22.5,10.093-22.5,22.5    S447.544,228.524,459.951,228.524z M459.951,198.524c4.136,0,7.5,3.364,7.5,7.5s-3.364,7.5-7.5,7.5s-7.5-3.364-7.5-7.5    S455.815,198.524,459.951,198.524z"/>
		<path id="XMLID_3192_" d="M52.049,183.524c-12.407,0-22.5,10.093-22.5,22.5s10.093,22.5,22.5,22.5s22.5-10.093,22.5-22.5    S64.456,183.524,52.049,183.524z M52.049,213.524c-4.136,0-7.5-3.364-7.5-7.5s3.364-7.5,7.5-7.5s7.5,3.364,7.5,7.5    S56.185,213.524,52.049,213.524z"/>
		<path id="XMLID_3198_" d="M59.549,278.533v-3.133c0-4.142-3.358-7.5-7.5-7.5s-7.5,3.358-7.5,7.5v3.133c0,4.142,3.358,7.5,7.5,7.5    S59.549,282.676,59.549,278.533z"/>
		<path id="XMLID_3199_" d="M44.549,310.089c0,4.142,3.358,7.5,7.5,7.5s7.5-3.358,7.5-7.5v-3.133c0-4.142-3.358-7.5-7.5-7.5    s-7.5,3.358-7.5,7.5V310.089z"/>
		<path id="XMLID_3200_" d="M66.26,300.244h3.133c4.142,0,7.5-3.358,7.5-7.5s-3.358-7.5-7.5-7.5H66.26c-4.142,0-7.5,3.358-7.5,7.5    S62.118,300.244,66.26,300.244z"/>
		<path id="XMLID_3201_" d="M27.205,292.744c0,4.142,3.358,7.5,7.5,7.5h3.133c4.142,0,7.5-3.358,7.5-7.5s-3.358-7.5-7.5-7.5h-3.133    C30.563,285.244,27.205,288.602,27.205,292.744z"/>
		<path id="XMLID_3202_" d="M452.451,275.401v3.133c0,4.142,3.358,7.5,7.5,7.5s7.5-3.358,7.5-7.5v-3.133c0-4.142-3.358-7.5-7.5-7.5    S452.451,271.259,452.451,275.401z"/>
		<path id="XMLID_3207_" d="M459.951,299.456c-4.142,0-7.5,3.358-7.5,7.5v3.133c0,4.142,3.358,7.5,7.5,7.5s7.5-3.358,7.5-7.5v-3.133    C467.451,302.814,464.093,299.456,459.951,299.456z"/>
		<path id="XMLID_3210_" d="M477.295,285.244h-3.133c-4.142,0-7.5,3.358-7.5,7.5s3.358,7.5,7.5,7.5h3.133c4.142,0,7.5-3.358,7.5-7.5    S481.437,285.244,477.295,285.244z"/>
		<path id="XMLID_3211_" d="M445.74,285.244h-3.133c-4.142,0-7.5,3.358-7.5,7.5s3.358,7.5,7.5,7.5h3.133c4.142,0,7.5-3.358,7.5-7.5    S449.882,285.244,445.74,285.244z"/>
	</g>
</g>















</svg>
