<?xml version="1.0" encoding="iso-8859-1"?>
<!-- Generator: Adobe Illustrator 19.0.0, SVG Export Plug-In . SVG Version: 6.00 Build 0)  -->
<svg xmlns="http://www.w3.org/2000/svg" xmlns:xlink="http://www.w3.org/1999/xlink" version="1.1" id="Layer_1" x="0px" y="0px" viewBox="0 0 512 512" style="enable-background:new 0 0 512 512;" xml:space="preserve" width="512" height="512">
<g id="XMLID_3957_">
	<g id="XMLID_3958_">
		<g id="XMLID_3959_">
			<g id="XMLID_3960_">
				<rect id="XMLID_3963_" x="428" y="141.333" style="fill:#48709B;" width="25.5" height="32.5"/>
			</g>
			<g id="XMLID_3964_">
				<rect id="XMLID_3967_" x="419.5" y="166.573" style="fill:#629ACC;" width="42.5" height="32.5"/>
			</g>
			<rect id="XMLID_3971_" x="7.5" y="403.57" style="fill:#629ACC;" width="497" height="63.36"/>
			<rect id="XMLID_3975_" x="7.5" y="403.57" style="fill:#48709B;" width="497" height="29.68"/>
			<rect id="XMLID_3978_" x="7.5" y="189.897" style="fill:#AFB9D2;" width="497" height="230.353"/>
			<rect id="XMLID_3981_" x="7.5" y="406.573" style="fill:#959CB3;" width="497" height="13.677"/>
			<rect id="XMLID_3984_" x="7.5" y="189.897" style="fill:#C7CFE2;" width="497" height="13.677"/>
			<g id="XMLID_3985_">
				<path id="XMLID_3989_" style="fill:#629ACC;" d="M265.664,239.485v19.291c0,10.142,15.239,18.364,34.037,18.364      c18.798,0,34.037-8.222,34.037-18.364v-19.291H265.664z"/>
				<ellipse id="XMLID_3993_" style="fill:#0086F4;" cx="299.701" cy="239.485" rx="34.037" ry="18.364"/>
			</g>
			<g id="XMLID_3994_">
				<path id="XMLID_3997_" style="fill:#629ACC;" d="M366.131,263.849v19.291c0,10.142,15.239,18.364,34.037,18.364      c18.798,0,34.037-8.222,34.037-18.364v-19.291H366.131z"/>
				<ellipse id="XMLID_3998_" style="fill:#E94141;" cx="400.169" cy="263.849" rx="34.037" ry="18.364"/>
			</g>
			<g id="XMLID_4000_">
				<path id="XMLID_4003_" style="fill:#629ACC;" d="M265.664,320.417v19.291c0,10.142,15.239,18.364,34.037,18.364      c18.798,0,34.037-8.222,34.037-18.364v-19.291H265.664z"/>
				<ellipse id="XMLID_4004_" style="fill:#E94141;" cx="299.701" cy="320.417" rx="34.037" ry="18.364"/>
			</g>
			<g id="XMLID_4005_">
				<path id="XMLID_4009_" style="fill:#629ACC;" d="M366.131,344.781v19.291c0,10.142,15.239,18.364,34.037,18.364      c18.798,0,34.037-8.222,34.037-18.364v-19.291H366.131z"/>
				<ellipse id="XMLID_4013_" style="fill:#0086F4;" cx="400.169" cy="344.781" rx="34.037" ry="18.364"/>
			</g>
			<g id="XMLID_4014_">
				<path id="XMLID_4015_" style="fill:#E94141;" d="M194.93,301.403c0,18.83-28.29,34.1-63.2,34.1c-34.9,0-63.2-15.27-63.2-34.1      c0-14.1,15.86-26.2,38.47-31.39c7.6-1.74,15.95-2.71,24.73-2.71s17.14,0.97,24.74,2.71      C179.08,275.213,194.93,287.313,194.93,301.403z"/>
				<path id="XMLID_4017_" style="fill:#C62525;" d="M156.47,270.013v12.72c0,13.64-11.1,24.74-24.74,24.74      c-13.63,0-24.73-11.1-24.73-24.74v-12.72c7.6-1.74,15.95-2.71,24.73-2.71S148.87,268.273,156.47,270.013z"/>
				<g id="XMLID_4018_">
					<path id="XMLID_4021_" style="fill:#629ACC;" d="M143.47,164.708v118.029c0,6.481-5.254,11.735-11.735,11.735h0       c-6.481,0-11.735-5.254-11.735-11.735V164.708H143.47z"/>
					<rect id="XMLID_4024_" x="119.999" y="164.708" style="fill:#48709B;" width="23.47" height="18.25"/>
					<circle id="XMLID_4025_" style="fill:#E94141;" cx="131.731" cy="116.192" r="52.248"/>
					<path id="XMLID_4026_" style="fill:#C62525;" d="M182.36,129.123c-5.75,22.6-26.24,39.32-50.63,39.32       c-24.39,0-44.88-16.72-50.63-39.32c11.03,13.78,29.59,22.82,50.63,22.82S171.33,142.903,182.36,129.123z"/>
					<path id="XMLID_4027_" style="fill:#F28383;" d="M183.47,108.908c-8.68-18.5-28.58-31.43-51.74-31.43s-43.06,12.93-51.74,31.43       c3.54-25.41,25.36-44.96,51.74-44.96C158.119,63.948,179.93,83.498,183.47,108.908z"/>
				</g>
			</g>
		</g>
	</g>
	<g id="XMLID_4028_">
		<path id="XMLID_4029_" d="M504.5,182.397h-35v-15.824c0-4.142-3.358-7.5-7.5-7.5h-1v-17.74c0-4.142-3.358-7.5-7.5-7.5h-5.25v-6.51    c0-12.544-10.206-22.75-22.75-22.75H246.75c-4.273,0-7.75-3.477-7.75-7.75s3.477-7.75,7.75-7.75H425.5    c12.544,0,22.75-10.206,22.75-22.75v-21.25c0-4.142-3.358-7.5-7.5-7.5s-7.5,3.358-7.5,7.5v21.25c0,4.273-3.477,7.75-7.75,7.75    H246.75c-12.544,0-22.75,10.206-22.75,22.75s10.206,22.75,22.75,22.75H425.5c4.273,0,7.75,3.477,7.75,7.75v6.51H428    c-4.142,0-7.5,3.358-7.5,7.5v17.74h-1c-4.142,0-7.5,3.358-7.5,7.5v15.824h-27.911c-4.142,0-7.5,3.358-7.5,7.5s3.358,7.5,7.5,7.5    H497v87.516c0,4.142,3.358,7.5,7.5,7.5s7.5-3.358,7.5-7.5v-95.016C512,185.755,508.642,182.397,504.5,182.397z M435.5,148.833H446    v10.24h-10.5V148.833z M427,174.073h27.5v8.324H427V174.073z"/>
		<path id="XMLID_4038_" d="M504.5,311.591c-4.142,0-7.5,3.358-7.5,7.5v84.483v9.176H15v-9.176V197.397h97.496v63.922    c-30.516,4.896-51.465,21.016-51.465,40.084c0,23.327,31.055,41.599,70.7,41.599s70.7-18.272,70.7-41.599    c0-19.178-20.886-35.204-51.465-40.09v-63.917h198.945c4.142,0,7.5-3.358,7.5-7.5s-3.358-7.5-7.5-7.5H150.966v-9.653    c23.533-8.027,40.513-30.337,40.513-56.552c0-32.945-26.803-59.748-59.748-59.748s-59.748,26.803-59.748,59.748    c0,26.216,16.979,48.526,40.513,56.552v9.653H7.5c-4.142,0-7.5,3.358-7.5,7.5v213.676v16.676v46.677c0,4.142,3.358,7.5,7.5,7.5    h174.911c4.142,0,7.5-3.358,7.5-7.5s-3.358-7.5-7.5-7.5H131v-10.353c0-4.142-3.358-7.5-7.5-7.5s-7.5,3.358-7.5,7.5v10.353h-9    v-10.353c0-4.142-3.358-7.5-7.5-7.5s-7.5,3.358-7.5,7.5v10.353h-9v-10.353c0-4.142-3.358-7.5-7.5-7.5s-7.5,3.358-7.5,7.5v10.353    h-9v-10.353c0-4.142-3.358-7.5-7.5-7.5s-7.5,3.358-7.5,7.5v10.353H15V427.75h482v31.677H216.589c-4.142,0-7.5,3.358-7.5,7.5    s3.358,7.5,7.5,7.5H504.5c4.142,0,7.5-3.358,7.5-7.5V420.25v-16.676v-84.483C512,314.948,508.642,311.591,504.5,311.591z     M187.431,301.404c0,12.581-22.875,26.599-55.7,26.599s-55.7-14.018-55.7-26.599c0-10.739,15.296-20.926,36.465-24.866v6.199    c0,10.606,8.629,19.235,19.235,19.235s19.235-8.629,19.235-19.235v-6.189C171.914,280.495,187.431,290.769,187.431,301.404z     M86.983,116.192c0-24.674,20.074-44.748,44.748-44.748s44.748,20.074,44.748,44.748s-20.074,44.748-44.748,44.748    S86.983,140.865,86.983,116.192z M131.731,175.939c1.425,0,2.834-0.068,4.235-0.167v106.964c0,2.335-1.9,4.235-4.235,4.235    s-4.235-1.9-4.235-4.235V175.772C128.897,175.871,130.306,175.939,131.731,175.939z"/>
		<path id="XMLID_4043_" d="M341.239,239.485c0-14.745-17.857-25.864-41.538-25.864s-41.538,11.119-41.538,25.864    c0,0.004,0,0.009,0,0.013v19.278c0,14.745,17.857,25.865,41.537,25.865s41.538-11.12,41.538-25.865V239.485z M299.701,228.62    c15.953,0,26.538,6.539,26.538,10.864s-10.584,10.865-26.538,10.865c-15.945,0-26.527-6.533-26.537-10.858v-0.007    c0-0.001,0-0.003,0-0.004C273.17,235.156,283.753,228.62,299.701,228.62z M299.701,269.64c-14.771,0-24.932-5.605-26.358-9.869    c7.073,3.517,16.174,5.578,26.358,5.578c10.184,0,19.286-2.061,26.358-5.578C324.634,264.035,314.472,269.64,299.701,269.64z"/>
		<path id="XMLID_4047_" d="M400.169,309.005c23.68,0,41.537-11.119,41.537-25.864v-19.291c0-14.745-17.857-25.865-41.537-25.865    s-41.538,11.12-41.538,25.865v19.291C358.631,297.885,376.489,309.005,400.169,309.005z M400.169,294.005    c-14.771,0-24.933-5.605-26.359-9.869c7.073,3.517,16.174,5.578,26.359,5.578c10.184,0,19.285-2.061,26.358-5.578    C425.101,288.4,414.94,294.005,400.169,294.005z M400.169,252.985c15.953,0,26.537,6.54,26.537,10.865    s-10.584,10.864-26.537,10.864s-26.538-6.539-26.538-10.864S384.216,252.985,400.169,252.985z"/>
		<path id="XMLID_4052_" d="M299.701,365.573c23.68,0,41.538-11.119,41.538-25.864v-19.291c0-14.745-17.857-25.865-41.538-25.865    s-41.538,11.12-41.538,25.865c0,0.004,0,0.009,0,0.013v19.278C258.164,354.453,276.021,365.573,299.701,365.573z M299.701,350.573    c-14.771,0-24.932-5.605-26.358-9.869c7.073,3.517,16.174,5.578,26.358,5.578c10.184,0,19.286-2.061,26.359-5.578    C324.634,344.968,314.472,350.573,299.701,350.573z M299.701,309.552c15.953,0,26.538,6.54,26.538,10.865    s-10.584,10.864-26.538,10.864c-15.945,0-26.527-6.532-26.537-10.858v-0.007c0-0.001,0-0.003,0-0.004    C273.17,316.088,283.753,309.552,299.701,309.552z"/>
		<path id="XMLID_4057_" d="M358.631,364.073c0,14.745,17.857,25.864,41.538,25.864s41.537-11.119,41.537-25.864v-19.291    c0-14.745-17.857-25.864-41.537-25.864s-41.538,11.119-41.538,25.864V364.073z M400.169,374.937    c-14.771,0-24.933-5.605-26.359-9.869c7.073,3.517,16.174,5.578,26.359,5.578c10.184,0,19.285-2.061,26.358-5.578    C425.101,369.332,414.94,374.937,400.169,374.937z M400.169,333.917c15.953,0,26.537,6.539,26.537,10.864    s-10.584,10.864-26.537,10.864s-26.538-6.539-26.538-10.864S384.216,333.917,400.169,333.917z"/>
		<path id="XMLID_4061_" d="M28,388.5v0.938c0,4.142,3.358,7.5,7.5,7.5s7.5-3.358,7.5-7.5V388.5c0-4.142-3.358-7.5-7.5-7.5    S28,384.358,28,388.5z"/>
		<path id="XMLID_4062_" d="M49,388.5v0.938c0,4.142,3.358,7.5,7.5,7.5s7.5-3.358,7.5-7.5V388.5c0-4.142-3.358-7.5-7.5-7.5    S49,384.358,49,388.5z"/>
		<path id="XMLID_4063_" d="M463,218.438V217.5c0-4.142-3.358-7.5-7.5-7.5s-7.5,3.358-7.5,7.5v0.938c0,4.142,3.358,7.5,7.5,7.5    S463,222.58,463,218.438z"/>
		<path id="XMLID_4064_" d="M484,218.438V217.5c0-4.142-3.358-7.5-7.5-7.5s-7.5,3.358-7.5,7.5v0.938c0,4.142,3.358,7.5,7.5,7.5    S484,222.58,484,218.438z"/>
	</g>
</g>















</svg>
