<?xml version="1.0" encoding="iso-8859-1"?>
<!-- Generator: Adobe Illustrator 19.0.0, SVG Export Plug-In . SVG Version: 6.00 Build 0)  -->
<svg xmlns="http://www.w3.org/2000/svg" xmlns:xlink="http://www.w3.org/1999/xlink" version="1.1" id="Layer_1" x="0px" y="0px" viewBox="0 0 512 512" style="enable-background:new 0 0 512 512;" xml:space="preserve" width="512" height="512">
<g id="XMLID_812_">
	<g id="XMLID_813_">
		<polygon id="XMLID_816_" style="fill:#7A6CF7;" points="338.833,131.75 338.833,48.917 256,48.917 256,380.25 173.167,380.25     173.167,214.583 90.333,214.583 90.333,48.917 7.5,48.917 7.5,463.083 504.5,463.083 504.5,131.75   "/>
		<g id="XMLID_818_">
			<g id="XMLID_3470_">
				<g id="XMLID_3499_">
					<g id="XMLID_3500_">
						<rect id="XMLID_3506_" x="7.5" y="380.25" style="fill:#E4EAF6;" width="82.833" height="82.833"/>
						<rect id="XMLID_3505_" x="90.333" y="380.25" style="fill:#E4EAF6;" width="82.833" height="82.833"/>
						<rect id="XMLID_3504_" x="173.167" y="380.25" style="fill:#E4EAF6;" width="82.833" height="82.833"/>
						<rect id="XMLID_3503_" x="256" y="380.25" style="fill:#E4EAF6;" width="82.833" height="82.833"/>
						<rect id="XMLID_3502_" x="338.833" y="380.25" style="fill:#E4EAF6;" width="82.833" height="82.833"/>
						<rect id="XMLID_3501_" x="421.667" y="380.25" style="fill:#E4EAF6;" width="82.833" height="82.833"/>
					</g>
				</g>
				<g id="XMLID_3489_">
					<rect id="XMLID_3498_" x="7.5" y="297.417" style="fill:#E94141;" width="82.833" height="82.833"/>
					<rect id="XMLID_3497_" x="90.333" y="297.417" style="fill:#E94141;" width="82.833" height="82.833"/>
					<g id="XMLID_3494_">
						<rect id="XMLID_3495_" x="256" y="297.417" style="fill:#FFA511;" width="82.833" height="82.833"/>
					</g>
					<g id="XMLID_3492_">
						<rect id="XMLID_3493_" x="338.833" y="297.417" style="fill:#FFA511;" width="82.833" height="82.833"/>
					</g>
					<g id="XMLID_3490_">
						<rect id="XMLID_3491_" x="421.667" y="297.417" style="fill:#FFA511;" width="82.833" height="82.833"/>
					</g>
				</g>
				<g id="XMLID_3478_">
					<rect id="XMLID_3488_" x="7.5" y="214.583" style="fill:#E94141;" width="82.833" height="82.833"/>
					<rect id="XMLID_3487_" x="90.333" y="214.583" style="fill:#E94141;" width="82.833" height="82.833"/>
					<g id="XMLID_3485_">
						<rect id="XMLID_3486_" x="256" y="214.583" style="fill:#00F0F5;" width="82.833" height="82.833"/>
					</g>
					<g id="XMLID_3481_">
						<rect id="XMLID_3484_" x="338.833" y="214.583" style="fill:#00F0F5;" width="82.833" height="82.833"/>
					</g>
					<g id="XMLID_3479_">
						<rect id="XMLID_3480_" x="421.667" y="214.583" style="fill:#FFA511;" width="82.833" height="82.833"/>
					</g>
				</g>
				<g id="XMLID_3472_">
					<g id="XMLID_3473_">
						<g id="XMLID_3476_">
							<rect id="XMLID_3477_" x="338.833" y="131.75" style="fill:#00F0F5;" width="82.833" height="82.833"/>
						</g>
						<g id="XMLID_3474_">
							<rect id="XMLID_3475_" x="421.667" y="131.75" style="fill:#00F0F5;" width="82.833" height="82.833"/>
						</g>
					</g>
				</g>
			</g>
		</g>
	</g>
	<path id="XMLID_859_" d="M504.5,124.25H346.334v-21.161c0-4.143-3.357-7.5-7.5-7.5s-7.5,3.357-7.5,7.5v21.161H263.5V56.417h67.834   v12.494c0,4.143,3.357,7.5,7.5,7.5s7.5-3.357,7.5-7.5V48.917c0-4.143-3.357-7.5-7.5-7.5H256c-4.143,0-7.5,3.357-7.5,7.5V372.75   h-67.833V214.583c0-4.143-3.357-7.5-7.5-7.5H97.833V48.917c0-4.143-3.357-7.5-7.5-7.5H7.5c-4.143,0-7.5,3.357-7.5,7.5v192.994   c0,4.143,3.357,7.5,7.5,7.5s7.5-3.357,7.5-7.5v-19.828h67.833v67.834H15v-13.828c0-4.143-3.357-7.5-7.5-7.5s-7.5,3.357-7.5,7.5   v186.994c0,4.143,3.357,7.5,7.5,7.5h357.411c4.143,0,7.5-3.357,7.5-7.5s-3.357-7.5-7.5-7.5h-18.577V387.75h67.833v67.833h-15.078   c-4.143,0-7.5,3.357-7.5,7.5s3.357,7.5,7.5,7.5H504.5c4.143,0,7.5-3.357,7.5-7.5V131.75C512,127.607,508.643,124.25,504.5,124.25z    M331.333,289.917H263.5v-67.834h67.833V289.917z M263.5,304.917h67.833v67.833H263.5V304.917z M346.333,222.083h67.834v67.834   h-67.834V222.083z M497,289.917h-67.833v-67.834H497V289.917z M429.167,304.917H497v67.833h-67.833V304.917z M497,207.083h-67.833   V139.25H497V207.083z M414.167,207.083h-67.834V139.25h67.834V207.083z M331.333,139.25v67.833H263.5V139.25H331.333z    M97.833,304.917h67.834v67.833H97.833V304.917z M165.667,289.917H97.833v-67.834h67.834V289.917z M15,56.417h67.833v67.833H15   V56.417z M15,207.083V139.25h67.833v67.833H15z M82.833,304.917v67.833H15v-67.833H82.833z M15,387.75h67.833v67.833H15V387.75z    M97.833,387.75h67.834v67.833H97.833V387.75z M180.667,387.75H248.5v67.833h-67.833V387.75z M331.333,455.583H263.5V387.75h67.833   V455.583z M346.333,372.75v-67.833h67.834v67.833H346.333z M497,455.583h-67.833V387.75H497V455.583z"/>
</g>















</svg>
