<svg id="Layer_1" enable-background="new 0 0 512 512" height="512" viewBox="0 0 512 512" width="512" xmlns="http://www.w3.org/2000/svg"><g><path d="m474.5 504.5h-204c-16.569 0-30-13.431-30-30v-314c0-16.569 13.431-30 30-30h204c16.569 0 30 13.431 30 30v314c0 16.569-13.431 30-30 30z" fill="#ff5722"/><path d="m474.5 130.5h-30c16.569 0 30 13.431 30 30v314c0 16.569-13.431 30-30 30h30c16.569 0 30-13.431 30-30v-314c0-16.569-13.431-30-30-30z" fill="#f4511e"/><path d="m241.5 381.5h-204c-16.569 0-30-13.431-30-30v-314c0-16.569 13.431-30 30-30h204c16.569 0 30 13.431 30 30v314c0 16.569-13.431 30-30 30z" fill="#0477b0"/><path d="m241.5 7.5h-30c16.569 0 30 13.431 30 30v314c0 16.569-13.431 30-30 30h30c16.569 0 30-13.431 30-30v-314c0-16.569-13.431-30-30-30z" fill="#046ea3"/><path d="m358 443h-204c-16.569 0-30-13.431-30-30v-314c0-16.569 13.431-30 30-30h204c16.569 0 30 13.431 30 30v314c0 16.569-13.431 30-30 30z" fill="#fff7e6"/><path d="m358 69h-30c16.569 0 30 13.431 30 30v314c0 16.569-13.431 30-30 30h30c16.569 0 30-13.431 30-30v-314c0-16.569-13.431-30-30-30z" fill="#ebe3d4"/><path d="m282.202 363.226-26.202 30.74-26.202-30.74v-151.898h52.404z" fill="#0477b0"/><path d="m286 363.226-30 30.74-30-30.74v-151.898h60z" fill="#0477b0"/><path d="m256 211.328v182.638l30-30.74v-151.898z" fill="#046ea3"/><path d="m241 151.289h30v60.04h-30z" fill="#ffd740"/><circle cx="256" cy="141.034" fill="#ff5722" r="23"/><path d="m77.612 51.235-11.847-11.847c-3.184-3.184-8.346-3.184-11.531 0l-11.846 11.847c-3.184 3.184-3.184 8.346 0 11.531l11.847 11.847c3.184 3.184 8.346 3.184 11.531 0l11.847-11.847c3.183-3.185 3.183-8.347-.001-11.531z" fill="#ffd740"/><path d="m469.612 446.235-11.847-11.847c-3.184-3.184-8.346-3.184-11.531 0l-11.847 11.847c-3.184 3.184-3.184 8.346 0 11.531l11.847 11.847c3.184 3.184 8.346 3.184 11.531 0l11.847-11.847c3.184-3.185 3.184-8.347 0-11.531z" fill="#ffd740"/><g><path d="m504.5 199.577c4.143 0 7.5-3.358 7.5-7.5v-31.577c0-20.678-16.822-37.5-37.5-37.5h-79v-24c0-20.678-16.822-37.5-37.5-37.5h-37.82c-4.143 0-7.5 3.358-7.5 7.5s3.357 7.5 7.5 7.5h37.82c12.406 0 22.5 10.093 22.5 22.5v314c0 12.407-10.094 22.5-22.5 22.5h-204c-12.406 0-22.5-10.093-22.5-22.5v-314c0-12.407 10.094-22.5 22.5-22.5h133.975c4.143 0 7.5-3.358 7.5-7.5s-3.357-7.5-7.5-7.5h-8.975v-24c0-20.678-16.822-37.5-37.5-37.5h-204c-20.678 0-37.5 16.822-37.5 37.5v250.474c0 4.142 3.357 7.5 7.5 7.5s7.5-3.358 7.5-7.5v-250.474c0-12.407 10.094-22.5 22.5-22.5h204c12.406 0 22.5 10.093 22.5 22.5v24h-110c-20.678 0-37.5 16.822-37.5 37.5v275h-79c-12.406 0-22.5-10.093-22.5-22.5v-31.32c0-4.142-3.357-7.5-7.5-7.5s-7.5 3.358-7.5 7.5v31.32c0 20.678 16.822 37.5 37.5 37.5h79v24c0 20.678 16.822 37.5 37.5 37.5h79v24c0 20.678 16.822 37.5 37.5 37.5h204c20.678 0 37.5-16.822 37.5-37.5v-250.577c0-4.142-3.357-7.5-7.5-7.5s-7.5 3.358-7.5 7.5v250.577c0 12.407-10.094 22.5-22.5 22.5h-204c-12.406 0-22.5-10.093-22.5-22.5v-24h110c20.678 0 37.5-16.822 37.5-37.5v-275h79c12.406 0 22.5 10.093 22.5 22.5v31.577c0 4.142 3.357 7.5 7.5 7.5z"/><path d="m278.5 203.829v-42.228c4.965-5.427 8-12.649 8-20.567 0-16.818-13.683-30.5-30.5-30.5s-30.5 13.682-30.5 30.5c0 7.918 3.035 15.14 8 20.567v42.228h-27.038c-4.143 0-7.5 3.358-7.5 7.5s3.357 7.5 7.5 7.5h12.038v144.397c0 1.958.766 3.837 2.133 5.238l30 30.74c1.411 1.446 3.347 2.262 5.367 2.262s3.956-.815 5.367-2.262l30-30.74c1.367-1.401 2.133-3.281 2.133-5.238v-144.397h12.038c4.143 0 7.5-3.358 7.5-7.5s-3.357-7.5-7.5-7.5zm-22.5-78.295c8.547 0 15.5 6.953 15.5 15.5s-6.953 15.5-15.5 15.5-15.5-6.953-15.5-15.5 6.953-15.5 15.5-15.5zm-7.5 45.064c2.4.609 4.913.936 7.5.936s5.1-.326 7.5-.936v33.23h-15zm30 189.575-22.5 23.055-22.5-23.055v-141.344h7.471c.01 0 .019.001.029.001h30c.01 0 .019-.001.029-.001h7.471z"/><path d="m71.068 34.083c-6.103-6.1-16.031-6.102-22.138.001l-11.846 11.848c-6.102 6.103-6.102 16.033 0 22.136l11.848 11.847c3.052 3.051 7.06 4.577 11.068 4.577s8.018-1.526 11.069-4.577l11.847-11.847c6.102-6.103 6.102-16.033 0-22.136zm1.241 23.379-11.846 11.846c-.256.256-.671.255-.925 0l-11.847-11.846c-.255-.255-.255-.67 0-.924l11.846-11.846c.128-.128.296-.192.463-.192.168 0 .335.064.462.191l11.847 11.847c.254.254.254.67 0 .924z"/><path d="m463.068 429.083c-6.104-6.1-16.032-6.101-22.138.001l-11.847 11.848c-6.102 6.103-6.102 16.033 0 22.136l11.848 11.847c3.052 3.051 7.06 4.577 11.068 4.577s8.018-1.526 11.069-4.577l11.847-11.847c6.102-6.103 6.102-16.033 0-22.136zm1.241 23.379-11.846 11.846c-.257.256-.672.255-.925 0l-11.847-11.846c-.255-.255-.255-.67 0-.924l11.846-11.846c.128-.128.296-.192.463-.192.168 0 .335.064.462.191l11.847 11.847c.254.254.254.67 0 .924z"/></g></g></svg>