<?xml version="1.0" encoding="iso-8859-1"?>
<!-- Generator: Adobe Illustrator 19.0.0, SVG Export Plug-In . SVG Version: 6.00 Build 0)  -->
<svg xmlns="http://www.w3.org/2000/svg" xmlns:xlink="http://www.w3.org/1999/xlink" version="1.1" id="Layer_1" x="0px" y="0px" viewBox="0 0 512 512" style="enable-background:new 0 0 512 512;" xml:space="preserve" width="512" height="512">
<g id="XMLID_625_">
	<g id="XMLID_3721_">
		<g id="XMLID_3228_">
			<circle id="XMLID_3039_" style="fill:#C7CFE2;" cx="256" cy="255.734" r="248.5"/>
			<path id="XMLID_3331_" style="fill:#AFB9D2;" d="M256,491.234c-62.904,0-122.044-24.496-166.523-68.977     C44.996,377.778,20.5,318.639,20.5,255.734S44.996,133.69,89.477,89.211C133.956,44.73,193.096,20.234,256,20.234     S378.044,44.73,422.523,89.211C467.004,133.69,491.5,192.83,491.5,255.734s-24.496,122.044-68.977,166.523     C378.044,466.738,318.904,491.234,256,491.234z"/>
			<path id="XMLID_3318_" style="fill:#959CB3;" d="M256,475.726c-58.762,0-114.007-22.883-155.558-64.435     c-41.552-41.551-64.435-96.796-64.435-155.558s22.883-114.007,64.435-155.558C141.993,58.625,197.238,35.742,256,35.742     s114.007,22.883,155.558,64.435c41.552,41.551,64.435,96.796,64.435,155.558s-22.883,114.007-64.435,155.558     C370.007,452.844,314.762,475.726,256,475.726z"/>
			<circle id="XMLID_2516_" style="fill:#52EA28;" cx="256" cy="255.734" r="206.993"/>
			<path id="XMLID_1508_" style="fill:#3EB500;" d="M454.802,305.707h-18.884v-99.945h18.884c4.143,0,7.5-3.357,7.5-7.5     s-3.357-7.5-7.5-7.5h-18.884v-48.307c0-4.143-3.357-7.5-7.5-7.5s-7.5,3.357-7.5,7.5v48.307h-99.945V90.816h49.973     c4.143,0,7.5-3.357,7.5-7.5s-3.357-7.5-7.5-7.5h-49.973V57.614c0-4.143-3.357-7.5-7.5-7.5s-7.5,3.357-7.5,7.5v18.202h-99.945     V57.614c0-4.143-3.357-7.5-7.5-7.5s-7.5,3.357-7.5,7.5v18.202h-49.973c-4.143,0-7.5,3.357-7.5,7.5s3.357,7.5,7.5,7.5h49.973     v99.945H91.082v-48.307c0-4.143-3.357-7.5-7.5-7.5s-7.5,3.357-7.5,7.5v48.307H57.198c-4.143,0-7.5,3.357-7.5,7.5     s3.357,7.5,7.5,7.5h18.884v99.945H57.198c-4.143,0-7.5,3.357-7.5,7.5s3.357,7.5,7.5,7.5h18.884v46.367c0,4.143,3.357,7.5,7.5,7.5     s7.5-3.357,7.5-7.5v-46.367h99.945v99.945h-49.973c-4.143,0-7.5,3.357-7.5,7.5s3.357,7.5,7.5,7.5h49.973v19.717     c0,4.143,3.357,7.5,7.5,7.5s7.5-3.357,7.5-7.5v-19.717h99.945v19.717c0,4.143,3.357,7.5,7.5,7.5s7.5-3.357,7.5-7.5v-19.717     h49.973c4.143,0,7.5-3.357,7.5-7.5s-3.357-7.5-7.5-7.5h-49.973v-99.945h99.945v46.367c0,4.143,3.357,7.5,7.5,7.5     s7.5-3.357,7.5-7.5v-46.367h18.884c4.143,0,7.5-3.357,7.5-7.5S458.944,305.707,454.802,305.707z M206.027,90.816h99.945v99.945     h-99.945V90.816z M305.973,205.762v99.945h-99.945v-99.945H305.973z M91.082,305.707v-99.945h99.945v99.945H91.082z      M305.973,420.652h-99.945v-99.945h99.945V420.652z M320.973,305.707v-99.945h99.945v99.945H320.973z"/>
		</g>
		<circle id="XMLID_3376_" style="fill:#C7CFE2;" cx="313.473" cy="370.68" r="25.667"/>
		<g id="XMLID_3637_">
			<circle id="XMLID_3526_" style="fill:#E94141;" cx="125.473" cy="198.262" r="20.473"/>
		</g>
		<g id="XMLID_3666_">
			<circle id="XMLID_3668_" style="fill:#E94141;" cx="198.527" cy="148.734" r="20.473"/>
		</g>
		<g id="XMLID_3686_">
			<circle id="XMLID_3688_" style="fill:#E94141;" cx="160.198" cy="313.207" r="20.473"/>
		</g>
		<g id="XMLID_2739_">
			<polygon id="XMLID_2575_" style="fill:#0086F4;" points="284.969,224.766 204.892,260.564 249.17,304.842    "/>
		</g>
		<g id="XMLID_3512_">
			<polygon id="XMLID_2846_" style="fill:#FFDC13;" points="370.945,220.21 349.281,231.6 353.418,207.476 335.891,190.391      360.113,186.872 370.945,164.923 381.778,186.872 406,190.391 388.473,207.476 392.61,231.6    "/>
		</g>
	</g>
	<g id="XMLID_626_">
		<g id="XMLID_627_">
			<path id="XMLID_632_" d="M27.36,360.713c-2.914,0-5.686-1.708-6.901-4.558C6.883,324.355,0,290.569,0,255.734     c0-65.131,24.479-127.192,68.928-174.751C113.156,33.66,172.979,5.046,237.373,0.413c4.121-0.297,7.722,2.812,8.019,6.942     c0.298,4.131-2.811,7.722-6.942,8.019c-60.611,4.361-116.924,31.299-158.563,75.852C38.044,135.996,15,194.42,15,255.734     c0,32.799,6.479,64.605,19.254,94.532c1.627,3.81-0.144,8.216-3.953,9.842C29.341,360.518,28.342,360.713,27.36,360.713z"/>
		</g>
		<g id="XMLID_640_">
			<path id="XMLID_641_" d="M426.208,444.273c-1.997,0-3.989-0.792-5.465-2.361c-2.838-3.018-2.692-7.764,0.324-10.602     c23.726-22.314,42.396-48.664,55.497-78.317C490.124,322.297,497,289.574,497,255.734c0-61.652-23.266-120.312-65.512-165.17     c-42.063-44.665-98.842-71.411-159.878-75.313c-4.134-0.264-7.271-3.829-7.006-7.963c0.264-4.133,3.813-7.277,7.963-7.006     c64.844,4.145,125.161,32.556,169.84,79.998C487.285,127.933,512,190.244,512,255.734c0,35.94-7.306,70.702-21.715,103.32     c-13.915,31.499-33.746,59.485-58.94,83.182C429.896,443.599,428.05,444.273,426.208,444.273z"/>
		</g>
		<g id="XMLID_642_">
			<path id="XMLID_644_" d="M256,511.734c-44.663,0-88.633-11.677-127.157-33.768c-37.359-21.424-68.981-52.183-91.446-88.952     c-2.159-3.534-1.045-8.15,2.49-10.311c3.534-2.156,8.15-1.045,10.311,2.49c21.153,34.624,50.929,63.587,86.107,83.76     c36.256,20.791,77.646,31.78,119.695,31.78c50.271,0,98.438-15.323,139.297-44.313c3.381-2.397,8.061-1.601,10.457,1.777     s1.601,8.06-1.777,10.457C360.567,495.454,309.398,511.734,256,511.734z"/>
		</g>
		<g id="XMLID_3552_">
			<path id="XMLID_646_" d="M125.473,226.234c-15.424,0-27.973-12.549-27.973-27.973s12.549-27.973,27.973-27.973     s27.973,12.549,27.973,27.973S140.896,226.234,125.473,226.234z M125.473,185.289c-7.153,0-12.973,5.819-12.973,12.973     s5.819,12.973,12.973,12.973s12.973-5.819,12.973-12.973S132.626,185.289,125.473,185.289z"/>
		</g>
		<g id="XMLID_3667_">
			<path id="XMLID_649_" d="M198.527,176.707c-15.424,0-27.973-12.549-27.973-27.973s12.549-27.973,27.973-27.973     S226.5,133.31,226.5,148.734S213.951,176.707,198.527,176.707z M198.527,135.762c-7.153,0-12.973,5.819-12.973,12.973     s5.819,12.973,12.973,12.973s12.973-5.819,12.973-12.973S205.681,135.762,198.527,135.762z"/>
		</g>
		<g id="XMLID_3687_">
			<path id="XMLID_652_" d="M160.198,341.18c-15.424,0-27.973-12.549-27.973-27.973s12.549-27.973,27.973-27.973     s27.973,12.549,27.973,27.973S175.622,341.18,160.198,341.18z M160.198,300.234c-7.153,0-12.973,5.819-12.973,12.973     s5.819,12.973,12.973,12.973s12.973-5.819,12.973-12.973S167.352,300.234,160.198,300.234z"/>
		</g>
		<g id="XMLID_3377_">
			<path id="XMLID_655_" d="M313.473,403.847c-18.288,0-33.167-14.879-33.167-33.167s14.879-33.167,33.167-33.167     s33.167,14.879,33.167,33.167S331.761,403.847,313.473,403.847z M313.473,352.513c-10.018,0-18.167,8.149-18.167,18.167     s8.149,18.167,18.167,18.167s18.167-8.149,18.167-18.167S323.49,352.513,313.473,352.513z"/>
		</g>
		<g id="XMLID_2579_">
			<path id="XMLID_658_" d="M249.17,312.342c-1.971,0-3.884-0.777-5.304-2.196l-44.277-44.277c-1.745-1.746-2.52-4.237-2.071-6.665     c0.447-2.427,2.061-4.479,4.314-5.485l80.076-35.799c2.839-1.269,6.164-0.655,8.364,1.543c2.198,2.199,2.813,5.526,1.543,8.364     l-35.799,80.076c-1.007,2.254-3.059,3.867-5.485,4.314C250.078,312.301,249.622,312.342,249.17,312.342z M217.899,262.965     l28.87,28.87l23.342-52.212L217.899,262.965z"/>
		</g>
		<g id="XMLID_3453_">
			<path id="XMLID_661_" d="M392.609,239.1c-1.193,0-2.392-0.284-3.489-0.861l-18.175-9.555l-18.175,9.555     c-2.528,1.329-5.59,1.105-7.898-0.571c-2.31-1.678-3.467-4.521-2.983-7.335l3.471-20.238l-14.704-14.332     c-2.044-1.993-2.779-4.974-1.897-7.688c0.882-2.716,3.229-4.694,6.055-5.104l20.32-2.953l9.087-18.413     c1.264-2.56,3.871-4.181,6.726-4.181s5.462,1.621,6.726,4.181l9.088,18.413l20.319,2.953c2.825,0.41,5.173,2.389,6.055,5.104     c0.882,2.715,0.146,5.695-1.897,7.688l-14.704,14.332l3.471,20.238c0.483,2.813-0.674,5.657-2.983,7.335     C395.712,238.617,394.165,239.1,392.609,239.1z M370.945,212.711c1.199,0,2.397,0.287,3.49,0.861l8.214,4.318l-1.568-9.146     c-0.418-2.433,0.389-4.915,2.156-6.639l6.646-6.477l-9.183-1.335c-2.443-0.354-4.555-1.889-5.647-4.103l-4.107-8.322     l-4.106,8.322c-1.093,2.214-3.204,3.748-5.647,4.103l-9.184,1.335l6.646,6.477c1.768,1.724,2.574,4.206,2.156,6.639l-1.568,9.146     l8.214-4.318C368.548,212.998,369.746,212.711,370.945,212.711z"/>
		</g>
		<g id="XMLID_2980_">
			<path id="XMLID_665_" d="M256,470.226c-57.293,0-111.156-22.312-151.669-62.823c-40.512-40.513-62.823-94.376-62.823-151.669     s22.312-111.156,62.823-151.669C144.844,63.554,198.707,41.242,256,41.242s111.156,22.312,151.669,62.823     c40.512,40.513,62.823,94.376,62.823,151.669s-22.312,111.156-62.823,151.669C367.156,447.915,313.293,470.226,256,470.226z      M256,56.242c-110,0-199.492,89.492-199.492,199.492S146,455.226,256,455.226s199.492-89.492,199.492-199.492     S366,56.242,256,56.242z"/>
		</g>
	</g>
</g>















</svg>
