<?xml version="1.0" encoding="iso-8859-1"?>
<!-- Generator: Adobe Illustrator 19.0.0, SVG Export Plug-In . SVG Version: 6.00 Build 0)  -->
<svg xmlns="http://www.w3.org/2000/svg" xmlns:xlink="http://www.w3.org/1999/xlink" version="1.1" id="Layer_1" x="0px" y="0px" viewBox="0 0 511.989 511.989" style="enable-background:new 0 0 511.989 511.989;" xml:space="preserve" width="512" height="512">
<g id="XMLID_419_">
	<g id="XMLID_420_">
		<path id="XMLID_1105_" style="fill:#AFB9D2;" d="M496.744,116.03c0,267.22-240.75,388.47-240.75,388.47    S15.244,383.25,15.244,116.03c0-6.51,0.17-12.96,0.52-19.36c42.81-3.04,77.75-34.53,86.05-75.67c0.89-4.4,1.47-8.9,1.73-13.5    h304.9c0.26,4.6,0.84,9.1,1.73,13.5c8.3,41.14,43.24,72.63,86.05,75.67C496.574,103.07,496.744,109.52,496.744,116.03z"/>
		<path id="XMLID_421_" style="fill:#C7CFE2;" d="M410.174,21h-308.36c0.89-4.4,1.47-8.9,1.73-13.5h304.9    C408.704,12.1,409.284,16.6,410.174,21z"/>
		<path id="XMLID_1672_" style="fill:#959CB3;" d="M249.192,479.838c-20.527-12.605-60.878-40.076-100.491-82.427    c-33.041-35.318-59.312-74.071-78.082-115.181l-0.218-0.48c-0.245-0.538-0.488-1.074-0.725-1.615l-0.001-0.002    c-3.76-8.588,2.532-18.212,11.907-18.212h13.865L82.296,212H56.773c-6.142,0-11.445-4.299-12.717-10.307l0-0.002    c-5.16-24.389-8.026-49.639-8.519-75.049v0c-0.111-5.719,3.529-10.839,8.968-12.612l0,0c35.2-11.474,62.888-39.403,74.064-74.713    l0-0.001c1.71-5.404,6.725-9.076,12.392-9.076h46.023c4.811,0,9.229,2.658,11.483,6.909l8.846,16.681h117.357l8.846-16.681    c2.254-4.251,6.672-6.909,11.483-6.909h46.023c5.668,0,10.682,3.672,12.392,9.076l0,0.001    c11.177,35.31,38.864,63.239,74.064,74.713l0,0c5.439,1.772,9.08,6.892,8.968,12.612v0c-0.492,25.41-3.358,50.66-8.519,75.049    l0,0.002c-1.272,6.008-6.575,10.307-12.717,10.307h-25.523l-13.15,49.92h13.865c9.375,0,15.667,9.623,11.907,18.212l-0.001,0.002    c-0.236,0.542-0.479,1.077-0.725,1.615l-0.203,0.447c-18.786,41.146-45.058,79.898-78.098,115.216    c-39.612,42.351-79.963,69.821-100.49,82.426l-6.803,4.177L249.192,479.838z"/>
		<path id="XMLID_881_" style="fill:#0086F4;" d="M419.674,199l-20,75.92h30.73c-0.28,0.64-0.57,1.27-0.86,1.91    c-18.19,39.84-43.68,77.42-75.75,111.7c-38.33,40.98-77.2,67.58-97.8,80.23c-20.6-12.65-59.47-39.25-97.8-80.23    c-32.07-34.28-57.56-71.86-75.75-111.7c-0.29-0.64-0.58-1.27-0.86-1.91h30.73l-20-75.92h-35.54c-5-23.63-7.76-47.87-8.24-72.61    c39.15-12.76,70.01-43.91,82.43-83.15h46.02l12.51,23.59h133l12.51-23.59h46.02c12.42,39.24,43.28,70.39,82.43,83.15    c-0.48,24.74-3.24,48.98-8.24,72.61H419.674z"/>
		<path id="XMLID_1614_" style="fill:#0064DB;" d="M430.404,274.92c-0.28,0.64-0.57,1.27-0.86,1.91    c-18.19,39.84-43.68,77.42-75.75,111.7c-38.33,40.98-77.2,67.58-97.8,80.23c-20.6-12.65-59.47-39.25-97.8-80.23    c-32.07-34.28-57.56-71.86-75.75-111.7c-0.29-0.64-0.58-1.27-0.86-1.91h17.83c16,27.72,35.69,54.11,58.78,78.8    c38.33,40.98,77.2,67.58,97.8,80.23c20.6-12.65,59.47-39.25,97.8-80.23c23.09-24.69,42.78-51.08,58.78-78.8H430.404z"/>
		<g id="XMLID_422_">
			<g id="XMLID_581_">
				<g id="XMLID_1028_">
					<polygon id="XMLID_577_" style="fill:#FFDC13;" points="238.087,165.937 143.717,138.603 143.717,105.882 238.087,133.215             "/>
				</g>
				<g id="XMLID_1546_">
					<polygon id="XMLID_1587_" style="fill:#E94141;" points="238.087,189.685 169.717,169.882 169.717,202.603 238.087,222.406             "/>
				</g>
				<g id="XMLID_1563_">
					<polygon id="XMLID_1586_" style="fill:#E94141;" points="238.087,245.575 197.717,233.882 197.717,266.603 238.087,278.296             "/>
				</g>
				<g id="XMLID_939_">
					<polygon id="XMLID_1585_" style="fill:#E94141;" points="238.087,303.782 217.717,297.882 217.717,330.603 238.087,336.503             "/>
				</g>
			</g>
			<g id="XMLID_943_">
				<g id="XMLID_1064_">
					<polygon id="XMLID_1136_" style="fill:#FFDC13;" points="273.902,165.937 368.272,138.603 368.272,105.882 273.902,133.215             "/>
				</g>
				<g id="XMLID_1047_">
					<polygon id="XMLID_1049_" style="fill:#E94141;" points="273.902,189.685 342.272,169.882 342.272,202.603 273.902,222.406             "/>
				</g>
				<g id="XMLID_1025_">
					<polygon id="XMLID_1045_" style="fill:#E94141;" points="273.902,245.575 314.272,233.882 314.272,266.603 273.902,278.296             "/>
				</g>
				<g id="XMLID_945_">
					<polygon id="XMLID_965_" style="fill:#E94141;" points="273.902,303.782 294.272,297.882 294.272,330.603 273.902,336.503             "/>
				</g>
			</g>
		</g>
		<g id="XMLID_423_">
			<polygon id="XMLID_1600_" style="fill:#AFB9D2;" points="227.661,372.785 255.994,405.003 284.328,372.785    "/>
		</g>
	</g>
	<g id="XMLID_424_">
		<path id="XMLID_425_" d="M455.214,206.5c3.544,0,6.604-2.48,7.338-5.947c5.089-24.05,7.915-48.953,8.401-74.018    c0.063-3.3-2.037-6.254-5.175-7.276c-36.883-12.021-65.894-41.285-77.604-78.281c-0.986-3.118-3.88-5.237-7.15-5.237h-46.021    c-2.776,0-5.325,1.533-6.626,3.986L317.983,59.33H194.006l-10.396-19.604c-1.301-2.453-3.85-3.986-6.626-3.986h-46.021    c-3.271,0-6.164,2.119-7.15,5.237c-11.71,36.996-40.721,66.26-77.604,78.281c-3.138,1.022-5.238,3.977-5.175,7.276    c0.486,25.064,3.313,49.968,8.401,74.018c0.734,3.467,3.794,5.947,7.338,5.947h29.76l16.049,60.92H81.584    c-7.338,0-8.339,7.315-5.962,12.525c16.53,36.204,39.077,70.709,67.014,102.555c2.731,3.112,7.471,3.423,10.584,0.691    s3.424-7.47,0.691-10.584c-24.723-28.183-45.059-58.488-60.533-90.188h18.937c2.326,0,4.521-1.079,5.94-2.922    s1.904-4.239,1.313-6.488l-20-75.92c-0.868-3.294-3.847-5.59-7.253-5.59H62.905c-3.796-19.532-6.054-39.608-6.729-59.837    c37.208-13.872,66.632-43.574,80.162-80.923h36.135l10.396,19.604c1.301,2.453,3.85,3.986,6.626,3.986h133    c2.776,0,5.325-1.533,6.626-3.986l10.396-19.604h36.135c13.53,37.349,42.954,67.051,80.162,80.923    c-0.676,20.229-2.934,40.305-6.729,59.837h-29.409c-3.406,0-6.385,2.296-7.253,5.59l-20,75.92    c-0.592,2.249-0.107,4.646,1.313,6.488s3.614,2.922,5.94,2.922h18.937c-17.506,35.871-41.12,69.803-70.294,100.987    c-35.581,38.04-71.745,63.532-92.321,76.518c-17.387-10.978-47.7-32.053-78.992-62.852c-2.951-2.904-7.698-2.869-10.606,0.085    c-2.905,2.952-2.867,7.7,0.085,10.606c34.857,34.308,68.586,56.945,85.588,67.387c2.369,1.455,5.479,1.454,7.85-0.001    c20.292-12.461,60.183-39.619,99.352-81.496c32.634-34.882,58.572-73.14,77.105-113.73c2.376-5.208,1.345-12.504-5.972-12.504    h-20.999l16.049-60.92H455.214z"/>
		<path id="XMLID_426_" d="M503.711,96.264c-0.207-3.772-3.188-6.803-6.957-7.071c-43.644-3.106-78.388-38.406-80.818-82.108    C415.715,3.109,412.428,0,408.447,0H238.083c-4.143,0-7.5,3.357-7.5,7.5s3.357,7.5,7.5,7.5H401.6    c5.742,45.704,41.769,82.184,87.42,88.46c0.146,4.133,0.221,8.34,0.221,12.571c0,37.356-4.87,73.992-14.476,108.89    c-1.099,3.993,1.248,8.122,5.241,9.222c0.666,0.183,1.336,0.271,1.994,0.271c3.292,0,6.312-2.185,7.228-5.512    c9.962-36.194,15.013-74.169,15.013-112.87C504.24,109.328,504.062,102.678,503.711,96.264z"/>
		<path id="XMLID_427_" d="M473.568,254.063c-3.884-1.451-8.201,0.524-9.649,4.403c-31.477,84.328-87.155,144.854-128.32,180.781    c-37.066,32.349-69.363,51.133-79.604,56.753c-13.373-7.338-64.331-37.124-114.92-90.68    c-34.385-36.4-61.771-76.438-81.397-119.001c-24.504-53.137-36.928-110.43-36.928-170.288c0-4.231,0.074-8.438,0.221-12.571    c45.651-6.276,81.678-42.756,87.42-88.46h93.517c4.143,0,7.5-3.357,7.5-7.5s-3.357-7.5-7.5-7.5H103.541    c-3.98,0-7.268,3.109-7.488,7.084c-2.431,43.702-37.175,79.002-80.818,82.108c-3.77,0.269-6.75,3.299-6.957,7.071    c-0.351,6.414-0.529,13.064-0.529,19.768c0,62.043,12.888,121.449,38.306,176.569c20.311,44.044,48.61,85.434,84.115,123.021    c60.396,63.937,119.946,94.315,122.451,95.577c2.094,1.054,4.654,1.054,6.748,0c1.594-0.803,39.578-20.129,85.73-60.334    c42.599-37.109,100.229-99.702,132.872-187.152C479.419,259.831,477.447,255.511,473.568,254.063z"/>
		<path id="XMLID_428_" d="M240.174,126.012l-94.37-27.334c-2.265-0.654-4.706-0.209-6.593,1.208    c-1.885,1.417-2.994,3.638-2.994,5.996v32.722c0,3.339,2.207,6.275,5.413,7.204L236,173.141c0.687,0.198,1.389,0.296,2.087,0.296    c1.606,0,3.191-0.517,4.506-1.504c1.885-1.417,2.994-3.638,2.994-5.996v-32.721C245.587,129.877,243.38,126.94,240.174,126.012z     M230.587,155.956l-79.37-22.988v-17.105l79.37,22.989V155.956z"/>
		<path id="XMLID_431_" d="M167.63,209.808L236,229.61c0.687,0.198,1.389,0.296,2.087,0.296c1.606,0,3.191-0.517,4.506-1.504    c1.885-1.417,2.994-3.638,2.994-5.996v-32.722c0-3.339-2.207-6.275-5.413-7.204l-68.37-19.803    c-2.266-0.653-4.707-0.208-6.593,1.208c-1.885,1.417-2.994,3.638-2.994,5.996v32.722    C162.217,205.942,164.424,208.879,167.63,209.808z M177.217,179.862l53.37,15.458v17.105l-53.37-15.458V179.862z"/>
		<path id="XMLID_434_" d="M238.087,285.796c1.606,0,3.191-0.517,4.506-1.504c1.885-1.417,2.994-3.638,2.994-5.996v-32.721    c0-3.339-2.207-6.275-5.413-7.204l-40.37-11.693c-2.266-0.653-4.707-0.208-6.593,1.208c-1.885,1.417-2.994,3.638-2.994,5.996    v32.722c0,3.339,2.207,6.275,5.413,7.204L236,285.5C236.687,285.698,237.389,285.796,238.087,285.796z M230.587,268.315    l-25.37-7.348v-17.105l25.37,7.349V268.315z"/>
		<path id="XMLID_437_" d="M215.631,337.808l20.37,5.899c0.686,0.198,1.388,0.296,2.086,0.296c1.606,0,3.191-0.517,4.506-1.504    c1.885-1.417,2.994-3.638,2.994-5.996v-32.721c0-3.339-2.207-6.275-5.413-7.204l-20.37-5.9c-2.265-0.654-4.707-0.208-6.593,1.208    c-1.885,1.417-2.994,3.638-2.994,5.996v32.722C210.217,333.942,212.424,336.879,215.631,337.808z M225.217,307.862l5.37,1.556    v17.104l-5.37-1.555V307.862z"/>
		<path id="XMLID_440_" d="M269.396,171.933c1.314,0.987,2.899,1.504,4.506,1.504c0.698,0,1.4-0.098,2.087-0.296l94.37-27.333    c3.206-0.929,5.413-3.865,5.413-7.204v-32.722c0-2.358-1.109-4.579-2.994-5.996s-4.326-1.862-6.593-1.208l-94.37,27.334    c-3.206,0.929-5.413,3.865-5.413,7.204v32.721C266.402,168.295,267.511,170.516,269.396,171.933z M281.402,138.852l79.37-22.989    v17.105l-79.37,22.988V138.852z"/>
		<path id="XMLID_443_" d="M266.402,222.406c0,2.358,1.109,4.579,2.994,5.996c1.314,0.987,2.899,1.504,4.506,1.504    c0.698,0,1.4-0.098,2.087-0.296l68.37-19.803c3.206-0.929,5.413-3.865,5.413-7.204v-32.722c0-2.358-1.109-4.579-2.994-5.996    c-1.886-1.416-4.326-1.861-6.593-1.208l-68.37,19.803c-3.206,0.929-5.413,3.865-5.413,7.204V222.406z M281.402,195.32    l53.37-15.458v17.105l-53.37,15.458V195.32z"/>
		<path id="XMLID_446_" d="M266.402,278.296c0,2.358,1.109,4.579,2.994,5.996c1.314,0.987,2.899,1.504,4.506,1.504    c0.698,0,1.4-0.098,2.087-0.296l40.37-11.692c3.206-0.929,5.413-3.865,5.413-7.204v-32.722c0-2.358-1.109-4.579-2.994-5.996    c-1.886-1.416-4.325-1.861-6.593-1.208l-40.37,11.693c-3.206,0.929-5.413,3.865-5.413,7.204V278.296z M281.402,251.211    l25.37-7.349v17.105l-25.37,7.348V251.211z"/>
		<path id="XMLID_450_" d="M266.402,336.503c0,2.358,1.109,4.579,2.994,5.996c1.314,0.987,2.899,1.504,4.506,1.504    c0.698,0,1.4-0.098,2.086-0.296l20.37-5.899c3.207-0.929,5.414-3.865,5.414-7.204v-32.722c0-2.358-1.109-4.579-2.994-5.996    c-1.886-1.416-4.326-1.862-6.593-1.208l-20.37,5.9c-3.206,0.929-5.413,3.865-5.413,7.204V336.503z M281.402,309.418l5.37-1.556    v17.105l-5.37,1.555V309.418z"/>
		<path id="XMLID_454_" d="M220.827,369.694c-1.214,2.685-0.743,5.831,1.202,8.044l28.333,32.218    c1.424,1.619,3.476,2.547,5.632,2.547s4.208-0.928,5.632-2.547l28.333-32.218c1.945-2.213,2.416-5.359,1.202-8.044    c-1.215-2.685-3.888-4.409-6.834-4.409h-56.666C224.715,365.285,222.042,367.01,220.827,369.694z M267.744,380.285l-11.75,13.36    l-11.75-13.36H267.744z"/>
	</g>
</g>















</svg>
