<?xml version="1.0" encoding="iso-8859-1"?>
<!-- Generator: Adobe Illustrator 19.0.0, SVG Export Plug-In . SVG Version: 6.00 Build 0)  -->
<svg xmlns="http://www.w3.org/2000/svg" xmlns:xlink="http://www.w3.org/1999/xlink" version="1.1" id="Layer_1" x="0px" y="0px" viewBox="0 0 512 512" style="enable-background:new 0 0 512 512;" xml:space="preserve" width="512" height="512">
<g id="XMLID_3213_">
	<g id="XMLID_3214_">
		<g id="XMLID_3216_">
			<g id="XMLID_3217_">
				<rect id="XMLID_3304_" x="239.871" y="185.069" style="fill:#AFB9D2;" width="28.435" height="70.424"/>
			</g>
		</g>
		<rect id="XMLID_3224_" x="7.5" y="231.152" style="fill:#E4EAF6;" width="497" height="204.865"/>
		<rect id="XMLID_3238_" x="7.5" y="423.191" style="fill:#C7CFE2;" width="497" height="12.826"/>
		<path id="XMLID_3245_" style="fill:#C7CFE2;" d="M30.708,405.877V261.292c0-6.627,5.373-12,12-12h144.585c6.627,0,12,5.373,12,12    v144.585c0,6.627-5.373,12-12,12H42.708C36.08,417.877,30.708,412.505,30.708,405.877z"/>
		<rect id="XMLID_3271_" x="43.708" y="262.292" style="fill:#48709B;" width="142.585" height="142.585"/>
		<rect id="XMLID_3276_" x="43.708" y="262.292" style="fill:#629ACC;" width="142.585" height="12.899"/>
		<rect id="XMLID_3279_" x="43.708" y="391.978" style="fill:#304E75;" width="142.585" height="12.899"/>
		<path id="XMLID_3288_" style="fill:#C7CFE2;" d="M312.708,405.877V261.292c0-6.627,5.373-12,12-12h144.585c6.627,0,12,5.373,12,12    v144.585c0,6.627-5.373,12-12,12H324.708C318.08,417.877,312.708,412.505,312.708,405.877z"/>
		<rect id="XMLID_3303_" x="325.708" y="262.292" style="fill:#48709B;" width="142.585" height="142.585"/>
		<rect id="XMLID_3307_" x="325.708" y="262.292" style="fill:#629ACC;" width="142.585" height="12.899"/>
		<rect id="XMLID_3316_" x="325.708" y="391.978" style="fill:#304E75;" width="142.585" height="12.899"/>
		<polygon id="XMLID_3317_" style="fill:#E94141;" points="159.894,317.758 130.827,317.758 130.827,288.691 99.173,288.691     99.173,317.758 70.107,317.758 70.107,349.412 99.173,349.412 99.173,378.478 130.827,378.478 130.827,349.412 159.894,349.412       "/>
		<g id="XMLID_3320_">
			<g id="XMLID_3322_">
				<g id="XMLID_3330_">
					<circle id="XMLID_3334_" style="fill:#E94141;" cx="369.667" cy="307.329" r="14.833"/>
				</g>
				<g id="XMLID_3335_">
					<circle id="XMLID_3345_" style="fill:#E4EAF6;" cx="424.333" cy="307.329" r="14.833"/>
				</g>
			</g>
			<g id="XMLID_3349_">
				<g id="XMLID_3350_">
					<circle id="XMLID_3353_" style="fill:#E4EAF6;" cx="369.667" cy="357.996" r="14.833"/>
				</g>
				<g id="XMLID_3358_">
					<circle id="XMLID_3359_" style="fill:#E94141;" cx="424.333" cy="357.996" r="14.833"/>
				</g>
			</g>
		</g>
	</g>
	<g id="XMLID_3361_">
		<path id="XMLID_3362_" d="M504.5,223.652h-93.411c-4.142,0-7.5,3.358-7.5,7.5s3.358,7.5,7.5,7.5H497v189.865H283.089    c-4.142,0-7.5,3.358-7.5,7.5s3.358,7.5,7.5,7.5H504.5c4.142,0,7.5-3.358,7.5-7.5V231.152    C512,227.01,508.642,223.652,504.5,223.652z"/>
		<path id="XMLID_3364_" d="M248.911,428.518H15V238.652h361.911c4.142,0,7.5-3.358,7.5-7.5s-3.358-7.5-7.5-7.5H275.806v-38.583    c0-4.142-3.358-7.5-7.5-7.5h-6.718v-20.617c0-13.212-10.749-23.962-23.961-23.962H61.667c-4.941,0-8.961-4.02-8.961-8.961    s4.02-8.962,8.961-8.962h176.629c12.843,0,23.292-10.449,23.292-23.292c0-12.844-10.449-23.292-23.292-23.292H46.847    c-4.142,0-7.5,3.358-7.5,7.5s3.358,7.5,7.5,7.5h191.449c4.572,0,8.292,3.72,8.292,8.292s-3.72,8.292-8.292,8.292H61.667    c-13.212,0-23.961,10.749-23.961,23.962c0,13.212,10.749,23.961,23.961,23.961h175.96c4.941,0,8.961,4.021,8.961,8.962v20.617    h-6.717c-4.142,0-7.5,3.358-7.5,7.5v38.583H7.5c-4.142,0-7.5,3.358-7.5,7.5v204.865c0,4.142,3.358,7.5,7.5,7.5h241.411    c4.142,0,7.5-3.358,7.5-7.5S253.053,428.518,248.911,428.518z M247.371,192.569h13.435v31.083h-13.435V192.569z"/>
		<path id="XMLID_3371_" d="M94.089,412.377h92.204c4.142,0,7.5-3.358,7.5-7.5V262.292c0-4.142-3.358-7.5-7.5-7.5H43.708    c-4.142,0-7.5,3.358-7.5,7.5v142.585c0,4.142,3.358,7.5,7.5,7.5h16.204c4.142,0,7.5-3.358,7.5-7.5s-3.358-7.5-7.5-7.5h-8.704    V269.792h127.585v127.585H94.089c-4.142,0-7.5,3.358-7.5,7.5S89.947,412.377,94.089,412.377z"/>
		<path id="XMLID_3372_" d="M318.208,262.292v142.585c0,4.142,3.358,7.5,7.5,7.5h142.585c4.142,0,7.5-3.358,7.5-7.5V262.292    c0-4.142-3.358-7.5-7.5-7.5H325.708C321.565,254.792,318.208,258.15,318.208,262.292z M333.208,269.792h127.585v127.585H333.208    V269.792z"/>
		<path id="XMLID_3375_" d="M276.625,354.577c2.516-3.291,1.888-7.998-1.403-10.513l-29.333-22.426    c-3.29-2.516-7.997-1.888-10.513,1.403c-2.516,3.291-1.888,7.998,1.403,10.513l29.333,22.426c1.36,1.04,2.961,1.542,4.55,1.542    C272.917,357.522,275.148,356.508,276.625,354.577z"/>
		<path id="XMLID_3380_" d="M275.222,315.776l-29.333-22.426c-3.29-2.516-7.997-1.888-10.513,1.403s-1.888,7.998,1.403,10.513    l29.333,22.426c1.36,1.04,2.961,1.542,4.55,1.542c2.256,0,4.487-1.014,5.963-2.945    C279.141,322.999,278.512,318.292,275.222,315.776z"/>
		<path id="XMLID_3381_" d="M275.222,287.489l-29.333-22.426c-3.29-2.515-7.997-1.888-10.513,1.403s-1.888,7.998,1.403,10.513    l29.333,22.426c1.36,1.04,2.961,1.542,4.55,1.542c2.256,0,4.487-1.014,5.963-2.945    C279.141,294.712,278.512,290.005,275.222,287.489z"/>
		<path id="XMLID_3383_" d="M130.827,281.191H99.173c-4.142,0-7.5,3.358-7.5,7.5v21.566H70.106c-4.142,0-7.5,3.358-7.5,7.5v31.655    c0,4.142,3.358,7.5,7.5,7.5h21.566v21.566c0,4.142,3.358,7.5,7.5,7.5h31.654c4.142,0,7.5-3.358,7.5-7.5v-21.566h21.566    c4.142,0,7.5-3.358,7.5-7.5v-31.655c0-4.142-3.358-7.5-7.5-7.5h-21.566v-21.566C138.327,284.549,134.969,281.191,130.827,281.191z     M152.394,325.257v16.655h-21.566c-4.142,0-7.5,3.358-7.5,7.5v21.566h-16.654v-21.566c0-4.142-3.358-7.5-7.5-7.5H77.606v-16.655    h21.566c4.142,0,7.5-3.358,7.5-7.5v-21.566h16.654v21.566c0,4.142,3.358,7.5,7.5,7.5H152.394z"/>
		<path id="XMLID_3391_" d="M369.667,284.996c-12.314,0-22.333,10.019-22.333,22.333c0,12.314,10.019,22.333,22.333,22.333    c12.315,0,22.333-10.019,22.333-22.333C392,295.014,381.981,284.996,369.667,284.996z M369.667,314.662    c-4.043,0-7.333-3.29-7.333-7.333s3.29-7.333,7.333-7.333c4.044,0,7.333,3.29,7.333,7.333S373.71,314.662,369.667,314.662z"/>
		<path id="XMLID_3406_" d="M424.333,284.996c-12.315,0-22.333,10.019-22.333,22.333c0,12.314,10.019,22.333,22.333,22.333    c12.314,0,22.333-10.019,22.333-22.333C446.667,295.014,436.648,284.996,424.333,284.996z M424.333,314.662    c-4.044,0-7.333-3.29-7.333-7.333s3.29-7.333,7.333-7.333c4.043,0,7.333,3.29,7.333,7.333S428.377,314.662,424.333,314.662z"/>
		<path id="XMLID_3432_" d="M369.667,335.662c-12.314,0-22.333,10.019-22.333,22.333s10.019,22.333,22.333,22.333    c12.315,0,22.333-10.019,22.333-22.333S381.981,335.662,369.667,335.662z M369.667,365.329c-4.043,0-7.333-3.29-7.333-7.333    s3.29-7.333,7.333-7.333c4.044,0,7.333,3.29,7.333,7.333S373.71,365.329,369.667,365.329z"/>
		<path id="XMLID_3439_" d="M424.333,335.662c-12.315,0-22.333,10.019-22.333,22.333s10.019,22.333,22.333,22.333    c12.314,0,22.333-10.019,22.333-22.333S436.648,335.662,424.333,335.662z M424.333,365.329c-4.044,0-7.333-3.29-7.333-7.333    s3.29-7.333,7.333-7.333c4.043,0,7.333,3.29,7.333,7.333S428.377,365.329,424.333,365.329z"/>
		<path id="XMLID_3445_" d="M218,388.858h16.333c4.142,0,7.5-3.358,7.5-7.5s-3.358-7.5-7.5-7.5H218c-4.142,0-7.5,3.358-7.5,7.5    S213.858,388.858,218,388.858z"/>
		<path id="XMLID_3446_" d="M294,388.858c4.142,0,7.5-3.358,7.5-7.5s-3.358-7.5-7.5-7.5h-16.333c-4.142,0-7.5,3.358-7.5,7.5    s3.358,7.5,7.5,7.5H294z"/>
	</g>
</g>















</svg>
