<?xml version="1.0" encoding="iso-8859-1"?>
<!-- Generator: Adobe Illustrator 19.0.0, SVG Export Plug-In . SVG Version: 6.00 Build 0)  -->
<svg xmlns="http://www.w3.org/2000/svg" xmlns:xlink="http://www.w3.org/1999/xlink" version="1.1" id="Layer_1" x="0px" y="0px" viewBox="0 0 512 512" style="enable-background:new 0 0 512 512;" xml:space="preserve" width="512" height="512">
<g id="XMLID_1211_">
	<g id="XMLID_1212_">
		<g id="XMLID_1286_">
			<rect id="XMLID_1531_" x="375.87" y="398.96" style="fill:#629ACC;" width="23.47" height="105.54"/>
			<rect id="XMLID_1526_" x="375.87" y="398.96" style="fill:#48709B;" width="23.47" height="18.25"/>
			<rect id="XMLID_1371_" x="71.07" y="28.88" style="fill:#629ACC;" width="369.86" height="76.36"/>
			<rect id="XMLID_1215_" x="71.07" y="67.71" style="fill:#48709B;" width="369.86" height="37.53"/>
			<rect id="XMLID_1399_" x="30.47" y="80.7" style="fill:#00D2D7;" width="451.06" height="271.28"/>
			<rect id="XMLID_1782_" x="30.47" y="80.7" style="fill:#00F0F5;" width="451.06" height="13.3"/>
			<path id="XMLID_1397_" style="fill:#00B2BF;" d="M452.85,338.44c0,4.64-0.49,9.17-1.42,13.54H323.77     c-0.93-4.37-1.42-8.9-1.42-13.54c0-35.97,29.27-65.24,65.25-65.24C423.58,273.2,452.85,302.47,452.85,338.44z"/>
			<g id="XMLID_1217_">
				<rect id="XMLID_1220_" x="79.586" y="127.017" style="fill:#E4EAF6;" width="89.625" height="128.398"/>
				<rect id="XMLID_1222_" x="211.187" y="127.017" style="fill:#E4EAF6;" width="89.625" height="128.398"/>
				<rect id="XMLID_1223_" x="342.789" y="127.017" style="fill:#E4EAF6;" width="89.625" height="128.398"/>
			</g>
			<g id="XMLID_1419_">
				<g id="XMLID_2653_">
					<g id="XMLID_2660_">
						<rect id="XMLID_2661_" x="79.586" y="237.667" style="fill:#C7CFE2;" width="89.625" height="17.749"/>
					</g>
					<g id="XMLID_2657_">
						<rect id="XMLID_2658_" x="211.187" y="237.667" style="fill:#C7CFE2;" width="89.625" height="17.749"/>
					</g>
					<g id="XMLID_2654_">
						<rect id="XMLID_2655_" x="342.789" y="237.667" style="fill:#C7CFE2;" width="89.625" height="17.749"/>
					</g>
				</g>
			</g>
			<path id="XMLID_1530_" style="fill:#E94141;" d="M439.85,338.44c0,9.24-2.4,17.93-6.61,25.46     c-8.94,15.98-26.02,26.79-45.64,26.79c-19.61,0-36.7-10.81-45.63-26.79c-4.22-7.53-6.62-16.22-6.62-25.46     c0-28.85,23.4-52.24,52.25-52.24C416.46,286.2,439.85,309.59,439.85,338.44z"/>
			<path id="XMLID_1528_" style="fill:#C62525;" d="M433.24,363.9c-8.94,15.98-26.02,26.79-45.64,26.79     c-19.61,0-36.7-10.81-45.63-26.79H433.24z"/>
			<path id="XMLID_1466_" style="fill:#F28383;" d="M439.34,331.16c-8.68-18.5-28.58-31.43-51.74-31.43s-43.06,12.93-51.74,31.43     c3.54-25.41,25.36-44.96,51.74-44.96C413.99,286.2,435.8,305.75,439.34,331.16z"/>
			<rect id="XMLID_1224_" x="349.94" y="376.904" style="fill:#FFA511;" width="75.324" height="27.302"/>
			<rect id="XMLID_1279_" x="79.586" y="291.166" style="fill:#629ACC;" width="176.414" height="20.047"/>
			<g id="XMLID_1320_">
				<g id="XMLID_1239_">
					<circle id="XMLID_1228_" style="fill:#FFDC13;" cx="120.185" cy="28.884" r="21.384"/>
				</g>
				<g id="XMLID_1280_">
					<circle id="XMLID_1282_" style="fill:#FFA511;" cx="188.092" cy="28.884" r="21.384"/>
				</g>
				<g id="XMLID_1285_">
					<circle id="XMLID_1295_" style="fill:#FFDC13;" cx="256" cy="28.884" r="21.384"/>
				</g>
				<g id="XMLID_1298_">
					<circle id="XMLID_1300_" style="fill:#FFA511;" cx="323.908" cy="28.884" r="21.384"/>
				</g>
				<g id="XMLID_1303_">
					<circle id="XMLID_1305_" style="fill:#FFDC13;" cx="391.815" cy="28.884" r="21.384"/>
				</g>
			</g>
		</g>
	</g>
	<g id="XMLID_1213_">
		<path id="XMLID_1226_" d="M481.529,73.205h-33.1V28.88c0-4.142-3.357-7.5-7.5-7.5h-21.226C416.391,9.081,405.146,0,391.815,0    c-13.332,0-24.577,9.081-27.889,21.38h-12.129C348.484,9.081,337.239,0,323.907,0c-13.331,0-24.576,9.081-27.888,21.38h-12.129    C280.577,9.081,269.332,0,256,0s-24.577,9.081-27.889,21.38h-12.129C212.669,9.081,201.423,0,188.093,0    c-13.332,0-24.577,9.081-27.889,21.38h-12.129C144.761,9.081,133.516,0,120.185,0c-13.331,0-24.576,9.081-27.888,21.38H71.07    c-4.143,0-7.5,3.358-7.5,7.5v44.325h-33.1c-4.143,0-7.5,3.358-7.5,7.5v103.206c0,4.142,3.357,7.5,7.5,7.5s7.5-3.358,7.5-7.5    V88.205h436.059v29.706c0,4.142,3.357,7.5,7.5,7.5s7.5-3.358,7.5-7.5V80.705C489.029,76.563,485.672,73.205,481.529,73.205z     M391.815,15c7.655,0,13.883,6.228,13.883,13.883c0,7.656-6.228,13.884-13.883,13.884s-13.884-6.228-13.884-13.884    C377.932,21.228,384.16,15,391.815,15z M323.907,15c7.655,0,13.884,6.228,13.884,13.883c0,7.656-6.229,13.884-13.884,13.884    s-13.883-6.228-13.883-13.884C310.024,21.228,316.252,15,323.907,15z M256,15c7.655,0,13.884,6.228,13.884,13.883    c0,7.656-6.229,13.884-13.884,13.884s-13.884-6.228-13.884-13.884C242.116,21.228,248.345,15,256,15z M188.093,15    c7.655,0,13.883,6.228,13.883,13.883c0,7.656-6.228,13.884-13.883,13.884s-13.884-6.228-13.884-13.884    C174.209,21.228,180.438,15,188.093,15z M120.185,15c7.655,0,13.884,6.228,13.884,13.883c0,7.656-6.229,13.884-13.884,13.884    s-13.883-6.228-13.883-13.884C106.302,21.228,112.529,15,120.185,15z M78.57,36.38h13.724c3.31,12.303,14.557,21.387,27.89,21.387    c13.334,0,24.581-9.084,27.891-21.387h12.125c3.31,12.303,14.557,21.387,27.891,21.387c13.333,0,24.58-9.084,27.89-21.387h12.125    c3.31,12.303,14.557,21.387,27.891,21.387s24.581-9.084,27.891-21.387h12.125c3.31,12.303,14.557,21.387,27.89,21.387    c13.334,0,24.581-9.084,27.891-21.387h12.125c3.31,12.303,14.557,21.387,27.891,21.387c13.333,0,24.58-9.084,27.89-21.387h13.724    v36.825H78.57V36.38z"/>
		<path id="XMLID_1242_" d="M481.529,144.589c-4.143,0-7.5,3.358-7.5,7.5v192.386h-26.981c0.198-1.992,0.301-4.004,0.301-6.032    c0-32.945-26.803-59.748-59.748-59.748s-59.748,26.803-59.748,59.748c0,2.028,0.102,4.04,0.3,6.032H120.089    c-4.143,0-7.5,3.358-7.5,7.5s3.357,7.5,7.5,7.5h211.568c2.464,6.563,6.094,12.665,10.782,18.064v26.667c0,4.142,3.357,7.5,7.5,7.5    h18.427V504.5c0,4.142,3.357,7.5,7.5,7.5s7.5-3.358,7.5-7.5v-92.794h8.471V504.5c0,4.142,3.357,7.5,7.5,7.5s7.5-3.358,7.5-7.5    v-92.794h18.427c4.143,0,7.5-3.358,7.5-7.5v-26.667c4.687-5.398,8.316-11.502,10.779-18.064h37.986c4.143,0,7.5-3.358,7.5-7.5    V152.089C489.029,147.947,485.672,144.589,481.529,144.589z M387.602,293.696c24.674,0,44.748,20.074,44.748,44.748    c0,11.637-4.424,22.589-12.459,30.96h-64.579c-8.036-8.37-12.459-19.315-12.459-30.96    C342.854,313.77,362.928,293.696,387.602,293.696z M417.764,396.706h-60.324v-12.302h60.324V396.706z"/>
		<path id="XMLID_1248_" d="M85.911,344.475h-47.94V218.089c0-4.142-3.357-7.5-7.5-7.5s-7.5,3.358-7.5,7.5v133.886    c0,4.142,3.357,7.5,7.5,7.5h55.44c4.143,0,7.5-3.358,7.5-7.5S90.054,344.475,85.911,344.475z"/>
		<path id="XMLID_1249_" d="M79.586,262.916h89.625c4.143,0,7.5-3.358,7.5-7.5V127.017c0-4.142-3.357-7.5-7.5-7.5H79.586    c-4.143,0-7.5,3.358-7.5,7.5v128.398C72.086,259.558,75.443,262.916,79.586,262.916z M87.086,134.517h74.625v113.398H87.086    V134.517z"/>
		<path id="XMLID_1252_" d="M300.813,119.517h-89.625c-4.143,0-7.5,3.358-7.5,7.5v128.398c0,4.142,3.357,7.5,7.5,7.5h89.625    c4.143,0,7.5-3.358,7.5-7.5V127.017C308.313,122.875,304.955,119.517,300.813,119.517z M293.313,247.916h-74.625V134.517h74.625    V247.916z"/>
		<path id="XMLID_1255_" d="M432.414,262.916c4.143,0,7.5-3.358,7.5-7.5V127.017c0-4.142-3.357-7.5-7.5-7.5h-89.625    c-4.143,0-7.5,3.358-7.5,7.5v128.398c0,4.142,3.357,7.5,7.5,7.5H432.414z M350.289,134.517h74.625v113.398h-74.625V134.517z"/>
		<path id="XMLID_1259_" d="M72.086,311.213c0,4.142,3.357,7.5,7.5,7.5H256c4.143,0,7.5-3.358,7.5-7.5v-20.047    c0-4.142-3.357-7.5-7.5-7.5H79.586c-4.143,0-7.5,3.358-7.5,7.5V311.213z M87.086,298.666H248.5v5.047H87.086V298.666z"/>
		<path id="XMLID_1263_" d="M139.828,156.025h-30.859c-4.143,0-7.5,3.358-7.5,7.5v5.235c0,4.142,3.357,7.5,7.5,7.5    c3.353,0,6.191-2.2,7.152-5.235h11.924c-9.18,7.999-22.994,24.005-22.994,47.882c0,4.142,3.357,7.5,7.5,7.5s7.5-3.358,7.5-7.5    c0-26.335,22.675-40.378,23.617-40.949c2.27-1.353,3.66-3.8,3.66-6.443v-7.99C147.328,159.383,143.971,156.025,139.828,156.025z"/>
		<path id="XMLID_1265_" d="M240.57,176.26c3.353,0,6.191-2.2,7.152-5.235h11.924c-9.18,7.999-22.994,24.005-22.994,47.882    c0,4.142,3.357,7.5,7.5,7.5s7.5-3.358,7.5-7.5c0-26.335,22.675-40.378,23.617-40.949c2.27-1.353,3.66-3.8,3.66-6.443v-7.99    c0-4.142-3.357-7.5-7.5-7.5H240.57c-4.143,0-7.5,3.358-7.5,7.5v5.235C233.07,172.902,236.428,176.26,240.57,176.26z"/>
		<path id="XMLID_1266_" d="M403.031,156.025h-30.859c-4.143,0-7.5,3.358-7.5,7.5v5.235c0,4.142,3.357,7.5,7.5,7.5    c3.353,0,6.191-2.2,7.152-5.235h11.924c-9.18,7.999-22.994,24.005-22.994,47.882c0,4.142,3.357,7.5,7.5,7.5s7.5-3.358,7.5-7.5    c0-26.335,22.675-40.378,23.617-40.949c2.27-1.353,3.66-3.8,3.66-6.443v-7.99C410.531,159.383,407.174,156.025,403.031,156.025z"/>
		<path id="XMLID_1267_" d="M275,290.697v0.938c0,4.142,3.357,7.5,7.5,7.5s7.5-3.358,7.5-7.5v-0.938c0-4.142-3.357-7.5-7.5-7.5    S275,286.555,275,290.697z"/>
		<path id="XMLID_1269_" d="M302.524,283.197c-4.143,0-7.5,3.358-7.5,7.5v0.938c0,4.142,3.357,7.5,7.5,7.5s7.5-3.358,7.5-7.5v-0.938    C310.024,286.555,306.667,283.197,302.524,283.197z"/>
	</g>
</g>















</svg>
