<?xml version="1.0" encoding="iso-8859-1"?>
<!-- Generator: Adobe Illustrator 19.0.0, SVG Export Plug-In . SVG Version: 6.00 Build 0)  -->
<svg xmlns="http://www.w3.org/2000/svg" xmlns:xlink="http://www.w3.org/1999/xlink" version="1.1" id="Layer_1" x="0px" y="0px" viewBox="0 0 536.68 536.68" style="enable-background:new 0 0 536.68 536.68;" xml:space="preserve" width="512" height="512">
<g id="XMLID_1080_">
	<g id="XMLID_3065_">
		<g id="XMLID_2571_">
			<rect id="XMLID_2933_" x="155.327" y="318.2" style="fill:#9391F9;" width="226.02" height="186.3"/>
			<rect id="XMLID_2925_" x="155.327" y="318.2" style="fill:#7A6CF7;" width="226.02" height="40.61"/>
			<polygon id="XMLID_2774_" style="fill:#FFDC13;" points="381.347,438.84 381.347,504.5 155.327,504.5 155.327,438.84      268.337,372.35    "/>
			<polygon id="XMLID_2792_" style="fill:#6CFFFF;" points="381.347,504.5 155.327,504.5 155.327,470.18 268.337,403.69      381.347,470.18    "/>
			<g id="XMLID_2107_">
				<rect id="XMLID_2905_" x="155.327" y="76.22" style="fill:#9391F9;" width="226.02" height="181.36"/>
				<rect id="XMLID_2895_" x="155.327" y="237.47" style="fill:#7A6CF7;" width="226.02" height="20.11"/>
				<rect id="XMLID_2892_" x="155.327" y="76.22" style="fill:#7A6CF7;" width="226.02" height="21.84"/>
				<g id="XMLID_1086_">
					<polygon id="XMLID_2931_" style="fill:#6CFFFF;" points="399.227,283.02 399.227,295.81 137.447,295.81 137.447,283.02        144.737,269.69 155.237,250.47 381.437,250.47 391.937,269.69      "/>
					<polygon id="XMLID_2928_" style="fill:#00F0F5;" points="399.227,283.02 399.227,295.81 137.447,295.81 137.447,283.02        144.737,269.69 391.937,269.69      "/>
					<rect id="XMLID_1090_" x="137.451" y="282.688" style="fill:#9391F9;" width="261.77" height="63.122"/>
					<rect id="XMLID_3063_" x="181.003" y="319.667" style="fill:#DD66D8;" width="49.333" height="26.143"/>
					<rect id="XMLID_1091_" x="137.451" y="282.688" style="fill:#B8B8FF;" width="261.77" height="13.124"/>
				</g>
				<g id="XMLID_1092_">
					<polygon id="XMLID_2896_" style="fill:#6CFFFF;" points="399.227,39.72 399.227,52.51 391.937,65.84 381.437,85.06        155.237,85.06 144.737,65.84 137.447,52.51 137.447,39.72      "/>
					<polygon id="XMLID_2893_" style="fill:#00F0F5;" points="399.227,39.72 399.227,52.51 391.937,65.84 144.737,65.84        137.447,52.51 137.447,39.72      "/>
					<rect id="XMLID_1093_" x="137.451" y="7.5" style="fill:#DD66D8;" width="261.77" height="45.341"/>
					<rect id="XMLID_2956_" x="137.451" y="7.5" style="fill:#F288E8;" width="261.77" height="13.5"/>
				</g>
			</g>
			<rect id="XMLID_2533_" x="217.337" y="465" style="fill:#F288E8;" width="102" height="39.5"/>
		</g>
		<path id="XMLID_2723_" style="fill:#FFDC13;" d="M354.007,129.63v74.54c0,11.06-8.97,20.03-20.04,20.03h-131.26    c-2.82,0-5.51-0.58-7.94-1.63c-7.12-3.08-12.1-10.16-12.1-18.4v-74.54c0-11.06,8.97-20.03,20.04-20.03h131.26    c5.37,0,10.27,2.12,13.86,5.57c3.04,2.91,5.16,6.76,5.89,11.09C353.907,127.36,354.007,128.48,354.007,129.63z"/>
		<path id="XMLID_2697_" style="fill:#FFED97;" d="M347.827,115.17L238.797,224.2h-36.09c-2.82,0-5.51-0.58-7.94-1.63l112.97-112.97    h26.23C339.337,109.6,344.237,111.72,347.827,115.17z"/>
		<path id="XMLID_2696_" style="fill:#FFED97;" d="M354.007,129.63v13.68l-80.9,80.89h-17.33l97.94-97.94    C353.907,127.36,354.007,128.48,354.007,129.63z"/>
		<rect id="XMLID_2795_" x="137.787" y="536.43" style="fill:#97EBFF;" width="261.1" height="0.25"/>
		<g id="XMLID_2884_">
			<circle id="XMLID_2856_" style="fill:#E94141;" cx="219.503" cy="216.5" r="16.833"/>
		</g>
	</g>
	<g id="XMLID_1081_">
		<path id="XMLID_1084_" d="M406.722,282.97c0.084-1.837-0.603-3.743-1.788-5.136l-16.091-29.458V87.153l16.091-29.458    c1.251-1.47,1.794-3.296,1.788-5.197V7.5c0-4.143-3.358-7.5-7.5-7.5h-43.796c-4.142,0-7.5,3.357-7.5,7.5s3.358,7.5,7.5,7.5h36.296    v30.341H144.951V15h176.296c4.142,0,7.5-3.357,7.5-7.5s-3.358-7.5-7.5-7.5H137.451c-4.142,0-7.5,3.357-7.5,7.5v44.998    c-0.006,1.901,0.538,3.727,1.788,5.197l16.091,29.458v63.758c0,4.143,3.358,7.5,7.5,7.5s7.5-3.357,7.5-7.5V92.559h211.013v150.412    h-146.84v-3.326c4.564-1.483,8.539-4.279,11.479-7.942h95.487c15.182,0,27.534-12.352,27.534-27.534v-74.536    c0-15.183-12.352-27.534-27.534-27.534H202.704c-15.182,0-27.534,12.352-27.534,27.534v74.536    c0,14.422,11.147,26.28,25.276,27.434c2.948,3.712,6.952,6.546,11.557,8.042v3.326H162.83v-57.882c0-4.143-3.358-7.5-7.5-7.5    s-7.5,3.357-7.5,7.5v63.287l-16.091,29.458c-1.113,1.309-1.788,3.001-1.788,4.854c0,0,0,0.323,0,0.343v62.779    c0,4.143,3.358,7.5,7.5,7.5h10.379V504.5c0,4.143,3.358,7.5,7.5,7.5h226.013c4.142,0,7.5-3.357,7.5-7.5V401.089    c0-4.143-3.358-7.5-7.5-7.5s-7.5,3.357-7.5,7.5v24.635L272.14,365.886c-2.348-1.381-5.259-1.381-7.606,0L162.83,425.724V353.31    h211.013v13.602c0,4.143,3.358,7.5,7.5,7.5s7.5-3.357,7.5-7.5V353.31h10.379c4.142,0,7.5-3.357,7.5-7.5V283.03    C406.722,283.01,406.722,282.99,406.722,282.97z M219.503,225.833c-5.146,0-9.333-4.187-9.333-9.333s4.187-9.333,9.333-9.333    c5.146,0,9.333,4.187,9.333,9.333S224.65,225.833,219.503,225.833z M190.17,204.169v-74.536c0-6.911,5.623-12.534,12.534-12.534    h131.266c6.911,0,12.534,5.623,12.534,12.534v74.536c0,6.911-5.623,12.534-12.534,12.534h-90.138    c0.001-0.068,0.005-0.135,0.005-0.203c0-13.417-10.916-24.333-24.333-24.333c-12.656,0-23.082,9.714-24.225,22.076    C192.187,211.959,190.17,208.299,190.17,204.169z M224.837,497v-24.5h87V497H224.837z M326.837,497v-32c0-4.143-3.358-7.5-7.5-7.5    h-102c-4.142,0-7.5,3.357-7.5,7.5v32H162.83v-22.533l105.506-62.074l105.506,62.074V497H326.837z M268.337,381.052l105.506,62.075    v13.937L272.14,397.227c-2.348-1.381-5.259-1.381-7.606,0L162.83,457.064v-13.937L268.337,381.052z M159.681,77.559l-9.404-17.218    h236.12l-9.404,17.218H159.681z M219.503,269.833c4.142,0,7.5-3.357,7.5-7.5v-4.362h149.989l9.404,17.217H150.277l9.404-17.217    h52.322v4.362C212.003,266.476,215.361,269.833,219.503,269.833z M222.837,338.31h-34.333v-11.143h34.333V338.31z M391.722,338.31    h-22.219v-7.977c0-4.143-3.358-7.5-7.5-7.5s-7.5,3.357-7.5,7.5v7.977h-5.333v-7.977c0-4.143-3.358-7.5-7.5-7.5s-7.5,3.357-7.5,7.5    v7.977h-5.333v-7.977c0-4.143-3.358-7.5-7.5-7.5s-7.5,3.357-7.5,7.5v7.977h-76v-18.643c0-4.143-3.358-7.5-7.5-7.5h-49.333    c-4.142,0-7.5,3.357-7.5,7.5v18.643h-28.552v-48.122h246.771V338.31z"/>
		<path id="XMLID_1111_" d="M233.503,31.667v0.938c0,4.143,3.358,7.5,7.5,7.5s7.5-3.357,7.5-7.5v-0.938c0-4.143-3.358-7.5-7.5-7.5    S233.503,27.524,233.503,31.667z"/>
		<path id="XMLID_1112_" d="M260.837,31.667v0.938c0,4.143,3.358,7.5,7.5,7.5s7.5-3.357,7.5-7.5v-0.938c0-4.143-3.358-7.5-7.5-7.5    S260.837,27.524,260.837,31.667z"/>
		<path id="XMLID_1113_" d="M288.17,31.667v0.938c0,4.143,3.358,7.5,7.5,7.5s7.5-3.357,7.5-7.5v-0.938c0-4.143-3.358-7.5-7.5-7.5    S288.17,27.524,288.17,31.667z"/>
		<path id="XMLID_1114_" d="M175.17,371.881v0.938c0,4.143,3.358,7.5,7.5,7.5s7.5-3.357,7.5-7.5v-0.938c0-4.143-3.358-7.5-7.5-7.5    S175.17,367.738,175.17,371.881z"/>
	</g>
</g>















</svg>
