<svg id="Capa_1" enable-background="new 0 0 512 512" height="512" viewBox="0 0 512 512" width="512" xmlns="http://www.w3.org/2000/svg"><circle cx="256" cy="256" fill="#ffd939" r="256"/><path d="m473.53 391.03c-45.18 72.63-125.71 120.97-217.53 120.97-50.43 0-97.46-14.58-137.09-39.77-32.52-20.66-60.07-48.47-80.44-81.2l19.46-143.39 17.07-125.74s4.23-30.02 12.88-58.95c8.03-26.89 19.88-52.84 35.68-52.84 0 0 11.38 3.91 24.14 13.87 10.82 8.42 22.63 21.2 29.32 39.6 0 0 9.54-6.76 27.03-12.54 12.83-4.26 29.96-7.97 50.73-8.11.41-.01.81-.01 1.22-.01 49.82 0 78.97 20.66 78.97 20.66 6.69-18.4 18.5-31.18 29.32-39.61 12.76-9.95 24.15-13.86 24.15-13.86 15.8 0 27.65 25.95 35.68 52.84 8.65 28.93 12.88 58.95 12.88 58.95z" fill="#595454"/><path d="m254.78 42.93c-51.41 1.19-94.27 77.61-105.17 184.66-8.69 85.28-3.64 192.79-30.7 244.64-32.52-20.66-60.07-48.47-80.44-81.2l19.46-143.39 17.07-125.74s4.23-30.02 12.88-58.95c8.03-26.89 19.88-52.84 35.68-52.84 0 0 11.38 3.91 24.14 13.87 10.82 8.42 22.63 21.2 29.32 39.6 0 0 9.54-6.76 27.03-12.54 12.83-4.26 29.96-7.97 50.73-8.11z" fill="#454045"/><circle cx="159.783" cy="143.813" fill="#fff" r="40.709"/><circle cx="159.783" cy="143.813" fill="#211f21" r="25.223"/><circle cx="352.217" cy="143.813" fill="#fff" r="40.709"/><g fill="#211f21"><circle cx="352.217" cy="143.813" r="25.223"/><path d="m239.101 205.635c-11.874 0-21.534-9.66-21.534-21.534v-6.032c0-2.761 2.239-5 5-5s5 2.239 5 5v6.032c0 6.36 5.174 11.534 11.534 11.534s11.534-5.174 11.534-11.534v-31.23c0-2.761 2.239-5 5-5s5 2.239 5 5v31.23c0 11.875-9.66 21.534-21.534 21.534z"/><path d="m272.168 205.635c-11.874 0-21.534-9.66-21.534-21.534v-31.23c0-2.761 2.239-5 5-5s5 2.239 5 5v31.23c0 6.36 5.174 11.534 11.534 11.534s11.534-5.174 11.534-11.534v-6.032c0-2.761 2.239-5 5-5s5 2.239 5 5v6.032c0 11.875-9.66 21.534-21.534 21.534z"/><path d="m124.528 90.219c8.241-3.588 13.09-12.339 11.511-21.187-2.786-15.609-14.7-34.709-24.2-33.918-13.769 1.146-27.175 60.872-11.232 60.872 8.7-.001 17.616-3.022 23.921-5.767z"/></g><path d="m387.472 90.219c-8.241-3.588-13.09-12.339-11.511-21.187 2.786-15.609 14.7-34.709 24.2-33.918 13.769 1.146 27.175 60.872 11.232 60.872-8.7-.001-17.616-3.022-23.921-5.767z" fill="#454045"/><path d="m270.653 171.034 13.668-23.674c6.512-11.28-1.628-25.38-14.653-25.38h-27.337c-13.025 0-21.166 14.1-14.653 25.38l13.668 23.674c6.513 11.28 22.795 11.28 29.307 0z" fill="#211f21"/></svg>