<svg id="Capa_1" enable-background="new 0 0 512 512" height="512" viewBox="0 0 512 512" width="512" xmlns="http://www.w3.org/2000/svg"><path d="m512 256c0 29.08-4.85 57.03-13.79 83.08-3.6 10.51-7.87 20.71-12.76 30.54-11.83 23.86-27.27 45.62-45.62 64.55-10.78 11.12-22.56 21.26-35.19 30.28-41.91 29.94-93.22 47.55-148.64 47.55s-106.73-17.62-148.64-47.54c-12.63-9.03-24.42-19.18-35.2-30.3-18.34-18.93-33.78-40.68-45.61-64.54-4.89-9.84-9.16-20.04-12.76-30.54-8.94-26.05-13.79-54-13.79-83.08s4.85-57.03 13.79-83.08c3.2-9.35 6.94-18.46 11.17-27.29 41.21-86.14 129.18-145.63 231.04-145.63s189.83 59.49 231.04 145.63c4.23 8.83 7.97 17.94 11.17 27.29 8.94 26.05 13.79 54 13.79 83.08z" fill="#da4a54"/><path d="m485.45 369.62c-11.83 23.86-27.27 45.62-45.62 64.55-10.78 11.12-22.56 21.26-35.19 30.28-41.91 8.82-93.22 14.01-148.64 14.01s-106.73-5.19-148.64-14c-12.63-9.03-24.42-19.18-35.2-30.3-18.34-18.93-33.78-40.68-45.61-64.54 41.87-24.85 128.89-41.92 229.45-41.92s187.58 17.07 229.45 41.92z" fill="#efe7e4"/><path d="m498.21 145.63v193.45c-12.34 35.99-32.47 68.35-58.38 95.09-44.42 15.23-110.3 24.88-183.83 24.88-44.16 0-85.57-3.48-121.22-9.56-23.71-4.05-44.88-9.24-62.62-15.33-25.9-26.73-46.03-59.1-58.37-95.08v-193.45z" fill="#80e29d"/><path d="m134.78 145.63v303.86c-23.71-4.05-44.88-9.24-62.62-15.33-25.9-26.73-46.03-59.1-58.37-95.08v-193.45z" fill="#6ec186"/><path d="m498.21 145.63v36.7c0 39.39-108.44 71.32-242.21 71.32s-242.21-31.93-242.21-71.32v-36.7z" fill="#6ec186"/><path d="m512 145.628c0 41.632-114.615 75.382-256 75.382s-256-33.75-256-75.382v-22.675h512z" fill="#efe7e4"/><ellipse cx="256" cy="122.953" fill="#e0d8d5" rx="256" ry="75.382"/><path d="m256 178.335c-66.521 0-128.802-7.552-175.37-21.264-45.81-13.489-60.63-28.811-60.63-34.118s14.82-20.628 60.63-34.118c46.569-13.712 108.849-21.264 175.37-21.264s128.801 7.552 175.37 21.264c45.81 13.489 60.63 28.811 60.63 34.118s-14.82 20.628-60.63 34.118c-46.568 13.712-108.849 21.264-175.37 21.264z" fill="#b16e3d"/><path d="m495.577 114.036c3.76 15.3-21.186 38.32-68.965 53.81-47.259 15.464-117.351 23.398-191.883 7.906-74.747-14.418-136.372-48.742-174.025-81.219-38.123-32.702-52.275-63.556-42.911-76.226 20.8-25.936 119.762 8.523 240.238 31.148 119.891 25.534 228.343 32.634 237.546 64.581z" fill="#efe7e4"/><path d="m50.121 38.684 26.008 11.804c.454 5.273 3.13 12.096 10.873 20.128 8.009 8.308 19.858 16.259 33.365 22.389 13.506 6.13 27.292 9.813 38.819 10.372 19.247.932 25.844-7.132 28.063-12.023 2.219-4.89 3.946-15.165-9.428-29.038-8.009-8.308-19.858-16.259-33.365-22.389s-27.292-9.813-38.819-10.372c-11.143-.54-18.041 1.938-22.309 5.068l-26.007-11.804c-4.381-1.988-9.544-.049-11.532 4.332-1.989 4.381-.049 9.545 4.332 11.533zm56.166 8.367c9.109.706 20.108 3.811 30.97 8.74s20.44 11.164 26.969 17.555c6.257 6.125 7.215 9.941 7.145 10.801-.601.619-4.104 2.41-12.833 1.733-9.109-.706-20.108-3.811-30.97-8.74s-20.44-11.165-26.969-17.556c-6.257-6.125-7.214-9.94-7.144-10.8.6-.618 4.103-2.41 12.832-1.733z" fill="#e0d8d5"/><path d="m350.43 253.65c-16.445 0-39.876 19.348-52.992 31.521-12.343-6.622-26.449-10.387-41.437-10.387s-29.094 3.765-41.437 10.387c-13.116-12.173-36.548-31.521-52.992-31.521-13.519 0-17.573 61.086 9.3 87.438-1.731 6.877-2.659 14.072-2.659 21.486 0 48.485 39.304 60.152 87.789 60.152s87.789-11.667 87.789-60.152c0-7.414-.929-14.609-2.659-21.486 26.871-26.352 22.817-87.438 9.298-87.438z" fill="#454045"/><g fill="#fff"><path d="m279.959 364.156c-1.8 0-3.259 1.459-3.259 3.259v4.371c0 4.809-3.912 8.721-8.721 8.721s-8.721-3.912-8.721-8.721v-22.629c0-1.8-1.459-3.259-3.259-3.259s-3.259 1.459-3.259 3.259v22.629c0 4.809-3.912 8.721-8.721 8.721-4.808 0-8.719-3.912-8.719-8.721v-4.371c0-1.8-1.459-3.259-3.259-3.259s-3.259 1.459-3.259 3.259v4.371c0 8.403 6.835 15.239 15.238 15.239 4.861 0 9.188-2.296 11.98-5.852 2.792 3.556 7.119 5.852 11.98 5.852 8.403 0 15.239-6.836 15.239-15.239v-4.371c0-1.8-1.46-3.259-3.26-3.259z"/><path d="m263.954 363.131 7.419-12.851c3.535-6.123-.884-13.776-7.954-13.776h-14.839c-7.07 0-11.489 7.654-7.954 13.776l7.419 12.851c3.536 6.123 12.374 6.123 15.909 0z"/><circle cx="308.176" cy="351.193" r="20.592"/></g><ellipse cx="308.176" cy="351.193" fill="#454045" rx="7.965" ry="12.464"/><circle cx="203.824" cy="351.193" fill="#fff" r="20.592"/><ellipse cx="203.824" cy="351.193" fill="#454045" rx="7.965" ry="12.464"/></svg>