<svg id="Capa_1" enable-background="new 0 0 512 512" height="512" viewBox="0 0 512 512" width="512" xmlns="http://www.w3.org/2000/svg"><path d="m512 256c0 22.44-2.89 44.21-8.32 64.96-7.81 29.84-20.86 57.57-38.13 82.12-1.44 2.06-2.92 4.09-4.42 6.1-6.12 8.2-12.73 16.01-19.78 23.41-46.63 48.92-112.43 79.41-185.35 79.41s-138.72-30.49-185.35-79.41l-.01-.01c-7.04-7.39-13.64-15.21-19.76-23.4-1.5-2.01-2.98-4.04-4.42-6.1-17.27-24.55-30.33-52.27-38.14-82.11v-.01c-5.43-20.75-8.32-42.52-8.32-64.96 0-141.38 114.62-256 256-256s256 114.62 256 256z" fill="#ac80dd"/><path d="m465.55 403.08c-1.44 2.06-2.92 4.09-4.42 6.1-6.12 8.2-12.73 16.01-19.78 23.41-46.63 48.92-112.43 79.41-185.35 79.41s-138.72-30.49-185.35-79.41l-.01-.01c-7.04-7.39-13.64-15.21-19.76-23.4-1.5-2.01-2.98-4.04-4.42-6.1z" fill="#efe7e4"/><path d="m503.68 320.96c-11.12 42.53-32.91 80.75-62.33 111.63h-370.7c-29.42-30.88-51.21-69.1-62.33-111.63 12.58-15.6 31.84-25.57 53.43-25.57h388.5c18.94 0 36.09 7.68 48.51 20.09 1.73 1.74 3.38 3.56 4.92 5.48z" fill="#b16e3d"/><path d="m461.13 409.18c-6.12 8.2-12.73 16.01-19.78 23.41h-370.7l-.01-.01c-7.04-7.39-13.64-15.21-19.76-23.4 3.54.57 7.18.86 10.88.86h388.49c3.7 0 7.34-.29 10.88-.86z" fill="#985e33"/><path d="m311.68 158.029c-13.351 22.003-35.824 37.864-62.185 42.297-1.848.32-3.706.577-5.597.769-.481.053-.972.107-1.463.139-1.154.107-2.318.192-3.493.246-.502.032-1.015.053-1.527.064-.385.011-.758.021-1.143.032-.641.011-1.271.021-1.912.021-49.913 0-90.384-40.46-90.384-90.362 0-47.638 36.861-86.666 83.601-90.127-.449.737-.876 1.474-1.303 2.222-.117.203-.235.417-.342.619-.417.737-.812 1.474-1.196 2.211-.417.801-.822 1.613-1.207 2.425-.075.149-.149.299-.224.449-.374.78-.737 1.57-1.079 2.371l-.011.011c-4.935 11.162-7.669 23.509-7.669 36.487 0 33.368 18.094 62.516 45.01 78.175 13.33 7.754 28.828 12.198 45.363 12.198.897 0 1.794-.011 2.681-.043 1.367-.034 2.735-.108 4.08-.204z" fill="#b16e3d"/><path d="m290.97 181.666c-11.76 9.474-25.944 16.043-41.475 18.66-1.848.32-3.706.577-5.597.769-.481.053-.972.107-1.463.139-1.154.107-2.318.192-3.493.246-.502.032-1.015.053-1.527.064-.385.011-.758.021-1.143.032-.641.011-1.271.021-1.912.021-49.913 0-90.384-40.46-90.384-90.362 0-46.922 35.76-85.492 81.497-89.946-20.593 16.556-33.773 41.966-33.773 70.453 0 49.902 40.471 90.362 90.384 90.362.641 0 1.271-.011 1.912-.021.385-.011.758-.021 1.143-.032.513-.011 1.025-.032 1.527-.064 1.175-.053 2.339-.139 3.493-.246.266-.022.544-.043.811-.075z" fill="#985e33"/><path d="m389.711 158.19h-267.422c-37.886 0-68.599 30.713-68.599 68.599 0 37.886 30.713 68.599 68.599 68.599h267.422c37.886 0 68.599-30.713 68.599-68.599 0-37.886-30.713-68.599-68.599-68.599z" fill="#b16e3d"/><path d="m458.316 226.794c0 37.886-30.719 68.594-68.605 68.594h-267.412c-18.948 0-36.091-7.68-48.514-20.091-12.411-12.411-20.091-29.555-20.091-48.503 0-4.486.427-8.876 1.26-13.116 2.638 13.683 9.357 25.923 18.831 35.397 12.422 12.411 29.565 20.091 48.514 20.091h267.412c33.4 0 61.235-23.872 67.344-55.488.833 4.24 1.261 8.63 1.261 13.116z" fill="#985e33"/><path d="m161.227 275.292c12.422 12.411 29.576 20.091 48.514 20.091h-87.446c-18.948 0-36.091-7.68-48.513-20.091-12.412-12.411-20.092-29.554-20.092-48.503 0-37.886 30.719-68.605 68.605-68.605h87.446c-37.886 0-68.605 30.719-68.605 68.605 0 18.949 7.68 36.092 20.091 48.503z" fill="#985e33"/><path d="m151.81 412.49c12.42 12.41 29.57 20.09 48.51 20.09h-129.68c-29.41-30.88-51.2-69.09-62.32-111.61 12.57-15.61 31.84-25.59 53.44-25.59h138.56c-37.89 0-68.6 30.72-68.6 68.61 0 18.95 7.68 36.09 20.09 48.5z" fill="#985e33"/><path d="m323.662 0c1.656 5.192 1.651 10.439-.185 15.589-1.791 5.024-5.128 9.202-7.779 13.767-2.492 4.292-3.596 8.944-2.908 13.897.198 1.425.467 2.837.925 4.203.711 2.122 1.988 4.026 3.391 5.752 3.104 3.821 6.749 7.132 9.584 11.182 2.496 3.566 4.324 7.538 5.335 11.776 1.248 5.234 1.019 11.137-.351 16.315-1.121 4.237-2.974 8.122-5.721 11.561-3.562 4.46-8.305 7.559-12.751 11.045-2.225 1.745-4.168 3.759-5.812 6.062-1.635 2.291-2.657 4.961-3.729 7.544-1.398-4.351-1.657-8.726-.562-13.153 1.287-5.206 4.344-9.659 7.198-14.116 2.623-4.096 4.677-8.479 4.392-13.461-.144-2.517-.447-4.931-1.343-7.303-.798-2.11-2.075-3.911-3.511-5.632-3.187-3.819-6.82-7.196-9.609-11.346-2.324-3.457-4.218-7.45-4.983-11.573-1.786-9.635.023-19.855 6.261-27.58 3.579-4.432 8.33-7.54 12.772-11.016 2.177-1.704 4.069-3.714 5.671-5.966 1.632-2.292 2.649-4.963 3.715-7.547z" fill="#8659b9"/><path d="m392.339 0c1.656 5.192 1.651 10.439-.185 15.589-1.791 5.024-5.128 9.202-7.779 13.767-2.492 4.292-3.596 8.944-2.908 13.897.198 1.425.467 2.837.925 4.203.711 2.122 1.988 4.026 3.391 5.752 3.104 3.821 6.749 7.132 9.584 11.182 2.496 3.566 4.324 7.538 5.335 11.776 1.248 5.234 1.019 11.137-.351 16.315-1.121 4.237-2.974 8.122-5.721 11.561-3.562 4.46-8.305 7.559-12.751 11.045-2.225 1.745-4.168 3.759-5.812 6.062-1.635 2.291-2.657 4.961-3.729 7.544-1.398-4.351-1.657-8.726-.562-13.153 1.287-5.206 4.344-9.659 7.198-14.116 2.623-4.096 4.677-8.479 4.392-13.461-.144-2.517-.447-4.931-1.343-7.303-.798-2.11-2.075-3.911-3.511-5.632-3.187-3.819-6.82-7.196-9.609-11.346-2.324-3.457-4.218-7.45-4.983-11.573-1.786-9.635.023-19.855 6.261-27.58 3.579-4.432 8.33-7.54 12.772-11.016 2.177-1.704 4.069-3.714 5.671-5.966 1.632-2.292 2.649-4.963 3.715-7.547z" fill="#8659b9"/><path d="m118.432 0c1.656 5.192 1.651 10.439-.185 15.589-1.791 5.024-5.128 9.202-7.779 13.767-2.492 4.292-3.596 8.944-2.908 13.897.198 1.425.467 2.837.925 4.203.711 2.122 1.988 4.026 3.391 5.752 3.104 3.821 6.749 7.132 9.584 11.182 2.496 3.566 4.324 7.538 5.335 11.776 1.248 5.234 1.019 11.137-.351 16.315-1.121 4.237-2.974 8.122-5.721 11.561-3.562 4.46-8.305 7.559-12.751 11.045-2.225 1.745-4.168 3.759-5.812 6.062-1.635 2.291-2.657 4.961-3.729 7.544-1.398-4.351-1.657-8.726-.562-13.153 1.287-5.206 4.344-9.659 7.198-14.116 2.623-4.096 4.677-8.479 4.392-13.461-.144-2.517-.447-4.931-1.343-7.303-.798-2.11-2.075-3.911-3.511-5.632-3.187-3.819-6.82-7.196-9.609-11.346-2.324-3.457-4.218-7.45-4.983-11.573-1.786-9.635.023-19.855 6.261-27.58 3.579-4.432 8.33-7.54 12.772-11.016 2.177-1.704 4.069-3.714 5.671-5.966 1.632-2.292 2.649-4.963 3.715-7.547z" fill="#8659b9"/><g fill="#985e33"><circle cx="185.006" cy="193.649" r="14.279"/><circle cx="213.698" cy="221.01" r="14.279"/><circle cx="440.334" cy="378.694" r="14.279"/><circle cx="176.915" cy="232.313" r="14.279"/></g></svg>