<svg id="Capa_1" enable-background="new 0 0 512 512" height="512" viewBox="0 0 512 512" width="512" xmlns="http://www.w3.org/2000/svg"><path d="m512 256c0 29.83-5.1 58.47-14.49 85.09-8.07 22.93-19.33 44.37-33.23 63.78-4.99 6.96-10.31 13.67-15.96 20.09-23.96 27.26-53.63 49.38-87.14 64.5-10.23 4.62-20.83 8.59-31.72 11.84-23.27 6.96-47.93 10.7-73.46 10.7-25.04 0-49.23-3.59-72.1-10.3-10.55-3.08-20.82-6.84-30.76-11.21-7.82-3.43-15.44-7.24-22.83-11.41-24.03-13.57-45.64-30.91-64.04-51.22v-.01c-6.18-6.8-11.98-13.93-17.39-21.37-13.97-19.19-25.34-40.41-33.58-63.12-9.9-27.26-15.3-56.68-15.3-87.36 0-141.38 114.62-256 256-256s256 114.62 256 256z" fill="#90d8f9"/><path d="m466.58 66.55c-17.96 12.09-23.75 16.32-26.03 24.79-3.62 13.41.14 41.33 6.9 79.13 5.04 28.17-.91 53.31-17.2 72.7-36.71 43.69-114.55 44.44-119.67 44.44h-.15c-11.05-.04-19.97-9.03-19.93-20.07.04-11.02 8.99-19.93 20-19.93h.08c17.78 0 68.32-5.43 89.09-30.22 8.61-10.29 11.36-23.34 8.41-39.88-8.52-47.6-11.8-75.61-6.16-96.58 6.28-23.31 22.19-34.01 42.34-47.56 9.16-6.17 21.59-3.74 27.75 5.43 6.17 9.16 3.74 21.59-5.43 27.75z" fill="#595454"/><path d="m462.06 31.1c-1.56.55-3.07 1.3-4.5 2.27-20.15 13.55-36.06 24.25-42.34 47.56-5.64 20.97-2.36 48.98 6.16 96.58 2.95 16.54.2 29.59-8.41 39.88-20.77 24.79-71.31 30.22-89.09 30.22h-.08c-11.01 0-19.96 8.91-20 19.93-.04 9.81 7 18 16.32 19.73-5.18.31-8.6.34-9.54.34h-.15c-11.05-.04-19.97-9.03-19.93-20.07.04-11.02 8.99-19.93 20-19.93h.08c17.78 0 68.32-5.43 89.09-30.22 8.61-10.29 11.36-23.34 8.41-39.88-8.52-47.6-11.8-75.61-6.16-96.58 6.28-23.31 22.19-34.01 42.34-47.56 5.45-3.67 12.05-4.3 17.8-2.27z" fill="#454045"/><path d="m396.268 245.625c-29.133 46.833-81.06 78.004-140.268 78.004-32.518 0-62.844-9.401-88.398-25.645-20.97-13.322-38.734-31.254-51.869-52.359l12.548-92.461 11.007-81.08s2.728-19.357 8.305-38.012c5.178-17.339 12.819-34.072 23.007-34.072 0 0 7.338 2.521 15.566 8.944 6.977 5.429 14.592 13.67 18.906 25.535 0 0 6.152-4.359 17.429-8.086 8.273-2.747 19.319-5.139 32.712-5.229.264-.006.522-.006.787-.006 32.125 0 50.921 13.322 50.921 13.322 4.314-11.865 11.929-20.105 18.906-25.541 8.228-6.418 15.573-8.939 15.573-8.939 10.188 0 17.829 16.733 23.007 34.072 5.578 18.655 8.305 38.012 8.305 38.012z" fill="#595454"/><path d="m255.213 21.163c-33.15.767-60.787 50.044-67.816 119.072-5.603 54.99-2.347 124.315-19.796 157.749-20.97-13.322-38.734-31.254-51.869-52.359l12.548-92.461 11.007-81.08s2.728-19.357 8.305-38.012c5.179-17.339 12.82-34.072 23.008-34.072 0 0 7.338 2.521 15.566 8.944 6.977 5.429 14.592 13.67 18.906 25.535 0 0 6.152-4.359 17.429-8.086 8.274-2.747 19.319-5.14 32.712-5.23z" fill="#454045"/><path d="m267.068 118.719 10.324-17.883c4.919-8.52-1.23-19.171-11.068-19.171h-20.649c-9.839 0-15.988 10.651-11.068 19.171l10.324 17.883c4.92 8.521 17.218 8.521 22.137 0z" fill="#211f21"/><circle cx="193.598" cy="98.157" fill="#fff" r="21.348"/><circle cx="193.598" cy="98.157" fill="#211f21" r="13.227"/><circle cx="318.402" cy="98.157" fill="#fff" r="21.348"/><g fill="#211f21"><circle cx="318.402" cy="98.157" r="13.227"/><path d="m243.235 146.079c-9.644 0-17.489-7.845-17.489-17.489v-4.556c0-2.761 2.238-5 5-5s5 2.239 5 5v4.556c0 4.129 3.359 7.489 7.489 7.489 4.129 0 7.488-3.359 7.488-7.489v-23.59c0-2.761 2.238-5 5-5s5 2.239 5 5v23.59c.001 9.643-7.844 17.489-17.488 17.489z"/><path d="m268.213 146.079c-9.644 0-17.489-7.845-17.489-17.489v-23.59c0-2.761 2.238-5 5-5s5 2.239 5 5v23.59c0 4.129 3.359 7.489 7.489 7.489s7.489-3.359 7.489-7.489v-4.556c0-2.761 2.238-5 5-5s5 2.239 5 5v4.556c0 9.643-7.846 17.489-17.489 17.489z"/><path d="m171.224 51.656c5.314-2.313 8.441-7.957 7.422-13.662-1.797-10.065-9.479-22.381-15.604-21.871-8.878.739-17.523 39.252-7.243 39.252 5.61-.001 11.36-1.949 15.425-3.719z"/></g><path d="m340.776 51.656c-5.314-2.313-8.441-7.957-7.422-13.662 1.797-10.065 9.479-22.381 15.604-21.871 8.878.739 17.523 39.252 7.243 39.252-5.61-.001-11.36-1.949-15.425-3.719z" fill="#454045"/><path d="m462.29 293.99c.02 15.11-.59 30.29-1.79 45.54-2.21 28.25-6.41 56.74-12.18 85.43-46.91 53.36-115.68 87.04-192.32 87.04-75.24 0-142.9-32.46-189.73-84.14-9.25-45.17-14.64-89.82-14.56-133.87 80.38-5.28 160.75-7.46 241.13-6.53 56.48.64 112.97 2.82 169.45 6.53z" fill="#da4a54"/><path d="m462.29 293.99c.02 15.11-.59 30.29-1.79 45.54-36.22-1.69-72.43-2.73-108.64-3.14-72.32-.84-144.63.84-216.95 5.04-13.71.79-24.28 12.47-23.62 26.18 1.94 39.83 8.78 72.99 19.02 111.47-24.03-13.57-45.64-30.91-64.04-51.22v-.01c-9.25-45.16-14.64-89.82-14.56-133.86 80.38-5.28 160.75-7.46 241.13-6.53 56.48.64 112.97 2.82 169.45 6.53z" fill="#c32430"/><path d="m498.02 279.349v.79c-.14 21.52-17.75 38.9-39.27 39.26-134.5 2.24-269 2.24-403.51 0-21.52-.36-39.13-17.74-39.27-39.26v-.79c.14-21.53 17.75-38.9 39.27-39.26 16.01-.27 32.02-.5 48.02-.71 21.91-.27 43.82-.49 65.73-.64 50.44-.38 100.87-.43 151.31-.16 21.92.11 43.84.28 65.76.52 24.23.26 48.46.59 72.69.99 21.52.36 39.13 17.73 39.27 39.26z" fill="#da4a54"/><path d="m59.589 280.149c-.002-.271-.002-.542 0-.813.125-19.505 14.067-35.725 32.467-39.785-12.27.167-24.541.332-36.811.536-21.525.359-39.134 17.736-39.272 39.263-.001.261-.001.522 0 .784.138 21.528 17.747 38.905 39.272 39.263 12.271.204 24.541.369 36.812.537-18.401-4.06-32.343-20.28-32.468-39.785z" fill="#c32430"/><path d="m257 504.624c-11.605 0-21.014-9.408-21.014-21.013v-104.579c0-11.605 9.408-21.013 21.014-21.013 11.605 0 21.013 9.408 21.013 21.013v104.579c0 11.605-9.408 21.013-21.013 21.013z" fill="#c32430"/><path d="m183.9 501.7c-10.55-3.08-20.82-6.84-30.76-11.21-.51-1.51-.86-3.11-1.02-4.78l-9.96-104.11c-1.1-11.55 7.37-21.81 18.92-22.92.68-.06 1.35-.1 2.02-.1 10.7 0 19.86 8.15 20.9 19.02l9.95 104.11c.8 8.31-3.36 15.94-10.05 19.99z" fill="#c32430"/><path d="m371.84 381.6-9.96 104.11c-.12 1.29-.36 2.54-.7 3.75-10.23 4.62-20.83 8.59-31.72 11.84-6.32-4.14-10.18-11.55-9.41-19.59l9.95-104.11c1.04-10.87 10.2-19.02 20.9-19.02.67 0 1.34.04 2.02.1 11.55 1.11 20.02 11.37 18.92 22.92z" fill="#c32430"/><path d="m105.31 297.7-56.43 108.78c-13.97-19.19-25.34-40.41-33.58-63.12l37.76-72.77c7.48-14.43 25.25-20.06 39.68-12.57 14.43 7.48 20.06 25.25 12.57 39.68z" fill="#ffd939"/><path d="m497.51 341.09c-8.07 22.93-19.33 44.37-33.23 63.78l-55.6-107.17c-7.49-14.43-1.86-32.2 12.57-39.68 14.43-7.49 32.2-1.86 39.68 12.57z" fill="#ffd939"/><path d="m466.58 66.55c-17.96 12.09-23.75 16.32-26.03 24.79-20.52 7.14-38.63-10.41-38.63-10.41 6.28-23.31 22.19-34.01 42.34-47.56 9.16-6.17 21.59-3.74 27.75 5.43 6.17 9.16 3.74 21.59-5.43 27.75z" fill="#efe7e4"/><path d="m457.56 33.37c1.422-.965 2.924-1.711 4.476-2.26-5.749-2.013-12.335-1.404-17.776 2.26-20.15 13.55-36.06 24.25-42.34 47.56 0 0 4.54 4.399 11.649 7.896.427-2.747.973-5.374 1.651-7.896 6.28-23.31 22.19-34.01 42.34-47.56z" fill="#e0d8d5"/></svg>