<svg id="Capa_1" enable-background="new 0 0 512 512" height="512" viewBox="0 0 512 512" width="512" xmlns="http://www.w3.org/2000/svg"><path d="m512 256c0 46.72-12.52 90.52-34.39 128.23-44.29 76.39-126.95 127.77-221.61 127.77-68.58 0-130.86-26.97-176.81-70.88-16.5-15.76-30.89-33.71-42.72-53.37-23.15-38.49-36.47-83.57-36.47-131.75 0-55.94 17.95-107.7 48.4-149.82 2.55-3.52 5.18-6.98 7.9-10.37 46.92-58.41 118.95-95.81 199.7-95.81 80.6 0 152.51 37.26 199.43 95.48 3.67 4.55 7.18 9.22 10.52 14.01 29.02 41.51 46.05 92.02 46.05 146.51z" fill="#ffd939"/><path d="m470.149 63.128-5.565 33.714h-415.168l-5.565-33.714c-2.714-16.39 9.338-31.544 25.927-32.582 4.894-.304 10.281-.629 16.097-.975 42.349-2.462 107.534-5.501 171.125-5.501 72.321 0 146.697 3.93 187.212 6.476 16.589 1.038 28.641 16.192 25.937 32.582z" fill="#efe7e4"/><path d="m477.61 384.23c-44.29 76.39-126.95 127.77-221.61 127.77-93.2 0-174.76-49.81-219.53-124.25-2.01-89.99 1.56-179.99 10.72-269.98.39-3.86.8-7.72 1.21-11.59.33-3.11.67-6.22 1.02-9.34 2.29-.35 4.59-.69 6.88-1.03 3.16-.46 6.32-.91 9.47-1.35 9.24-1.29 18.46-2.49 27.69-3.59 118.25-14.15 236.51-12.95 354.77 3.59 2.4.33 4.8.68 7.2 1.02 3.05.44 6.1.9 9.15 1.36.47 4.22.93 8.44 1.37 12.65.29 2.76.58 5.52.86 8.28 9.03 88.82 12.63 177.64 10.8 266.46z" fill="#ac80dd"/><g fill="#e0d8d5"><path d="m93.462 90.868-9.18 5.973h-34.866l-5.565-33.714c-2.714-16.39 9.338-31.544 25.927-32.582 4.894-.304 10.281-.629 16.097-.975-5.114 24.231 7.587 61.298 7.587 61.298z"/><path d="m94.098 76.112c-4.13.5-7.901-2.413-8.425-6.527-.456-3.613-.913-7.226-1.369-10.84-.524-4.115 2.465-7.886 6.679-8.394 4.214-.51 8.014 2.44 8.486 6.56.418 3.618.836 7.236 1.254 10.854.472 4.121-2.495 7.847-6.625 8.347z"/><path d="m136.596 71.62c-4.14.374-7.818-2.649-8.218-6.778-.347-3.625-.695-7.251-1.042-10.876-.4-4.128 2.699-7.807 6.922-8.189 4.224-.382 7.931 2.68 8.279 6.813.309 3.629.618 7.258.927 10.886.347 4.136-2.728 7.769-6.868 8.144z"/><path d="m179.181 68.412c-4.147.249-7.731-2.883-8.006-7.023-.238-3.634-.476-7.268-.715-10.902-.275-4.139 2.93-7.722 7.161-7.976 4.231-.255 7.843 2.918 8.066 7.059.2 3.636.399 7.273.599 10.909.224 4.144-2.958 7.683-7.105 7.933z"/><path d="m349.811 68.412c-4.147-.25-7.328-3.79-7.105-7.933.2-3.636.399-7.273.599-10.909.223-4.142 3.835-7.314 8.066-7.059 4.231.254 7.437 3.838 7.161 7.976-.238 3.634-.476 7.268-.715 10.902-.275 4.14-3.859 7.272-8.006 7.023z"/><path d="m221.824 66.487c-4.151.125-7.638-3.114-7.789-7.26-.129-3.64-.258-7.279-.386-10.919-.151-4.145 3.16-7.632 7.395-7.757 4.235-.128 7.749 3.153 7.848 7.299.09 3.641.18 7.282.271 10.922.098 4.147-3.188 7.59-7.339 7.715z"/><path d="m264.496 65.846c-4.153-.001-7.54-3.342-7.566-7.491-.019-3.642-.039-7.284-.058-10.926-.026-4.148 3.387-7.532 7.624-7.531 4.237-.002 7.65 3.385 7.624 7.531-.019 3.642-.039 7.284-.058 10.926-.026 4.147-3.413 7.49-7.566 7.491z"/><path d="m307.168 66.487c-4.151-.125-7.437-3.568-7.338-7.715.09-3.641.18-7.282.271-10.922.099-4.146 3.612-7.427 7.848-7.299 4.235.127 7.546 3.612 7.395 7.757-.129 3.64-.258 7.279-.386 10.919-.152 4.146-3.638 7.384-7.79 7.26z"/><path d="m392.397 71.62c-4.14-.375-7.215-4.009-6.867-8.143.309-3.629.618-7.258.927-10.886.348-4.133 4.055-7.196 8.279-6.813 4.224.381 7.322 4.059 6.922 8.189-.347 3.625-.695 7.251-1.042 10.876-.401 4.129-4.08 7.152-8.219 6.777z"/><path d="m434.895 76.112c-4.13-.5-7.097-4.225-6.625-8.347.418-3.618.836-7.236 1.254-10.854.472-4.121 4.272-7.07 8.486-6.56 4.214.51 7.203 4.279 6.679 8.394-.456 3.613-.913 7.227-1.369 10.84-.525 4.115-4.295 7.025-8.425 6.527z"/></g><path d="m79.19 441.12c-16.5-15.76-30.89-33.71-42.72-53.37-2.01-89.99 1.56-179.99 10.72-269.98.39-3.86.8-7.72 1.21-11.59.33-3.11.67-6.22 1.02-9.34 2.29-.35 4.59-.69 6.88-1.03 3.16-.46 6.32-.91 9.47-1.35 9.24-1.29 18.46-2.49 27.69-3.59-18.09 55.15-16.24 255.85-14.27 350.25z" fill="#8659b9"/><circle cx="257" cy="327.019" fill="#efe7e4" r="129.691"/><path d="m323.665 256.298c-26.87-6.577-56.11-.941-78.915 16.888-16.26-1.599-42.71-1.369-51.249 15.258-7.789 15.168 7.162 25.027 19.78 30.361-2.884 9.368-4.272 19.099-4.112 28.815-5.91-3.917-12.999-6.198-20.62-6.198-13.555 0-25.424 7.216-31.976 18.015 6.552 10.8 18.422 18.015 31.976 18.015 7.113 0 13.753-2.002 19.413-5.452-3.45 5.66-5.452 12.3-5.452 19.413 0 13.554 7.216 25.424 18.015 31.976 10.8-6.553 18.015-18.422 18.015-31.976 0-7.621-2.281-14.71-6.198-20.62 14.255.235 28.543-2.832 41.659-9.15 3.697 6.695 9.418 12.45 17.447 8.327 9.338-4.795 10.658-18.346 10.163-28.696 21.877-23.521 29.23-55.661 22.054-84.976z" fill="#b16e3d"/><circle cx="279.408" cy="293.655" fill="#efe7e4" r="13.524"/><path d="m350.461 139.122h-186.223c-6.612 0-11.971-5.36-11.971-11.971 0-6.612 5.36-11.971 11.971-11.971h186.223c6.612 0 11.971 5.36 11.971 11.971.001 6.611-5.359 11.971-11.971 11.971z" fill="#efe7e4"/><path d="m322.084 182.696h-129.469c-6.612 0-11.971-5.36-11.971-11.971 0-6.612 5.36-11.971 11.971-11.971h129.469c6.612 0 11.971 5.36 11.971 11.971.001 6.612-5.359 11.971-11.971 11.971z" fill="#efe7e4"/></svg>