<svg id="Capa_1" enable-background="new 0 0 512 512" height="512" viewBox="0 0 512 512" width="512" xmlns="http://www.w3.org/2000/svg"><path d="m512 256c0 38.81-8.64 75.6-24.1 108.56-12.24 26.11-28.76 49.81-48.65 70.2-8.64 8.85-17.9 17.08-27.74 24.61-43.11 33.01-97.02 52.63-155.51 52.63-58.5 0-112.42-19.63-155.53-52.65-9.82-7.52-19.09-15.74-27.71-24.59-19.9-20.39-36.42-44.09-48.66-70.2-15.46-32.96-24.1-69.75-24.1-108.56 0-141.38 114.62-256 256-256s256 114.62 256 256z" fill="#da4a54"/><path d="m439.25 434.76c-8.64 8.85-17.9 17.08-27.74 24.61-43.11 33.01-97.02 52.63-155.51 52.63-58.5 0-112.42-19.63-155.53-52.65-9.82-7.52-19.09-15.74-27.71-24.59z" fill="#595454"/><path d="m487.9 266.43v98.13c-17.55 37.44-43.9 69.93-76.39 94.81-41.14 12.4-95.68 19.95-155.51 19.95-45.82 0-88.54-4.43-124.5-12.08-11.01-2.34-21.39-4.98-31.03-7.89-32.48-24.88-58.83-57.36-76.37-94.79v-95.25l107.4-.67z" fill="#ac80dd"/><path d="m131.5 268.64v198.6c-11.01-2.34-21.39-4.98-31.03-7.89-32.48-24.88-58.83-57.36-76.37-94.79v-95.25z" fill="#8659b9"/><path d="m487.9 266.43v44.51c-38.06 30.18-127.56 51.37-231.9 51.37-23.83 0-46.89-1.11-68.73-3.17-73.81-6.98-133.81-24.91-163.17-48.2v-41.63l107.4-.67z" fill="#8659b9"/><path d="m507.46 263.17c0 46.3-112.58 83.84-251.46 83.84-23.83 0-46.89-1.11-68.73-3.17-105.47-9.97-182.73-42.31-182.73-80.67 0-31.38 51.72-58.74 128.31-73.11 36.39-6.83 78.41-10.73 123.15-10.73 138.88 0 251.46 37.54 251.46 83.84z" fill="#efe7e4"/><path d="m187.27 343.84c-105.47-9.97-182.73-42.31-182.73-80.67 0-31.38 51.72-58.74 128.31-73.11 22.45 31.12 59.08 87.85 45 109.26-19.83 30.16 9.42 44.52 9.42 44.52z" fill="#e0d8d5"/><path d="m459.24 263.17c-8.29 5.98-25.19 14.89-55.34 23.13-11.25 3.07-23.35 5.78-36.1 8.06-18.43 3.33-38.23 5.81-58.8 7.38-5.93.45-11.93.83-17.98 1.13-11.53.58-23.23.87-35.02.87-6.18 0-12.35-.08-18.47-.24-47.59-1.24-92.98-7.24-129.43-17.2-.35-.09-.69-.19-1.03-.29-29.51-8.15-46.11-16.93-54.31-22.84 8.29-5.98 25.19-14.89 55.34-23.13 1.45-.4 2.92-.79 4.41-1.17 30.82-8 67.62-13.26 106.53-15.3 12.15-.64 24.51-.97 36.96-.97 14.32 0 28.52.43 42.42 1.27 7.42.46 14.74 1.02 21.95 1.71 17.81 1.67 34.94 4.04 50.99 7.05 11.45 2.15 22.34 4.62 32.54 7.41 30.15 8.24 47.05 17.15 55.34 23.13z" fill="#e0d8d5"/><path d="m367.8 294.36c-5.16.93-10.43 1.8-15.79 2.59-13.79 2.06-28.2 3.66-43.01 4.79-17.24 1.32-35.03 2-53 2-6.18 0-12.35-.08-18.47-.24l-18.49-79.93-26.67-115.36c0-50.91 76.98-72.96 122.91-46.49 8.07 4.64 15.18 10.79 20.75 18.55 25.63 35.69 34.77 90.13 35.33 152.36.21 23.12-1.05 44.57-3.56 61.73z" fill="#ffb43b"/><path d="m309 301.74c-17.24 1.32-35.03 2-53 2-54.23 0-106.76-6.2-147.9-17.44-.35-.09-.69-.19-1.03-.29-29.51-8.15-46.11-16.93-54.31-22.84l11.23-82.71 9.84-72.53s2.44-17.32 7.43-34.01c4.63-15.51 11.47-30.48 20.58-30.48 0 0 6.57 2.26 13.93 8 6.24 4.86 13.05 12.23 16.91 22.84 0 0 5.5-3.9 15.59-7.23 7.4-2.46 17.29-4.6 29.27-4.68h.7c28.74 0 45.55 11.91 45.55 11.91 3.86-10.61 10.68-17.98 16.92-22.85 7.36-5.73 13.93-7.99 13.93-7.99 9.11 0 15.95 14.97 20.58 30.48 4.99 16.69 7.43 34.01 7.43 34.01l15.77 115.94z" fill="#ffd939"/><path d="m177.54 62.37c-29.66.69-54.38 44.77-60.67 106.52-2.26 22.09-2.9 46.78-4.36 69.98-1.06 17.06-2.56 33.31-5.44 47.14-29.51-8.15-46.11-16.93-54.31-22.84l11.23-82.71 9.84-72.53s2.44-17.32 7.43-34.01c4.63-15.51 11.47-30.48 20.58-30.48 0 0 6.57 2.26 13.93 8 6.24 4.86 13.05 12.23 16.91 22.84 0 0 5.5-3.9 15.59-7.23 7.4-2.46 17.29-4.6 29.27-4.68z" fill="#ffb43b"/><path d="m188.142 161.18 9.236-15.997c4.401-7.622-1.1-17.15-9.902-17.15h-18.472c-8.801 0-14.302 9.528-9.902 17.15l9.236 15.997c4.402 7.623 15.404 7.623 19.804 0z" fill="#454045"/><circle cx="122.417" cy="131.249" fill="#fff" r="19.098"/><circle cx="122.417" cy="131.249" fill="#454045" r="11.833"/><circle cx="234.065" cy="131.249" fill="#fff" r="19.098"/><circle cx="234.065" cy="131.249" fill="#454045" r="11.833"/><path d="m166.822 186.182c-8.917 0-16.172-7.255-16.172-16.172v-4.076c0-2.761 2.239-5 5-5s5 2.239 5 5v4.076c0 3.403 2.769 6.172 6.172 6.172s6.172-2.769 6.172-6.172v-21.103c0-2.761 2.239-5 5-5s5 2.239 5 5v21.103c0 8.917-7.255 16.172-16.172 16.172z" fill="#454045"/><path d="m189.166 186.182c-8.917 0-16.172-7.255-16.172-16.172v-21.103c0-2.761 2.239-5 5-5s5 2.239 5 5v21.103c0 3.403 2.769 6.172 6.172 6.172s6.172-2.769 6.172-6.172v-4.076c0-2.761 2.239-5 5-5s5 2.239 5 5v4.076c0 8.917-7.255 16.172-16.172 16.172z" fill="#454045"/><path d="m102.402 89.65c4.754-2.07 7.551-7.118 6.64-12.222-1.607-9.004-8.48-20.022-13.959-19.566-7.942.661-15.676 35.114-6.479 35.114 5.018 0 10.161-1.743 13.798-3.326z" fill="#595454"/><path d="m254.079 89.65c-4.754-2.07-7.551-7.118-6.64-12.222 1.607-9.004 8.48-20.022 13.959-19.566 7.942.661 15.676 35.114 6.479 35.114-5.017 0-10.16-1.743-13.798-3.326z" fill="#595454"/><path d="m94.602 321.401c-8.284 0-15-6.716-15-15v-35.914c0-8.284 6.716-15 15-15s15 6.716 15 15v35.914c0 8.285-6.716 15-15 15z" fill="#ffd939"/><path d="m99.922 320.427c-1.65.63-3.44.97-5.32.97-8.28 0-15-6.71-15-15v-35.91c0-8.29 6.72-15 15-15 1.88 0 3.67.34 5.32.97-5.66 2.15-9.68 7.61-9.68 14.03v35.91c0 6.42 4.02 11.88 9.68 14.03z" fill="#ffb43b"/><path d="m217.642 336.033c-8.284 0-15-6.716-15-15v-35.914c0-8.284 6.716-15 15-15s15 6.716 15 15v35.914c0 8.284-6.716 15-15 15z" fill="#ffd939"/><path d="m492.71 262.46c-3.07 29.09-21.9 54.09-48.23 64.28-.66.25-1.33.5-2 .74-7.81 2.76-16.38-1.34-19.14-9.15-.16-.47-.3-.94-.42-1.41-1.8-7.27 2.07-14.84 9.15-17.57.14-.06.28-.11.42-.16 16.52-5.82 28.45-21.49 30.38-39.88 1.86-17.63-5.92-33.16-21.35-42.6-32.04-19.62-95.61 4.39-117.4 15.29-7.41 3.71-16.42.71-20.13-6.7-3.71-7.4-.71-16.42 6.7-20.12.93-.47 23.16-11.52 51.54-19.03 12.25-3.24 23.74-5.34 34.43-6.29 24.42-2.19 44.7 1.57 60.53 11.26 25.31 15.5 38.59 42.17 35.52 71.34z" fill="#ffd939"/><path d="m473.7 245.21c0 24.22-6.06 56.14-50.78 71.71-1.8-7.27 2.07-14.84 9.15-17.57.14-.06.28-.11.42-.16 16.52-5.82 28.45-21.49 30.38-39.88 1.86-17.63-5.92-33.16-21.35-42.6-32.04-19.62-95.61 4.39-117.4 15.29-7.41 3.71-16.42.71-20.13-6.7-3.71-7.4-.71-16.42 6.7-20.12.93-.47 23.16-11.52 51.54-19.03 12.25-3.24 23.74-5.34 34.43-6.29-7.13 7.13-8.09 18.13 22.5 18.13 30.6 0 54.54 20.62 54.54 47.22z" fill="#ffb43b"/><path d="m222.962 335.063c-1.65.63-3.44.97-5.32.97-8.28 0-15-6.71-15-15v-35.91c0-8.29 6.72-15 15-15 1.88 0 3.67.34 5.32.97-5.66 2.15-9.68 7.61-9.68 14.03v35.91c0 6.42 4.02 11.88 9.68 14.03z" fill="#ffb43b"/><g fill="#efe7e4"><circle cx="208.195" cy="412.056" r="15.053"/><circle cx="303.805" cy="412.056" r="15.053"/><circle cx="236.904" cy="385.302" r="15.053"/><circle cx="275.096" cy="385.302" r="15.053"/><path d="m275.083 426.362c-1.617-8.156-8.809-14.306-17.44-14.306h-1.441c-8.631 0-15.824 6.15-17.44 14.306-6.382 2.918-10.82 9.355-10.82 16.831 0 10.219 8.284 18.503 18.503 18.503h9.757 1.441 9.757c10.219 0 18.503-8.284 18.503-18.503 0-7.476-4.437-13.912-10.82-16.831z"/></g><path d="m367.8 294.36c-18.43 3.33-38.23 5.81-58.8 7.38-5.93.45-11.93.83-17.98 1.13 10.02-7.11 42.346-19.081 33.85-60.56-1.131-5.52-3.11-10.99-4.5-16.73-16.11-66.32-17.88-151.07-5.09-163.86 8.07 4.64 15.18 10.79 20.75 18.55 25.63 35.69 34.77 90.13 35.33 152.36.21 23.12-1.05 44.57-3.56 61.73z" fill="#ffd939"/></svg>