<svg id="Capa_1" enable-background="new 0 0 512.938 512.938" height="512" viewBox="0 0 512.938 512.938" width="512" xmlns="http://www.w3.org/2000/svg"><path d="m512 256.469c0 24.67-3.49 48.52-10 71.09-2.93 10.14-6.46 20.02-10.57 29.61-1.78 4.16-3.67 8.26-5.66 12.29-32.3 65.56-91.83 115.29-163.81 134.43-21.05 5.6-43.15 8.58-65.96 8.58-9.6 0-19.07-.53-28.39-1.56-86.73-9.57-160.41-62.47-198.91-136.57-18.34-35.28-28.7-75.37-28.7-117.87 0-141.38 114.62-256 256-256s256 114.62 256 256z" fill="#90d8f9"/><path d="m356.787 31.769h90.186v316.74h-90.186z" fill="#efe7e4"/><path d="m460.17 33.149h12.424v143.357h-12.424z" fill="#454045"/><circle cx="466.382" cy="197.531" fill="#ffd939" r="27.238"/><path d="m474.983 223.383c-2.702.898-5.597 1.387-8.6 1.387-15.045 0-27.238-12.193-27.238-27.238 0-15.038 12.193-27.238 27.238-27.238 3.003 0 5.899.489 8.6 1.387-10.828 3.6-18.638 13.817-18.638 25.851 0 12.042 7.81 22.251 18.638 25.851z" fill="#ffb43b"/><path d="m356.787 31.769h90.186v37.133h-90.186z" fill="#e0d8d5"/><path d="m356.787 31.769h28.456v316.74h-28.456z" fill="#e0d8d5"/><path d="m491.43 357.169c-39.11 91.32-129.8 155.3-235.43 155.3-9.6 0-19.07-.53-28.39-1.56v-153.74z" fill="#e0d8d5"/><path d="m502 327.559c-2.93 10.14-6.46 20.02-10.57 29.61-1.78 4.16-3.67 8.26-5.66 12.29h-242.73c-11.57 0-20.95-9.38-20.95-20.95 0-5.78 2.35-11.02 6.14-14.81s9.03-6.14 14.81-6.14z" fill="#ac80dd"/><path d="m321.96 246.129v257.76c-21.05 5.6-43.15 8.58-65.96 8.58-9.6 0-19.07-.53-28.39-1.56-86.73-9.57-160.41-62.47-198.91-136.57v-128.21z" fill="#efe7e4"/><path d="m28.7 246.131h293.258v38.258h-293.258z" fill="#e0d8d5"/><path d="m329.708 268.749h-308.758c-11.57 0-20.95-9.38-20.95-20.95 0-11.57 9.38-20.95 20.95-20.95h308.758c11.57 0 20.95 9.38 20.95 20.95 0 11.571-9.38 20.95-20.95 20.95z" fill="#ac80dd"/><path d="m79.47 268.749h-58.52c-11.58 0-20.95-9.38-20.95-20.95 0-5.79 2.34-11.02 6.13-14.81 3.79-3.8 9.03-6.14 14.82-6.14h58.52c-5.78 0-11.02 2.34-14.81 6.14-3.79 3.79-6.14 9.02-6.14 14.81 0 11.57 9.38 20.95 20.95 20.95z" fill="#8659b9"/><path d="m491.988 48.002h-180.216c-11.57 0-20.95-9.38-20.95-20.95 0-11.57 9.38-20.95 20.95-20.95h180.216c11.57 0 20.95 9.38 20.95 20.95 0 11.571-9.38 20.95-20.95 20.95z" fill="#ac80dd"/><path d="m358.322 48.002h-46.55c-11.58 0-20.95-9.38-20.95-20.95 0-5.78 2.34-11.02 6.13-14.81s9.03-6.14 14.82-6.14h46.55c-5.78 0-11.02 2.35-14.81 6.14s-6.14 9.03-6.14 14.81c0 11.57 9.379 20.95 20.95 20.95z" fill="#8659b9"/><circle cx="175.329" cy="392.76" fill="#e0d8d5" r="91.079"/><circle cx="175.329" cy="392.76" fill="#454045" r="69.871"/><path d="m50.045 251.154c-2.295 0-4.572-.982-6.154-2.884-13.569-16.316-22.035-32.618-25.16-48.455-2.82-14.288-1.312-27.797 4.482-40.152 11.567-24.667 36.974-37.573 56.092-37.573 4.418 0 8 3.582 8 8s-3.582 8-8 8c-13.721 0-32.966 9.941-41.605 28.366-6.751 14.395-9.022 38.499 18.492 71.582 2.825 3.397 2.362 8.441-1.035 11.267-1.495 1.243-3.308 1.849-5.112 1.849z" fill="#ffb43b"/><path d="m59.23 156.211c-7.848-39.441 45.606-91.498 120.11-81.272s118.658 46.774 94.823 81.274" fill="#ffd939"/><path d="m313.927 160.264c-.187.297-.384.604-.593.901l-254.104-4.954c-7.841-39.438 45.611-91.496 120.117-81.271 1.647.231 3.306.472 4.964.725-30.831 5.575-55.012 21.959-68.153 40.976-11.612 16.805.024 39.769 20.447 40.167z" fill="#ffb43b"/><path d="m230.369 171.957h-6.077c-14.228 0-27.283-4.523-37.908-12.146-18.838-13.515-30.042-36.763-26.649-61.768l2.05-15.104s1.532-10.871 4.664-21.347c2.908-9.738 7.199-19.135 12.921-19.135 0 0 4.121 1.416 8.742 5.023 3.918 3.049 8.195 7.677 10.618 14.34 0 0 3.455-2.448 9.788-4.541 4.646-1.543 10.849-2.886 18.371-2.937.148-.004.293-.004.442-.004 18.041 0 28.597 7.482 28.597 7.482 2.423-6.663 6.699-11.291 10.618-14.344 4.621-3.603 8.745-5.019 8.745-5.019 5.722 0 10.013 9.397 12.921 19.135 3.132 10.476 4.664 21.347 4.664 21.347l2.05 15.104c5.308 39.106-25.093 73.914-64.557 73.914z" fill="#ffd939"/><path d="m226.889 54.341c-18.617.431-41.973 26.487-45.92 65.252-1.242 12.189 0 27.253 5.416 40.218-18.838-13.515-30.042-36.763-26.649-61.768l2.05-15.104s1.532-10.871 4.664-21.347c2.908-9.738 7.199-19.135 12.921-19.135 0 0 4.121 1.416 8.742 5.023 3.918 3.049 8.195 7.677 10.618 14.34 0 0 3.455-2.448 9.788-4.541 4.645-1.543 10.848-2.887 18.37-2.938z" fill="#ffb43b"/><path d="m179.721 71.466c2.984-1.299 4.74-4.468 4.168-7.673-1.009-5.653-5.323-12.569-8.763-12.283-4.986.415-9.841 22.044-4.068 22.044 3.151 0 6.379-1.094 8.663-2.088z" fill="#595454"/><path d="m274.94 71.466c-2.984-1.299-4.74-4.468-4.168-7.673 1.009-5.653 5.323-12.569 8.763-12.283 4.986.415 9.841 22.044 4.068 22.044-3.151 0-6.38-1.094-8.663-2.088z" fill="#595454"/><g fill="#454045"><path d="m190.309 140.572c-6.964 0-12.63-5.666-12.63-12.63 0-1.933 1.567-3.5 3.5-3.5s3.5 1.567 3.5 3.5c0 3.104 2.525 5.63 5.63 5.63s5.63-2.525 5.63-5.63c0-1.933 1.567-3.5 3.5-3.5s3.5 1.567 3.5 3.5c0 6.964-5.666 12.63-12.63 12.63z"/><path d="m264.353 140.572c-6.964 0-12.63-5.666-12.63-12.63 0-1.933 1.567-3.5 3.5-3.5s3.5 1.567 3.5 3.5c0 3.104 2.525 5.63 5.63 5.63s5.631-2.525 5.631-5.63c0-1.933 1.567-3.5 3.5-3.5s3.5 1.567 3.5 3.5c-.001 6.964-5.667 12.63-12.631 12.63z"/><path d="m232.74 143.228 5.046-8.739c2.404-4.164-.601-9.369-5.409-9.369h-10.091c-4.808 0-7.813 5.205-5.409 9.369l5.046 8.739c2.402 4.164 8.413 4.164 10.817 0z"/></g><path d="m283.656 148.712h-213.169c-21.577 0-39.068 17.492-39.068 39.068 0 21.577 17.491 39.068 39.068 39.068h213.169c21.577 0 39.068-17.492 39.068-39.068.001-21.576-17.491-39.068-39.068-39.068z" fill="#da4a54"/><path d="m121.789 215.411c7.07 7.07 16.84 11.44 27.63 11.44h-78.93c-10.79 0-20.56-4.37-27.63-11.44s-11.44-16.84-11.44-27.63c0-21.58 17.49-39.07 39.07-39.07h78.93c-21.58 0-39.07 17.49-39.07 39.07 0 10.79 4.37 20.56 11.44 27.63z" fill="#c32430"/></svg>