<svg id="Capa_1" enable-background="new 0 0 512 512" height="512" viewBox="0 0 512 512" width="512" xmlns="http://www.w3.org/2000/svg"><path d="m512 256c0 52.89-16.04 102.03-43.52 142.83-45.98 68.27-123.99 113.17-212.48 113.17-88.65 0-166.78-45.07-212.73-113.54-27.32-40.73-43.27-89.73-43.27-142.46 0-141.38 114.62-256 256-256s256 114.62 256 256z" fill="#595454"/><path d="m468.48 398.83c-45.98 68.27-123.99 113.17-212.48 113.17-11.67 0-23.16-.78-34.42-2.3-.01 0-.01 0-.02 0-7.23-.97-14.36-2.24-21.39-3.81-2.21-.49-4.42-1.01-6.61-1.57-62.27-15.6-115.5-54.03-150.29-105.86 23.27-20.32 54.24-29.58 95.37-33.8 32.33-3.32 70.94-3.52 117.03-3.52 105.07 0 171.26 1.03 212.81 37.69z" fill="#ac80dd"/><path d="m193.56 504.32c-62.27-15.6-115.5-54.03-150.29-105.86 23.27-20.32 54.24-29.58 95.37-33.8l24.07 42.37s-16.28 76.17 30.85 97.29z" fill="#8659b9"/><path d="m477.48 243.75c0 56.81-21.36 108.63-56.48 147.87-40.61 45.38-99.64 73.94-165.33 73.94-33.77 0-65.78-7.55-94.43-21.06-26.82-12.63-50.7-30.48-70.32-52.25-35.47-39.32-57.06-91.39-57.06-148.5 0-122.5 99.31-221.81 221.81-221.81s221.81 99.31 221.81 221.81z" fill="#90d8f9"/><path d="m220.27 444.5c20.16 9.51 41.99 16.06 64.92 19.11-9.66 1.29-19.51 1.95-29.52 1.95-33.77 0-65.78-7.55-94.43-21.06-26.82-12.63-50.7-30.48-70.32-52.25-35.47-39.32-57.06-91.39-57.06-148.5 0-122.5 99.31-221.81 221.81-221.81 10.01 0 19.86.66 29.52 1.95-108.55 14.43-192.3 107.37-192.3 219.86 0 57.11 21.59 109.18 57.06 148.5 19.62 21.77 43.5 39.62 70.32 52.25z" fill="#6bbef6"/><path d="m379.231 149.075c-9.807-28.357-28.107-51.497-52.926-66.918-21.063-13.089-46.148-20.297-70.635-20.297s-49.572 7.208-70.636 20.296c-24.818 15.422-43.119 38.562-52.925 66.918l-9.451-3.269c10.565-30.55 30.31-55.497 57.099-72.144 22.626-14.06 49.586-21.802 75.914-21.802s53.287 7.743 75.914 21.802c26.789 16.646 46.533 41.593 57.099 72.144z" fill="#595454"/><path d="m421 391.62c-34.42 38.47-82.08 64.85-135.81 71.99h-.01c-9.65 1.29-19.5 1.95-29.51 1.95-65.39 0-124.17-28.3-164.75-73.31l11.43-84.23.13-.92 13.23-97.47s3.28-23.26 9.98-45.69c6.22-20.84 15.41-40.95 27.66-40.95 0 0 8.82 3.03 18.71 10.75 8.38 6.52 17.54 16.43 22.72 30.69 0 0 7.4-5.24 20.95-9.72 9.95-3.3 23.23-6.18 39.32-6.29h.95c38.62 0 61.21 16.01 61.21 16.01 5.18-14.26 14.34-24.17 22.73-30.7 9.89-7.71 18.71-10.74 18.71-10.74 12.25 0 21.44 20.11 27.66 40.95 6.7 22.43 9.98 45.69 9.98 45.69z" fill="#efe7e4"/><path d="m255.05 148.42c-39.84.93-73.06 60.16-81.51 143.13-5.08 49.81-4.1 109.41-12.3 152.95-26.82-12.63-50.7-30.48-70.32-52.25l11.56-85.15 13.23-97.47s3.28-23.26 9.98-45.69c6.22-20.84 15.41-40.95 27.66-40.95 0 0 8.82 3.03 18.71 10.75 8.38 6.52 17.54 16.43 22.72 30.69 0 0 7.4-5.24 20.95-9.72 9.95-3.3 23.23-6.18 39.32-6.29z" fill="#e0d8d5"/><path d="m269.305 281.193 12.41-21.495c5.913-10.242-1.478-23.044-13.305-23.044h-24.82c-11.826 0-19.218 12.802-13.305 23.044l12.41 21.495c5.914 10.242 20.696 10.242 26.61 0z" fill="#454045"/><circle cx="180.99" cy="240.975" fill="#fff" r="25.661"/><circle cx="180.99" cy="240.975" fill="#454045" r="15.899"/><circle cx="331.01" cy="240.975" fill="#fff" r="25.661"/><g fill="#454045"><circle cx="331.01" cy="240.975" r="15.899"/><path d="m240.656 313.069c-11.035 0-20.012-8.978-20.012-20.013v-5.477c0-2.762 2.239-5 5-5s5 2.238 5 5v5.477c0 5.521 4.492 10.013 10.012 10.013s10.012-4.491 10.012-10.013v-28.355c0-2.762 2.238-5 5-5s5 2.238 5 5v28.355c0 11.036-8.978 20.013-20.012 20.013z"/><path d="m270.68 313.069c-11.034 0-20.012-8.978-20.012-20.013v-28.355c0-2.762 2.238-5 5-5s5 2.238 5 5v28.355c0 5.521 4.491 10.013 10.012 10.013s10.013-4.491 10.013-10.013v-5.477c0-2.762 2.238-5 5-5s5 2.238 5 5v5.477c-.001 11.036-8.978 20.013-20.013 20.013z"/></g><path d="m154.096 185.078c6.387-2.781 10.146-9.564 8.922-16.422-2.16-12.099-11.394-26.903-18.757-26.29-10.672.889-21.063 47.182-8.706 47.182 6.744 0 13.654-2.342 18.541-4.47z" fill="#595454"/><path d="m357.904 185.078c-6.387-2.781-10.146-9.564-8.922-16.422 2.16-12.099 11.394-26.903 18.757-26.29 10.672.889 21.063 47.182 8.706 47.182-6.744 0-13.654-2.342-18.541-4.47z" fill="#595454"/><path d="m421 391.62c-34.42 38.47-82.08 64.85-135.81 71.99h-.01c-9.65 1.29-19.5 1.95-29.51 1.95-65.39 0-124.17-28.3-164.75-73.31l5.68-41.82c18.48 19.03 40.36 34.74 64.64 46.18 28.65 13.51 60.66 21.06 94.43 21.06 62.69 0 119.31-26.01 159.66-67.83z" fill="#e0d8d5"/><path d="m355.27 312.159-2.039-9.79c23.195-4.833 39.368-15.75 48.068-32.451 19.433-37.304-3.523-91.825-3.758-92.371l9.191-3.939c.258.601 6.351 14.947 9.903 34.46 4.771 26.202 2.535 49.188-6.469 66.47-10.151 19.489-28.622 32.147-54.896 37.621z" fill="#595454"/><path d="m400.231 391.689 20.683-7.108c6.212-2.135 6.212-10.92 0-13.055l-20.683-7.108c-2.012-.691-3.593-2.272-4.284-4.284l-7.108-20.683c-2.135-6.212-10.92-6.212-13.055 0l-7.108 20.683c-.691 2.012-2.272 3.593-4.284 4.284l-20.683 7.108c-6.212 2.135-6.212 10.92 0 13.055l20.683 7.108c2.012.691 3.593 2.272 4.284 4.284l7.108 20.684c2.135 6.212 10.92 6.212 13.055 0l7.108-20.683c.691-2.013 2.272-3.594 4.284-4.285z" fill="#fff"/><path d="m151.375 102.963-13.782-5.016c-11.986-4.363-25.239 1.817-29.602 13.804l-18.404 50.566c-4.363 11.986 1.817 25.239 13.804 29.602l13.782 5.016c11.986 4.363 25.239-1.817 29.602-13.804l18.404-50.566c4.362-11.986-1.818-25.239-13.804-29.602z" fill="#ac80dd"/><path d="m118.688 197.415c-.502-.14-1.007-.303-1.515-.487l-13.785-5.017c-11.981-4.361-18.161-17.614-13.8-29.595l18.404-50.565c4.364-11.991 17.617-18.17 29.598-13.81l13.785 5.017c.507.185.999.385 1.474.6-11.572-3.35-23.92 2.798-28.102 14.29l-18.404 50.565c-4.18 11.483 1.327 24.13 12.345 29.002z" fill="#8659b9"/><path d="m373.746 97.942-13.782 5.016c-11.986 4.363-18.166 17.616-13.804 29.602l18.404 50.566c4.363 11.986 17.616 18.166 29.602 13.804l13.782-5.016c11.986-4.363 18.166-17.616 13.804-29.602l-18.404-50.566c-4.362-11.987-17.616-18.167-29.602-13.804z" fill="#ac80dd"/><path d="m409.419 191.307c-.475.215-.966.416-1.474.6l-13.785 5.017c-11.981 4.361-25.234-1.819-29.595-13.8l-18.404-50.565c-4.364-11.991 1.816-25.243 13.797-29.604l13.785-5.017c.507-.185 1.012-.347 1.515-.487-11.018 4.872-16.525 17.518-12.342 29.011l18.404 50.565c4.179 11.482 16.527 17.63 28.099 14.28z" fill="#8659b9"/><circle cx="348.265" cy="306.266" fill="#595454" r="20.95"/></svg>