<svg id="Capa_1" enable-background="new 0 0 512 512" height="512" viewBox="0 0 512 512" width="512" xmlns="http://www.w3.org/2000/svg"><path d="m512 256c0 13.98-1.12 27.7-3.28 41.07-6.03 37.43-20.19 72.15-40.6 102.29-46.02 67.97-123.86 112.64-212.12 112.64-88.27 0-166.1-44.68-212.13-112.65-20.4-30.14-34.56-64.84-40.59-102.27v-.01c-2.16-13.37-3.28-27.09-3.28-41.07 0-141.38 114.62-256 256-256s256 114.62 256 256z" fill="#ffd939"/><path d="m508.72 297.07c-6.03 37.43-20.19 72.15-40.6 102.29-50.04 14.7-126.48 24.1-212.12 24.1-54.53 0-105.32-3.82-147.94-10.38-24.34-3.75-46.01-8.39-64.19-13.73-20.4-30.14-34.56-64.84-40.59-102.27v-.01l34.92-105.82h435.6z" fill="#90d8f9"/><path d="m134.78 191.25v29.57l-26.72 192.26c-24.34-3.75-46.01-8.39-64.19-13.73-20.4-30.14-34.56-64.85-40.59-102.28l34.92-105.82z" fill="#6bbef6"/><path d="m473.8 191.25c0 28.66-97.51 51.9-217.8 51.9-45.67 0-88.06-3.35-123.07-9.07-57.21-9.36-94.73-25.05-94.73-42.83 0-22.9 62.28-42.34 148.69-49.22 21.72-1.73 44.96-2.67 69.11-2.67 120.29 0 217.8 23.24 217.8 51.89z" fill="#efe7e4"/><path d="m132.94 234.07-.01.01c-57.21-9.36-94.73-25.05-94.73-42.83 0-22.9 62.28-42.34 148.69-49.22-5.99 2.72-12.83 5.56-20.61 8.51-99.51 37.79-33.34 83.53-33.34 83.53z" fill="#e0d8d5"/><path d="m447.09 191.255c-7.76 4.61-24.23 11.55-54.58 17.69-37.86 7.66-86.34 11.88-136.51 11.88-28.27 0-56.01-1.34-81.61-3.88-19.83-1.97-38.38-4.66-54.9-8-30.35-6.14-46.82-13.08-54.58-17.69 7.49-4.45 131.87-96.04 185.6-102.36.35-.04.71-.08 1.06-.12.74-.08 1.48-.13 2.22-.17.75-.04 1.49-.06 2.21-.06 50.17 0 183.33 98.1 191.09 102.71z" fill="#b16e3d"/><g fill="#985e33"><path d="m64.91 191.255c7.49-4.45 131.87-96.04 185.6-102.36-42.64 5.49-73.54 73.88-76.12 128.05-19.83-1.97-38.38-4.66-54.9-8-30.35-6.14-46.82-13.08-54.58-17.69z"/><circle cx="210.138" cy="184.919" r="14.279"/><circle cx="239.383" cy="152.92" r="14.279"/><circle cx="195.86" cy="145.676" r="14.279"/></g><path d="m336.699 258.65c-14.053 0-34.078 16.534-45.287 26.937-10.548-5.659-22.603-8.876-35.412-8.876-12.808 0-24.863 3.217-35.412 8.876-11.209-10.403-31.233-26.937-45.287-26.937-11.553 0-15.018 52.204 7.948 74.723-1.479 5.877-2.273 12.026-2.273 18.361 0 41.434 33.589 51.405 75.023 51.405s75.023-9.971 75.023-51.405c0-6.336-.794-12.485-2.272-18.361 22.967-22.519 19.502-74.723 7.949-74.723z" fill="#454045"/><path d="m276.475 353.087c-1.538 0-2.785 1.247-2.785 2.785v3.735c0 4.11-3.343 7.453-7.453 7.453s-7.453-3.343-7.453-7.453v-19.338c0-1.538-1.247-2.785-2.785-2.785s-2.785 1.247-2.785 2.785v19.338c0 4.11-3.343 7.453-7.453 7.453-4.109 0-7.451-3.343-7.451-7.453v-3.735c0-1.538-1.247-2.785-2.785-2.785s-2.785 1.247-2.785 2.785v3.735c0 7.181 5.841 13.023 13.022 13.023 4.154 0 7.852-1.962 10.238-5.001 2.386 3.039 6.084 5.001 10.238 5.001 7.181 0 13.023-5.842 13.023-13.023v-3.735c0-1.538-1.247-2.785-2.786-2.785z" fill="#fff"/><path d="m262.797 352.212 6.34-10.982c3.021-5.233-.755-11.773-6.797-11.773h-12.68c-6.042 0-9.818 6.541-6.797 11.773l6.34 10.982c3.021 5.232 10.573 5.232 13.594 0z" fill="#fff"/><circle cx="300.589" cy="342.009" fill="#fff" r="17.598"/><ellipse cx="300.589" cy="342.009" fill="#454045" rx="6.807" ry="10.651"/><circle cx="211.411" cy="342.009" fill="#fff" r="17.598"/><ellipse cx="211.411" cy="342.009" fill="#454045" rx="6.807" ry="10.651"/></svg>