<svg width="64" height="65" viewBox="0 0 64 65" fill="none" xmlns="http://www.w3.org/2000/svg">
<g clip-path="url(#clip0_33_834)">
<path d="M3.67481 34.7532C-9.41015 11.0344 15.3882 -5.93532 31.9995 11.6511C54.1255 -11.7727 90.7759 26.1072 33.0864 59.5882C32.4082 59.9812 31.5913 59.9812 30.9131 59.5882C30.3618 59.2688 29.8198 58.9485 29.2866 58.6277L19.0796 44.8557L3.67481 34.7532Z" fill="#80C0E4"/>
<path d="M31.0444 59.6585C31.2222 59.7459 31.4116 59.8093 31.606 59.8455C31.7481 59.8718 31.8916 59.884 32.0352 59.8821C30.8384 59.1458 29.6856 58.408 28.5762 57.6692L29.2866 58.6277C29.5532 58.7883 29.8218 58.9485 30.0933 59.1087C30.3643 59.2688 31 59.6365 31.0444 59.6585Z" fill="#5BA0D3"/>
<path d="M47.0703 41.3167C44.9571 43.4363 36.8135 51.3406 29.2866 58.6277C15.8892 50.5847 7.85108 42.325 3.6748 34.7532C10.1226 28.2063 19.4238 18.7839 22.0986 16.1555C24.4136 13.8572 27.8701 13.5842 29.8159 15.5452C30.6655 16.4031 31.0879 17.5452 31.0982 18.7517C31.2363 18.5867 31.3818 18.426 31.5376 18.2727C33.854 15.9739 37.3076 15.7009 39.2549 17.6609C40.6904 19.1086 40.9019 21.3684 39.9839 23.3772C41.999 22.4744 44.2578 22.7024 45.6948 24.1497C47.6406 26.1111 47.3404 29.5637 45.0249 31.8621C44.8682 32.0168 44.7085 32.1609 44.542 32.2971C45.749 32.3167 46.8887 32.7478 47.7398 33.6057C49.6856 35.5671 49.3853 39.0193 47.0703 41.3167Z" fill="#E9E9E9"/>
<path d="M24.396 6.0974C20.4468 4.31225 15.9131 3.8435 11.7446 5.13695C8.76319 6.06176 6.04249 7.85082 4.02295 10.2576C0.573243 14.366 -0.545409 19.9817 0.271486 25.2058C0.27881 25.2532 0.287111 25.301 0.294923 25.3484C0.831545 28.6531 2.06201 31.8294 3.67481 34.7532L8.08838 37.6477C7.89795 37.3255 7.71436 37.0047 7.53809 36.6848C-3.35352 16.9417 12.002 1.87621 27.0361 7.52221C26.19 6.98803 25.3076 6.50951 24.396 6.0974Z" fill="#5BA0D3"/>
<path d="M35.8984 20.6394C34.917 19.6506 33.0542 19.9084 31.7378 21.2151C30.4214 22.5217 30.1494 24.3821 31.1304 25.3708C32.1118 26.3596 33.9746 26.1023 35.291 24.7956C36.6079 23.489 36.8799 21.6282 35.8984 20.6394Z" fill="#E1738C"/>
<path d="M27.3687 18.9426C26.3877 17.9539 24.5249 18.2112 23.208 19.5178C21.8916 20.8245 21.6196 22.6853 22.6006 23.6741C23.582 24.6628 25.4448 24.405 26.7612 23.0984C28.0781 21.7917 28.3501 19.9314 27.3687 18.9426Z" fill="#E1738C"/>
<path d="M42.3384 27.1282C41.357 26.1394 39.4942 26.3972 38.1778 27.7039C36.8609 29.0105 36.5889 30.8713 37.5703 31.8601C38.5513 32.8489 40.4141 32.5911 41.731 31.2844C43.0474 29.9778 43.3194 28.1169 42.3384 27.1282Z" fill="#E1738C"/>
<path d="M44.3506 36.0618C43.3692 35.073 41.5064 35.3308 40.19 36.6374C38.8731 37.9441 38.6016 39.8049 39.5825 40.7937C40.564 41.7825 42.4268 41.5246 43.7432 40.218C45.0601 38.9114 45.332 37.0505 44.3506 36.0618Z" fill="#E1738C"/>
<path d="M34.9243 38.2131C32.5947 35.866 35.0132 33.6985 32.3218 30.9866C29.6304 28.2751 27.4448 30.677 25.1153 28.3298C23.3013 26.5017 18.2251 27.4739 17.1104 31.8914C15.9956 36.3088 20.5791 37.1033 23.3477 39.8933C26.1162 42.6829 26.8765 47.2722 31.3023 46.1912C35.7281 45.1101 36.7383 40.0413 34.9243 38.2131Z" fill="#E1738C"/>
<path d="M29.5889 58.3352C18.3071 51.0027 11.3301 43.5603 7.53809 36.6848C6.79688 35.3416 6.17871 34.0203 5.67236 32.7258C4.98438 33.4236 4.31543 34.1028 3.6748 34.7532C5.17578 37.4744 7.17529 40.2844 9.74317 43.1409C9.96631 43.3894 10.1938 43.6384 10.4258 43.8875C11.7012 45.2571 13.1084 46.637 14.6543 48.0222C14.7949 48.1482 14.9365 48.2742 15.0791 48.4002C17.936 50.9207 21.2549 53.4568 25.0806 55.9817C25.272 56.1082 25.4644 56.2341 25.6582 56.3606C26.8213 57.1174 28.0303 57.8733 29.2866 58.6277C29.3872 58.53 29.4878 58.4329 29.5889 58.3352Z" fill="#D3D2D8"/>
</g>
<defs>
<clipPath id="clip0_33_834">
<rect width="64" height="64" fill="white" transform="translate(0 0.0158691)"/>
</clipPath>
</defs>
</svg>
