<svg width="64" height="65" viewBox="0 0 64 65" fill="none" xmlns="http://www.w3.org/2000/svg">
<g clip-path="url(#clip0_34_884)">
<g filter="url(#filter0_i_34_884)">
<path d="M10.125 55.3721H53.875V55.3709C60.1063 49.5321 64 41.2284 64 32.0159C64 22.8034 60.1063 14.4996 53.875 8.65962C48.1525 3.29962 40.46 0.0158691 32 0.0158691C26.83 0.0158691 21.9475 1.24212 17.625 3.41962C14.8737 4.80462 12.35 6.57587 10.125 8.65962C3.89375 14.4996 0 22.8034 0 32.0159C0 41.2284 3.89375 49.5321 10.125 55.3721Z" fill="#F6D100"/>
</g>
<path d="M53.875 2.51587V55.3721C48.1525 60.7321 40.46 64.0159 32 64.0159C23.54 64.0159 15.8475 60.7321 10.125 55.3721V2.51587C10.125 1.13462 11.2437 0.0158691 12.625 0.0158691H51.375C52.7562 0.0158691 53.875 1.13462 53.875 2.51587Z" fill="#EB5793"/>
<path d="M53.875 55.3709V55.3721C48.1525 60.7321 40.46 64.0159 32 64.0159C23.54 64.0159 15.8475 60.7321 10.125 55.3721V2.51587C10.125 1.13462 11.2437 0.0158691 12.625 0.0158691H17.625V50.7571C17.625 53.3059 19.6913 55.3709 22.2388 55.3709H53.875Z" fill="#E7387F"/>
<path d="M12.625 29.0475V3.76587C12.625 3.07549 13.1846 2.51587 13.875 2.51587H50.125C50.8154 2.51587 51.375 3.07549 51.375 3.76587V29.0475C51.375 29.6175 50.9894 30.1154 50.4374 30.2579C38.3439 33.3787 25.6561 33.3787 13.5627 30.2579C13.0106 30.1154 12.625 29.6175 12.625 29.0475Z" fill="#3342AE"/>
<path d="M17.625 7.51587H46.375V26.0796H17.625V7.51587Z" fill="#5766CE"/>
<path d="M22.625 7.51587H17.625V26.0796H46.375V21.0796H36.1888C28.6976 21.0796 22.625 15.0069 22.625 7.51587Z" fill="#3D4EC6"/>
<path d="M27.625 41.4849H25.125V38.9849C25.125 37.6041 24.0057 36.4849 22.625 36.4849C21.2443 36.4849 20.125 37.6041 20.125 38.9849V41.4849H17.625C16.2443 41.4849 15.125 42.6041 15.125 43.9849C15.125 45.3656 16.2443 46.4849 17.625 46.4849H20.125V48.9849C20.125 50.3656 21.2443 51.4849 22.625 51.4849C24.0057 51.4849 25.125 50.3656 25.125 48.9849V46.4849H27.625C29.0057 46.4849 30.125 45.3656 30.125 43.9849C30.125 42.6041 29.0057 41.4849 27.625 41.4849Z" fill="#D0E8FE"/>
<path d="M20.125 43.9849C20.125 42.6041 21.2443 41.4849 22.625 41.4849H25.125V38.9849C25.125 37.6041 24.0057 36.4849 22.625 36.4849C21.2443 36.4849 20.125 37.6041 20.125 38.9849V41.4849H17.625C16.2443 41.4849 15.125 42.6041 15.125 43.9849C15.125 45.3656 16.2443 46.4849 17.625 46.4849H20.125V48.9849C20.125 50.3656 21.2443 51.4849 22.625 51.4849C24.0057 51.4849 25.125 50.3656 25.125 48.9849V46.4849H22.625C21.2443 46.4849 20.125 45.3656 20.125 43.9849Z" fill="#A9D8FC"/>
<path d="M45.8489 43.6154C47.5202 43.6154 48.875 42.2605 48.875 40.5892C48.875 38.918 47.5202 37.5631 45.8489 37.5631C44.1776 37.5631 42.8228 38.918 42.8228 40.5892C42.8228 42.2605 44.1776 43.6154 45.8489 43.6154Z" fill="#F6D100"/>
<path d="M47.7239 41.7404C46.0526 41.7404 44.6978 40.3855 44.6978 38.7142C44.6978 38.3689 44.7564 38.0375 44.8629 37.7282C43.6759 38.1372 42.8228 39.2632 42.8228 40.5892C42.8228 42.2605 44.1776 43.6154 45.8489 43.6154C47.1749 43.6154 48.3008 42.7622 48.7099 41.5752C48.4008 41.6817 48.0693 41.7404 47.7239 41.7404Z" fill="#F2BA00"/>
<path d="M39.0575 50.4067C40.7288 50.4067 42.0836 49.0519 42.0836 47.3806C42.0836 45.7093 40.7288 44.3545 39.0575 44.3545C37.3862 44.3545 36.0314 45.7093 36.0314 47.3806C36.0314 49.0519 37.3862 50.4067 39.0575 50.4067Z" fill="#B9E746"/>
<path d="M40.9325 48.5317C39.2612 48.5317 37.9064 47.1769 37.9064 45.5056C37.9064 45.1602 37.965 44.8289 38.0715 44.5196C36.8845 44.9286 36.0314 46.0546 36.0314 47.3806C36.0314 49.0519 37.3862 50.4067 39.0575 50.4067C40.3835 50.4067 41.5094 49.5536 41.9185 48.3666C41.6094 48.4731 41.2779 48.5317 40.9325 48.5317Z" fill="#9ED369"/>
<path d="M28.5625 59.7464H22.9375C22.4197 59.7464 22 59.3266 22 58.8089C22 58.2911 22.4197 57.8714 22.9375 57.8714H28.5625C29.0802 57.8714 29.5 58.2911 29.5 58.8089C29.5 59.3266 29.0802 59.7464 28.5625 59.7464Z" fill="#3D4EC6"/>
<path d="M25.75 58.8089C25.75 58.2911 26.1698 57.8714 26.6875 57.8714H22.9375C22.4197 57.8714 22 58.2911 22 58.8089C22 59.3266 22.4197 59.7464 22.9375 59.7464H26.6875C26.1698 59.7464 25.75 59.3266 25.75 58.8089Z" fill="#3342AE"/>
<path d="M41.0625 59.7464H35.4375C34.9197 59.7464 34.5 59.3266 34.5 58.8089C34.5 58.2911 34.9197 57.8714 35.4375 57.8714H41.0625C41.5802 57.8714 42 58.2911 42 58.8089C42 59.3266 41.5802 59.7464 41.0625 59.7464Z" fill="#3D4EC6"/>
<path d="M38.25 58.8089C38.25 58.2911 38.6698 57.8714 39.1875 57.8714H35.4375C34.9197 57.8714 34.5 58.2911 34.5 58.8089C34.5 59.3266 34.9197 59.7464 35.4375 59.7464H39.1875C38.6698 59.7464 38.25 59.3266 38.25 58.8089Z" fill="#3342AE"/>
</g>
<defs>
<filter id="filter0_i_34_884" x="0" y="0.0158691" width="64" height="59.3562" filterUnits="userSpaceOnUse" color-interpolation-filters="sRGB">
<feFlood flood-opacity="0" result="BackgroundImageFix"/>
<feBlend mode="normal" in="SourceGraphic" in2="BackgroundImageFix" result="shape"/>
<feColorMatrix in="SourceAlpha" type="matrix" values="0 0 0 0 0 0 0 0 0 0 0 0 0 0 0 0 0 0 127 0" result="hardAlpha"/>
<feOffset dy="4"/>
<feGaussianBlur stdDeviation="2"/>
<feComposite in2="hardAlpha" operator="arithmetic" k2="-1" k3="1"/>
<feColorMatrix type="matrix" values="0 0 0 0 0 0 0 0 0 0 0 0 0 0 0 0 0 0 0.25 0"/>
<feBlend mode="normal" in2="shape" result="effect1_innerShadow_34_884"/>
</filter>
<clipPath id="clip0_34_884">
<rect width="64" height="64" fill="white" transform="translate(0 0.0158691)"/>
</clipPath>
</defs>
</svg>
