<svg id="Capa_1" enable-background="new 0 0 512 512" height="512" viewBox="0 0 512 512" width="512" xmlns="http://www.w3.org/2000/svg"><g><path d="m240.39 213.3v152.474c28.144-14.514 58.375-35.811 85.333-67.042v-152.474c-26.958 31.231-57.189 52.527-85.333 67.042z" fill="#fe9738"/><path d="m284.098 185.58v152.474c14.242-10.947 28.332-23.922 41.626-39.322v-152.474c-13.294 15.4-27.384 28.375-41.626 39.322z" fill="#fe860a"/><path d="m240.39 365.774v135.82c0 5.747 4.659 10.406 10.407 10.406h64.52c5.747 0 10.406-4.659 10.406-10.406v-202.862c-26.958 31.231-57.189 52.527-85.333 67.042z" fill="#cb97e7"/><path d="m284.098 338.054v163.539c0 5.747-4.659 10.406-10.406 10.406h41.626c5.747 0 10.406-4.659 10.406-10.406v-202.861c-13.294 15.401-27.384 28.375-41.626 39.322z" fill="#bd80e1"/><path d="m325.724 146.258v-135.851c0-5.748-4.66-10.407-10.407-10.407h-66.753c-4.798 0-8.973 3.28-10.11 7.941l-2.272 9.316c-3.638 14.915-17 25.41-32.352 25.41h-7.146c-5.747 0-10.406 4.659-10.406 10.407v64.52c0 5.747 4.659 10.407 10.406 10.407h27.057c9.196 0 16.65 7.455 16.65 16.65v68.649c28.143-14.515 58.374-35.811 85.333-67.042z" fill="#ffe177"/><path d="m315.317 0h-41.626c5.747 0 10.406 4.659 10.406 10.407v175.173c14.242-10.947 28.332-23.922 41.626-39.322v-135.851c.001-5.748-4.659-10.407-10.406-10.407z" fill="#ffd15b"/></g></svg>