<svg id="Capa_1" enable-background="new 0 0 512 512" height="512" viewBox="0 0 512 512" width="512" xmlns="http://www.w3.org/2000/svg"><g><path d="m149.854 340.214v161.38c0 5.747 4.659 10.406 10.407 10.406h64.52c5.747 0 10.407-4.659 10.407-10.406v-164.955c-30.407-4.704-59.385-2.307-85.334 3.575z" fill="#bbec6c"/><path d="m193.561 334.348v167.246c0 5.747-4.659 10.406-10.407 10.406h41.626c5.747 0 10.407-4.659 10.407-10.406v-164.955c-14.246-2.204-28.172-2.833-41.626-2.291z" fill="#a2e62e"/><path d="m330.927 501.594c0 5.747 4.659 10.406 10.407 10.406h64.52c5.747 0 10.406-4.659 10.406-10.406v-92.934c-28.222-7.44-56.84-18.984-85.333-33.81z" fill="#bbec6c"/><path d="m374.634 394.891v106.703c0 5.747-4.659 10.406-10.407 10.406h41.626c5.747 0 10.406-4.659 10.406-10.406v-92.934c-13.8-3.639-27.696-8.265-41.625-13.769z" fill="#a2e62e"/><path d="m330.927 225.361v149.489c28.494 14.826 57.111 26.369 85.333 33.81v-149.031c-28.272-7.478-56.898-19.163-85.333-34.268z" fill="#fe73c5"/><path d="m374.634 245.742v149.149c13.929 5.505 27.825 10.131 41.626 13.769v-149.031c-13.812-3.653-27.708-8.317-41.626-13.887z" fill="#fe4fb7"/><path d="m416.26 10.407c0-5.748-4.659-10.407-10.406-10.407h-66.754c-4.798 0-8.973 3.28-10.11 7.941l-2.272 9.316c-3.638 14.915-17 25.41-32.352 25.41h-7.146c-5.747 0-10.406 4.659-10.406 10.407v64.52c0 5.747 4.659 10.407 10.406 10.407h27.057c9.196 0 16.65 7.455 16.65 16.65v80.71c28.435 15.105 57.061 26.791 85.333 34.268z" fill="#62dbfb"/><path d="m405.854 0h-41.626c5.747 0 10.407 4.659 10.407 10.407v235.335c13.917 5.57 27.814 10.234 41.626 13.887v-249.222c-.001-5.748-4.66-10.407-10.407-10.407z" fill="#01d0fb"/><path d="m235.187 185.176v-174.769c0-5.748-4.659-10.407-10.407-10.407h-66.753c-4.798 0-8.973 3.28-10.11 7.941l-2.272 9.316c-3.638 14.915-17 25.41-32.352 25.41h-7.146c-5.747 0-10.407 4.659-10.407 10.407v64.52c0 5.747 4.659 10.407 10.407 10.407h27.057c9.196 0 16.65 7.455 16.65 16.65v42.72c25.715-5.744 54.601-7.713 85.333-2.195z" fill="#62dbfb"/><path d="m224.78 0h-41.626c5.747 0 10.407 4.659 10.407 10.407v171.573c13.387-.305 27.303.624 41.626 3.195v-174.768c0-5.748-4.659-10.407-10.407-10.407z" fill="#01d0fb"/><path d="m149.854 187.371v152.843c25.95-5.882 54.927-8.279 85.333-3.575v-151.463c-30.732-5.518-59.618-3.549-85.333 2.195z" fill="#fe73c5"/><path d="m193.561 181.98v152.367c13.454-.542 27.38.088 41.626 2.292v-151.463c-14.323-2.572-28.239-3.501-41.626-3.196z" fill="#fe4fb7"/></g></svg>