<svg id="Capa_1" enable-background="new 0 0 512 512" height="512" viewBox="0 0 512 512" width="512" xmlns="http://www.w3.org/2000/svg"><g><path d="m91.577 177.174v122.806c26.456-.066 55.494 2.704 85.333 10.44v-131.697c-31.609-7.261-60.248-6.566-85.333-1.549z" fill="#9cf8d2"/><path d="m135.285 173.417v129.141c13.572 1.662 27.507 4.2 41.626 7.861v-131.696c-14.525-3.336-28.413-4.976-41.626-5.306z" fill="#6cf5c2"/><path d="m462.344 218.205c7.806-7.806 12.192-18.394 12.192-29.434v-59.381c0-70.743-56.804-129.144-127.547-129.389-70.9-.245-128.452 57.156-128.452 127.999v32.26c0 5.747 4.659 10.406 10.407 10.406h64.52c5.747 0 10.406-4.659 10.406-10.406v-31.417c0-23.924 19.579-43.959 43.499-43.502 23.18.443 41.835 19.373 41.835 42.659v34.046c0 5.52-2.193 10.814-6.096 14.717l-61.875 61.875c35.081 12.664 67.89 20.265 98.657 22.023z" fill="#5f99d7"/><path d="m230.169 329.73c-7.45 7.746-11.632 18.077-11.632 28.846v143.018c0 5.747 4.659 10.407 10.407 10.407h235.186c5.747 0 10.406-4.659 10.406-10.407v-64.52c0-5.747-4.659-10.406-10.406-10.406h-149.854c-5.747 0-10.406-4.659-10.406-10.406v-30.96c0-3.621.96-7.135 2.711-10.233-10.902-5.417-21.691-11.866-32.274-19.398-14.511-10.327-29.295-18.886-44.138-25.941z" fill="#ffe177"/><path d="m419.889 260.66c-30.766-1.758-63.576-9.359-98.657-22.023l-90.504 90.504c-.192.192-.372.393-.56.588 14.843 7.056 29.627 15.615 44.137 25.94 10.584 7.531 21.373 13.981 32.274 19.398.918-1.625 2.042-3.141 3.385-4.484z" fill="#9cf8d2"/><path d="m346.989.001c-7.266-.025-14.388.565-21.326 1.703 61.001 10.082 107.248 63.856 107.248 127.686v42.731c0 11.04-4.386 21.628-12.192 29.434l-51.491 51.491c17.481 4.096 34.362 6.683 50.662 7.614l42.455-42.455c7.806-7.806 12.192-18.394 12.192-29.434v-59.381c0-70.744-56.805-129.144-127.548-129.389z" fill="#3c87d0"/><path d="m274.306 355.67c10.584 7.531 21.373 13.981 32.274 19.398.918-1.625 2.042-3.141 3.385-4.484l109.924-109.924c-16.3-.931-33.181-3.519-50.662-7.614l-99.466 99.466c1.517 1.037 3.034 2.082 4.545 3.158z" fill="#6cf5c2"/><g fill="#ffd15b"><path d="m303.87 416.26v-30.96c0-3.621.96-7.135 2.711-10.233-10.902-5.417-21.691-11.866-32.274-19.398-1.512-1.076-3.028-2.121-4.545-3.158l-1.421 1.421c-3.903 3.903-6.096 9.197-6.096 14.717v47.61c0 5.747 4.659 10.406 10.406 10.406h41.626c-5.748.002-10.407-4.657-10.407-10.405z"/><path d="m464.13 426.667h-41.626c5.747 0 10.406 4.659 10.406 10.406v64.52c0 5.747-4.659 10.407-10.406 10.407h41.626c5.747 0 10.406-4.659 10.406-10.407v-64.52c.001-5.747-4.659-10.406-10.406-10.406z"/></g><path d="m176.911 178.723v-168.316c0-5.748-4.66-10.407-10.407-10.407h-66.753c-4.798 0-8.973 3.28-10.11 7.941l-2.272 9.316c-3.638 14.915-17 25.41-32.352 25.41h-7.147c-5.747 0-10.407 4.659-10.407 10.407v64.52c0 5.747 4.659 10.407 10.407 10.407h27.057c9.196 0 16.65 7.455 16.65 16.65v32.523c25.085-5.017 53.724-5.712 85.334 1.549z" fill="#5f99d7"/><path d="m166.504 0h-41.626c5.747 0 10.407 4.659 10.407 10.407v163.011c13.213.329 27.102 1.969 41.626 5.306v-168.317c0-5.748-4.66-10.407-10.407-10.407z" fill="#3c87d0"/><path d="m91.577 299.979v201.614c0 5.747 4.659 10.407 10.407 10.407h64.52c5.747 0 10.407-4.659 10.407-10.407v-191.174c-29.84-7.736-58.877-10.506-85.334-10.44z" fill="#ffe177"/><path d="m135.285 302.559v199.035c0 5.747-4.659 10.407-10.407 10.407h41.626c5.747 0 10.407-4.659 10.407-10.407v-191.175c-14.12-3.66-28.055-6.198-41.626-7.86z" fill="#ffd15b"/></g></svg>