<svg id="Capa_1" enable-background="new 0 0 512 512" height="512" viewBox="0 0 512 512" width="512" xmlns="http://www.w3.org/2000/svg"><g><path d="m389.203 364.145v19.012c0 23.924-19.579 43.959-43.499 43.502-23.18-.443-41.835-19.373-41.835-42.659v-31.74c0-5.747-4.659-10.407-10.406-10.407h-64.52c-5.747 0-10.406 4.659-10.406 10.407v30.35c0 70.743 56.804 129.144 127.547 129.389 55.499.192 102.817-34.94 120.756-84.191-24.201-26.589-50.447-47.445-77.637-63.663z" fill="#5f99d7"/><path d="m474.537 319.48c0-29.742-10.148-57.11-27.166-78.841-3.001-3.833-3.001-9.17 0-13.002 17.014-21.729 27.166-49.086 27.166-78.823v-20.814c0-15.677-2.823-30.694-7.981-44.576-20.009 29.131-46.133 52.148-77.408 67.577-1.139 22.547-19.781 40.478-42.611 40.478l-32.355.296c-5.71.052-10.311 4.696-10.311 10.406v64.519c0 5.785 4.717 10.459 10.502 10.406l32.165-.294c23.564 0 42.667 19.103 42.667 42.667v44.666c27.19 16.218 53.436 37.073 77.637 63.663 4.978-13.667 7.697-28.42 7.697-43.808v-64.52z" fill="#d77f4a"/><path d="m432.45 394.83c-4.916 58.664-49.39 106.07-106.666 115.466 6.608 1.092 13.386 1.679 20.299 1.703 55.499.192 102.817-34.94 120.756-84.191-11.068-12.161-22.569-23.11-34.389-32.978z" fill="#3c87d0"/><path d="m474.537 148.813v-20.813c0-15.677-2.823-30.694-7.981-44.576-9.827 14.307-21.137 27.129-33.799 38.312.1 2.076.154 4.163.154 6.263v20.813c0 29.737-10.152 57.094-27.166 78.823-3.001 3.833-3.001 9.17 0 13.002 17.017 21.732 27.166 49.1 27.166 78.841v64.522c0 3.649-.161 7.259-.46 10.83 11.82 9.868 23.321 20.816 34.39 32.978 4.978-13.667 7.697-28.42 7.697-43.808v-64.52c0-29.742-10.148-57.11-27.166-78.841-3.001-3.833-3.001-9.17 0-13.002 17.012-21.73 27.165-49.087 27.165-78.824z" fill="#c86d36"/><path d="m91.577 501.593c0 5.747 4.659 10.406 10.407 10.406h64.52c5.747 0 10.406-4.659 10.406-10.406v-189.46c-32.817.554-62.141 4.22-85.333 8.36z" fill="#5f99d7"/><path d="m176.911 157.945v-147.538c0-5.748-4.66-10.407-10.407-10.407h-66.753c-4.798 0-8.973 3.28-10.11 7.941l-2.272 9.316c-3.638 14.915-17 25.41-32.352 25.41h-7.147c-5.747 0-10.407 4.659-10.407 10.407v64.52c0 5.747 4.659 10.407 10.407 10.407h27.057c9.196 0 16.65 7.455 16.65 16.65v25.861c20.618-9.572 48.391-15.678 85.334-12.567z" fill="#8d9ca8"/><path d="m91.577 170.512v149.981c23.192-4.139 52.516-7.806 85.333-8.36v-154.188c-36.942-3.111-64.715 2.995-85.333 12.567z" fill="#d77f4a"/><path d="m166.504 0h-41.626c5.747 0 10.407 4.659 10.407 10.407v148.063c12.38-1.498 26.192-1.824 41.626-.525v-147.538c0-5.748-4.66-10.407-10.407-10.407z" fill="#7a8c98"/><path d="m135.285 158.47v156.034c13.025-1.253 26.974-2.124 41.626-2.371v-154.188c-15.434-1.299-29.247-.973-41.626.525z" fill="#c86d36"/><path d="m135.285 314.504v187.09c0 5.747-4.659 10.406-10.407 10.406h41.626c5.747 0 10.406-4.659 10.406-10.406v-189.461c-14.652.247-28.601 1.118-41.625 2.371z" fill="#3c87d0"/><path d="m466.555 83.424c-18.149-48.847-65.261-83.614-120.471-83.423-70.743.245-127.547 58.645-127.547 129.389v10.058c0 5.747 4.659 10.407 10.406 10.407h64.52c5.747 0 10.406-4.659 10.406-10.407v-10.604c0-23.924 19.579-43.959 43.499-43.502 23.18.443 41.835 19.373 41.835 42.659v20.813c0 .734-.019 1.464-.055 2.189 31.275-15.431 57.398-38.448 77.407-67.579z" fill="#8d9ca8"/><path d="m346.084.001c-6.914.024-13.692.611-20.299 1.703 58.755 9.638 104.044 59.276 106.972 120.033 12.663-11.183 23.972-24.005 33.799-38.312-18.15-48.848-65.262-83.615-120.472-83.424z" fill="#7a8c98"/></g></svg>