<svg id="Capa_1" enable-background="new 0 0 512 512" height="512" viewBox="0 0 512 512" width="512" xmlns="http://www.w3.org/2000/svg"><g><path d="m91.057 401.829v99.765c0 5.747 4.659 10.406 10.407 10.406h64.52c5.747 0 10.406-4.659 10.406-10.406v-113.252c-32.946 11.996-61.149 15.816-85.333 13.487z" fill="#fe73c5"/><path d="m134.764 399.736v101.857c0 5.747-4.659 10.406-10.407 10.406h41.626c5.747 0 10.406-4.659 10.406-10.406v-113.251c-14.814 5.394-28.662 9.122-41.625 11.394z" fill="#fe4fb7"/><path d="m91.057 190.669v211.159c24.184 2.329 52.387-1.491 85.333-13.486v-205.071c-31.66 4.918-60.818 6.9-85.333 7.398z" fill="#fe9738"/><path d="m134.764 188.307v211.429c12.963-2.272 26.811-6 41.626-11.394v-205.071c-14.469 2.247-28.406 3.876-41.626 5.036z" fill="#fe860a"/><path d="m176.39 10.407c0-5.748-4.659-10.407-10.406-10.407h-66.754c-4.798 0-8.973 3.28-10.11 7.941l-2.272 9.316c-3.638 14.915-17 25.41-32.352 25.41h-7.146c-5.747 0-10.407 4.659-10.407 10.407v64.52c0 5.747 4.659 10.407 10.407 10.407h27.057c9.196 0 16.65 7.455 16.65 16.65v46.019c24.515-.498 53.673-2.481 85.333-7.398z" fill="#bbec6c"/><path d="m165.984 0h-41.626c5.747 0 10.407 4.659 10.407 10.407v177.9c13.22-1.16 27.157-2.788 41.626-5.036v-172.864c-.001-5.748-4.66-10.407-10.407-10.407z" fill="#a2e62e"/><path d="m389.724 323.018v60.982c0 23.564-19.103 42.667-42.667 42.667s-42.667-19.103-42.667-42.667v-58.469c-15.298 4.918-31.324 12.341-48.064 22.738-12.903 8.013-25.259 15.026-37.102 21.122 3.419 87.579 58.861 142.372 127.38 142.609 70.9.245 128.453-57.156 128.453-127.999v-5.362c-22.215-23.851-50.759-45.894-85.333-55.621z" fill="#fe73c5"/><path d="m433.431 343.148v40.852c0 63.559-46.329 116.289-107.058 126.285 6.586 1.105 13.341 1.69 20.232 1.714 70.9.245 128.453-57.156 128.453-127.999v-5.362c-12.034-12.919-25.928-25.302-41.627-35.49z" fill="#fe4fb7"/><path d="m304.39 128.843c0-23.924 19.579-43.959 43.499-43.502 14.512.278 27.247 7.803 34.745 19.104 22.65-15.76 44.409-34.321 64.587-56.141-23.539-29.545-59.872-48.444-100.617-48.303-70.743.245-127.547 58.645-127.547 107.535v67.504c27.778-6.446 56.632-15.356 85.333-27.572z" fill="#bbec6c"/><path d="m346.604.001c-6.928.024-13.72.613-20.34 1.689 42.248 6.916 77.537 34.515 95.132 72.06 8.845-7.948 17.472-16.413 25.825-25.446-23.539-29.545-59.872-48.444-100.617-48.303z" fill="#a2e62e"/><path d="m304.39 325.531v-26.864c0-23.564 19.103-42.667 42.667-42.667s42.667 19.103 42.667 42.667v24.351c34.574 9.727 63.118 31.77 85.333 55.62v-78.555c0-70.887-57.019-129.366-127.906-129.417-14.996-.011-29.386 2.566-42.761 7.294v-30.493c-28.702 12.216-57.555 21.126-85.333 27.572v185.718c0 2.912.057 5.79.168 8.633 11.843-6.096 24.199-13.109 37.102-21.122 16.739-10.396 32.765-17.819 48.063-22.737z" fill="#fe9738"/><path d="m382.634 104.445c2.982 4.495 5.138 9.586 6.244 15.059.99 4.901 5.177 8.496 10.177 8.496h65.137c6.075 0 10.905-5.187 10.379-11.24-2.241-25.763-12.117-49.338-27.349-68.456-20.179 21.821-41.938 40.381-64.588 56.141z" fill="#fe9738"/><g fill="#fe860a"><path d="m347.151 170.667c-7.144-.005-14.149.584-20.974 1.706 60.989 10.085 107.254 63.86 107.254 127.711v43.064c15.699 10.188 29.593 22.572 41.626 35.49v-78.555c0-70.886-57.019-129.365-127.906-129.416z"/><path d="m474.57 116.76c-2.241-25.763-12.117-49.338-27.349-68.456-8.352 9.032-16.979 17.498-25.825 25.446 6.212 13.255 10.221 27.749 11.548 43.01.526 6.052-4.303 11.24-10.379 11.24h41.626c6.076 0 10.906-5.187 10.379-11.24z"/></g></g></svg>