<svg id="Capa_1" enable-background="new 0 0 512 512" height="512" viewBox="0 0 512 512" width="512" xmlns="http://www.w3.org/2000/svg"><g><path d="m473.151 100.212c.918-2.979 1.385-6.079 1.385-9.197v-70.202c.001-11.495-9.318-20.813-20.812-20.813h-224.78c-5.747 0-10.406 4.659-10.406 10.407v64.52c0 5.747 4.659 10.407 10.406 10.407h155.056c2.299 0 4.163 1.864 4.163 4.163v4.634c0 1.053-.16 2.099-.474 3.104l-11.305 36.179c28.405 1.81 54.417 12.777 76.897 31.423z" fill="#5f99d7"/><path d="m453.724 0h-41.626c11.495 0 20.813 9.318 20.813 20.813v70.203c0 3.118-.467 6.217-1.385 9.197l-13.26 43.126c12.411 5.26 24.131 12.469 35.016 21.498l19.87-64.623c.918-2.979 1.385-6.079 1.385-9.197v-70.204c0-11.495-9.319-20.813-20.813-20.813z" fill="#3c87d0"/><path d="m376.384 133.413-90.24 288.781c34.371-4.017 66.408-12.126 94.672-21.681l72.465-235.678c-22.481-18.645-48.492-29.612-76.897-31.422z" fill="#fe73c5"/><path d="m418.265 143.338-83.089 270.228c16.055-3.753 31.332-8.216 45.639-13.053l72.465-235.678c-10.884-9.027-22.603-16.237-35.015-21.497z" fill="#fe4fb7"/><path d="m262.303 498.49c-2.094 6.701 2.912 13.51 9.933 13.51h66.613c4.569 0 8.604-2.981 9.947-7.348l32.02-104.138c-28.264 9.555-60.301 17.664-94.672 21.681z" fill="#9cf8d2"/><path d="m307.17 504.652c-1.343 4.368-5.378 7.348-9.947 7.348h41.626c4.569 0 8.604-2.981 9.947-7.348l32.02-104.138c-14.307 4.837-29.585 9.3-45.639 13.053z" fill="#6cf5c2"/><path d="m91.577 247.097v144.144c28.528 13.856 57.175 22.803 85.333 27.964v-186.535c-29.314 12.725-58.654 16.021-85.333 14.427z" fill="#fe73c5"/><path d="m91.577 501.594c0 5.747 4.659 10.406 10.407 10.406h64.52c5.747 0 10.407-4.659 10.407-10.406v-82.389c-28.158-5.16-56.805-14.107-85.333-27.964v110.353z" fill="#9cf8d2"/><path d="m176.911 232.67v-222.263c0-5.748-4.66-10.407-10.407-10.407h-66.753c-4.798 0-8.973 3.28-10.11 7.941l-2.272 9.316c-3.638 14.915-17 25.41-32.352 25.41h-7.147c-5.747 0-10.407 4.659-10.407 10.407v64.52c0 5.747 4.659 10.407 10.407 10.407h27.057c9.196 0 16.65 7.455 16.65 16.65v102.447c26.679 1.593 56.019-1.703 85.334-14.428z" fill="#5f99d7"/><path d="m166.504 0h-41.626c5.747 0 10.406 4.659 10.406 10.407v234.502c13.689-2.273 27.658-6.175 41.626-12.238v-222.264c.001-5.748-4.659-10.407-10.406-10.407z" fill="#3c87d0"/><path d="m135.285 244.908v163.859c13.945 4.472 27.844 7.911 41.626 10.437v-186.534c-13.968 6.063-27.938 9.965-41.626 12.238z" fill="#fe4fb7"/><path d="m135.285 408.767v92.826c0 5.747-4.659 10.406-10.406 10.406h41.626c5.747 0 10.407-4.659 10.407-10.406v-82.389c-13.783-2.525-27.683-5.965-41.627-10.437z" fill="#6cf5c2"/></g></svg>