<svg id="Capa_1" enable-background="new 0 0 512 512" height="512" viewBox="0 0 512 512" width="512" xmlns="http://www.w3.org/2000/svg"><g><path d="m298.667 383.157c0 23.924-19.579 43.959-43.499 43.502-23.18-.443-41.835-19.373-41.835-42.659v-31.74c0-5.747-4.659-10.407-10.407-10.407h-64.52c-5.747 0-10.406 4.659-10.406 10.407v30.35c0 70.743 56.804 129.144 127.547 129.389 59.965.207 110.378-40.823 124.504-96.344-26.341-22.001-53.936-39.866-81.384-54.368z" fill="#62dbfb"/><path d="m255.547.001c-70.743.244-127.547 58.645-127.547 129.388v10.058c0 5.747 4.659 10.407 10.406 10.407h64.52c5.747 0 10.407-4.659 10.407-10.407v-10.604c0-23.924 19.579-43.959 43.499-43.502 23.18.443 41.835 19.373 41.835 42.659v22.712c27.449-14.502 55.043-32.367 81.384-54.368-14.125-55.52-64.538-96.551-124.504-96.343z" fill="#fe9738"/><path d="m384 341.333c0-29.742-10.148-57.11-27.166-78.841-3.001-3.833-3.001-9.17 0-13.002 17.014-21.729 27.166-49.087 27.166-78.823v-42.667c0-10.926-1.373-21.531-3.949-31.656-26.341 22.001-53.936 39.866-81.384 54.368v19.955c0 23.564-19.103 42.667-42.667 42.667l-32.355.296c-5.71.052-10.311 4.696-10.311 10.406v64.52c0 5.785 4.717 10.459 10.502 10.406l32.164-.295c23.564 0 42.667 19.103 42.667 42.667v19.955c27.449 14.502 55.043 32.367 81.384 54.368 2.576-10.126 3.949-20.731 3.949-31.657z" fill="#9cf8d2"/><path d="m384 170.667v-42.667c0-10.926-1.373-21.531-3.949-31.656-12.346 10.312-24.969 19.704-37.721 28.278.029 1.122.044 2.248.044 3.378v42.667c0 29.737-10.152 57.094-27.166 78.823-3.001 3.833-3.001 9.17 0 13.002 17.017 21.732 27.166 49.1 27.166 78.841v42.667c0 1.129-.015 2.255-.044 3.378 12.753 8.574 25.375 17.966 37.721 28.278 2.576-10.125 3.949-20.73 3.949-31.656v-42.667c0-29.742-10.148-57.11-27.166-78.841-3.001-3.833-3.001-9.17 0-13.002 17.014-21.729 27.166-49.087 27.166-78.823z" fill="#6cf5c2"/><path d="m342.33 124.622c12.753-8.574 25.375-17.966 37.721-28.278-14.125-55.52-64.538-96.551-124.504-96.343-6.914.024-13.692.611-20.3 1.703 59.684 9.79 105.475 60.852 107.083 122.918z" fill="#fe860a"/><path d="m342.33 387.378c-1.608 62.066-47.399 113.128-107.082 122.919 6.608 1.092 13.386 1.679 20.299 1.703 59.965.207 110.378-40.823 124.504-96.344-12.346-10.312-24.969-19.704-37.721-28.278z" fill="#01d0fb"/></g></svg>