<svg id="Capa_1" enable-background="new 0 0 512 512" height="512" viewBox="0 0 512 512" width="512" xmlns="http://www.w3.org/2000/svg"><g><path d="m366.93 151.222 15.684-51.01c.918-2.979 1.385-6.079 1.385-9.197v-70.202c.001-11.495-9.317-20.813-20.812-20.813h-224.78c-5.748 0-10.407 4.659-10.407 10.407v64.52c0 5.747 4.659 10.407 10.407 10.407h155.057c2.299 0 4.163 1.864 4.163 4.163v4.634c0 1.053-.16 2.099-.474 3.104l-20.295 64.949c33.024 2.052 63.085-1.28 90.072-10.962z" fill="#5f99d7"/><path d="m363.187 0h-41.626c11.495 0 20.813 9.318 20.813 20.813v70.203c0 3.118-.467 6.217-1.385 9.197l-18.786 61.099c15.732-1.732 30.652-5.039 44.728-10.089l15.684-51.01c.918-2.979 1.385-6.079 1.385-9.197v-70.203c0-11.495-9.318-20.813-20.813-20.813z" fill="#3c87d0"/><path d="m276.857 162.183-49.246 157.596c24.708 9.724 49.29 24.557 73.995 43.897l65.324-212.454c-26.987 9.682-57.048 13.014-90.073 10.961z" fill="#fe9738"/><path d="m322.202 161.311-54.873 178.464c11.416 6.965 22.833 14.943 34.277 23.901l65.324-212.454c-14.076 5.05-28.995 8.357-44.728 10.089z" fill="#fe860a"/><path d="m171.767 498.49c-2.094 6.701 2.912 13.51 9.933 13.51h66.613c4.569 0 8.604-2.981 9.947-7.348l43.347-140.976c-24.705-19.341-49.287-34.173-73.995-43.897z" fill="#bbec6c"/><path d="m216.633 504.652c-1.343 4.368-5.378 7.348-9.947 7.348h41.626c4.569 0 8.604-2.981 9.947-7.348l43.347-140.976c-11.444-8.959-22.861-16.937-34.277-23.901z" fill="#a2e62e"/></g></svg>