<svg id="Capa_1" enable-background="new 0 0 512 512" height="512" viewBox="0 0 512 512" width="512" xmlns="http://www.w3.org/2000/svg"><g><path d="m213.29 139.589v-11.459c0-23.588 19.122-42.71 42.71-42.71s42.71 19.122 42.71 42.71v11.459c0 23.588-19.122 42.71-42.71 42.71 50.662 0 92.565-10.102 126.951-25.309.773-5.691 1.179-11.498 1.179-17.401v-11.459c0-70.915-57.611-128.375-128.583-128.129-70.815.245-127.677 58.705-127.677 129.52v10.068c0 21.118 5.116 41.038 14.167 58.599 32.77-9.715 70.618-15.889 113.963-15.889-23.588 0-42.71-19.122-42.71-42.71z" fill="#ffe177"/><path d="m298.003 391.581c-3.631 19.905-21.049 34.999-42.003 34.999-23.071 0-41.857-18.295-42.671-41.167-27.948-3.689-56.613-9.201-85.459-17.046v14.112c0 70.815 56.862 129.275 127.677 129.52 69.439.24 126.078-54.76 128.493-123.554-26.259 2.313-55.238 3.644-86.037 3.136z" fill="#9cf8d2"/><path d="m384.13 310.429c0-29.768-10.156-57.161-27.187-78.913-3.004-3.836-3.004-9.178 0-13.014 13.654-17.439 22.882-38.505 26.008-61.512-34.387 15.207-76.289 25.309-126.951 25.309-43.345 0-81.193 6.174-113.963 15.889 3.707 7.193 8.071 13.993 13.019 20.314 3.004 3.836 3.004 9.178 0 13.014-17.031 21.752-27.187 49.145-27.187 78.913v57.937c28.846 7.845 57.511 13.357 85.459 17.046-.018-.513-.039-1.025-.039-1.543v-73.44c0-23.588 19.122-42.71 42.71-42.71s42.71 19.122 42.71 42.71v73.44c0 2.634-.251 5.208-.708 7.711 30.799.508 59.779-.823 86.038-3.136.053-1.519.09-3.043.09-4.575v-73.44z" fill="#d77f4a"/><path d="m255.547.001c-6.921.024-13.706.611-20.32 1.705 60.824 9.978 107.235 62.777 107.235 126.425v11.459c0 11.346-1.48 22.345-4.249 32.82 16.155-4.121 31.045-9.363 44.738-15.419.773-5.691 1.179-11.498 1.179-17.401v-11.46c0-70.915-57.611-128.375-128.583-128.129z" fill="#ffd15b"/><path d="m356.943 231.516c-3.004-3.836-3.004-9.178 0-13.014 13.654-17.439 22.882-38.505 26.008-61.512-13.693 6.055-28.583 11.298-44.738 15.419-4.496 17.008-12.399 32.631-22.938 46.093-3.004 3.836-3.004 9.178 0 13.014 17.031 21.752 27.187 49.145 27.187 78.913v73.44c0 2.423-.074 4.828-.206 7.218 14.545-.557 28.513-1.473 41.784-2.643.053-1.519.09-3.043.09-4.575v-73.44c0-29.768-10.156-57.16-27.187-78.913z" fill="#c86d36"/><path d="m342.256 391.087c-3.354 60.387-48.52 109.609-107.029 119.207 6.614 1.093 13.399 1.681 20.32 1.705 69.439.24 126.078-54.76 128.493-123.554-13.271 1.169-27.239 2.086-41.784 2.642z" fill="#6cf5c2"/></g></svg>