<svg id="Capa_1" enable-background="new 0 0 512 512" height="512" viewBox="0 0 512 512" width="512" xmlns="http://www.w3.org/2000/svg"><g><path d="m176.911 10.407c0-5.748-4.66-10.407-10.407-10.407h-66.753c-4.798 0-8.973 3.28-10.11 7.941l-2.272 9.316c-3.638 14.915-17 25.41-32.352 25.41h-7.147c-5.747 0-10.407 4.659-10.407 10.407v64.52c0 5.747 4.659 10.407 10.407 10.407h27.057c9.196 0 16.65 7.455 16.65 16.65v105.927c24.418-3.904 53.404-12.557 85.333-29.739v-210.432z" fill="#ffe177"/><path d="m91.577 501.594c0 5.747 4.659 10.406 10.407 10.406h64.52c5.747 0 10.407-4.659 10.407-10.406v-90.163c-32.459-3.793-61.704-18.225-85.333-40.648v130.811z" fill="#8d9ca8"/><path d="m91.577 250.578v120.205c23.629 22.423 52.875 36.854 85.333 40.648v-190.592c-31.929 17.182-60.914 25.834-85.333 29.739z" fill="#62dbfb"/><path d="m166.504 0h-41.626c5.747 0 10.406 4.659 10.406 10.407v228.94c13.166-4.644 27.086-10.683 41.626-18.507v-210.433c.001-5.748-4.659-10.407-10.406-10.407z" fill="#ffd15b"/><path d="m135.285 239.346v160.744c13.081 5.77 27.027 9.634 41.626 11.341v-190.592c-14.54 7.824-28.461 13.863-41.626 18.507z" fill="#01d0fb"/><path d="m135.285 400.09v101.503c0 5.747-4.659 10.406-10.406 10.406h41.626c5.747 0 10.407-4.659 10.407-10.406v-90.163c-14.601-1.705-28.547-5.57-41.627-11.34z" fill="#7a8c98"/><path d="m389.203 133.217v183.761c32.387-15.933 61.438-23.168 85.333-25.887v-108.208c-22.848-25.829-52.201-43.385-85.333-49.666z" fill="#62dbfb"/><path d="m303.87 141.333v-13.333c0-23.564 19.103-42.667 42.667-42.667s42.667 19.103 42.667 42.667v5.217c33.132 6.281 62.485 23.837 85.333 49.666v-54.883c0-70.692-57.308-128-128-128s-128 57.308-128 128v66.427c5.475-4.015 11.005-8.282 16.59-12.834 23.094-18.828 46.206-32.018 68.743-40.26z" fill="#ffe177"/><path d="m389.203 384c0 23.564-19.103 42.667-42.667 42.667s-42.666-19.103-42.666-42.667v-9.741c-28.104 19.641-56.022 31.194-82.673 35.813 12.042 58.189 63.582 101.928 125.34 101.928 70.692 0 128-57.308 128-128v-92.909c-23.895 2.719-52.947 9.954-85.333 25.887v67.022z" fill="#8d9ca8"/><path d="m303.87 141.333c-22.537 8.242-45.649 21.432-68.744 40.26-5.584 4.553-11.115 8.819-16.59 12.834v189.573c0 8.934.918 17.654 2.66 26.072 26.651-4.619 54.569-16.172 82.673-35.813v-232.926z" fill="#62dbfb"/><path d="m346.537 0c-7.088 0-14.038.586-20.813 1.694 60.792 9.942 107.187 62.702 107.187 126.306v21.111c15.445 8.609 29.458 20.017 41.626 33.772v-54.883c0-70.692-57.308-128-128-128z" fill="#ffd15b"/><path d="m432.911 149.111v150.614c15.116-4.518 29.087-7.208 41.626-8.634v-108.208c-12.168-13.755-26.181-25.163-41.626-33.772z" fill="#01d0fb"/><path d="m432.911 299.725v84.275c0 63.607-46.399 116.369-107.196 126.308 6.777 1.109 13.731 1.692 20.822 1.692 70.692 0 128-57.308 128-128v-92.909c-12.54 1.427-26.511 4.116-41.626 8.634z" fill="#7a8c98"/></g></svg>