<svg id="Capa_1" enable-background="new 0 0 512 512" height="512" viewBox="0 0 512 512" width="512" xmlns="http://www.w3.org/2000/svg"><g><path d="m372.558 217.417c7.331-7.724 11.442-17.97 11.442-28.646v-59.381c0-70.744-56.804-129.145-127.547-129.389-70.901-.245-128.453 57.156-128.453 127.999v32.26c0 5.747 4.659 10.407 10.407 10.407h64.52c5.747 0 10.406-4.659 10.406-10.407v-31.417c0-23.924 19.579-43.959 43.499-43.502 23.18.443 41.835 19.373 41.835 42.659v34.046c0 5.52-2.193 10.814-6.096 14.717l-52.803 52.803c45.228 7.634 90.179 11.768 132.79-12.149z" fill="#62dbfb"/><path d="m128 451.148v50.446c0 5.747 4.659 10.406 10.407 10.406h235.187c5.747 0 10.406-4.659 10.406-10.406v-64.52c0-5.747-4.659-10.407-10.406-10.407h-149.854c-5.747 0-10.407-4.659-10.407-10.406v-30.96c0-.614.037-1.223.091-1.83-37.125 17.096-65.556 43.822-85.424 67.677z" fill="#ffe177"/><path d="m371.808 218.205c.257-.257.5-.525.75-.788-42.611 23.918-87.562 19.783-132.79 12.148l-99.576 99.576c-7.806 7.807-12.192 18.395-12.192 29.434v92.572c19.868-23.854 48.299-50.581 85.424-67.677.428-4.849 2.536-9.418 6.005-12.887z" fill="#fe73c5"/><g><path d="m256.453.001c-7.266-.025-14.388.565-21.326 1.703 61.001 10.082 107.248 63.856 107.248 127.686v43.853c0 7.656-3.041 14.999-8.455 20.413l-41.772 41.772c27.365.751 54.327-3.369 80.411-18.01 7.331-7.724 11.442-17.97 11.442-28.646v-59.381c-.001-70.745-56.805-129.146-127.548-129.39z" fill="#01d0fb"/></g><path d="m292.147 235.427-114.344 114.344c-3.903 3.903-6.096 9.197-6.096 14.717v44.364c12.422-9.519 26.309-18.285 41.717-25.381.428-4.849 2.536-9.418 6.005-12.887l152.379-152.379c.257-.257.5-.525.75-.788-26.084 14.641-53.046 18.761-80.411 18.01z" fill="#fe4fb7"/><g fill="#ffd15b"><path d="m213.333 416.26v-30.96c0-.614.037-1.223.091-1.83-15.408 7.095-29.295 15.862-41.717 25.381v7.409c0 5.747 4.659 10.406 10.407 10.406h41.626c-5.747.001-10.407-4.658-10.407-10.406z"/><path d="m373.594 426.667h-41.626c5.747 0 10.407 4.659 10.407 10.407v64.52c0 5.747-4.659 10.406-10.407 10.406h41.626c5.747 0 10.406-4.659 10.406-10.406v-64.52c0-5.748-4.659-10.407-10.406-10.407z"/></g></g></svg>