<svg id="Capa_1" enable-background="new 0 0 512 512" height="512" viewBox="0 0 512 512" width="512" xmlns="http://www.w3.org/2000/svg"><g><path d="m176.911 10.407c0-5.748-4.66-10.407-10.407-10.407h-66.753c-4.798 0-8.973 3.28-10.11 7.941l-2.272 9.316c-3.638 14.915-17 25.41-32.352 25.41h-7.147c-5.747 0-10.407 4.659-10.407 10.407v64.52c0 5.747 4.659 10.407 10.407 10.407h27.057c9.196 0 16.65 7.455 16.65 16.65v5.99c22.719-14.111 50.858-24.39 85.333-26.139v-114.095z" fill="#fe73c5"/><path d="m91.577 501.594c0 5.747 4.659 10.406 10.407 10.406h64.52c5.747 0 10.407-4.659 10.407-10.406v-68.72c-29.111-6.908-57.873-17.755-85.333-33.696v102.416z" fill="#bbec6c"/><path d="m91.577 150.641v248.536c27.46 15.941 56.222 26.788 85.333 33.696v-308.372c-34.474 1.749-62.614 12.029-85.333 26.14z" fill="#ffe177"/><path d="m166.504 0h-41.626c5.747 0 10.406 4.659 10.406 10.407v120.879c12.718-3.628 26.567-6.02 41.626-6.784v-114.095c.001-5.748-4.659-10.407-10.406-10.407z" fill="#fe4fb7"/><path d="m135.285 131.286v288.757c13.725 5.268 27.634 9.51 41.626 12.83v-308.372c-15.059.764-28.909 3.157-41.626 6.785z" fill="#ffd15b"/><path d="m135.285 420.043v81.551c0 5.747-4.659 10.406-10.406 10.406h41.626c5.747 0 10.407-4.659 10.407-10.406v-68.72c-13.993-3.321-27.903-7.563-41.627-12.831z" fill="#a2e62e"/><path d="m389.203 501.594c0 5.747 4.659 10.406 10.406 10.406h64.52c5.747 0 10.407-4.659 10.407-10.406v-99.55c-23.364 8.743-52.543 18.254-85.333 25.901z" fill="#bbec6c"/><path d="m432.911 416.165v85.429c0 5.747-4.659 10.406-10.407 10.406h41.626c5.747 0 10.407-4.659 10.407-10.406v-99.55c-12.354 4.622-26.347 9.458-41.626 14.121z" fill="#a2e62e"/><path d="m377.374 108.989c2.947-5.893 11.829-3.796 11.829 2.792v61.658c33.628 9.772 61.453 16.7 85.333 18.582v-181.614c0-5.748-4.66-10.408-10.408-10.407l-104.731.017c-7.882.001-15.087 4.455-18.612 11.505l-64.209 128.407c27.266 7.769 51.913 15.271 74.3 22.057z" fill="#fe73c5"/><path d="m389.203 173.439v72.153c0 5.747-4.659 10.407-10.406 10.407h-58.089c-7.736 0-12.768-8.141-9.308-15.06l39.476-78.952c-22.386-6.787-47.034-14.288-74.3-22.057l-55.842 111.675c-1.445 2.89-2.198 6.077-2.198 9.308v70.013c0 5.747 4.659 10.406 10.406 10.406h149.854c5.747 0 10.406 4.659 10.406 10.407v76.206c32.79-7.647 61.969-17.158 85.333-25.901v-210.023c-23.879-1.882-51.704-8.81-85.332-18.582z" fill="#ffe177"/><path d="m464.128 0-41.49.007c5.684.073 10.272 4.698 10.272 10.4v174.677c15.166 3.51 28.958 5.939 41.626 6.937v-181.614c.001-5.748-4.659-10.408-10.408-10.407z" fill="#fe4fb7"/><path d="m432.911 185.083v231.082c15.279-4.663 29.272-9.499 41.626-14.122v-210.022c-12.668-.999-26.461-3.428-41.626-6.938z" fill="#ffd15b"/></g></svg>