<svg id="Capa_1" enable-background="new 0 0 512 512" height="512" viewBox="0 0 512 512" width="512" xmlns="http://www.w3.org/2000/svg"><g><path d="m91.577 501.593c0 5.747 4.659 10.407 10.407 10.407h64.52c5.747 0 10.407-4.659 10.407-10.407v-180.03c-26.818 4.532-55.263 11.955-85.333 22.878v157.152z" fill="#fe9738"/><path d="m135.285 330.655v170.939c0 5.747-4.659 10.407-10.407 10.407h41.626c5.747 0 10.407-4.659 10.407-10.407v-180.03c-13.466 2.275-27.341 5.281-41.626 9.091z" fill="#fe860a"/><path d="m91.577 187.455v156.986c30.07-10.923 58.515-18.345 85.333-22.878v-154.462c-32.332 6.246-61.209 13.484-85.333 20.354z" fill="#5f99d7"/><path d="m135.285 176.061v154.594c14.285-3.81 28.161-6.815 41.626-9.091v-154.463c-14.626 2.825-28.535 5.855-41.626 8.96z" fill="#3c87d0"/><path d="m176.911 10.407c0-5.748-4.66-10.407-10.407-10.407h-66.753c-4.798 0-8.973 3.28-10.11 7.941l-2.272 9.316c-3.638 14.915-17 25.41-32.352 25.41h-7.147c-5.747 0-10.407 4.659-10.407 10.407v64.52c0 5.747 4.659 10.407 10.407 10.407h27.057c9.196 0 16.65 7.455 16.65 16.65v42.804c24.123-6.869 53.001-14.107 85.333-20.354v-156.694z" fill="#d77f4a"/><path d="m166.504 0h-41.626c5.747 0 10.407 4.659 10.407 10.407v165.654c13.091-3.105 27.001-6.135 41.626-8.96v-156.694c0-5.748-4.66-10.407-10.407-10.407z" fill="#c86d36"/><path d="m346.188 150.282-35.38-12.509c-4.158-1.47-6.938-5.401-6.938-9.811v-32.222c0-5.747 4.659-10.407 10.407-10.407h149.853c5.747 0 10.407-4.659 10.407-10.407v-64.52c0-5.747-4.66-10.406-10.407-10.406h-224.78c-11.495 0-20.813 9.318-20.813 20.813v139.168c39.466-5.869 82.644-9.753 127.651-9.699z" fill="#d77f4a"/><g fill="#c86d36"><path d="m314.276 85.333h-41.626c-5.747 0-10.406 4.659-10.406 10.407v57.198c0 .538.043 1.069.123 1.589 26.86-2.689 54.961-4.28 83.821-4.245l-35.38-12.509c-4.158-1.47-6.938-5.401-6.938-9.811v-32.222c0-5.747 4.659-10.407 10.406-10.407z"/><path d="m464.13 0h-41.626c5.747 0 10.406 4.659 10.406 10.407v64.52c0 5.747-4.659 10.407-10.406 10.407h41.626c5.747 0 10.407-4.659 10.407-10.407v-64.52c0-5.748-4.66-10.407-10.407-10.407z"/></g><path d="m474.537 266.302c0-42.337-26.686-80.077-66.602-94.189l-61.747-21.831c-45.006-.054-88.185 3.83-127.651 9.699v20.963c0 8.82 5.56 16.683 13.875 19.623l142.916 50.528c8.316 2.94 13.875 10.802 13.875 19.623v77.552c35.601 16.904 63.423 37.807 83.513 56.063 1.192-7.071 1.821-14.327 1.821-21.721z" fill="#5f99d7"/><path d="m407.935 172.113-61.747-21.831c-28.86-.035-56.961 1.556-83.821 4.245.577 3.743 3.164 6.931 6.815 8.222l119.328 42.189c26.61 9.408 44.401 34.568 44.401 62.793v105.443c15.568 10.455 28.846 21.199 39.805 31.158 1.192-7.071 1.821-14.327 1.821-21.721v-116.309c0-42.337-26.686-80.077-66.602-94.189z" fill="#3c87d0"/><path d="m389.203 384c0 23.286-18.654 42.215-41.835 42.659-23.92.457-43.499-19.577-43.499-43.502v-31.417c0-5.747-4.659-10.407-10.406-10.407h-64.52c-5.747 0-10.407 4.659-10.407 10.407v32.26c0 70.843 57.552 128.245 128.453 127.999 63.35-.219 115.514-47.076 125.727-107.668-20.09-18.256-47.912-39.158-83.513-56.063z" fill="#fe9738"/><path d="m432.911 373.174v9.437c0 63.829-46.246 117.603-107.248 127.686 6.938 1.138 14.06 1.728 21.326 1.703 63.35-.219 115.514-47.076 125.727-107.668-10.959-9.959-24.237-20.703-39.805-31.158z" fill="#fe860a"/></g></svg>