<svg id="Capa_1" enable-background="new 0 0 512 512" height="512" viewBox="0 0 512 512" width="512" xmlns="http://www.w3.org/2000/svg"><g><path d="m389.203 165.841v47.492c0 23.564-19.103 42.667-42.667 42.667s-42.667-19.103-42.667-42.667v-59.547c-15.533-1.085-31.53-1.653-47.87-1.653-12.716 0-25.219.351-37.463 1.014v58.769c0 70.887 57.019 129.366 127.906 129.417 14.996.011 29.386-2.566 42.761-7.294v12.119c33.738-7.498 62.866-17.755 85.333-29.978v-120.36c-22.466-12.224-51.595-22.481-85.333-29.979z" fill="#ffe177"/><path d="m432.911 177.968v156.064c15.577-5.305 29.569-11.292 41.626-17.851v-120.361c-12.058-6.56-26.049-12.547-41.626-17.852z" fill="#ffd15b"/><path d="m176.911 10.407c0-5.748-4.66-10.407-10.407-10.407h-66.753c-4.798 0-8.973 3.28-10.11 7.941l-2.272 9.316c-3.638 14.915-17 25.41-32.352 25.41h-7.147c-5.747 0-10.407 4.659-10.407 10.407v64.52c0 5.747 4.659 10.407 10.407 10.407h27.057c9.196 0 16.65 7.455 16.65 16.65v29.31c25.233-7.601 54.059-13.495 85.333-17.231v-146.323z" fill="#5f99d7"/><path d="m166.504 0h-41.626c5.747 0 10.407 4.659 10.407 10.407v152.837c13.281-2.6 27.189-4.79 41.626-6.514v-146.323c0-5.748-4.66-10.407-10.407-10.407z" fill="#3c87d0"/><path d="m91.577 173.96v164.08c25.233 7.601 54.059 13.495 85.333 17.231v-198.542c-31.273 3.736-60.1 9.63-85.333 17.231z" fill="#ffe177"/><path d="m135.285 163.244v185.512c13.281 2.6 27.189 4.79 41.626 6.514v-198.541c-14.438 1.725-28.345 3.915-41.626 6.515z" fill="#ffd15b"/><path d="m91.577 501.593c0 5.747 4.659 10.406 10.407 10.406h64.52c5.747 0 10.406-4.659 10.406-10.406v-146.323c-31.274-3.735-60.101-9.629-85.333-17.231z" fill="#fe73c5"/><path d="m135.285 348.756v152.837c0 5.747-4.659 10.406-10.407 10.406h41.626c5.747 0 10.406-4.659 10.406-10.406v-146.323c-14.437-1.724-28.344-3.914-41.625-6.514z" fill="#fe4fb7"/><path d="m303.87 153.786v-25.786c0-23.564 19.103-42.667 42.667-42.667s42.667 19.103 42.667 42.667v37.841c33.738 7.498 62.866 17.755 85.333 29.978v-44.577c0-92.597-56.804-150.997-127.547-151.242-70.901-.245-128.453 57.157-128.453 128v25.147c12.244-.663 24.747-1.014 37.463-1.014 16.34 0 32.337.568 47.87 1.653z" fill="#5f99d7"/><path d="m346.989.001c-7.287-.025-14.43.568-21.388 1.713 61.032 10.244 107.309 65.954 107.309 149.529v26.725c15.577 5.305 29.569 11.292 41.626 17.851v-44.577c.001-92.596-56.804-150.996-127.547-151.241z" fill="#3c87d0"/><path d="m389.203 383.157c0 23.924-19.579 43.959-43.499 43.502-20.284-.388-37.103-14.931-40.989-34.163-.99-4.901-5.177-8.496-10.177-8.496h-65.137c-6.075 0-10.905 5.187-10.379 11.24 5.705 65.576 60.856 116.992 127.966 116.76 70.743-.245 127.547-58.645 127.547-107.535v-88.285c-22.467 12.223-51.596 22.481-85.333 29.978v36.999z" fill="#fe73c5"/><path d="m432.911 334.032v70.432c0 44.102-46.226 95.935-107.207 105.846 6.925 1.134 14.035 1.714 21.286 1.689 70.743-.245 127.547-58.645 127.547-107.535v-88.284c-12.058 6.56-26.049 12.547-41.626 17.852z" fill="#fe4fb7"/></g></svg>