<svg id="Capa_1" enable-background="new 0 0 512 512" height="512" viewBox="0 0 512 512" width="512" xmlns="http://www.w3.org/2000/svg"><g><path d="m352.434 136.325c0-22.032 17.86-39.892 39.892-39.892s39.892 17.86 39.892 39.892v108.01c34.959-11.03 60.989-34.03 79.783-62.731v-45.279c-.001-66.094-53.581-119.675-119.676-119.675s-119.675 53.581-119.675 119.675v88.591c29.316 12.681 55.839 20.43 79.783 24.055v-112.646z" fill="#5f99d7"/><path d="m432.217 374.242v1.433c0 22.031-17.86 39.892-39.892 39.892-20.945 0-38.107-16.145-39.751-36.667-23.981-3.616-50.551-11.371-79.924-24.077v20.852c0 66.095 53.58 119.675 119.675 119.675s119.675-53.581 119.675-119.675v-64.164c-18.794 28.701-44.824 51.701-79.783 62.731z" fill="#ffe177"/><path d="m432.217 244.336v129.906c34.959-11.03 60.989-34.03 79.783-62.731v-129.906c-18.794 28.701-44.824 51.701-79.783 62.731z" fill="#bbec6c"/><path d="m352.434 375.675v-126.704c-23.945-3.625-50.467-11.374-79.783-24.055v129.906c29.373 12.706 55.943 20.461 79.924 24.077-.086-1.064-.141-2.137-.141-3.224z" fill="#bbec6c"/><path d="m392.325 16.65c-7.099 0-14.053.622-20.813 1.808 56.173 9.851 98.862 58.872 98.862 117.867v89.159c16.678-11.724 30.435-26.79 41.626-43.879v-45.279c0-66.095-53.58-119.676-119.675-119.676z" fill="#3c87d0"/><path d="m470.374 225.484v129.906c16.678-11.724 30.435-26.79 41.626-43.879v-129.906c-11.191 17.089-24.948 32.155-41.626 43.879z" fill="#a2e62e"/><path d="m470.374 355.39v20.284c0 58.995-42.689 108.016-98.862 117.867 6.76 1.185 13.714 1.808 20.813 1.808 66.095.001 119.675-53.58 119.675-119.674v-64.164c-11.191 17.089-24.948 32.156-41.626 43.879z" fill="#ffd15b"/><path d="m239.35 193.143v-55.519c0-66.142-53.11-120.744-119.252-120.973-66.289-.229-120.098 53.439-120.098 119.674v30.162c0 5.374 4.356 9.73 9.73 9.73h60.324c5.374 0 9.73-4.356 9.73-9.73v-29.374c0-22.368 18.305-41.1 40.67-40.672 21.673.415 39.114 18.113 39.114 39.884v31.831c0 5.161-2.05 10.11-5.7 13.76l-2.72 2.72c27.008 3.935 55.427 11.535 85.045 23.841 2.057-4.8 3.157-10.009 3.157-15.334z" fill="#5f99d7"/><path d="m120.098 16.651c-7.277-.025-14.403.6-21.324 1.819 56.378 9.98 98.95 59.938 98.95 119.154v50.888c0 2.083-.261 4.139-.764 6.125 12.822 3.727 25.904 8.303 39.232 13.84 2.059-4.801 3.158-10.009 3.158-15.334v-55.519c0-66.142-53.11-120.744-119.252-120.973z" fill="#3c87d0"/><path d="m10.041 325.814c-6.447 7.135-10.041 16.427-10.041 26.09v133.716c0 5.374 4.356 9.73 9.73 9.73h219.89c5.374 0 9.73-4.356 9.73-9.73v-60.324c0-5.374-4.356-9.73-9.73-9.73h-140.107c-5.374 0-9.73-4.356-9.73-9.73v-28.946c0-5.161 2.05-10.111 5.7-13.76l50.44-50.44c-46.923-4.578-89.281 1.731-125.882 13.124z" fill="#ffe177"/><g fill="#ffd15b"><path d="m229.62 415.566h-41.626c5.374 0 9.73 4.356 9.73 9.73v60.324c0 5.374-4.356 9.73-9.73 9.73h41.626c5.374 0 9.73-4.356 9.73-9.73v-60.324c0-5.373-4.356-9.73-9.73-9.73z"/><path d="m38.157 366.484v39.352c0 5.374 4.356 9.73 9.73 9.73h41.626c-5.374 0-9.73-4.356-9.73-9.73v-28.946c0-5.161 2.05-10.111 5.7-13.76l50.44-50.44c-17.74-1.731-34.826-1.904-51.197-.836l-40.87 40.87c-3.649 3.65-5.699 8.599-5.699 13.76z"/></g><path d="m236.192 208.478c-29.618-12.306-58.037-19.906-85.045-23.841l-139.748 139.747c-.466.466-.918.943-1.358 1.43 36.601-11.393 78.959-17.702 125.882-13.124l92.027-92.027c3.534-3.533 6.31-7.68 8.242-12.185z" fill="#bbec6c"/><path d="m196.96 194.637c-1.095 4.329-3.341 8.324-6.552 11.535l-105.682 105.683c16.371-1.068 33.457-.895 51.197.836l92.027-92.027c3.534-3.534 6.309-7.68 8.241-12.185-13.327-5.539-26.409-10.115-39.231-13.842z" fill="#a2e62e"/></g></svg>