<svg id="Capa_1" enable-background="new 0 0 512 512" height="512" viewBox="0 0 512 512" width="512" xmlns="http://www.w3.org/2000/svg"><g><path d="m470.374 59.518v-49.111c0-5.748-4.659-10.407-10.407-10.407h-66.753c-4.798 0-8.973 3.28-10.11 7.941l-2.272 9.316c-3.638 14.915-17 25.41-32.352 25.41h-7.146c-5.747 0-10.407 4.659-10.407 10.407v64.52c0 5.747 4.659 10.407 10.407 10.407h27.057c7.521 0 13.872 4.989 15.937 11.837 30.731-22.252 59.935-48.756 86.046-80.32z" fill="#d77f4a"/><path d="m385.041 501.594c0 5.747 4.659 10.406 10.407 10.406h64.52c5.747 0 10.406-4.659 10.406-10.406v-156.417c-19.854 13.001-47.693 28.236-85.333 42.922z" fill="#ffe177"/><path d="m384.328 139.837c.46 1.525.713 3.139.713 4.814v243.448c37.64-14.685 65.479-29.921 85.333-42.922v-285.659c-26.111 31.564-55.315 58.068-86.046 80.319z" fill="#9cf8d2"/><path d="m459.967 0h-41.626c5.747 0 10.407 4.659 10.407 10.407v93.07c14.526-13.438 28.47-28.054 41.626-43.958v-49.112c0-5.748-4.659-10.407-10.407-10.407z" fill="#c86d36"/><path d="m428.748 103.476v265.373c16.641-8.269 30.41-16.327 41.626-23.672v-285.659c-13.157 15.904-27.1 30.52-41.626 43.958z" fill="#6cf5c2"/><path d="m428.748 368.849v132.745c0 5.747-4.659 10.406-10.407 10.406h41.626c5.747 0 10.406-4.659 10.406-10.406v-156.417c-11.215 7.345-24.984 15.403-41.625 23.672z" fill="#ffd15b"/><path d="m41.626 501.594c0 5.747 4.659 10.406 10.407 10.406h235.187c5.747 0 10.406-4.659 10.406-10.406v-64.52c0-5.747-4.659-10.407-10.406-10.407h-40.736c-56.769 10.706-124.496 18.329-204.858 20.303v54.624z" fill="#ffe177"/><path d="m287.22 426.667h-40.736c-.063.012-.127.024-.19.035 5.419.362 9.707 4.86 9.707 10.371v64.52c0 5.747-4.659 10.406-10.407 10.406h41.626c5.747 0 10.406-4.659 10.406-10.406v-64.52c0-5.747-4.659-10.406-10.406-10.406z" fill="#ffd15b"/><path d="m297.626 188.771v-59.381c0-70.743-56.804-129.144-127.547-129.389-70.901-.246-128.453 57.156-128.453 127.999v32.26c0 5.747 4.659 10.407 10.407 10.407h64.52c5.747 0 10.407-4.659 10.407-10.407v-31.417c0-23.924 19.579-43.959 43.499-43.501 23.18.443 41.835 19.373 41.835 42.659v34.046c0 5.52-2.193 10.814-6.096 14.717l-64.599 64.599c47.263-9.492 101.75-25.068 155.979-50.604.03-.662.048-1.324.048-1.988z" fill="#d77f4a"/><path d="m170.079.001c-7.266-.025-14.389.565-21.327 1.703 61.002 10.082 107.248 63.856 107.248 127.685v41.69c0 11.04-4.386 21.628-12.192 29.434l-19.05 19.05c23.87-7.819 48.367-17.292 72.819-28.806.032-.661.049-1.323.049-1.987v-59.381c0-70.743-56.804-129.143-127.547-129.388z" fill="#c86d36"/><path d="m126.959 416.26v-30.96c0-5.52 2.193-10.814 6.096-14.717l152.379-152.379c7.337-7.337 11.65-17.13 12.143-27.447-54.23 25.536-108.716 41.112-155.979 50.604l-87.779 87.779c-7.806 7.806-12.192 18.394-12.192 29.434v88.394c80.362-1.974 148.089-9.597 204.858-20.303h-109.119c-5.747.002-10.407-4.657-10.407-10.405z" fill="#9cf8d2"/><path d="m224.758 219.564-133.329 133.328c-3.903 3.903-6.096 9.197-6.096 14.717v48.651c0 5.747 4.659 10.406 10.407 10.406h41.626c-5.747 0-10.407-4.659-10.407-10.406v-30.96c0-5.52 2.193-10.814 6.096-14.717l152.379-152.379c7.337-7.337 11.65-17.13 12.143-27.447-24.451 11.515-48.949 20.987-72.819 28.807z" fill="#6cf5c2"/></g></svg>