<svg id="Capa_1" enable-background="new 0 0 512 512" height="512" viewBox="0 0 512 512" width="512" xmlns="http://www.w3.org/2000/svg"><g><path d="m79.783 405.837v-28.946c0-5.161 2.05-10.111 5.7-13.76l142.468-142.468c7.299-7.299 11.399-17.198 11.399-27.52v-55.519c0-1.793-.046-3.576-.124-5.351-8.316 2.776-16.679 5.692-25.075 8.748-18.815 6.848-37.041 14.132-54.585 21.749v5.386c0 5.161-2.05 10.11-5.7 13.76l-142.467 142.468c-7.299 7.299-11.399 17.198-11.399 27.52v64.774c32.94 5.953 75.474 5.57 123.734-1.111h-34.221c-5.374-.001-9.73-4.357-9.73-9.73z" fill="#5f99d7"/><path d="m239.226 132.273c-8.316 2.776-16.679 5.692-25.075 8.748-5.53 2.013-11.002 4.067-16.427 6.152v45.97c0 10.322-4.1 20.221-11.399 27.52l-142.468 142.468c-3.649 3.649-5.7 8.599-5.7 13.76v28.946c0 5.374 4.356 9.73 9.73 9.73h41.626c-5.374 0-9.73-4.356-9.73-9.73v-28.946c0-5.161 2.05-10.111 5.7-13.76l142.468-142.468c7.299-7.299 11.399-17.198 11.399-27.52v-55.519c0-1.793-.047-3.576-.124-5.351z" fill="#3c87d0"/><path d="m0 416.678v68.942c0 5.374 4.356 9.73 9.73 9.73h219.89c5.374 0 9.73-4.356 9.73-9.73v-60.324c0-5.374-4.356-9.73-9.73-9.73h-105.886c-48.26 6.682-90.794 7.065-123.734 1.112z" fill="#fe73c5"/><path d="m229.62 415.566h-41.626c5.374 0 9.73 4.356 9.73 9.73v60.324c0 5.374-4.356 9.73-9.73 9.73h41.626c5.374 0 9.73-4.356 9.73-9.73v-60.324c0-5.373-4.357-9.73-9.73-9.73z" fill="#fe4fb7"/><path d="m358.133 363.131 30.631-30.631c-28.236 13.777-58.72 26.761-90.915 38.479-8.438 3.071-16.841 6-25.199 8.788v105.853c0 5.374 4.356 9.73 9.73 9.73h219.89c5.373 0 9.73-4.356 9.73-9.73v-60.324c0-5.374-4.356-9.73-9.73-9.73h-140.107c-5.374 0-9.73-4.356-9.73-9.73v-28.946c.001-5.16 2.051-10.11 5.7-13.759z" fill="#fe73c5"/><g fill="#fe4fb7"><path d="m352.434 405.837v-28.946c0-5.161 2.05-10.111 5.699-13.76l30.631-30.631c-23.058 11.251-47.637 21.959-73.401 31.894-2.926 3.49-4.555 7.906-4.555 12.496v28.946c0 5.374 4.356 9.73 9.73 9.73h41.626c-5.374 0-9.73-4.356-9.73-9.729z"/><path d="m502.27 415.566h-41.626c5.373 0 9.73 4.356 9.73 9.73v60.324c0 5.374-4.356 9.73-9.73 9.73h41.626c5.373 0 9.73-4.356 9.73-9.73v-60.324c0-5.373-4.356-9.73-9.73-9.73z"/></g><path d="m503.936 94.032c-17.258-44.936-60.375-77.205-111.188-77.381-61.274-.212-111.88 45.628-119.187 104.876 90.582-26.484 173.245-35.697 230.375-27.495z" fill="#bbec6c"/><path d="m461.161 91.147c15.438.064 29.774 1.019 42.775 2.885-17.258-44.936-60.375-77.205-111.188-77.381-7.271-.025-14.388.605-21.304 1.823 40.733 7.217 74.255 35.303 89.717 72.673z" fill="#a2e62e"/><path d="m239.226 132.273c-2.773-63.71-54.779-115.4-119.128-115.622-66.289-.229-120.098 53.439-120.098 119.674v30.162c0 5.374 4.356 9.73 9.73 9.73h60.324c5.374 0 9.73-4.356 9.73-9.73v-29.374c0-22.368 18.305-41.1 40.67-40.672 21.672.415 39.114 18.113 39.114 39.884v26.445c17.543-7.617 35.769-14.901 54.585-21.749 8.394-3.056 16.756-5.972 25.073-8.748z" fill="#bbec6c"/><path d="m120.098 16.651c-7.277-.025-14.403.6-21.324 1.819 56.378 9.98 98.95 59.938 98.95 119.154v9.549c5.426-2.085 10.898-4.14 16.427-6.152 8.396-3.056 16.758-5.972 25.075-8.748-2.773-63.71-54.779-115.399-119.128-115.622z" fill="#a2e62e"/><path d="m388.764 332.5 111.837-111.837c7.299-7.299 11.399-17.198 11.399-27.52v-55.519c0-15.329-2.857-30.036-8.064-43.592-57.131-8.202-139.794 1.011-230.375 27.495-.598 4.849-.911 9.787-.911 14.798v30.162c0 5.374 4.356 9.73 9.73 9.73h60.324c5.373 0 9.73-4.356 9.73-9.73v-29.374c0-22.368 18.305-41.1 40.669-40.672 21.673.415 39.114 18.113 39.114 39.884v31.831c0 5.161-2.05 10.11-5.699 13.76l-142.469 142.468c-7.299 7.299-11.399 17.198-11.399 27.52v27.864c8.357-2.788 16.761-5.717 25.199-8.788 32.195-11.719 62.679-24.702 90.915-38.48z" fill="#5f99d7"/><path d="m503.936 94.032c-13.001-1.866-27.337-2.821-42.775-2.885 5.935 14.344 9.213 30.054 9.213 46.477v55.519c0 10.322-4.1 20.221-11.399 27.52l-142.468 142.468c-.404.404-.78.829-1.144 1.264 25.764-9.935 50.342-20.643 73.401-31.894l111.837-111.837c7.299-7.3 11.399-17.199 11.399-27.521v-55.519c0-15.329-2.857-30.036-8.064-43.592z" fill="#3c87d0"/></g></svg>