<svg id="Capa_1" enable-background="new 0 0 512 512" height="512" viewBox="0 0 512 512" width="512" xmlns="http://www.w3.org/2000/svg"><g><path d="m52.144 283.639-40.745 40.745c-7.299 7.299-11.399 17.198-11.399 27.52v133.716c0 5.374 4.356 9.73 9.73 9.73h219.89c5.373 0 9.73-4.356 9.73-9.73v-60.324c0-5.374-4.356-9.73-9.73-9.73h-140.107c-5.374 0-9.73-4.356-9.73-9.73v-28.946c0-5.161 2.05-10.11 5.699-13.76l104.706-104.706c-53.305-1.783-102.879 11.824-138.044 25.215z" fill="#9cf8d2"/><g fill="#6cf5c2"><path d="m85.483 363.131 104.706-104.706c-14.824-.496-29.358.201-43.376 1.75l-102.956 102.956c-3.649 3.649-5.699 8.599-5.699 13.76v28.946c0 5.374 4.356 9.73 9.73 9.73h41.626c-5.374 0-9.73-4.356-9.73-9.73v-28.946c-.001-5.161 2.049-10.111 5.699-13.76z"/><path d="m229.62 415.566h-41.626c5.373 0 9.73 4.356 9.73 9.73v60.324c0 5.374-4.356 9.73-9.73 9.73h41.626c5.373 0 9.73-4.356 9.73-9.73v-60.324c0-5.373-4.357-9.73-9.73-9.73z"/></g><path d="m239.35 173.496v-35.872c0-66.142-53.11-120.744-119.252-120.973-66.289-.229-120.098 53.439-120.098 119.674v30.162c0 5.374 4.356 9.73 9.73 9.73h60.324c5.373 0 9.73-4.356 9.73-9.73v-29.374c0-22.368 18.305-41.1 40.669-40.672 21.673.415 39.114 18.113 39.114 39.884v31.831c0 .14-.018.278-.021.418 24.078-1.168 50.718.081 79.804 4.922z" fill="#fe9738"/><path d="m120.098 16.651c-7.277-.025-14.403.6-21.324 1.819 56.378 9.98 98.95 59.938 98.95 119.154v31.168c13.259.774 27.139 2.293 41.626 4.704v-35.872c0-66.142-53.11-120.744-119.252-120.973z" fill="#fe860a"/><path d="m497.069 78.408c-20.47-36.94-59.906-61.914-105.167-61.757-66.142.229-119.252 54.831-119.252 120.973v9.404c0 5.374 4.356 9.73 9.73 9.73h60.324c5.373 0 9.73-4.356 9.73-9.73v-9.915c0-22.368 18.305-41.1 40.669-40.672 21.673.415 39.114 18.113 39.114 39.884v20.594c25.818-16.651 48.177-41.902 64.852-78.511z" fill="#fe9738"/><path d="m469.658 123.225c10.262-12.569 19.481-27.406 27.411-44.817-20.47-36.94-59.906-61.914-105.167-61.757-6.926.024-13.707.652-20.302 1.819 51.915 9.144 92.286 51.754 98.058 104.755z" fill="#fe860a"/><path d="m431.207 383.848c-4.104 18.184-20.366 32.08-39.66 31.711-21.672-.414-39.114-18.113-39.114-39.884v-29.676c0-5.374-4.356-9.73-9.73-9.73h-60.323c-5.374 0-9.73 4.356-9.73 9.73v28.376c0 66.142 53.11 120.744 119.251 120.973 52.362.181 96.93-33.271 113.348-79.979-27.551-6.813-51.785-18.083-74.042-31.521z" fill="#9cf8d2"/><path d="m467.34 402.558c-10.67 46.483-48.409 82.635-95.74 90.971 6.595 1.167 13.375 1.795 20.302 1.819 52.362.181 96.93-33.271 113.348-79.979-13.369-3.305-25.95-7.668-37.91-12.811z" fill="#6cf5c2"/><path d="m239.35 193.143v-19.647c-29.085-4.841-55.726-6.09-79.804-4.922-.108 5.009-2.128 9.792-5.679 13.342l-101.723 101.723c35.166-13.392 84.739-26.998 138.045-25.214l37.762-37.762c7.298-7.299 11.399-17.198 11.399-27.52z" fill="#ffe177"/><path d="m197.724 168.792v24.352c0 10.322-4.1 20.221-11.399 27.52l-39.512 39.512c14.018-1.549 28.551-2.246 43.376-1.75l37.762-37.762c7.299-7.299 11.399-17.198 11.399-27.52v-19.647c-14.487-2.412-28.367-3.931-41.626-4.705z" fill="#ffd15b"/><path d="m512 375.675v-39.892c0-27.807-9.488-53.395-25.399-73.713-2.806-3.583-2.806-8.573 0-12.157 15.907-20.315 25.399-45.893 25.399-73.696v-39.892c0-21.011-5.421-40.754-14.931-57.917-16.675 36.609-39.034 61.859-64.852 78.511v19.297c0 22.031-17.86 39.892-39.892 39.892l-30.251.277c-5.339.049-9.641 4.39-9.641 9.729v60.323c0 5.408 4.41 9.779 9.819 9.729l30.073-.275c22.032 0 39.892 17.86 39.892 39.892v39.104c0 3.07-.356 6.068-1.009 8.961 22.257 13.438 46.491 24.708 74.043 31.522 4.366-12.423 6.749-25.78 6.749-39.695z" fill="#ffe177"/><path d="m512 176.217v-39.892c0-21.011-5.421-40.754-14.931-57.917-7.931 17.411-17.149 32.247-27.411 44.817.468 4.303.716 8.672.716 13.1v39.892c0 27.803-9.492 53.381-25.399 73.696-2.806 3.584-2.806 8.573 0 12.157 15.911 20.318 25.399 45.906 25.399 73.713v39.892c0 9.244-1.05 18.242-3.034 26.883 11.96 5.143 24.541 9.506 37.91 12.812 4.367-12.423 6.75-25.78 6.75-39.695v-39.892c0-27.807-9.488-53.395-25.399-73.713-2.806-3.583-2.806-8.573 0-12.157 15.907-20.315 25.399-45.893 25.399-73.696z" fill="#ffd15b"/></g></svg>