<svg id="Capa_1" enable-background="new 0 0 512 512" height="512" viewBox="0 0 512 512" width="512" xmlns="http://www.w3.org/2000/svg"><g><g><path d="m396.083 168.699 25.074-50.148c2.755-5.51 11.059-3.549 11.059 2.611v88.758c24.236 23.412 52.221 34.002 79.783 37.209v-220.749c0-5.374-4.357-9.731-9.731-9.73l-97.92.016c-7.369.001-14.106 4.165-17.401 10.756l-51.182 102.355c18.434 5.693 38.972 17.376 60.318 38.922z" fill="#8d9ca8"/><path d="m502.269 16.65-41.49.007c5.31.073 9.595 4.395 9.595 9.723v209.499c13.623 6.109 27.678 9.627 41.626 11.25v-220.749c0-5.374-4.357-9.73-9.731-9.73z" fill="#7a8c98"/><path d="m432.217 416.166v69.454c0 5.374 4.356 9.73 9.73 9.73h60.324c5.373 0 9.73-4.356 9.73-9.73v-75.813c-26.131 6.088-53.055 7.735-79.784 6.359z" fill="#5f99d7"/><path d="m470.374 415.915v69.705c0 5.374-4.356 9.73-9.73 9.73h41.626c5.373 0 9.73-4.356 9.73-9.73v-75.813c-13.704 3.193-27.628 5.154-41.626 6.108z" fill="#3c87d0"/><path d="m432.217 209.92v36.349c0 5.374-4.356 9.73-9.729 9.73h-54.311c-7.233 0-11.937-7.612-8.702-14.081l36.609-73.219c-21.346-21.546-41.884-33.229-60.318-38.921l-61.061 122.111c-1.351 2.702-2.055 5.682-2.055 8.703v65.459c0 5.374 4.356 9.73 9.73 9.73h140.107c5.373 0 9.729 4.356 9.729 9.73v70.654c26.729 1.376 53.653-.271 79.783-6.358v-162.678c-27.561-3.207-55.546-13.797-79.782-37.209z" fill="#d77f4a"/><path d="m470.374 235.879v180.036c13.998-.954 27.922-2.915 41.626-6.108v-162.678c-13.948-1.623-28.003-5.141-41.626-11.25z" fill="#c86d36"/></g><g><path d="m239.35 137.624c0-66.142-53.11-120.744-119.252-120.973-66.289-.229-120.098 53.439-120.098 119.674v30.162c0 5.374 4.356 9.73 9.73 9.73h60.324c5.373 0 9.73-4.356 9.73-9.73v-29.374c0-22.368 18.305-41.1 40.669-40.672 21.673.415 39.114 18.113 39.114 39.884v31.831c0 5.161-2.05 10.11-5.699 13.76l-44.799 44.799c35.198-13.151 78.487-36.051 130.281-74.669z" fill="#8d9ca8"/><path d="m120.098 16.651c-7.277-.025-14.403.6-21.324 1.819 56.378 9.98 98.95 59.938 98.95 119.154v43.366c13.211-8.497 27.083-18.1 41.626-28.944v-14.422c0-66.142-53.11-120.744-119.252-120.973z" fill="#7a8c98"/><path d="m0 485.62c0 5.374 4.356 9.73 9.73 9.73h219.89c5.373 0 9.73-4.356 9.73-9.73v-60.324c0-5.374-4.356-9.73-9.73-9.73h-140.107c-5.374 0-9.73-4.356-9.73-9.73v-28.946c0-5.161 2.05-10.111 5.699-13.76l5.873-5.873c-35.734 11.626-69.208 28.918-91.355 41.62z" fill="#5f99d7"/><g fill="#3c87d0"><path d="m79.783 405.837v-28.946c0-5.161 2.05-10.111 5.699-13.76l5.873-5.873c-18.8 6.116-36.971 13.8-53.199 21.559v27.019c0 5.374 4.356 9.73 9.73 9.73h41.626c-5.373 0-9.729-4.356-9.729-9.729z"/><path d="m229.62 415.566h-41.626c5.373 0 9.73 4.356 9.73 9.73v60.324c0 5.374-4.356 9.73-9.73 9.73h41.626c5.373 0 9.73-4.356 9.73-9.73v-60.324c0-5.373-4.357-9.73-9.73-9.73z"/></g><path d="m239.35 193.143v-41.097c-51.794 38.618-95.083 61.517-130.281 74.669l-97.669 97.669c-7.3 7.299-11.4 17.198-11.4 27.52v46.973c22.147-12.702 55.621-29.994 91.356-41.619l136.595-136.595c7.298-7.299 11.399-17.198 11.399-27.52z" fill="#d77f4a"/><path d="m197.724 180.99v12.154c0 10.322-4.1 20.221-11.399 27.52l-142.468 142.467c-3.649 3.649-5.699 8.599-5.699 13.76v1.927c16.228-7.759 34.399-15.444 53.199-21.559l136.595-136.595c7.299-7.299 11.399-17.198 11.399-27.52v-41.097c-14.544 10.842-28.416 20.446-41.627 28.943z" fill="#c86d36"/></g></g></svg>