<svg id="Capa_1" enable-background="new 0 0 512 512" height="512" viewBox="0 0 512 512" width="512" xmlns="http://www.w3.org/2000/svg"><g><path d="m298.667 501.594c0 5.747 4.659 10.406 10.407 10.406h64.52c5.747 0 10.406-4.659 10.406-10.406v-143.879c-31.351 2.644-59.853 9.343-85.333 18.275z" fill="#fe9738"/><path d="m286.838 108.989c2.947-5.893 11.829-3.796 11.829 2.792v27.421c26.153 1.287 54.611 5.344 85.333 13.15v-141.945c0-5.748-4.66-10.408-10.408-10.407l-104.732.017c-7.882.001-15.087 4.455-18.612 11.505l-71.131 142.25c25.862-8.137 56.836-14.144 92.798-14.938z" fill="#ffe177"/><path d="m298.667 139.202v106.39c0 5.747-4.659 10.406-10.406 10.406h-58.089c-7.736 0-12.768-8.141-9.308-15.06l51.052-102.104c-35.962.794-66.936 6.801-92.798 14.938l-48.92 97.831c-1.445 2.89-2.198 6.077-2.198 9.308v70.013c0 5.747 4.659 10.406 10.407 10.406h149.853c5.747 0 10.406 4.659 10.406 10.407v24.252c25.48-8.932 53.982-15.63 85.333-18.275v-205.362c-30.721-7.806-59.179-11.863-85.332-13.15z" fill="#cb97e7"/><path d="m373.592 0-41.49.007c5.684.073 10.272 4.697 10.272 10.4v133.36c13.379 2.111 27.251 4.933 41.626 8.585v-141.945c0-5.748-4.66-10.408-10.408-10.407z" fill="#ffd15b"/><path d="m342.374 143.767v220.043c13.258-2.775 27.134-4.873 41.626-6.095v-205.363c-14.375-3.652-28.247-6.474-41.626-8.585z" fill="#bd80e1"/><path d="m342.374 363.81v137.783c0 5.747-4.659 10.406-10.407 10.406h41.626c5.747 0 10.406-4.659 10.406-10.406v-143.878c-14.491 1.222-28.367 3.32-41.625 6.095z" fill="#fe860a"/></g></svg>