<svg id="Capa_1" enable-background="new 0 0 512 512" height="512" viewBox="0 0 512 512" width="512" xmlns="http://www.w3.org/2000/svg"><g><path d="m384 266.302c0-33.295-16.511-63.738-42.974-82.091-36.6-3.989-74.364-11.571-112.736-20.835-39.652-9.573-72.821-8.568-100.29-1.646v19.213c0 8.82 5.56 16.683 13.875 19.623l142.916 50.528c8.316 2.94 13.875 10.803 13.875 19.623v82.773c27.264 20.561 54.864 38.82 83.059 53.374 1.487-7.867 2.275-15.974 2.275-24.253z" fill="#fe73c5"/><path d="m341.026 184.211c-36.6-3.989-74.364-11.571-112.736-20.835-20.571-4.966-39.392-7.08-56.582-7.003v.727c0 4.41 2.78 8.341 6.938 9.811l126.266 44.642c22.453 7.938 37.463 29.167 37.463 52.981v118.076c0 .476-.013.949-.018 1.424 13.01 8.327 26.123 15.992 39.369 22.829 1.487-7.867 2.275-15.974 2.275-24.253v-116.308c-.001-33.295-16.512-63.738-42.975-82.091z" fill="#fe4fb7"/><path d="m228.29 163.376c38.372 9.264 76.136 16.845 112.736 20.835-7.187-4.984-15.102-9.084-23.627-12.098l-97.127-34.34c-4.158-1.47-6.938-5.401-6.938-9.811v-32.222c0-5.747 4.659-10.407 10.407-10.407h149.854c5.747 0 10.406-4.659 10.406-10.407v-64.52c-.001-5.747-4.66-10.406-10.407-10.406h-224.78c-11.496 0-20.814 9.318-20.814 20.813v140.917c27.469-6.922 60.637-7.927 100.29 1.646z" fill="#cb97e7"/><g fill="#bd80e1"><path d="m223.74 85.333h-41.626c-5.747 0-10.407 4.659-10.407 10.407v60.633c17.19-.076 36.012 2.037 56.582 7.003 38.372 9.264 76.136 16.845 112.736 20.835-7.187-4.984-15.102-9.084-23.627-12.098l-97.127-34.34c-4.158-1.47-6.938-5.401-6.938-9.811v-32.222c0-5.747 4.66-10.407 10.407-10.407z"/><path d="m373.594 0h-41.626c5.747 0 10.407 4.659 10.407 10.407v64.52c0 5.747-4.659 10.407-10.407 10.407h41.626c5.747 0 10.406-4.659 10.406-10.407v-64.52c0-5.748-4.659-10.407-10.406-10.407z"/></g><path d="m298.667 384c0 23.286-18.654 42.215-41.835 42.659-23.92.457-43.499-19.577-43.499-43.502v-31.417c0-5.747-4.659-10.407-10.406-10.407h-64.52c-5.747 0-10.407 4.659-10.407 10.407v32.26c0 70.843 57.552 128.245 128.453 127.999 62.464-.216 114.052-45.776 125.273-105.136-28.195-14.554-55.794-32.813-83.059-53.374z" fill="#9cf8d2"/><path d="m342.356 384.035c-.683 63.203-46.684 116.255-107.23 126.262 6.938 1.138 14.061 1.728 21.327 1.703 62.464-.216 114.052-45.776 125.273-105.136-13.247-6.838-26.36-14.502-39.37-22.829z" fill="#6cf5c2"/></g></svg>