<svg id="Capa_1" enable-background="new 0 0 512 512" height="512" viewBox="0 0 512 512" width="512" xmlns="http://www.w3.org/2000/svg"><g><path d="m298.667 335.706v48.294c0 23.564-19.103 42.667-42.667 42.667-21.039 0-38.509-15.232-42.014-35.267-26.863 15.523-52.953 24.397-76.88 29.407 18.769 57.076 64.559 91.006 118.441 91.193 70.901.245 128.453-57.157 128.453-128v-51.905c-24.96-6.237-54.9-7.973-85.333 3.611z" fill="#fe73c5"/><path d="m213.333 177.96v-49.118c0-23.924 19.579-43.959 43.499-43.502 20.284.388 37.103 14.931 40.989 34.163.99 4.901 5.177 8.496 10.177 8.496h65.137c6.075 0 10.905-5.187 10.379-11.24-5.705-65.575-60.857-116.99-127.967-116.758-70.743.244-127.547 58.645-127.547 107.535v141.814c28.95-15.741 60.156-38.599 85.333-71.39z" fill="#ffe177"/><path d="m256.094 170.667c-14.996-.011-29.386 2.566-42.761 7.294-25.177 32.79-56.384 55.649-85.333 71.389v111.408c0 22.069 3.233 42.19 9.106 60.05 23.927-5.009 50.017-13.884 76.88-29.407-.421-2.405-.653-4.875-.653-7.4v-85.333c0-23.565 19.103-42.668 42.667-42.668s42.667 19.103 42.667 42.667v37.04c30.433-11.584 60.373-9.848 85.333-3.611v-32.012c0-70.887-57.019-129.366-127.906-129.417z" fill="#62dbfb"/><path d="m383.513 116.76c-5.704-65.576-60.856-116.991-127.966-116.759-6.928.024-13.72.613-20.34 1.689 57.164 9.357 101.592 56.58 106.68 115.071.526 6.052-4.303 11.24-10.379 11.24h41.626c6.076-.001 10.906-5.188 10.379-11.241z" fill="#ffd15b"/><path d="m256.094 170.667c-7.144-.005-14.149.584-20.974 1.706 60.989 10.085 107.254 63.86 107.254 127.711v27.161c14.778-.347 28.855 1.66 41.626 4.851v-32.012c0-70.887-57.019-129.366-127.906-129.417z" fill="#01d0fb"/><path d="m342.374 327.244v56.756c0 63.561-46.331 116.292-107.062 126.286 6.587 1.106 13.344 1.69 20.235 1.713 70.901.246 128.453-57.156 128.453-127.999v-51.905c-12.771-3.191-26.848-5.198-41.626-4.851z" fill="#fe4fb7"/></g></svg>