<svg id="Capa_1" enable-background="new 0 0 512 512" height="512" viewBox="0 0 512 512" width="512" xmlns="http://www.w3.org/2000/svg"><g><path d="m256 85.333c21.859 0 39.867 16.441 42.361 37.63 31.151 3.07 60.083 9.457 85.413 18.448-3.878-86.877-59.118-141.174-127.321-141.41-70.901-.246-128.453 57.156-128.453 127.999v13.489c25.384-9.033 54.397-15.447 85.639-18.526 2.494-21.188 20.502-37.63 42.361-37.63z" fill="#ffe177"/><path d="m298.667 383.157c0 23.924-19.579 43.959-43.499 43.502-20.284-.388-37.103-14.931-40.989-34.163-.99-4.901-5.177-8.496-10.177-8.496h-65.137c-6.075 0-10.905 5.187-10.379 11.24 5.705 65.576 60.856 116.992 127.966 116.76 70.744-.245 127.548-58.646 127.548-107.536v-62.971c-25.301 9.003-54.207 15.404-85.333 18.495z" fill="#fe73c5"/><path d="m383.774 141.411c-25.33-8.991-54.262-15.377-85.413-18.448.195 1.653.306 3.331.306 5.037v85.333c0 23.564-19.103 42.667-42.667 42.667s-42.667-19.103-42.667-42.667v-85.333c0-1.705.111-3.384.306-5.037-31.243 3.079-60.255 9.493-85.639 18.526v70.427c0 70.887 57.019 129.366 127.906 129.417 14.996.011 29.386-2.566 42.761-7.294v25.949c31.126-3.091 60.033-9.492 85.333-18.495v-190.25c0-3.324-.082-6.598-.226-9.832z" fill="#8d9ca8"/><path d="m383.774 141.411c-13.241-4.7-27.475-8.68-42.488-11.855.714 7 1.088 14.231 1.088 21.687v201.956c14.698-3.154 28.64-7.084 41.626-11.705v-190.251c0-3.324-.082-6.598-.226-9.832z" fill="#7a8c98"/><path d="m341.286 129.556c15.012 3.175 29.246 7.155 42.488 11.855-3.878-86.877-59.118-141.174-127.321-141.41-7.287-.025-14.44.56-21.397 1.704 55.587 9.33 98.939 56.386 106.23 127.851z" fill="#ffd15b"/><path d="m342.374 353.199v51.266c0 44.102-46.226 95.935-107.207 105.846 6.924 1.134 14.035 1.714 21.286 1.689 70.743-.245 127.547-58.646 127.547-107.536v-62.971c-12.986 4.622-26.928 8.551-41.626 11.706z" fill="#fe4fb7"/></g></svg>