<?xml version="1.0" encoding="iso-8859-1"?>
<!-- Generator: Adobe Illustrator 19.0.0, SVG Export Plug-In . SVG Version: 6.00 Build 0)  -->
<svg xmlns="http://www.w3.org/2000/svg" xmlns:xlink="http://www.w3.org/1999/xlink" version="1.1" id="Layer_1" x="0px" y="0px" viewBox="0 0 512 512" style="enable-background:new 0 0 512 512;" xml:space="preserve" width="512" height="512">
<g id="XMLID_2634_">
	<g id="XMLID_2636_">
		<g id="XMLID_2637_">
			<circle id="XMLID_2640_" style="fill:#48709B;" cx="256" cy="256.266" r="248.5"/>
			<path id="XMLID_2643_" style="fill:#304E75;" d="M256,476.266c-58.764,0-114.011-22.884-155.564-64.437     C58.883,370.278,36,315.03,36,256.266s22.884-114.012,64.437-155.563C141.989,59.15,197.236,36.266,256,36.266     s114.012,22.884,155.563,64.437C453.116,142.255,476,197.502,476,256.266s-22.884,114.012-64.437,155.563     C370.012,453.382,314.764,476.266,256,476.266z"/>
			<circle id="XMLID_2646_" style="fill:#C7CFE2;" cx="256" cy="256.266" r="206.628"/>
		</g>
		<g id="XMLID_2656_">
			<g id="XMLID_1594_">
				<g id="XMLID_1598_">
					<path id="XMLID_1599_" style="fill:#AFB9D2;" d="M256,208.265c-34.187,0-62-27.813-62-62s27.813-62,62-62s62,27.813,62,62       S290.187,208.265,256,208.265z"/>
				</g>
				<g id="XMLID_1596_">
					<circle id="XMLID_1597_" style="fill:#52EA28;" cx="256" cy="146.266" r="49"/>
				</g>
			</g>
		</g>
		<g id="XMLID_2666_">
			<g id="XMLID_1441_">
				<path id="XMLID_1445_" style="fill:#3EB500;" d="M305,146.266c0,27.06-21.94,49-49,49s-49-21.94-49-49c0-2.62,0.21-5.19,0.6-7.7      c3.7,23.41,23.96,41.29,48.4,41.29s44.7-17.88,48.4-41.29C304.79,141.076,305,143.646,305,146.266z"/>
			</g>
		</g>
		<g id="XMLID_2694_">
			<g id="XMLID_1645_">
				<g id="XMLID_1663_">
					<path id="XMLID_1664_" style="fill:#AFB9D2;" d="M366,318.266c-34.187,0-61.999-27.813-61.999-62s27.813-62,61.999-62       s62,27.813,62,62S400.187,318.266,366,318.266z"/>
				</g>
				<circle id="XMLID_1662_" style="fill:#E94141;" cx="366" cy="256.266" r="49"/>
				<path id="XMLID_1661_" style="fill:#C62525;" d="M415,256.266c0,27.06-21.94,49-49,49s-49-21.94-49-49c0-2.62,0.21-5.19,0.6-7.7      c3.7,23.41,23.96,41.29,48.4,41.29s44.7-17.88,48.4-41.29C414.79,251.076,415,253.646,415,256.266z"/>
				<g id="XMLID_1659_">
					<path id="XMLID_1660_" style="fill:#AFB9D2;" d="M146,318.266c-34.187,0-62-27.813-62-62s27.813-62,62-62       s61.999,27.813,61.999,62S180.187,318.266,146,318.266z"/>
				</g>
				<g id="XMLID_1653_">
					<circle id="XMLID_1656_" style="fill:#F288E8;" cx="146" cy="256.266" r="49"/>
				</g>
				<g id="XMLID_1648_">
					<path id="XMLID_1651_" style="fill:#DD66D8;" d="M195,256.266c0,27.06-21.94,49-49,49s-49-21.94-49-49       c0-2.62,0.21-5.19,0.6-7.7c3.7,23.41,23.96,41.29,48.4,41.29s44.7-17.88,48.4-41.29C194.79,251.076,195,253.646,195,256.266z"/>
				</g>
			</g>
		</g>
		<g id="XMLID_2732_">
			<g id="XMLID_1543_">
				<g id="XMLID_1554_">
					<path id="XMLID_1555_" style="fill:#AFB9D2;" d="M256,428.266c-34.187,0-62-27.813-62-62s27.813-62,62-62s62,27.813,62,62       S290.187,428.266,256,428.266z"/>
				</g>
				<circle id="XMLID_1551_" style="fill:#0086F4;" cx="256" cy="366.267" r="49"/>
				<g id="XMLID_1547_">
					<path id="XMLID_1548_" style="fill:#0064DB;" d="M305,366.266c0,27.06-21.94,49-49,49s-49-21.94-49-49       c0-2.62,0.21-5.19,0.6-7.7c3.7,23.4,23.96,41.29,48.4,41.29s44.7-17.89,48.4-41.29C304.79,361.076,305,363.646,305,366.266z"/>
				</g>
			</g>
		</g>
	</g>
	<g id="XMLID_2741_">
		<path id="XMLID_2742_" d="M470.128,256.266c0-57.196-22.273-110.968-62.717-151.412S313.195,42.138,256,42.138    s-110.968,22.273-151.411,62.717S41.872,199.07,41.872,256.266s22.273,110.968,62.717,151.412S198.805,470.395,256,470.395    s110.968-22.273,151.411-62.717S470.128,313.462,470.128,256.266z M256,455.395c-109.8,0-199.128-89.329-199.128-199.128    S146.2,57.138,256,57.138s199.128,89.329,199.128,199.128S365.8,455.395,256,455.395z"/>
		<path id="XMLID_2745_" d="M482.689,137.218c-18.558-35.263-45.543-66.173-78.038-89.388c-3.369-2.409-8.054-1.627-10.462,1.743    c-2.408,3.371-1.628,8.055,1.743,10.462c30.6,21.861,56.01,50.966,73.482,84.168C487.461,178.495,497,217.246,497,256.266    c0,61.652-23.266,120.311-65.512,165.17c-42.063,44.664-98.842,71.411-159.878,75.313c-4.134,0.264-7.271,3.83-7.006,7.963    c0.254,3.971,3.553,7.021,7.477,7.021c0.161,0,0.323-0.005,0.486-0.015c64.844-4.146,125.161-32.556,169.84-79.999    C487.285,384.067,512,321.756,512,256.266C512,214.821,501.864,173.655,482.689,137.218z"/>
		<path id="XMLID_2746_" d="M238.449,496.626c-33.696-2.425-65.858-11.688-95.595-27.531    c-28.906-15.402-54.013-36.181-74.622-61.761c-2.598-3.225-7.32-3.733-10.545-1.135c-3.226,2.599-3.734,7.32-1.135,10.546    c21.885,27.163,48.548,49.229,79.248,65.587c31.598,16.836,65.771,26.679,101.572,29.254c0.184,0.013,0.365,0.02,0.546,0.02    c3.897,0,7.188-3.014,7.473-6.962C245.689,500.514,242.581,496.923,238.449,496.626z"/>
		<path id="XMLID_2747_" d="M15,256.266c0-64.374,25.068-124.894,70.588-170.413C131.106,40.334,191.627,15.266,256,15.266    c39.124,0,76.455,9.091,110.958,27.02c3.671,1.909,8.202,0.479,10.113-3.197c1.91-3.676,0.479-8.204-3.197-10.114    C337.73,10.194,296.97,0.266,256,0.266c-68.38,0-132.667,26.628-181.02,74.98C26.629,123.599,0,187.886,0,256.266    c0,46.26,12.486,91.605,36.11,131.133c1.404,2.35,3.893,3.654,6.444,3.653c1.31,0,2.636-0.343,3.841-1.063    c3.556-2.125,4.715-6.73,2.59-10.286C26.752,342.501,15,299.817,15,256.266z"/>
		<path id="XMLID_2748_" d="M256,202.765c31.154,0,56.5-25.346,56.5-56.5s-25.346-56.5-56.5-56.5s-56.5,25.346-56.5,56.5    S224.846,202.765,256,202.765z M256,104.766c22.883,0,41.5,18.617,41.5,41.5s-18.617,41.5-41.5,41.5s-41.5-18.617-41.5-41.5    S233.117,104.766,256,104.766z"/>
		<path id="XMLID_2758_" d="M256,309.767c-31.154,0-56.5,25.346-56.5,56.5s25.346,56.5,56.5,56.5s56.5-25.346,56.5-56.5    S287.154,309.767,256,309.767z M256,407.766c-22.883,0-41.5-18.617-41.5-41.5s18.617-41.5,41.5-41.5s41.5,18.617,41.5,41.5    S278.883,407.766,256,407.766z"/>
		<path id="XMLID_2762_" d="M366,199.767c-31.153,0-56.499,25.346-56.499,56.5s25.346,56.5,56.499,56.5    c31.154,0,56.5-25.346,56.5-56.5S397.154,199.767,366,199.767z M366,297.766c-22.883,0-41.499-18.617-41.499-41.5    s18.616-41.5,41.499-41.5s41.5,18.617,41.5,41.5S388.883,297.766,366,297.766z"/>
		<path id="XMLID_2769_" d="M146,199.767c-31.154,0-56.5,25.346-56.5,56.5s25.346,56.5,56.5,56.5    c31.153,0,56.499-25.346,56.499-56.5S177.153,199.767,146,199.767z M146,297.766c-22.883,0-41.5-18.617-41.5-41.5    s18.617-41.5,41.5-41.5s41.499,18.617,41.499,41.5S168.883,297.766,146,297.766z"/>
		<path id="XMLID_2773_" d="M163.369,231.397H128.63c-4.143,0-7.5,3.358-7.5,7.5v34.738c0,4.142,3.357,7.5,7.5,7.5h34.739    c4.143,0,7.5-3.358,7.5-7.5v-34.738C170.869,234.755,167.512,231.397,163.369,231.397z M155.869,266.135H136.13v-19.738h19.739    V266.135z"/>
		<path id="XMLID_2779_" d="M366,229.433c-14.796,0-26.833,12.038-26.833,26.833S351.204,283.1,366,283.1    s26.834-12.038,26.834-26.833S380.796,229.433,366,229.433z M366,268.1c-6.524,0-11.833-5.309-11.833-11.833    s5.309-11.833,11.833-11.833c6.525,0,11.834,5.309,11.834,11.833S372.525,268.1,366,268.1z"/>
		<path id="XMLID_2782_" d="M238.25,163.554h36c2.724,0,5.233-1.477,6.556-3.857c1.323-2.38,1.251-5.291-0.188-7.604l-18-28.938    c-1.368-2.201-3.776-3.539-6.368-3.539s-5,1.338-6.368,3.539l-18,28.938c-1.438,2.313-1.511,5.224-0.188,7.604    C233.017,162.077,235.526,163.554,238.25,163.554z M256.25,141.315l4.502,7.238h-9.004L256.25,141.315z"/>
		<path id="XMLID_2785_" d="M277.083,345.185c-2.93-2.929-7.678-2.929-10.607,0L256,355.66l-10.475-10.475    c-2.93-2.929-7.678-2.929-10.607,0c-2.929,2.929-2.929,7.678,0,10.606l10.476,10.476l-10.476,10.476    c-2.929,2.929-2.929,7.678,0,10.606c1.465,1.464,3.385,2.197,5.304,2.197s3.839-0.732,5.304-2.197L256,376.874l10.475,10.475    c1.465,1.464,3.385,2.197,5.304,2.197s3.839-0.732,5.304-2.197c2.929-2.929,2.929-7.678,0-10.606l-10.476-10.476l10.476-10.476    C280.012,352.862,280.012,348.113,277.083,345.185z"/>
	</g>
</g>















</svg>
