<?xml version="1.0" encoding="iso-8859-1"?>
<!-- Generator: Adobe Illustrator 19.0.0, SVG Export Plug-In . SVG Version: 6.00 Build 0)  -->
<svg xmlns="http://www.w3.org/2000/svg" xmlns:xlink="http://www.w3.org/1999/xlink" version="1.1" id="Layer_1" x="0px" y="0px" viewBox="0 0 512 512" style="enable-background:new 0 0 512 512;" xml:space="preserve" width="512" height="512">
<g id="XMLID_776_">
	<g id="XMLID_3577_">
		<g id="XMLID_3524_">
			<path id="XMLID_3538_" style="fill:#AFB9D2;" d="M188.33,189.596v42.41h-70.66v-42.41c0-19.52,15.82-35.33,35.33-35.33     c9.76,0,18.59,3.95,24.98,10.34C184.38,171.006,188.33,179.836,188.33,189.596z"/>
			<rect id="XMLID_3534_" x="117.67" y="208.736" style="fill:#959CB3;" width="70.66" height="23.27"/>
			<polygon id="XMLID_3129_" style="fill:#FFA511;" points="490.33,94.276 490.33,440.276 20.33,440.276 20.33,248.276      259.67,248.276 269.99,237.906 413,94.276    "/>
			<polygon id="XMLID_3115_" style="fill:#EB6B24;" points="490.33,161.196 490.33,211.466 20.33,375.096 20.33,324.826      240.21,248.276 269.99,237.906    "/>
			<polygon id="XMLID_3046_" style="fill:#EB6B24;" points="490.33,261.736 490.33,312.016 121.93,440.276 20.33,440.276      20.33,425.376    "/>
			<polygon id="XMLID_3044_" style="fill:#EB6B24;" points="490.33,362.286 490.33,412.556 410.71,440.276 266.32,440.276    "/>
			<path id="XMLID_779_" style="fill:#52EA28;" d="M7.5,221.731h213L370.509,71.722H504.5v118.005     c0,18.715-15.171,33.886-33.886,33.886h0c-18.715,0-33.886-15.171-33.886-33.886v-29.852c0-11.585-9.392-20.977-20.977-20.977h0     c-11.585,0-20.977,9.392-20.977,20.977V311.86c0,20.924-16.962,37.886-37.886,37.886h0c-20.924,0-37.886-16.962-37.886-37.886     v-9.144c0-22.15-17.956-40.106-40.106-40.106h0c-22.15,0-40.106,17.956-40.106,40.106v44.341     c0,20.497-16.616,37.114-37.114,37.114h0c-20.497,0-37.114-16.616-37.114-37.114v-62.394c0-11.585-9.392-20.977-20.977-20.977h0     c-11.585,0-20.977,9.392-20.977,20.977v13.985c0,15.15-12.282,27.432-27.432,27.432h0c-15.15,0-27.432-12.282-27.432-27.432     v-7.53c0-15.15-12.282-27.432-27.432-27.432H7.5V221.731z"/>
			<path id="XMLID_2418_" style="fill:#8AFF64;" d="M504.5,71.726v15.06H376.51L229.928,233.368     c-2.195,2.195-5.173,3.428-8.277,3.428H7.5v-15.07h213l150.01-150H504.5z"/>
		</g>
	</g>
	<g id="XMLID_777_">
		<path id="XMLID_778_" d="M504.5,64.222H370.509c-1.989,0-3.897,0.79-5.303,2.196l-76.809,76.81c-2.929,2.93-2.929,7.678,0,10.607    c2.929,2.928,7.678,2.928,10.606,0l74.612-74.613H497v110.505c0,14.549-11.837,26.386-26.386,26.386s-26.386-11.837-26.386-26.386    v-29.852c0-15.702-12.775-28.478-28.478-28.478s-28.478,12.775-28.478,28.478v151.984c0,16.755-13.631,30.387-30.386,30.387    S326.5,328.614,326.5,311.859v-9.144c0-26.25-21.356-47.606-47.606-47.606s-47.606,21.356-47.606,47.606v44.341    c0,16.329-13.285,29.614-29.614,29.614s-29.614-13.285-29.614-29.614v-62.394c0-15.702-12.775-28.478-28.477-28.478    c-15.703,0-28.478,12.775-28.478,28.478v13.984c0,10.99-8.941,19.932-19.932,19.932c-10.991,0-19.932-8.941-19.932-19.932v-7.53    c0-19.262-15.67-34.932-34.932-34.932H15v-26.954h205.5c1.989,0,3.897-0.79,5.303-2.196l49.032-49.034    c2.929-2.929,2.929-7.677,0-10.606c-2.929-2.928-7.678-2.928-10.606,0l-46.835,46.837h-21.56v-24.637    c0-23.619-19.215-42.834-42.833-42.834s-42.833,19.215-42.833,42.834v24.637H7.5c-4.142,0-7.5,3.357-7.5,7.5v41.954    c0,4.143,3.358,7.5,7.5,7.5h5.33v169.091c0,4.143,3.358,7.5,7.5,7.5h55.581c4.142,0,7.5-3.357,7.5-7.5s-3.358-7.5-7.5-7.5H27.83    v-2.07l144.316-50.246c7.873,6.968,18.212,11.211,29.528,11.211c21.927,0,40.196-15.904,43.911-36.78l69.952-24.355    c5.318,11.727,15.47,20.814,27.908,24.678l-222.783,77.563h-10.573c-4.142,0-7.5,3.357-7.5,7.5s3.358,7.5,7.5,7.5h11.816    c0.008,0,0.017,0.002,0.025,0.002c0.008,0,0.016-0.002,0.023-0.002h225.958c4.142,0,7.5-3.357,7.5-7.5s-3.358-7.5-7.5-7.5h-37.239    l172.158-59.938v34.386l-73.388,25.551h-27.353c-4.142,0-7.5,3.357-7.5,7.5s3.358,7.5,7.5,7.5h28.595    c0.008,0,0.017,0.002,0.025,0.002c0.008,0,0.016-0.002,0.023-0.002h79.597c4.142,0,7.5-3.357,7.5-7.5V220.865    c8.675-7.592,14.17-18.732,14.17-31.138V71.722C512,67.579,508.642,64.222,504.5,64.222z M125.167,189.595    c0-15.348,12.486-27.834,27.833-27.834s27.833,12.486,27.833,27.834v24.637h-55.667V189.595z M143.583,271.186    c1.807,0,3.53,0.363,5.106,1.011l-16.843,5.864C134.161,273.963,138.551,271.186,143.583,271.186z M95.174,333.579    c19.261,0,34.932-15.67,34.932-34.932v-4.098l26.955-9.384v34.386L27.83,364.543v-34.387l37.667-13.113    C71.666,326.96,82.66,333.579,95.174,333.579z M40.311,271.186c10.99,0,19.932,8.941,19.932,19.932v7.53    c0,1.439,0.098,2.855,0.268,4.249l-32.68,11.377v-43.088H40.311z M27.83,380.426l129.23-44.991v11.622    c0,7.568,1.9,14.698,5.239,20.949L27.83,414.823V380.426z M278.894,270.109c4.517,0,8.821,0.924,12.736,2.592l-41.35,14.396    C255.823,276.983,266.57,270.109,278.894,270.109z M246.288,338.762V304.37l59.128-20.585c3.824,5.342,6.084,11.875,6.084,18.931    v9.144c0,1.393,0.073,2.769,0.196,4.13L246.288,338.762z M402.272,199.796l26.972-9.39c0.191,11.746,5.291,22.316,13.344,29.74    l-40.316,14.036V199.796z M415.75,146.397c7.432,0,13.478,6.046,13.478,13.478v14.653l-26.955,9.384v-24.038    C402.272,152.443,408.318,146.397,415.75,146.397z M402.272,311.859v-11.523l80.558-28.048v34.397l-88.525,30.82    C399.326,330.204,402.272,321.371,402.272,311.859z M265.052,432.776h-98.769L482.83,322.569v34.386L265.052,432.776z     M455.061,432.776l27.769-9.668v9.668H455.061z M482.83,256.406l-80.558,28.047v-34.389l58.116-20.233    c3.272,0.835,6.697,1.281,10.225,1.281c4.251,0,8.353-0.646,12.216-1.842V256.406z"/>
		<path id="XMLID_804_" d="M367.167,247.171v-0.938c0-4.143-3.358-7.5-7.5-7.5s-7.5,3.357-7.5,7.5v0.938c0,4.143,3.358,7.5,7.5,7.5    S367.167,251.313,367.167,247.171z"/>
		<path id="XMLID_805_" d="M325.167,232.946v-0.938c0-4.143-3.358-7.5-7.5-7.5s-7.5,3.357-7.5,7.5v0.938c0,4.143,3.358,7.5,7.5,7.5    S325.167,237.089,325.167,232.946z"/>
		<path id="XMLID_806_" d="M197.5,312.017v0.938c0,4.143,3.358,7.5,7.5,7.5s7.5-3.357,7.5-7.5v-0.938c0-4.143-3.358-7.5-7.5-7.5    S197.5,307.874,197.5,312.017z"/>
		<path id="XMLID_807_" d="M477.833,178.946v-0.938c0-4.143-3.358-7.5-7.5-7.5s-7.5,3.357-7.5,7.5v0.938c0,4.143,3.358,7.5,7.5,7.5    S477.833,183.089,477.833,178.946z"/>
		<path id="XMLID_808_" d="M90.167,275.613v0.938c0,4.143,3.358,7.5,7.5,7.5s7.5-3.357,7.5-7.5v-0.938c0-4.143-3.358-7.5-7.5-7.5    S90.167,271.471,90.167,275.613z"/>
		<path id="XMLID_809_" d="M35.097,115.904c1.47,2.003,3.746,3.064,6.053,3.064c1.54,0,3.094-0.473,4.43-1.454l18.545-13.604    c1.926-1.412,3.064-3.658,3.064-6.047s-1.138-4.634-3.063-6.047L45.582,78.211c-3.339-2.451-8.033-1.729-10.484,1.61    c-2.45,3.34-1.729,8.033,1.611,10.483l10.302,7.559l-10.302,7.558C33.369,107.87,32.647,112.564,35.097,115.904z"/>
		<path id="XMLID_810_" d="M81.752,115.904c1.469,2.003,3.746,3.064,6.053,3.064c1.54,0,3.094-0.473,4.43-1.453l18.546-13.604    c1.926-1.413,3.064-3.659,3.064-6.048s-1.138-4.634-3.063-6.047L92.236,78.211c-3.34-2.451-8.034-1.729-10.484,1.61    s-1.729,8.033,1.611,10.483l10.302,7.559l-10.302,7.557C80.023,107.87,79.302,112.564,81.752,115.904z"/>
		<path id="XMLID_811_" d="M128.407,115.904c1.47,2.003,3.746,3.064,6.053,3.064c1.54,0,3.094-0.473,4.43-1.454l18.545-13.604    c1.926-1.412,3.064-3.658,3.064-6.047s-1.138-4.634-3.063-6.047l-18.545-13.605c-3.34-2.451-8.033-1.729-10.484,1.61    c-2.45,3.34-1.729,8.033,1.611,10.483l10.302,7.559l-10.302,7.558C126.679,107.87,125.957,112.564,128.407,115.904z"/>
	</g>
</g>















</svg>
