<?xml version="1.0" encoding="iso-8859-1"?>
<!-- Generator: Adobe Illustrator 19.0.0, SVG Export Plug-In . SVG Version: 6.00 Build 0)  -->
<svg xmlns="http://www.w3.org/2000/svg" xmlns:xlink="http://www.w3.org/1999/xlink" version="1.1" id="Layer_1" x="0px" y="0px" viewBox="0 0 512 512" style="enable-background:new 0 0 512 512;" xml:space="preserve" width="512" height="512">
<g id="XMLID_490_">
	<g id="XMLID_1623_">
		<path id="XMLID_1982_" style="fill:#0086F4;" d="M495.5,258.151v169.03c0,25.23-20.45,45.68-45.68,45.68H62.18    c-25.23,0-45.68-20.45-45.68-45.68v-169.03H495.5z"/>
		<path id="XMLID_2134_" style="fill:#FFDC13;" d="M495.5,69.436v185.48h-479V69.436c0-25.23,20.45-45.68,45.68-45.68h387.64    C475.05,23.756,495.5,44.206,495.5,69.436z"/>
		<path id="XMLID_2131_" style="fill:#FFA511;" d="M490.67,222.746v32.17H21.33v-53.39c0-10.48,8.52-19,19-19h33.63v-33.3    c0-10.48,8.52-19,19-19h158.03l28.83-26.07c3.53-3.18,8.04-4.91,12.74-4.91h77.28c10.48,0,19,8.52,19,19v40.65h44.26    c10.48,0,19,8.52,19,19v25.85h19.57C482.15,203.746,490.67,212.266,490.67,222.746z"/>
		<path id="XMLID_1625_" style="fill:#0064DB;" d="M466.25,76.554v178.362H45.75V76.554c0-13.56,11.03-24.59,24.6-24.59h371.3    C455.22,51.964,466.25,62.994,466.25,76.554z"/>
		<path id="XMLID_1684_" style="fill:#0043C9;" d="M466.25,76.55v12.91c0-13.56-11.03-24.59-24.6-24.59H70.35    c-13.57,0-24.6,11.03-24.6,24.59V76.55c0-13.56,11.03-24.59,24.6-24.59h371.3C455.22,51.96,466.25,62.99,466.25,76.55z"/>
		<path id="XMLID_1622_" style="fill:#0043C9;" d="M466.25,203.746v51.17H45.75v-72.39h28.21v-33.3c0-10.48,8.52-19,19-19h62.87    c3.94-15.68,18.15-27.33,35.04-27.33s31.1,11.65,35.04,27.33h25.08l28.83-26.07c3.53-3.18,8.04-4.91,12.74-4.91h77.28    c10.48,0,19,8.52,19,19v24.5l16.15,16.15h28.11c10.48,0,19,8.52,19,19v25.85H466.25z"/>
		<path id="XMLID_1124_" style="fill:#FFDC13;" d="M477.67,222.746v32.17H34.33v-53.39c0-3.31,2.69-6,6-6h40.63c3.32,0,6-2.68,6-6    v-40.3c0-3.31,2.69-6,6-6H256l32.54-29.43c1.1-0.99,2.53-1.55,4.02-1.55h77.28c3.31,0,6,2.69,6,6v47.65c0,3.31,2.69,6,6,6h51.26    c3.31,0,6,2.68,6,6v32.85c0,3.32,2.68,6,6,6h26.57C474.98,216.746,477.67,219.436,477.67,222.746z"/>
		<path id="XMLID_1225_" style="fill:#FFA511;" d="M477.67,229.766v25.15H34.33v-25.15h179.01c2.09-1.67,4.72-2.67,7.6-2.67h70.12    c2.88,0,5.51,1,7.6,2.67H477.67z"/>
		<path id="XMLID_1130_" style="fill:#FFED97;" d="M375.84,118.246v12.53c0-3.31-2.69-6-6-6h-71.28c-1.49,0-2.92,0.55-4.02,1.55    L262,155.756H92.96c-3.31,0-6,2.68-6,6v-12.53c0-3.31,2.69-6,6-6H256l32.54-29.43c1.1-0.99,2.53-1.55,4.02-1.55h77.28    C373.15,112.246,375.84,114.936,375.84,118.246z"/>
		<g id="XMLID_911_">
			<rect id="XMLID_863_" x="135" y="195.531" style="fill:#E94141;" width="37" height="55.443"/>
			<rect id="XMLID_1029_" x="135" y="229.766" style="fill:#C62525;" width="37" height="21.21"/>
		</g>
		<path id="XMLID_1979_" style="fill:#0064DB;" d="M303.25,258.151v107.275c0,7.227-5.858,13.085-13.085,13.085h-68.33    c-7.227,0-13.085-5.858-13.085-13.085V258.151H303.25z"/>
		<polygon id="XMLID_1976_" style="fill:#0064DB;" points="495.5,258.151 495.5,294.201 429.33,294.201 429.33,472.861     361.33,472.861 361.33,294.201 150.67,294.201 150.67,472.861 82.67,472.861 82.67,294.201 16.5,294.201 16.5,258.151   "/>
		<path id="XMLID_1973_" style="fill:#0064DB;" d="M495.5,394.461v32.72c0,25.23-20.45,45.68-45.68,45.68H62.18    c-25.23,0-45.68-20.45-45.68-45.68v-32.72c0,25.23,20.45,45.68,45.68,45.68h387.64C475.05,440.141,495.5,419.691,495.5,394.461z"/>
		<g id="XMLID_1935_">
			<g id="XMLID_3615_">
				<rect id="XMLID_3621_" x="374.33" y="271.051" style="fill:#FFA511;" width="42" height="217.19"/>
				<g id="XMLID_3619_">
					<rect id="XMLID_3620_" x="374.33" y="271.051" style="fill:#EB6B24;" width="42" height="23.15"/>
				</g>
				<rect id="XMLID_3618_" x="95.67" y="271.051" style="fill:#FFA511;" width="42" height="217.19"/>
				<g id="XMLID_3616_">
					<rect id="XMLID_3617_" x="95.67" y="271.051" style="fill:#EB6B24;" width="42" height="23.15"/>
				</g>
			</g>
		</g>
		<rect id="XMLID_1927_" x="7.5" y="242.761" style="fill:#FFDC13;" width="497" height="38.44"/>
		<rect id="XMLID_1899_" x="208.75" y="242.761" style="fill:#FFA511;" width="94.5" height="38.44"/>
		<rect id="XMLID_1783_" x="221.75" y="240.091" style="fill:#FFDC13;" width="68.5" height="125.419"/>
		<g id="XMLID_1756_">
			<g id="XMLID_1762_">
				<circle id="XMLID_1772_" style="fill:#0064DB;" cx="256" cy="322.458" r="10.333"/>
			</g>
		</g>
		<g id="XMLID_790_">
			<circle id="XMLID_2088_" style="fill:#F288E8;" cx="190.87" cy="139.023" r="23.13"/>
		</g>
		<g id="XMLID_893_">
			<circle id="XMLID_899_" style="fill:#00F0F5;" cx="266.333" cy="189.307" r="18.957"/>
		</g>
		<g id="XMLID_801_">
			
				<rect id="XMLID_2089_" x="354.58" y="154.8" transform="matrix(0.7071 0.7071 -0.7071 0.7071 233.064 -213.567)" style="fill:#52EA28;" width="39.5" height="39.5"/>
		</g>
	</g>
	<g id="XMLID_491_">
		<path id="XMLID_492_" d="M504.5,235.258H503V69.435c0-29.324-23.856-53.181-53.18-53.181H138.089c-4.142,0-7.5,3.357-7.5,7.5    s3.358,7.5,7.5,7.5H449.82c21.052,0,38.18,17.128,38.18,38.181v165.823h-2.833v-12.507c0-6.734-4.961-12.315-11.417-13.322V76.558    c0-17.698-14.399-32.098-32.098-32.098H70.348c-17.699,0-32.098,14.399-32.098,32.098v111.651    c-6.456,1.007-11.417,6.588-11.417,13.322v33.727H24V69.435c0-21.053,17.127-38.181,38.18-38.181h41.731    c4.142,0,7.5-3.357,7.5-7.5s-3.358-7.5-7.5-7.5H62.18C32.856,16.254,9,40.11,9,69.435v165.823H7.5c-4.142,0-7.5,3.357-7.5,7.5    v38.44c0,4.143,3.358,7.5,7.5,7.5h1.496v138.486c0,29.324,23.857,53.181,53.181,53.181h25.99v7.881c0,4.143,3.358,7.5,7.5,7.5h42    c4.142,0,7.5-3.357,7.5-7.5v-7.881h221.667v7.881c0,4.143,3.358,7.5,7.5,7.5h42c4.142,0,7.5-3.357,7.5-7.5v-7.881h25.991    c29.324,0,53.18-23.856,53.18-53.181v-75.096c0-4.143-3.358-7.5-7.5-7.5s-7.5,3.357-7.5,7.5v75.096    c0,21.053-17.127,38.181-38.18,38.181h-25.991V288.698h64.171v29.213c0,4.143,3.358,7.5,7.5,7.5s7.5-3.357,7.5-7.5v-29.213h1.496    c4.142,0,7.5-3.357,7.5-7.5v-38.44C512,238.615,508.642,235.258,504.5,235.258z M297.75,273.698v-23.44H497v23.44H297.75z     M70.348,59.46h371.305c9.428,0,17.098,7.67,17.098,17.098v132.693h-12.153v-31.358c0-7.444-6.056-13.5-13.5-13.5H402.71    l-19.372-19.372V118.25c0-7.444-6.056-13.5-13.5-13.5h-77.278c-3.352,0-6.567,1.238-9.056,3.487l-30.394,27.488H221.32    c-1.651-15.344-14.675-27.333-30.45-27.333c-15.775,0-28.799,11.989-30.45,27.333H92.964c-7.444,0-13.5,6.056-13.5,13.5v38.806    H53.25V76.558C53.25,67.13,60.92,59.46,70.348,59.46z M374.33,157.226l17.324,17.324l-17.324,17.324l-17.324-17.324    L374.33,157.226z M206.5,139.023c0,8.618-7.012,15.63-15.63,15.63c-8.618,0-15.63-7.012-15.63-15.63    c0-8.619,7.012-15.631,15.63-15.631C199.488,123.393,206.5,130.404,206.5,139.023z M41.833,203.031h39.13    c7.444,0,13.5-6.056,13.5-13.5v-38.806h68.104c4.607,11.1,15.555,18.928,28.302,18.928c12.747,0,23.695-7.828,28.302-18.928H256    c1.859,0,3.652-0.69,5.031-1.938l32.107-29.038h75.201v22.253l-27.243,27.243c-2.929,2.93-2.929,7.678,0,10.607l27.931,27.931    c1.464,1.464,3.384,2.196,5.303,2.196s3.839-0.732,5.303-2.196l27.931-27.931c0.148-0.148,0.283-0.304,0.417-0.461h23.616v31.358    c0,7.444,6.056,13.5,13.5,13.5h25.07v11.007H295.98c-1.376-1.629-3.431-2.666-5.73-2.666h-68.5c-2.299,0-4.354,1.037-5.73,2.666    H179.5v-39.727c0-4.143-3.358-7.5-7.5-7.5h-37c-4.142,0-7.5,3.357-7.5,7.5v39.727H41.833V203.031z M282.75,247.592v110.419h-53.5    V247.592H282.75z M15,273.698v-23.44h199.25v23.44H15z M164.5,235.258h-22v-32.227h22V235.258z M62.176,465.365    c-21.053,0-38.181-17.128-38.181-38.181V288.698h64.171v176.667H62.176z M145.167,465.365V357.089c0-4.143-3.358-7.5-7.5-7.5    s-7.5,3.357-7.5,7.5v123.657h-27V288.698h27v34.213c0,4.143,3.358,7.5,7.5,7.5s7.5-3.357,7.5-7.5v-34.213h69.083v76.813    c0,4.143,3.358,7.5,7.5,7.5h68.5c4.142,0,7.5-3.357,7.5-7.5v-76.813h69.083v176.667H145.167z M408.833,480.746h-27V288.698h27    V480.746z"/>
		<path id="XMLID_506_" d="M172,412.092c-4.142,0-7.5,3.357-7.5,7.5v0.938c0,4.143,3.358,7.5,7.5,7.5s7.5-3.357,7.5-7.5v-0.938    C179.5,415.449,176.142,412.092,172,412.092z"/>
		<path id="XMLID_507_" d="M214,412.092c-4.142,0-7.5,3.357-7.5,7.5v0.938c0,4.143,3.358,7.5,7.5,7.5s7.5-3.357,7.5-7.5v-0.938    C221.5,415.449,218.142,412.092,214,412.092z"/>
		<path id="XMLID_508_" d="M256,412.092c-4.142,0-7.5,3.357-7.5,7.5v0.938c0,4.143,3.358,7.5,7.5,7.5s7.5-3.357,7.5-7.5v-0.938    C263.5,415.449,260.142,412.092,256,412.092z"/>
		<path id="XMLID_509_" d="M298,412.092c-4.142,0-7.5,3.357-7.5,7.5v0.938c0,4.143,3.358,7.5,7.5,7.5s7.5-3.357,7.5-7.5v-0.938    C305.5,415.449,302.142,412.092,298,412.092z"/>
		<path id="XMLID_510_" d="M340,412.092c-4.142,0-7.5,3.357-7.5,7.5v0.938c0,4.143,3.358,7.5,7.5,7.5s7.5-3.357,7.5-7.5v-0.938    C347.5,415.449,344.142,412.092,340,412.092z"/>
		<path id="XMLID_511_" d="M248.5,338.615v5.148c0,4.143,3.358,7.5,7.5,7.5s7.5-3.357,7.5-7.5v-5.148    c6.092-2.84,10.333-9.005,10.333-16.157c0-9.833-8-17.833-17.833-17.833s-17.833,8-17.833,17.833    C238.167,329.61,242.408,335.775,248.5,338.615z M256,319.625c1.563,0,2.833,1.271,2.833,2.833s-1.271,2.833-2.833,2.833    c-1.563,0-2.833-1.271-2.833-2.833S254.437,319.625,256,319.625z"/>
		<path id="XMLID_514_" d="M266.333,215.764c14.588,0,26.457-11.868,26.457-26.456c0-14.589-11.868-26.457-26.457-26.457    s-26.457,11.868-26.457,26.457C239.876,203.896,251.745,215.764,266.333,215.764z M266.333,177.851    c6.317,0,11.457,5.14,11.457,11.457c0,6.316-5.139,11.456-11.457,11.456s-11.457-5.14-11.457-11.456    C254.876,182.99,260.016,177.851,266.333,177.851z"/>
		<path id="XMLID_517_" d="M305.75,149.226h7.75c4.142,0,7.5-3.357,7.5-7.5s-3.358-7.5-7.5-7.5h-7.75c-4.142,0-7.5,3.357-7.5,7.5    S301.608,149.226,305.75,149.226z"/>
		<path id="XMLID_518_" d="M306,166.334c0,4.143,3.358,7.5,7.5,7.5h7.75c4.142,0,7.5-3.357,7.5-7.5s-3.358-7.5-7.5-7.5h-7.75    C309.358,158.834,306,162.191,306,166.334z"/>
		<path id="XMLID_519_" d="M217.875,203.609h7.75c4.142,0,7.5-3.357,7.5-7.5s-3.358-7.5-7.5-7.5h-7.75c-4.142,0-7.5,3.357-7.5,7.5    S213.733,203.609,217.875,203.609z"/>
		<path id="XMLID_520_" d="M139.875,173.851h7.75c4.142,0,7.5-3.357,7.5-7.5s-3.358-7.5-7.5-7.5h-7.75c-4.142,0-7.5,3.357-7.5,7.5    S135.733,173.851,139.875,173.851z"/>
		<path id="XMLID_521_" d="M128.042,180.226c0-4.143-3.358-7.5-7.5-7.5h-7.75c-4.142,0-7.5,3.357-7.5,7.5s3.358,7.5,7.5,7.5h7.75    C124.684,187.726,128.042,184.368,128.042,180.226z"/>
		<path id="XMLID_522_" d="M324.75,213.226c0,4.143,3.358,7.5,7.5,7.5H340c4.142,0,7.5-3.357,7.5-7.5s-3.358-7.5-7.5-7.5h-7.75    C328.108,205.726,324.75,209.083,324.75,213.226z"/>
		<path id="XMLID_523_" d="M402.261,215.764h7.75c4.142,0,7.5-3.357,7.5-7.5s-3.358-7.5-7.5-7.5h-7.75c-4.142,0-7.5,3.357-7.5,7.5    S398.119,215.764,402.261,215.764z"/>
		<path id="XMLID_524_" d="M103.417,209.251h-7.75c-4.142,0-7.5,3.357-7.5,7.5s3.358,7.5,7.5,7.5h7.75c4.142,0,7.5-3.357,7.5-7.5    S107.559,209.251,103.417,209.251z"/>
	</g>
</g>















</svg>
