<?xml version="1.0" encoding="iso-8859-1"?>
<!-- Generator: Adobe Illustrator 19.0.0, SVG Export Plug-In . SVG Version: 6.00 Build 0)  -->
<svg xmlns="http://www.w3.org/2000/svg" xmlns:xlink="http://www.w3.org/1999/xlink" version="1.1" id="Layer_1" x="0px" y="0px" viewBox="0 0 512 512" style="enable-background:new 0 0 512 512;" xml:space="preserve" width="512" height="512">
<g id="XMLID_457_">
	<g id="XMLID_3287_">
		<g id="XMLID_1374_">
			<g id="XMLID_4340_">
				<g id="XMLID_3670_">
					<g id="XMLID_3671_">
						<polygon id="XMLID_3672_" style="fill:#48709B;" points="436.66,7.5 436.66,66.55 414.28,66.55 414.28,177.61 316.16,177.61         316.16,66.55 293.77,66.55 293.77,7.5 322.35,7.5 322.35,30.94 350.93,30.94 350.93,7.5 379.51,7.5 379.51,30.94         408.09,30.94 408.09,7.5       "/>
					</g>
				</g>
			</g>
			<path id="XMLID_3035_" style="fill:#304E75;" d="M414.28,118.65v58.96h-98.12v-22.06h29.3v-24.705     c0-6.735,5.46-12.195,12.195-12.195H414.28z"/>
			<g id="XMLID_2622_">
				<path id="XMLID_2624_" style="fill:#707487;" d="M380.459,107.825h-30.485V84.355c0-8.418,6.824-15.242,15.242-15.242h0      c8.418,0,15.242,6.824,15.242,15.242V107.825z"/>
			</g>
			<g id="XMLID_4254_">
				<rect id="XMLID_3050_" x="104.19" y="184.47" style="fill:#48709B;" width="306.48" height="320.03"/>
				<path id="XMLID_3038_" style="fill:#304E75;" d="M185.78,243.18v61.05c0,6.63-5.37,12-12,12H163.4V504.5h-59.21V231.18h12.43      c6.63,0,12,5.38,12,12v11.44h2.58v-11.44c0-6.62,5.38-12,12-12h30.58C180.41,231.18,185.78,236.56,185.78,243.18z"/>
				<path id="XMLID_3032_" style="fill:#304E75;" d="M410.67,231.18V504.5H348.6V316.23h-10.38c-6.63,0-12-5.37-12-12v-61.05      c0-6.62,5.37-12,12-12h30.58c6.62,0,12,5.38,12,12v11.44h2.58v-11.44c0-6.62,5.37-12,12-12H410.67z"/>
				<rect id="XMLID_2221_" x="104.19" y="184.47" style="fill:#304E75;" width="306.48" height="32.69"/>
				<path id="XMLID_3034_" style="fill:#304E75;" d="M329.63,394.37V504.5H177.88V394.37c0-41.84,34.04-75.88,75.88-75.88      C295.59,318.49,329.63,352.53,329.63,394.37z"/>
				<path id="XMLID_3890_" style="fill:#FFA511;" d="M316.631,504.5H190.883V394.369c0-34.725,28.15-62.874,62.874-62.874h0      c34.725,0,62.874,28.15,62.874,62.874V504.5z"/>
				<g id="XMLID_2523_">
					<polygon id="XMLID_3252_" style="fill:#629ACC;" points="144.203,267.622 115.624,267.622 115.624,244.185 87.044,244.185        87.044,267.622 58.465,267.622 58.465,244.185 29.886,244.185 29.886,303.233 52.273,303.233 52.273,504.5 150.395,504.5        150.395,303.233 172.782,303.233 172.782,244.185 144.203,244.185      "/>
					<polygon id="XMLID_3346_" style="fill:#629ACC;" points="482.114,244.185 453.535,244.185 453.535,267.622 424.956,267.622        424.956,244.185 396.376,244.185 396.376,267.622 367.797,267.622 367.797,244.185 339.218,244.185 339.218,303.233        361.605,303.233 361.605,504.5 459.727,504.5 459.727,303.233 482.114,303.233      "/>
				</g>
				<g id="XMLID_3800_">
					<path id="XMLID_3659_" style="fill:#707487;" d="M425.908,365.443h-30.485v-23.469c0-8.418,6.824-15.242,15.242-15.242h0       c8.418,0,15.242,6.824,15.242,15.242V365.443z"/>
				</g>
				<g id="XMLID_3818_">
					<path id="XMLID_3820_" style="fill:#707487;" d="M116.576,365.443H86.092v-23.469c0-8.418,6.824-15.242,15.242-15.242h0       c8.418,0,15.242,6.824,15.242,15.242V365.443z"/>
				</g>
				<polygon id="XMLID_4223_" style="fill:#48709B;" points="425.908,204.158 425.908,131.652 358.461,131.652 358.461,168.547       291.014,168.547 291.014,131.652 223.567,131.652 223.567,168.547 156.12,168.547 156.12,131.652 88.672,131.652       88.672,204.158     "/>
				<rect id="XMLID_2940_" x="358.46" y="131.65" style="fill:#629ACC;" width="67.45" height="13"/>
				<rect id="XMLID_2889_" x="223.57" y="131.65" style="fill:#629ACC;" width="67.44" height="13"/>
				<rect id="XMLID_2898_" x="88.67" y="131.65" style="fill:#629ACC;" width="67.45" height="13"/>
			</g>
			<g id="XMLID_2620_">
				<polygon id="XMLID_461_" style="fill:#E94141;" points="122.312,105.208 122.312,59.482 59.464,82.345     "/>
			</g>
			<g id="XMLID_2565_">
				<polygon id="XMLID_2568_" style="fill:#E94141;" points="257.416,105.208 257.416,59.482 194.568,82.345     "/>
			</g>
		</g>
	</g>
	<g id="XMLID_458_">
		<path id="XMLID_459_" d="M365.216,61.613c-12.54,0-22.742,10.202-22.742,22.742v23.47c0,4.143,3.357,7.5,7.5,7.5h30.485    c4.143,0,7.5-3.357,7.5-7.5v-23.47C387.959,71.815,377.757,61.613,365.216,61.613z M372.959,100.325h-15.485v-15.97    c0-4.27,3.473-7.742,7.742-7.742s7.743,3.473,7.743,7.742V100.325z"/>
		<path id="XMLID_463_" d="M482.114,236.685h-28.579c-4.143,0-7.5,3.357-7.5,7.5v15.938h-13.579v-15.938c0-4.143-3.357-7.5-7.5-7.5    h-6.79v-25.026h7.742c4.143,0,7.5-3.357,7.5-7.5v-72.507c0-4.143-3.357-7.5-7.5-7.5h-4.131V74.048h14.888    c4.143,0,7.5-3.357,7.5-7.5V7.5c0-4.143-3.357-7.5-7.5-7.5h-28.58c-4.143,0-7.5,3.357-7.5,7.5v15.938h-13.579V7.5    c0-4.143-3.357-7.5-7.5-7.5h-28.579c-4.143,0-7.5,3.357-7.5,7.5v15.938h-13.579V7.5c0-4.143-3.357-7.5-7.5-7.5h-28.58    c-4.143,0-7.5,3.357-7.5,7.5v59.048c0,4.143,3.357,7.5,7.5,7.5h14.888v86.999h-10.142v-29.396c0-4.143-3.357-7.5-7.5-7.5h-26.098    V49.955c0-4.143-3.357-7.5-7.5-7.5c-4.142,0-7.5,3.357-7.5,7.5v4.274l-57.913,21.068c-2.963,1.078-4.936,3.895-4.936,7.048    s1.973,5.97,4.936,7.048l57.913,21.068v13.691h-26.349c-4.142,0-7.5,3.357-7.5,7.5v29.396H163.62v-29.396    c0-4.143-3.358-7.5-7.5-7.5h-26.308V49.955c0-4.143-3.358-7.5-7.5-7.5s-7.5,3.357-7.5,7.5v4.274L56.9,75.297    c-2.963,1.078-4.936,3.895-4.936,7.048s1.973,5.97,4.936,7.048l57.912,21.068v13.691h-26.14c-4.142,0-7.5,3.357-7.5,7.5v72.507    c0,4.143,3.358,7.5,7.5,7.5h8.02v25.026h-9.647c-4.142,0-7.5,3.357-7.5,7.5v15.938h-13.58v-15.938c0-4.143-3.358-7.5-7.5-7.5    H29.886c-4.142,0-7.5,3.357-7.5,7.5v59.048c0,4.143,3.358,7.5,7.5,7.5h14.887v110.179c0,4.143,3.358,7.5,7.5,7.5    s7.5-3.357,7.5-7.5V303.232c0-4.143-3.358-7.5-7.5-7.5H37.386v-44.048h13.579v15.938c0,4.143,3.358,7.5,7.5,7.5h28.58    c4.142,0,7.5-3.357,7.5-7.5v-15.938h13.579v15.938c0,4.143,3.358,7.5,7.5,7.5h28.58c4.142,0,7.5-3.357,7.5-7.5v-15.938h13.579    v44.048h-14.887c-4.142,0-7.5,3.357-7.5,7.5v78.679c0,4.143,3.358,7.5,7.5,7.5s7.5-3.357,7.5-7.5v-71.179h14.887    c4.142,0,7.5-3.357,7.5-7.5v-59.048c0-4.143-3.358-7.5-7.5-7.5h-28.579c-4.142,0-7.5,3.357-7.5,7.5v15.938h-13.58v-15.938    c0-4.143-3.358-7.5-7.5-7.5h-3.932v-25.026h131.219c4.142,0,7.5-3.357,7.5-7.5s-3.358-7.5-7.5-7.5H96.172v-57.507h52.447v29.396    c0,4.143,3.358,7.5,7.5,7.5h67.447c4.142,0,7.5-3.357,7.5-7.5v-29.396h52.447v29.396c0,4.143,3.357,7.5,7.5,7.5h67.447    c4.143,0,7.5-3.357,7.5-7.5v-29.396h52.447v57.507H277.089c-4.143,0-7.5,3.357-7.5,7.5s3.357,7.5,7.5,7.5h126.077v25.026h-6.79    c-4.143,0-7.5,3.357-7.5,7.5v15.938h-13.579v-15.938c0-4.143-3.357-7.5-7.5-7.5h-28.579c-4.143,0-7.5,3.357-7.5,7.5v59.048    c0,4.143,3.357,7.5,7.5,7.5h14.887V497h-29.973V394.369c0-38.805-31.57-70.375-70.375-70.375c-7.627,0-14.967,1.236-21.85,3.49    c-0.402,0.102-0.793,0.231-1.166,0.396c-27.532,9.559-47.358,35.745-47.358,66.49V497h-25.487v-80.911c0-4.143-3.358-7.5-7.5-7.5    s-7.5,3.357-7.5,7.5V497h-38.703H59.773v-41.911c0-4.143-3.358-7.5-7.5-7.5s-7.5,3.357-7.5,7.5V504.5c0,4.143,3.358,7.5,7.5,7.5    h407.455c4.143,0,7.5-3.357,7.5-7.5V310.732h14.887c4.143,0,7.5-3.357,7.5-7.5v-59.048    C489.614,240.042,486.257,236.685,482.114,236.685z M216.506,82.345l33.41-12.154v24.309L216.506,82.345z M81.402,82.345    l33.41-12.154v24.309L81.402,82.345z M358.461,124.151c-4.143,0-7.5,3.357-7.5,7.5v29.396h-27.306V66.548    c0-4.143-3.357-7.5-7.5-7.5h-14.888V15h13.58v15.938c0,4.143,3.357,7.5,7.5,7.5h28.579c4.143,0,7.5-3.357,7.5-7.5V15h13.579    v15.938c0,4.143,3.357,7.5,7.5,7.5h28.579c4.143,0,7.5-3.357,7.5-7.5V15h13.58v44.048h-14.888c-4.143,0-7.5,3.357-7.5,7.5v57.604    H358.461z M198.382,394.369c0-20.526,11.235-38.466,27.869-48.03v109.952c0,4.143,3.358,7.5,7.5,7.5s7.5-3.357,7.5-7.5V340.436    c4.022-0.932,8.204-1.442,12.505-1.442c30.534,0,55.375,24.841,55.375,55.375V497h-34.538v-51.188c0-4.143-3.357-7.5-7.5-7.5    s-7.5,3.357-7.5,7.5V497h-36.442v-17.815c0-4.143-3.358-7.5-7.5-7.5s-7.5,3.357-7.5,7.5V497h-9.769V394.369z M474.614,295.732    h-14.887c-4.143,0-7.5,3.357-7.5,7.5V497h-41.562h-41.562V303.232c0-4.143-3.357-7.5-7.5-7.5h-14.887v-44.048h13.579v15.938    c0,4.143,3.357,7.5,7.5,7.5h28.579c4.143,0,7.5-3.357,7.5-7.5v-15.938h13.58v15.938c0,4.143,3.357,7.5,7.5,7.5h28.579    c4.143,0,7.5-3.357,7.5-7.5v-15.938h13.579V295.732z"/>
		<path id="XMLID_470_" d="M410.666,319.231c-12.54,0-22.742,10.202-22.742,22.742v23.47c0,4.143,3.357,7.5,7.5,7.5h30.484    c4.143,0,7.5-3.357,7.5-7.5v-23.47C433.408,329.434,423.206,319.231,410.666,319.231z M418.408,357.943h-15.484v-15.97    c0-4.27,3.473-7.742,7.742-7.742s7.742,3.473,7.742,7.742V357.943z"/>
		<path id="XMLID_473_" d="M101.334,319.231c-12.54,0-22.742,10.202-22.742,22.742v23.47c0,4.143,3.358,7.5,7.5,7.5h30.484    c4.142,0,7.5-3.357,7.5-7.5v-23.47C124.076,329.434,113.874,319.231,101.334,319.231z M109.076,357.943H93.592v-15.97    c0-4.27,3.473-7.742,7.742-7.742s7.742,3.473,7.742,7.742V357.943z"/>
		<path id="XMLID_476_" d="M267.094,420.922c4.143,0,7.5-3.357,7.5-7.5v-17.903c0-4.143-3.357-7.5-7.5-7.5s-7.5,3.357-7.5,7.5    v17.903C259.594,417.564,262.951,420.922,267.094,420.922z"/>
		<path id="XMLID_477_" d="M293.768,448.549c4.143,0,7.5-3.357,7.5-7.5v-64.298c0-4.143-3.357-7.5-7.5-7.5s-7.5,3.357-7.5,7.5    v64.298C286.268,445.191,289.625,448.549,293.768,448.549z"/>
		<path id="XMLID_478_" d="M400.045,396.97h-9.243c-4.143,0-7.5,3.357-7.5,7.5s3.357,7.5,7.5,7.5h9.243c4.143,0,7.5-3.357,7.5-7.5    S404.188,396.97,400.045,396.97z"/>
		<path id="XMLID_480_" d="M422.712,419.5h-9.243c-4.143,0-7.5,3.357-7.5,7.5s3.357,7.5,7.5,7.5h9.243c4.143,0,7.5-3.357,7.5-7.5    S426.854,419.5,422.712,419.5z"/>
		<path id="XMLID_481_" d="M279.969,277.333c0,4.143,3.357,7.5,7.5,7.5h9.243c4.143,0,7.5-3.357,7.5-7.5s-3.357-7.5-7.5-7.5h-9.243    C283.326,269.833,279.969,273.19,279.969,277.333z"/>
		<path id="XMLID_482_" d="M282.712,244.167h-9.243c-4.143,0-7.5,3.357-7.5,7.5s3.357,7.5,7.5,7.5h9.243c4.143,0,7.5-3.357,7.5-7.5    S286.854,244.167,282.712,244.167z"/>
		<path id="XMLID_483_" d="M110.135,416.5c-4.142,0-7.5,3.357-7.5,7.5s3.358,7.5,7.5,7.5h9.243c4.142,0,7.5-3.357,7.5-7.5    s-3.358-7.5-7.5-7.5H110.135z"/>
		<path id="XMLID_484_" d="M84.051,478.297h9.243c4.142,0,7.5-3.357,7.5-7.5s-3.358-7.5-7.5-7.5h-9.243c-4.142,0-7.5,3.357-7.5,7.5    S79.909,478.297,84.051,478.297z"/>
		<path id="XMLID_486_" d="M251.627,299.833c4.142,0,7.5-3.357,7.5-7.5s-3.357-7.5-7.5-7.5h-9.243c-4.142,0-7.5,3.357-7.5,7.5    s3.358,7.5,7.5,7.5H251.627z"/>
		<path id="XMLID_487_" d="M224.895,242.833c4.142,0,7.5-3.357,7.5-7.5s-3.358-7.5-7.5-7.5h-9.243c-4.142,0-7.5,3.357-7.5,7.5    s3.358,7.5,7.5,7.5H224.895z"/>
		<path id="XMLID_488_" d="M396.807,185.109c4.143,0,7.5-3.357,7.5-7.5s-3.357-7.5-7.5-7.5h-9.243c-4.143,0-7.5,3.357-7.5,7.5    s3.357,7.5,7.5,7.5H396.807z"/>
		<path id="XMLID_489_" d="M118.526,156.833c-4.142,0-7.5,3.357-7.5,7.5s3.358,7.5,7.5,7.5h9.243c4.142,0,7.5-3.357,7.5-7.5    s-3.358-7.5-7.5-7.5H118.526z"/>
	</g>
</g>















</svg>
