<svg id="Layer_1" enable-background="new 0 0 512 512" height="512" viewBox="0 0 512 512" width="512" xmlns="http://www.w3.org/2000/svg"><g><path d="m504.5 275v104c0 33-27 60-60 60h-132.781c-9.954 0-19.387-4.448-25.719-12.128-6.332-7.68-15.765-12.128-25.719-12.128h-8.562c-9.954 0-19.387 4.448-25.719 12.128-6.332 7.68-15.765 12.128-25.719 12.128h-132.781c-33 0-60-27-60-60v-104z" fill="#fff7e6"/><g fill="#ebe3d4"><path d="m230.281 414.744h-8.562c-9.954 0-19.387 4.448-25.719 12.128s-15.765 12.128-25.719 12.128h30c9.954 0 19.387-4.448 25.719-12.128 3.986-4.834 9.201-8.385 15-10.354-3.414-1.161-7.031-1.774-10.719-1.774z"/><path d="m474.5 275v104c0 33-27 60-60 60h30c33 0 60-27 60-60v-104z"/></g><path d="m261 366h-10c-8.284 0-15-6.716-15-15 0-8.284 6.716-15 15-15h10c8.284 0 15 6.716 15 15 0 8.284-6.716 15-15 15z" fill="#ffd740"/><path d="m67.5 409c-16.569 0-30-13.431-30-30 0 0 .003-54.594.008-69.984.001-2.208 1.786-3.995 3.995-3.995 19.842-.003 137.67-.017 157.524-.021 2.21 0 3.997 1.791 3.997 4.001l-.024 69.999c0 16.542-13.458 30-30 30z" fill="#81d4fa"/><path d="m339 409c-16.569 0-30-13.431-30-30 0 0 .003-54.594.008-69.984.001-2.208 1.786-3.995 3.995-3.995 19.842-.003 137.67-.017 157.524-.021 2.21 0 3.997 1.791 3.996 4.001l-.023 69.999c0 16.542-13.458 30-30 30z" fill="#ff5722"/><path d="m7.5 83v192h30v-170c0-1.105.895-2 2-2h28c2.209 0 4-1.791 4-4v-22c0-2.209-1.791-4-4-4h-50c-5.523 0-10 4.477-10 10z" fill="#d9d2c4"/><path d="m504.5 83v192h-30v-170c0-1.105-.895-2-2-2h-28c-2.209 0-4-1.791-4-4v-22c0-2.209 1.791-4 4-4h50c5.523 0 10 4.477 10 10z" fill="#d9d2c4"/><g><path d="m210.5 379.002.022-69.997c.001-3.071-1.192-5.959-3.361-8.131-2.171-2.176-5.06-3.373-8.131-3.373h-.005l-157.522.021c-6.339 0-11.495 5.156-11.495 11.493-.005 15.388-.008 69.985-.008 69.985 0 20.678 16.822 37.5 37.5 37.5h105.5c20.678 0 37.5-16.822 37.5-37.498zm-165.5-.002s.003-47.671.007-66.479l150.515-.021-.022 66.5c0 12.406-10.094 22.5-22.5 22.5h-105.5c-12.406 0-22.5-10.094-22.5-22.5z"/><path d="m339 416.5h105.5c20.678 0 37.5-16.822 37.5-37.498l.022-69.997c.001-3.071-1.192-5.959-3.361-8.131-2.171-2.176-5.06-3.373-8.131-3.373h-.005l-157.522.021c-6.339 0-11.495 5.156-11.495 11.493-.005 15.388-.008 69.985-.008 69.985 0 20.678 16.822 37.5 37.5 37.5zm-22.493-103.979 150.515-.021-.022 66.5c0 12.406-10.094 22.5-22.5 22.5h-105.5c-12.406 0-22.5-10.094-22.5-22.5 0 0 .003-47.671.007-66.479z"/><path d="m494.5 65.5h-50c-6.341 0-11.5 5.159-11.5 11.5v22c0 6.341 5.159 11.5 11.5 11.5h22.5v105.064c0 4.143 3.357 7.5 7.5 7.5s7.5-3.357 7.5-7.5v-110.564c0-5.238-4.262-9.5-9.5-9.5h-24.5v-15h46.5c1.379 0 2.5 1.121 2.5 2.5v184.5h-15v-19.73c0-4.143-3.357-7.5-7.5-7.5s-7.5 3.357-7.5 7.5v19.73h-422v-157h22.5c6.341 0 11.5-5.159 11.5-11.5v-22c0-6.341-5.159-11.5-11.5-11.5h-50c-9.649 0-17.5 7.851-17.5 17.5v36.564c0 4.143 3.357 7.5 7.5 7.5s7.5-3.357 7.5-7.5v-36.564c0-1.379 1.121-2.5 2.5-2.5h46.5v15h-24.5c-5.238 0-9.5 4.262-9.5 9.5v162.5h-15v-115.525c0-4.143-3.357-7.5-7.5-7.5s-7.5 3.357-7.5 7.5v227.025c0 37.22 30.28 67.5 67.5 67.5h60.68c4.143 0 7.5-3.357 7.5-7.5s-3.357-7.5-7.5-7.5h-60.68c-28.948 0-52.5-23.552-52.5-52.5v-96.5h482v96.5c0 28.948-23.552 52.5-52.5 52.5h-132.781c-7.742 0-15.007-3.426-19.932-9.398-7.785-9.442-19.268-14.858-31.506-14.858h-8.563c-12.238 0-23.721 5.416-31.506 14.857-4.925 5.974-12.189 9.399-19.932 9.399h-40.307c-4.143 0-7.5 3.357-7.5 7.5s3.357 7.5 7.5 7.5h40.307c12.237 0 23.721-5.415 31.506-14.857 4.925-5.974 12.189-9.399 19.932-9.399h8.563c7.742 0 15.007 3.426 19.932 9.4 7.785 9.441 19.269 14.856 31.506 14.856h132.781c37.22 0 67.5-30.28 67.5-67.5v-296c0-9.649-7.851-17.5-17.5-17.5z"/><path d="m261 373.5c12.406 0 22.5-10.094 22.5-22.5s-10.094-22.5-22.5-22.5h-10c-12.406 0-22.5 10.094-22.5 22.5s10.094 22.5 22.5 22.5zm-17.5-22.5c0-4.136 3.364-7.5 7.5-7.5h10c4.136 0 7.5 3.364 7.5 7.5s-3.364 7.5-7.5 7.5h-10c-4.136 0-7.5-3.364-7.5-7.5z"/></g></g></svg>