<?xml version="1.0" encoding="iso-8859-1"?>
<!-- Generator: Adobe Illustrator 19.0.0, SVG Export Plug-In . SVG Version: 6.00 Build 0)  -->
<svg xmlns="http://www.w3.org/2000/svg" xmlns:xlink="http://www.w3.org/1999/xlink" version="1.1" id="Layer_1" x="0px" y="0px" viewBox="0 0 511.949 511.949" style="enable-background:new 0 0 511.949 511.949;" xml:space="preserve" width="512" height="512">
<g id="XMLID_399_">
	<g id="XMLID_400_">
		<g id="XMLID_621_">
			<polygon id="XMLID_1325_" style="fill:#0086F4;" points="418.655,461.553 349.265,455.553 265.165,371.453 73.065,179.353      136.455,115.963 246.785,226.293 328.555,308.063 412.655,392.163    "/>
			
				<rect id="XMLID_1317_" x="211.151" y="241.053" transform="matrix(0.7071 -0.7071 0.7071 0.7071 -136.3617 268.5388)" style="fill:#0064DB;" width="89.647" height="115.64"/>
			<path id="XMLID_663_" style="fill:#0064DB;" d="M98.008,204.293l3.289-5.977l2.188,2.188c4.74,4.74,12.419,4.74,17.159,0     l36.963-36.963c4.74-4.74,4.74-12.419,0-17.159l-2.188-2.188l5.977-3.289l-24.945-24.945l-63.388,63.388L98.008,204.293z"/>
			
				<rect id="XMLID_774_" x="44.096" y="105.571" transform="matrix(-0.7071 -0.7071 0.7071 -0.7071 49.2979 265.4745)" style="fill:#FFA511;" width="71.07" height="33.912"/>
			<path id="XMLID_764_" style="fill:#EB6B24;" d="M90.83,117.884c-3.761,2.073-5.891,5.763-6.213,9.63     c-3.868,0.322-7.557,2.452-9.63,6.213l-2.888,5.248l20.669,20.669l23.98-23.98l-20.669-20.669L90.83,117.884z"/>
			<path id="XMLID_672_" style="fill:#EB6B24;" d="M66.493,85.411l18.067,18.067c-2.281,5.155-5.534,9.995-9.759,14.22     c-4.225,4.225-9.066,7.479-14.22,9.759L42.514,109.39L66.493,85.411z"/>
			<circle id="XMLID_403_" style="fill:#FFDC13;" cx="41.47" cy="84.367" r="33.989"/>
			<path id="XMLID_781_" style="fill:#FFA511;" d="M68.123,63.261c10.588,13.348,9.723,32.802-2.617,45.142     s-31.794,13.205-45.142,2.617c11.475,0.937,24.258-3.739,34.139-13.62S69.06,74.736,68.123,63.261z"/>
			<path id="XMLID_770_" style="fill:#FFED97;" d="M55.361,53.331c-9.459,2.838-19.254,8.672-27.755,17.173     S13.272,88.799,10.434,98.258C4.843,85.761,7.174,70.59,17.433,60.33S42.864,47.74,55.361,53.331z"/>
			
				<rect id="XMLID_784_" x="92.315" y="132.062" transform="matrix(-0.7071 -0.7071 0.7071 -0.7071 83.9587 349.1532)" style="fill:#AFB9D2;" width="43.952" height="50.251"/>
			<polygon id="XMLID_404_" style="fill:#959CB3;" points="107.903,186.333 120.522,163.419 143.436,150.8 116.518,123.882      80.985,159.415    "/>
			<g id="XMLID_2071_">
				<g id="XMLID_2066_">
					<polygon id="XMLID_2068_" style="fill:#FFDC13;" points="98.355,128.746 174.81,86.633 195.366,107.188 118.911,149.302             "/>
				</g>
				<polyline id="XMLID_2063_" style="fill:#FFDC13;" points="43.736,217.707 64.292,238.263 106.405,161.808 85.849,141.252       43.736,217.707     "/>
			</g>
		</g>
		<g id="XMLID_838_">
			<polygon id="XMLID_1268_" style="fill:#0086F4;" points="375.498,115.96 99.297,392.161 93.292,461.554 162.685,455.549      438.886,179.348    "/>
			<polygon id="XMLID_1097_" style="fill:#01D2FF;" points="387.855,128.323 116.035,400.143 110.845,460.033 93.295,461.553      99.295,392.163 375.495,115.963    "/>
			<path id="XMLID_894_" style="fill:#0064DB;" d="M434.496,183.738l4.39-4.39l-63.388-63.388l-24.945,24.945l5.977,3.289     l-2.188,2.188c-4.74,4.74-4.74,12.419,0,17.159l36.963,36.963c4.74,4.74,12.419,4.74,17.159,0l2.188-2.188l3.289,5.977     L434.496,183.738z"/>
			
				<rect id="XMLID_1181_" x="396.784" y="105.571" transform="matrix(0.7071 -0.7071 0.7071 0.7071 39.9833 341.5829)" style="fill:#FFA511;" width="71.07" height="33.912"/>
			<path id="XMLID_1172_" style="fill:#EB6B24;" d="M415.871,114.995l-20.669,20.669l23.98,23.98l20.669-20.669l-2.888-5.248     c-2.073-3.761-5.763-5.891-9.63-6.213c-0.322-3.868-2.452-7.557-6.213-9.63L415.871,114.995z"/>
			<path id="XMLID_1146_" style="fill:#EB6B24;" d="M445.456,85.411l-18.067,18.067c2.281,5.155,5.534,9.995,9.759,14.22     c4.225,4.225,9.066,7.479,14.22,9.759l18.067-18.067L445.456,85.411z"/>
			<circle id="XMLID_1119_" style="fill:#FFDC13;" cx="470.479" cy="84.367" r="33.989"/>
			<path id="XMLID_1083_" style="fill:#FFA511;" d="M443.826,63.261c-10.588,13.348-9.723,32.802,2.617,45.142     s31.794,13.205,45.142,2.617c-11.475,0.937-24.258-3.739-34.139-13.62C447.565,87.52,442.889,74.736,443.826,63.261z"/>
			<path id="XMLID_904_" style="fill:#FFED97;" d="M456.588,53.331c9.459,2.838,19.254,8.672,27.754,17.173     c8.501,8.501,14.335,18.296,17.173,27.755c5.591-12.497,3.26-27.669-6.999-37.928S469.085,47.74,456.588,53.331z"/>
			
				<rect id="XMLID_895_" x="375.682" y="132.062" transform="matrix(0.7071 -0.7071 0.7071 0.7071 5.3225 327.226)" style="fill:#AFB9D2;" width="43.952" height="50.251"/>
			<polygon id="XMLID_2156_" style="fill:#959CB3;" points="430.964,159.415 395.431,123.882 368.513,150.8 391.427,163.419      404.046,186.333    "/>
			<g id="XMLID_844_">
				<g id="XMLID_867_">
					<polygon id="XMLID_873_" style="fill:#FFDC13;" points="413.594,128.746 337.139,86.633 316.583,107.188 393.038,149.302             "/>
				</g>
				<polyline id="XMLID_851_" style="fill:#FFDC13;" points="468.214,217.707 447.658,238.263 405.544,161.808 426.1,141.252       468.214,217.707     "/>
			</g>
		</g>
	</g>
	<g id="XMLID_402_">
		<path id="XMLID_405_" d="M420.129,391.517c-0.151-1.76-0.92-3.409-2.168-4.658l-87.987-87.987l23.871-23.871    c2.929-2.93,2.929-7.678,0-10.607c-2.931-2.929-7.679-2.928-10.607,0L159.314,448.318l-57.779,4.992l4.993-57.778l34.925-34.924    c2.929-2.93,2.929-7.678,0-10.607c-2.93-2.928-7.678-2.928-10.607,0l-36.857,36.857c-1.248,1.249-2.017,2.898-2.168,4.658    l-5.997,69.389c-0.395,4.549,3.566,8.529,8.117,8.117l69.39-5.996c1.76-0.151,3.409-0.92,4.658-2.168l87.987-87.988l23.961,23.962    c1.465,1.465,3.384,2.197,5.304,2.197c1.919,0,3.839-0.732,5.303-2.196c2.93-2.929,2.93-7.678,0.001-10.606l-23.962-23.963    l21.089-21.089l75.541,75.541c1.465,1.464,3.385,2.196,5.304,2.196s3.839-0.732,5.304-2.196c2.929-2.93,2.929-7.678,0-10.607    l-75.542-75.541l21.089-21.089l86.054,86.053l4.993,57.778l-57.778-4.992l-37.924-37.925c-2.93-2.928-7.678-2.928-10.607,0    c-2.929,2.93-2.929,7.678,0,10.607l39.857,39.857c1.249,1.248,2.898,2.017,4.658,2.168l69.389,5.996    c4.552,0.412,8.512-3.565,8.117-8.117L420.129,391.517z"/>
		<path id="XMLID_406_" d="M470.479,125.836c10.625,0,21.249-4.044,29.338-12.132c16.176-16.177,16.176-42.498,0-58.675    c-16.178-16.176-42.498-16.176-58.676,0c-9.714,9.715-13.587,23.087-11.633,35.725l-24.628,24.629l-64.123-35.32    c-2.924-1.61-6.562-1.094-8.922,1.266l-20.556,20.556c-1.667,1.668-2.453,4.022-2.122,6.357s1.741,4.378,3.808,5.516    l34.899,19.224l-91.89,91.891l-91.89-91.89l34.9-19.224c2.066-1.138,3.477-3.181,3.808-5.516s-0.455-4.689-2.122-6.357    l-20.556-20.556c-2.362-2.36-6.002-2.877-8.922-1.266l-64.123,35.32L82.441,90.754c1.953-12.638-1.919-26.01-11.633-35.725    c-16.178-16.176-42.498-16.176-58.676,0c-16.176,16.177-16.176,42.498,0,58.675c8.089,8.088,18.713,12.132,29.338,12.132    c2.136,0,4.272-0.172,6.387-0.499l24.63,24.629l-35.32,64.123c-1.61,2.924-1.095,6.561,1.267,8.922l20.557,20.556    c3.47,3.47,9.504,2.613,11.872-1.686l19.223-34.9l91.891,91.891l-26.962,26.962c-2.929,2.93-2.929,7.678,0,10.607    c1.465,1.464,3.385,2.196,5.304,2.196s3.839-0.732,5.304-2.196l195.924-195.925l4.283,2.359l-6.778,6.778    c-1.407,1.406-2.197,3.314-2.197,5.304s0.79,3.896,2.196,5.304l12.465,12.465L138.13,406.109c-2.929,2.93-2.929,7.678,0,10.607    c1.465,1.464,3.385,2.196,5.304,2.196c1.92,0,3.839-0.732,5.304-2.196L382.12,183.333l12.465,12.465    c1.465,1.464,3.384,2.196,5.304,2.196c1.919,0,3.839-0.732,5.303-2.196l6.78-6.779l2.359,4.282l-46.924,46.925    c-2.929,2.93-2.929,7.678,0,10.607c1.465,1.464,3.385,2.196,5.304,2.196s3.839-0.732,5.304-2.196l43.852-43.853l19.223,34.9    c2.367,4.297,8.4,5.158,11.872,1.686l20.557-20.556c2.361-2.361,2.877-5.998,1.267-8.922l-35.32-64.122l24.628-24.629    C466.208,125.664,468.343,125.836,470.479,125.836z M245.367,235.479l-21.089,21.089l-83.842-83.843l12.465-12.465    c2.929-2.93,2.929-7.678,0-10.607l-6.778-6.778l4.281-2.358L245.367,235.479z M173.492,95.921l9.514,9.514l-62.776,34.579    l-9.514-9.514L173.492,95.921z M22.739,103.097c-10.328-10.327-10.328-27.133,0-37.46c5.164-5.164,11.947-7.747,18.73-7.747    s13.566,2.583,18.73,7.747c10.328,10.327,10.328,27.133,0,37.46C49.872,113.425,33.067,113.425,22.739,103.097z M70.808,113.704    c2.3-2.3,4.261-4.811,5.907-7.463l16.793,16.794c-1.387,1.177-2.32,2.823-2.58,4.657c-0.331,2.335,0.455,4.689,2.123,6.357    l20.557,20.556c1.442,1.442,3.362,2.196,5.305,2.196c1.235,0,2.48-0.305,3.616-0.931l9.914-5.461l4.548,4.547l-12.456,12.456    c-0.003,0.003-0.007,0.006-0.01,0.009s-0.006,0.007-0.009,0.01l-12.456,12.456l-4.548-4.548l5.461-9.914    c1.61-2.924,1.095-6.561-1.266-8.922l-20.556-20.556c-1.668-1.666-4.019-2.452-6.357-2.122c-1.834,0.26-3.48,1.193-4.656,2.579    l-16.794-16.794C65.996,117.966,68.507,116.004,70.808,113.704z M62.538,225.902l-9.514-9.514l34.578-62.776l9.514,9.514    L62.538,225.902z M97.62,193.301l2.359-4.282l6.779,6.779c1.465,1.464,3.385,2.196,5.304,2.196s3.839-0.732,5.304-2.196    l12.465-12.465l83.842,83.843l-21.088,21.089L97.62,193.301z M451.749,65.637c5.164-5.164,11.947-7.747,18.73-7.747    s13.566,2.583,18.73,7.747c10.328,10.327,10.328,27.133,0,37.46c-10.328,10.328-27.133,10.328-37.461,0    C441.421,92.769,441.421,75.964,451.749,65.637z M338.457,95.921l62.776,34.579l-9.514,9.514l-62.776-34.579L338.457,95.921z     M399.889,179.888l-12.456-12.456c-0.003-0.003-0.006-0.007-0.009-0.01s-0.007-0.006-0.01-0.009l-12.456-12.456l4.548-4.547    l9.914,5.461c1.137,0.626,2.381,0.931,3.616,0.931c1.942,0,3.862-0.754,5.305-2.196l8.601-8.6l1.899,1.899l-8.599,8.599    c-2.36,2.361-2.876,5.998-1.266,8.922l5.461,9.915L399.889,179.888z M449.411,225.902l-34.578-62.776l9.514-9.514l34.578,62.776    L449.411,225.902z M431.811,136.405c-1.176-1.387-2.823-2.319-4.657-2.579c-2.336-0.329-4.689,0.456-6.357,2.122l-1.35,1.35    l-1.899-1.899l1.349-1.349c1.668-1.668,2.454-4.022,2.123-6.357c-0.26-1.834-1.193-3.48-2.58-4.657l16.793-16.794    c1.646,2.652,3.607,5.162,5.907,7.463c2.3,2.3,4.811,4.261,7.463,5.907L431.811,136.405z"/>
	</g>
</g>















</svg>
