<?xml version="1.0" encoding="iso-8859-1"?>
<!-- Generator: Adobe Illustrator 19.0.0, SVG Export Plug-In . SVG Version: 6.00 Build 0)  -->
<svg xmlns="http://www.w3.org/2000/svg" xmlns:xlink="http://www.w3.org/1999/xlink" version="1.1" id="Layer_1" x="0px" y="0px" viewBox="0 0 512 512" style="enable-background:new 0 0 512 512;" xml:space="preserve" width="512" height="512">
<g id="XMLID_2309_">
	<g id="XMLID_4527_">
		<polygon id="XMLID_4744_" style="fill:#C7CFE2;" points="491.21,7.5 491.21,417.87 457.76,417.87 457.76,504.5 54.24,504.5     54.24,417.87 20.79,417.87 20.79,7.5   "/>
		<path id="XMLID_4715_" style="fill:#AFB9D2;" d="M451.39,7.5v315.812c0,7.311-5.927,13.238-13.238,13.238H245.978    c-7.311,0-13.238-5.927-13.238-13.238V7.5H451.39z"/>
		<rect id="XMLID_4601_" x="20.79" y="7.5" style="fill:#E4EAF6;" width="470.42" height="13.5"/>
		<rect id="XMLID_4740_" x="83.41" y="7.5" style="fill:#AFB9D2;" width="121.76" height="497"/>
		<rect id="XMLID_3665_" x="96.413" y="8.466" style="fill:#48709B;" width="95.752" height="496.034"/>
		<rect id="XMLID_3636_" x="96.413" y="381.236" style="fill:#959CB3;" width="95.752" height="123.264"/>
		<rect id="XMLID_4627_" x="96.413" y="381.236" style="fill:#707487;" width="95.752" height="13.764"/>
		<rect id="XMLID_3950_" x="245.741" y="7.5" style="fill:#6CFFFF;" width="192.645" height="316.053"/>
		<rect id="XMLID_4569_" x="245.741" y="7.5" style="fill:#00F0F5;" width="192.645" height="13.5"/>
		<rect id="XMLID_4071_" x="245.741" y="159.723" style="fill:#0086F4;" width="192.645" height="163.829"/>
		<rect id="XMLID_3968_" x="245.741" y="206.984" style="fill:#9391F9;" width="192.645" height="116.569"/>
		<rect id="XMLID_4106_" x="297.797" y="59.556" style="fill:#48709B;" width="88.533" height="32.677"/>
		<rect id="XMLID_2311_" x="377.97" y="257.9" style="fill:#E4EAF6;" width="30.398" height="34.007"/>
	</g>
	<g id="XMLID_2310_">
		<path id="XMLID_2312_" d="M491.212,0h-89.123c-4.143,0-7.5,3.358-7.5,7.5s3.357,7.5,7.5,7.5h28.796v137.224H253.241V15h114.67    c4.143,0,7.5-3.358,7.5-7.5s-3.357-7.5-7.5-7.5H20.788c-4.143,0-7.5,3.358-7.5,7.5v107.411c0,4.142,3.357,7.5,7.5,7.5    s7.5-3.358,7.5-7.5V15h60.625v439.823H61.736v-36.956c0-4.142-3.357-7.5-7.5-7.5H28.288V149.089c0-4.142-3.357-7.5-7.5-7.5    s-7.5,3.358-7.5,7.5v268.778c0,4.142,3.357,7.5,7.5,7.5h25.948V504.5c0,4.142,3.357,7.5,7.5,7.5h297.675    c4.143,0,7.5-3.358,7.5-7.5s-3.357-7.5-7.5-7.5H199.665v-27.177h250.599V497h-64.175c-4.143,0-7.5,3.358-7.5,7.5    s3.357,7.5,7.5,7.5h71.675c4.143,0,7.5-3.358,7.5-7.5v-79.133h25.948c4.143,0,7.5-3.358,7.5-7.5V7.5    C498.712,3.358,495.354,0,491.212,0z M253.241,214.484h177.644v101.569H253.241V214.484z M430.885,167.224v32.26H253.241v-32.26    H430.885z M184.665,115.701h-80.752v-13.498h80.752V115.701z M184.665,130.701v13.498h-80.752v-13.498H184.665z M184.665,159.198    v13.498h-80.752v-13.498H184.665z M184.665,187.696v13.498h-80.752v-13.498H184.665z M184.665,216.194v13.498h-80.752v-13.498    H184.665z M184.665,244.691v13.498h-80.752v-13.498H184.665z M184.665,273.189v13.498h-80.752v-13.498H184.665z M184.665,301.687    v13.498h-80.752v-13.498H184.665z M184.665,87.203h-80.752V73.705h80.752V87.203z M103.913,330.185h80.752v13.498h-80.752V330.185    z M184.665,58.705h-80.752V45.208h80.752V58.705z M103.913,358.682h80.752v15.054h-80.752V358.682z M184.665,15v15.208h-80.752V15    H184.665z M61.736,469.823h27.177V497H61.736V469.823z M103.913,497V388.736h80.752V497H103.913z M483.712,410.367h-25.948    c-4.143,0-7.5,3.358-7.5,7.5v36.956H199.665V15h38.576v308.553c0,4.142,3.357,7.5,7.5,7.5h192.644c4.143,0,7.5-3.358,7.5-7.5    V207.003c0-0.007,0.001-0.013,0.001-0.019s-0.001-0.013-0.001-0.019v-47.222c0-0.007,0.001-0.013,0.001-0.019    s-0.001-0.013-0.001-0.019V15h37.827V410.367z"/>
		<path id="XMLID_2333_" d="M290.297,59.556v32.678c0,4.142,3.357,7.5,7.5,7.5h88.532c4.143,0,7.5-3.358,7.5-7.5V59.556    c0-4.142-3.357-7.5-7.5-7.5h-88.532C293.654,52.056,290.297,55.414,290.297,59.556z M305.297,67.056h73.532v17.678h-73.532V67.056    z"/>
		<path id="XMLID_2336_" d="M284.688,344.235c-3.204-2.623-7.93-2.151-10.554,1.056l-7.59,9.276l-7.589-9.276    c-2.622-3.207-7.35-3.678-10.554-1.056c-3.206,2.623-3.679,7.348-1.056,10.554l13.394,16.372c1.424,1.741,3.555,2.751,5.805,2.751    c2.249,0,4.38-1.01,5.805-2.751l13.395-16.372C288.366,351.583,287.894,346.858,284.688,344.235z"/>
		<path id="XMLID_2338_" d="M408.368,250.4H377.97c-4.143,0-7.5,3.358-7.5,7.5v34.007c0,4.142,3.357,7.5,7.5,7.5h30.398    c4.143,0,7.5-3.358,7.5-7.5V257.9C415.868,253.758,412.511,250.4,408.368,250.4z M400.868,284.407H385.47V265.4h15.398V284.407z"/>
	</g>
</g>















</svg>
