<?xml version="1.0" encoding="iso-8859-1"?>
<!-- Generator: Adobe Illustrator 19.0.0, SVG Export Plug-In . SVG Version: 6.00 Build 0)  -->
<svg xmlns="http://www.w3.org/2000/svg" xmlns:xlink="http://www.w3.org/1999/xlink" version="1.1" id="Layer_1" x="0px" y="0px" viewBox="0 0 511.998 511.998" style="enable-background:new 0 0 511.998 511.998;" xml:space="preserve" width="512" height="512">
<g id="XMLID_198_">
	<g id="XMLID_4077_">
		<g id="XMLID_3543_">
			<path id="XMLID_3882_" style="fill:#7A6CF7;" d="M501.839,436.238c0,37.7-110.06,68.26-245.84,68.26s-245.84-30.56-245.84-68.26     c0-19.28,28.81-36.7,75.13-49.11c44.22-11.85,104.4-19.14,170.71-19.14s126.49,7.29,170.71,19.14     C473.029,399.538,501.839,416.958,501.839,436.238z"/>
			<path id="XMLID_3939_" style="fill:#6959E2;" d="M501.839,436.238c0,37.7-110.06,68.26-245.84,68.26s-245.84-30.56-245.84-68.26     c0-2.33,0.42-4.63,1.24-6.9c12.46,34.46,117.21,61.36,244.6,61.36s232.14-26.9,244.6-61.36     C501.419,431.608,501.839,433.908,501.839,436.238z"/>
			<path id="XMLID_3879_" style="fill:#6959E2;" d="M433.809,419.288c-0.5,0.76-3.14,4.56-9.07,9.79     c-5.92,5.23-15.12,11.89-28.74,18.38c-34.62,16.49-81.73,24.85-140,24.85s-105.38-8.36-140-24.85     c-27.24-12.98-36.81-26.65-37.81-28.17c-1.42-2.15-2.15-4.65-2.15-7.16c0-1.68,0.32-3.36,0.98-4.96l8.27-20.04     c44.22-11.85,104.4-19.14,170.71-19.14s126.49,7.29,170.71,19.14l8.27,20.04C436.619,411.158,436.179,415.698,433.809,419.288z"/>
			<path id="XMLID_4033_" style="fill:#7A6CF7;" d="M395.599,345.848l27.36,66.28c0,0-31.15,47.18-166.96,47.18     s-166.96-47.18-166.96-47.18l27.36-66.29l4.98-12.07l134.62-326.27h82.71l84.47,155.88l-111.02-82.54l-18.34,18.34l96.8,234.6     L395.599,345.848z"/>
			<path id="XMLID_4037_" style="fill:#9391F9;" d="M345.749,20.498h-80.52l-134.62,326.27l-4.98,12.07l-26.2,63.47     c-7.59-5.94-10.39-10.18-10.39-10.18l27.36-66.29l4.98-12.07l134.62-326.27h82.71L345.749,20.498z"/>
			<path id="XMLID_4030_" style="fill:#6959E2;" d="M422.959,412.128c0,0-31.15,47.18-166.96,47.18s-166.96-47.18-166.96-47.18     l27.36-66.29l4.98-12.07l1.07,0.56c21.42,11.27,61.98,24.7,133.55,24.7c71.56,0,112.12-13.42,133.55-24.69l1.07-0.56l4.98,12.07     L422.959,412.128z"/>
			<path id="XMLID_3640_" style="fill:#FFDC13;" d="M422.958,412.131c0,0-31.145,47.178-166.959,47.178S89.04,412.131,89.04,412.131     l27.357-66.293c23.956,12.601,66.702,26.193,139.602,26.193s115.646-13.591,139.602-26.182L422.958,412.131z"/>
			<path id="XMLID_4011_" style="fill:#FFED97;" d="M400.599,357.968c-26.72,12.91-71.65,27.26-144.6,27.26     s-117.88-14.35-144.6-27.27l5-12.12c23.95,12.6,66.7,26.19,139.6,26.19s115.65-13.59,139.6-26.18L400.599,357.968z"/>
		</g>
		<g id="XMLID_4073_">
			<polygon id="XMLID_4076_" style="fill:#FFDC13;" points="256.109,301.933 229.979,315.67 234.97,286.574 213.83,265.968      243.044,261.723 256.109,235.251 269.174,261.723 298.388,265.968 277.248,286.574 282.239,315.67    "/>
		</g>
	</g>
	<g id="XMLID_199_">
		<path id="XMLID_200_" d="M482.128,400.606c-15.725-9.224-37.745-17.21-65.448-23.735c-0.057-0.013-0.113-0.019-0.17-0.031    l-28.658-69.454c-3.684-8.927-17.555-3.221-13.865,5.721L386,342.224c-23.229,10.8-63.564,22.306-130.001,22.306    c-66.448,0-106.777-11.509-129.999-22.312l55.242-133.881c1.58-3.829-0.243-8.214-4.072-9.793    c-3.828-1.584-8.214,0.242-9.793,4.072L95.489,376.838c-27.052,6.356-48.724,14.112-64.432,23.081    c-18.847,10.762-28.402,22.982-28.402,36.322c0,49.206,130.529,75.757,253.344,75.757c69.532,0,134.096-7.807,181.798-21.982    c3.971-1.18,6.232-5.355,5.053-9.326c-1.181-3.97-5.352-6.232-9.326-5.053c-45.681,13.575-110.386,21.361-177.524,21.361    c-65.008,0-126.032-7.003-171.831-19.719c-32.154-8.927-66.513-24.396-66.513-41.038c0-9.915,13.057-18.852,20.84-23.296    c12.222-6.979,29.292-13.423,49.885-18.877l-6.272,15.201c-0.949,2.298-0.696,4.917,0.674,6.992    c1.362,2.064,34.958,50.549,173.218,50.549s171.855-48.484,173.218-50.549c1.37-2.075,1.623-4.694,0.674-6.992l-6.277-15.211    c51.903,13.679,70.729,30.522,70.729,42.183c0,8.485-9.587,17.917-26.994,26.557c-3.711,1.841-5.226,6.342-3.384,10.052    c1.31,2.64,3.964,4.168,6.724,4.168c1.12,0,2.257-0.252,3.328-0.784c23.44-11.634,35.326-25.089,35.326-39.992    C509.343,423.188,500.187,411.199,482.128,400.606z M387.184,428.949c-21.896,10.429-62.429,22.861-131.185,22.861    c-37.266,0-89.992-3.834-129.556-22.098c-16.229-7.492-24.919-15.025-28.727-18.947l22.558-54.671    c41.744,19.25,96.275,23.436,135.724,23.436c39.442,0,93.969-4.184,135.727-23.43l22.563,54.684    C410.641,414.562,402.46,421.673,387.184,428.949z"/>
		<path id="XMLID_204_" d="M185.567,178.192c3.827,1.582,8.213-0.242,9.793-4.072L261.018,15h73.229l66.165,122.109l-76.63-56.977    l5.297-5.044c3-2.856,3.116-7.604,0.26-10.604c-2.857-3-7.605-3.115-10.604-0.26L296.47,85.925l-9.372-22.705    c-1.581-3.83-5.968-5.654-9.794-4.071c-3.829,1.58-5.651,5.966-4.071,9.794l86.634,209.946c3.672,8.903,17.55,3.21,13.865-5.721    L302.668,100.94l10.218-10.217l105.817,78.678c2.822,2.101,6.727,1.955,9.386-0.351c2.659-2.304,3.359-6.147,1.683-9.241    L345.307,3.927C343.996,1.507,341.465,0,338.713,0h-82.714c-3.037,0-5.774,1.832-6.933,4.64l-67.571,163.76    C179.915,172.228,181.738,176.613,185.567,178.192z"/>
		<path id="XMLID_205_" d="M305.521,263.651c-0.882-2.715-3.229-4.694-6.055-5.104l-25.312-3.679l-11.319-22.937    c-2.696-5.461-10.749-5.473-13.451,0l-11.32,22.937l-25.312,3.679c-6.028,0.875-8.526,8.532-4.157,12.793l18.316,17.853    l-4.323,25.21c-1.032,6.005,5.479,10.742,10.882,7.906l22.64-11.902l22.639,11.902c5.389,2.834,11.915-1.891,10.882-7.906    l-4.323-25.21l18.316-17.853C305.667,269.347,306.402,266.366,305.521,263.651z M272.013,281.203    c-1.768,1.724-2.574,4.206-2.156,6.639l2.421,14.118l-12.678-6.666c-2.185-1.147-4.794-1.149-6.98,0l-12.679,6.666l2.421-14.118    c0.418-2.433-0.389-4.915-2.156-6.639l-10.258-9.998l14.175-2.06c2.443-0.354,4.555-1.889,5.647-4.103l6.34-12.846l6.339,12.846    c1.093,2.214,3.204,3.748,5.647,4.103l14.175,2.06L272.013,281.203z"/>
	</g>
</g>















</svg>
