<?xml version="1.0" encoding="iso-8859-1"?>
<!-- Generator: Adobe Illustrator 19.0.0, SVG Export Plug-In . SVG Version: 6.00 Build 0)  -->
<svg xmlns="http://www.w3.org/2000/svg" xmlns:xlink="http://www.w3.org/1999/xlink" version="1.1" id="Layer_1" x="0px" y="0px" viewBox="0 0 512 512" style="enable-background:new 0 0 512 512;" xml:space="preserve" width="512" height="512">
<g id="XMLID_3449_">
	<g id="XMLID_3454_">
		<g id="XMLID_3455_">
			<rect id="XMLID_3456_" x="239.871" y="179.379" style="fill:#304E75;" width="28.435" height="70.424"/>
			<g id="XMLID_3457_">
				<g id="XMLID_987_">
					<rect id="XMLID_1006_" x="118.5" y="215.719" style="fill:#304E75;" width="57.422" height="34.084"/>
					<rect id="XMLID_1001_" x="336.078" y="215.719" style="fill:#304E75;" width="57.422" height="34.084"/>
				</g>
			</g>
			<path id="XMLID_3462_" style="fill:#48709B;" d="M400.789,234.285L400.789,234.285L400.789,234.285H111.211     C53.933,234.285,7.5,280.718,7.5,337.996s46.433,103.711,103.711,103.711c47.087,0,86.837-31.383,99.495-74.371h90.588     c12.657,42.988,52.408,74.371,99.495,74.371c57.278,0,103.711-46.433,103.711-103.711S458.067,234.285,400.789,234.285z"/>
			<path id="XMLID_3482_" style="fill:#304E75;" d="M481.434,335.498c-4.059-10.49-14.203-17.597-25.402-17.918     c3.187-2.705,5.749-6.113,7.488-10.049c3.032-6.859,3.21-14.489,0.504-21.483c-4.155-10.735-14.679-17.948-26.188-17.948     c-3.47,0-6.878,0.638-10.13,1.896c-9.286,3.594-15.57,11.616-17.392,20.724c-4.742-3.495-10.547-5.531-16.639-5.531     c-3.47,0-6.878,0.638-10.13,1.896c-9.286,3.594-15.57,11.616-17.392,20.724c-4.742-3.494-10.547-5.531-16.639-5.531     c-3.47,0-6.878,0.638-10.13,1.897c-6.994,2.707-12.516,7.975-15.547,14.834c-3.032,6.86-3.211,14.49-0.504,21.484     c4.062,10.497,14.217,17.607,25.425,17.918c-8.844,7.525-12.436,20.106-8.014,31.532c4.154,10.735,14.679,17.948,26.188,17.948     c3.47,0,6.878-0.638,10.13-1.896c6.994-2.707,12.516-7.976,15.548-14.835c0.844-1.909,1.458-3.88,1.86-5.878     c4.739,3.487,10.538,5.519,16.623,5.519c3.47,0,6.878-0.638,10.13-1.896c6.994-2.707,12.516-7.976,15.548-14.835     c0.844-1.909,1.458-3.88,1.859-5.878c4.739,3.488,10.538,5.52,16.624,5.52c3.47,0,6.878-0.638,10.13-1.896     C479.821,366.229,487.021,349.937,481.434,335.498z M367.686,351.76c4.856-4.131,8.124-9.784,9.355-15.937     c4.536,3.343,10.048,5.334,15.853,5.5c-3.187,2.705-5.749,6.113-7.488,10.049c-0.844,1.909-1.458,3.879-1.859,5.878     C379.007,353.909,373.493,351.921,367.686,351.76z M411.848,334.67c4.855-4.131,8.124-9.784,9.354-15.937     c4.542,3.348,10.063,5.339,15.875,5.501c-4.855,4.131-8.124,9.784-9.355,15.937C423.181,336.823,417.661,334.831,411.848,334.67z     "/>
			<path id="XMLID_3539_" style="fill:#304E75;" d="M492.32,386.77c-17.44,32.69-51.88,54.94-91.53,54.94     c-42.55,0-79.11-25.63-95.1-62.28c20.81,26.91,56.23,44.63,96.44,44.63C438.56,424.06,471.06,409.52,492.32,386.77z"/>
			<path id="XMLID_3542_" style="fill:#304E75;" d="M206.31,379.43c-15.99,36.65-52.55,62.28-95.1,62.28     c-39.65,0-74.1-22.25-91.54-54.95c21.26,22.75,53.77,37.3,90.2,37.3C150.08,424.06,185.5,406.34,206.31,379.43z"/>
			<path id="XMLID_3545_" style="fill:#629ACC;" d="M496.5,297.99c-18.74-29.91-52.64-49.88-91.34-49.88H106.84     c-38.7,0-72.6,19.97-91.34,49.88c15.66-37.42,52.61-63.7,95.71-63.7h289.58C443.89,234.29,480.84,260.57,496.5,297.99z"/>
			<g id="XMLID_3546_">
				<g id="XMLID_3547_">
					<g id="XMLID_3548_">
						<circle id="XMLID_3549_" style="fill:#E94141;" cx="349.516" cy="330.362" r="15.078"/>
					</g>
					<g id="XMLID_3550_">
						<circle id="XMLID_3551_" style="fill:#E94141;" cx="393.677" cy="313.272" r="15.078"/>
					</g>
					<g id="XMLID_3553_">
						<circle id="XMLID_3555_" style="fill:#E94141;" cx="437.838" cy="296.181" r="15.078"/>
					</g>
				</g>
				<g id="XMLID_3559_">
					<g id="XMLID_3560_">
						<circle id="XMLID_3561_" style="fill:#01D2FF;" cx="366.927" cy="379.812" r="15.078"/>
					</g>
					<g id="XMLID_3562_">
						<circle id="XMLID_3563_" style="fill:#01D2FF;" cx="411.088" cy="362.722" r="15.078"/>
					</g>
					<g id="XMLID_3564_">
						<circle id="XMLID_3565_" style="fill:#01D2FF;" cx="455.249" cy="345.631" r="15.078"/>
					</g>
				</g>
			</g>
			<path id="XMLID_3568_" style="fill:#304E75;" d="M108.347,418.744c-44.524,0-80.748-36.223-80.748-80.748     s36.223-80.748,80.748-80.748s80.748,36.223,80.748,80.748S152.871,418.744,108.347,418.744z"/>
			<circle id="XMLID_3569_" style="fill:#01D2FF;" cx="108.347" cy="337.997" r="67.748"/>
		</g>
	</g>
	<g id="XMLID_3571_">
		<path id="XMLID_3572_" d="M442.218,424.853c-12.986,6.207-26.926,9.354-41.429,9.354c-21.194,0-41.293-6.756-58.123-19.538    c-16.294-12.375-28.432-29.937-34.178-49.451c-0.939-3.191-3.868-5.382-7.194-5.382h-32.205c-4.143,0-7.5,3.358-7.5,7.5    s3.357,7.5,7.5,7.5h26.749c7.185,20.397,20.44,38.628,37.757,51.778c19.46,14.78,42.696,22.592,67.194,22.592    c16.76,0,32.875-3.641,47.897-10.821c3.737-1.786,5.318-6.264,3.532-10.001C450.433,424.648,445.955,423.068,442.218,424.853z"/>
		<path id="XMLID_3573_" d="M401,226.788v-11.069c0-4.142-3.357-7.5-7.5-7.5h-57.422c-4.143,0-7.5,3.358-7.5,7.5v11.066h-52.772    v-47.406c0-4.142-3.357-7.5-7.5-7.5h-6.718v-20.617c0-13.212-10.749-23.962-23.962-23.962H61.667c-4.941,0-8.962-4.02-8.962-8.961    s4.021-8.962,8.962-8.962h176.629c12.844,0,23.292-10.449,23.292-23.292c0-12.844-10.448-23.292-23.292-23.292H46.847    c-4.143,0-7.5,3.358-7.5,7.5s3.357,7.5,7.5,7.5h191.449c4.572,0,8.292,3.72,8.292,8.292s-3.72,8.292-8.292,8.292H61.667    c-13.213,0-23.962,10.749-23.962,23.962c0,13.212,10.749,23.961,23.962,23.961h175.959c4.941,0,8.962,4.021,8.962,8.962v20.617    h-6.717c-4.143,0-7.5,3.358-7.5,7.5v47.406h-48.949v-11.066c0-4.142-3.357-7.5-7.5-7.5H118.5c-4.143,0-7.5,3.358-7.5,7.5v11.069    C49.775,226.903,0,276.745,0,337.996c0,61.322,49.889,111.211,111.211,111.211c24.498,0,47.734-7.813,67.194-22.592    c17.316-13.15,30.572-31.381,37.757-51.778h18.749c4.143,0,7.5-3.358,7.5-7.5s-3.357-7.5-7.5-7.5h-24.205    c-3.326,0-6.255,2.191-7.194,5.382c-5.746,19.514-17.884,37.076-34.178,49.451c-16.83,12.782-36.929,19.538-58.123,19.538    C58.16,434.208,15,391.048,15,337.996c0-53.051,43.16-96.211,96.211-96.211h289.578c53.051,0,96.211,43.16,96.211,96.211    c0,25.85-10.112,50.112-28.474,68.319c-2.941,2.917-2.962,7.665-0.046,10.606c2.918,2.942,7.666,2.961,10.607,0.045    c21.224-21.044,32.912-49.09,32.912-78.97C512,276.745,462.226,226.903,401,226.788z M343.578,223.219H386v3.566h-42.422V223.219z     M247.371,186.879h13.435v39.906h-13.435V186.879z M168.422,223.219v3.566H126v-3.566H168.422z"/>
		<path id="XMLID_3581_" d="M358.643,309.711c-5.516-2.439-11.652-2.582-17.275-0.406c-11.609,4.493-17.4,17.594-12.907,29.206    c3.46,8.94,12.024,14.429,21.083,14.429c2.704,0,5.452-0.49,8.122-1.522c5.624-2.177,10.063-6.413,12.502-11.929    c2.438-5.516,2.581-11.651,0.405-17.275C368.396,316.589,364.159,312.149,358.643,309.711z M356.447,333.425    c-0.818,1.851-2.309,3.273-4.196,4.003c-3.896,1.507-8.294-0.437-9.802-4.332c-1.509-3.897,0.436-8.294,4.332-9.802    c0.888-0.344,1.813-0.515,2.737-0.515c1.04,0,2.08,0.218,3.061,0.651c1.852,0.818,3.273,2.309,4.003,4.196    c0.001,0,0.001,0,0.001,0C357.313,329.515,357.265,331.574,356.447,333.425z"/>
		<path id="XMLID_3584_" d="M402.804,292.621c-5.515-2.438-11.651-2.581-17.275-0.405c-11.609,4.493-17.4,17.594-12.907,29.205    c3.46,8.941,12.024,14.43,21.082,14.43c2.704,0,5.452-0.489,8.122-1.522c5.624-2.177,10.064-6.413,12.503-11.929    c2.438-5.516,2.581-11.651,0.405-17.275C412.557,299.499,408.32,295.059,402.804,292.621z M400.608,316.335    c-0.818,1.851-2.309,3.273-4.197,4.003c-3.896,1.511-8.292-0.436-9.802-4.332c-1.508-3.896,0.437-8.294,4.333-9.802    c0.888-0.344,1.813-0.515,2.737-0.515c1.041,0,2.08,0.217,3.061,0.651c1.852,0.818,3.273,2.308,4.003,4.196    c0.001,0,0.001,0,0.001,0C401.475,312.425,401.426,314.484,400.608,316.335z"/>
		<path id="XMLID_3587_" d="M445.986,317.238c11.609-4.493,17.4-17.594,12.908-29.205c-0.001,0-0.001,0-0.001,0    c-4.493-11.61-17.592-17.4-29.204-12.907c-11.609,4.493-17.4,17.594-12.907,29.206c3.46,8.94,12.024,14.429,21.082,14.429    C440.568,318.76,443.316,318.27,445.986,317.238z M430.771,298.917c-1.509-3.897,0.435-8.294,4.332-9.802    c0.896-0.347,1.818-0.511,2.726-0.511c3.04,0,5.914,1.842,7.075,4.843c1.509,3.897-0.435,8.294-4.332,9.802    C436.676,304.76,432.279,302.812,430.771,298.917z"/>
		<path id="XMLID_3590_" d="M387.982,371.662c-4.493-11.609-17.592-17.399-29.205-12.907c-5.624,2.177-10.064,6.413-12.502,11.929    s-2.581,11.652-0.404,17.275c2.176,5.624,6.412,10.064,11.929,12.502c2.922,1.292,6.018,1.939,9.119,1.939    c2.753,0,5.512-0.51,8.156-1.534C386.685,396.375,392.476,383.274,387.982,371.662    C387.982,371.663,387.982,371.663,387.982,371.662z M369.661,386.879c-1.888,0.73-3.946,0.682-5.798-0.136    c-1.852-0.818-3.273-2.309-4.004-4.196s-0.683-3.947,0.136-5.798c0.818-1.851,2.309-3.273,4.196-4.003    c0.896-0.347,1.818-0.511,2.726-0.511c3.04,0,5.915,1.842,7.076,4.843C375.501,380.973,373.558,385.371,369.661,386.879z"/>
		<path id="XMLID_3593_" d="M402.938,341.666c-5.624,2.177-10.063,6.413-12.502,11.929c-2.438,5.516-2.581,11.651-0.405,17.275    c2.177,5.625,6.413,10.064,11.93,12.502c2.922,1.292,6.018,1.939,9.119,1.939c2.753,0,5.512-0.51,8.156-1.534    c11.609-4.493,17.4-17.594,12.907-29.204v0C427.65,342.963,414.548,337.175,402.938,341.666z M413.822,369.788    c-1.889,0.731-3.948,0.682-5.798-0.136c-1.852-0.818-3.273-2.308-4.004-4.196c-0.73-1.888-0.683-3.947,0.136-5.798    s2.309-3.273,4.196-4.003c0.896-0.347,1.818-0.511,2.726-0.511c3.04,0,5.915,1.843,7.077,4.843    C419.663,363.883,417.719,368.281,413.822,369.788z"/>
		<path id="XMLID_3596_" d="M475.899,354.758c2.438-5.516,2.581-11.651,0.404-17.275c-2.176-5.624-6.412-10.064-11.928-12.502    c-5.517-2.438-11.651-2.582-17.276-0.405c-5.624,2.177-10.063,6.413-12.502,11.929c-2.438,5.516-2.581,11.651-0.405,17.275    c2.177,5.625,6.413,10.064,11.93,12.502c2.922,1.292,6.018,1.939,9.119,1.939c2.753,0,5.512-0.51,8.156-1.534    C469.021,364.51,473.461,360.274,475.899,354.758z M462.18,348.695c-0.818,1.851-2.309,3.273-4.196,4.003    c-1.889,0.73-3.948,0.682-5.798-0.136c-1.852-0.818-3.273-2.308-4.004-4.197c-0.73-1.887-0.682-3.946,0.136-5.797    c0.818-1.851,2.309-3.273,4.196-4.003c0.888-0.344,1.813-0.515,2.737-0.515c1.041,0,2.08,0.218,3.061,0.651    c1.852,0.818,3.273,2.308,4.003,4.196c0.001,0,0.001,0,0.001,0C463.046,344.784,462.998,346.844,462.18,348.695z"/>
		<path id="XMLID_3599_" d="M153.6,287.052c2.396-3.378,1.6-8.06-1.779-10.456c-12.772-9.058-27.806-13.846-43.474-13.846    c-41.492,0-75.248,33.756-75.248,75.247c0,41.492,33.756,75.248,75.248,75.248c41.491,0,75.247-33.756,75.247-75.248    c0-11.288-2.447-22.152-7.272-32.293c-1.78-3.74-6.256-5.327-9.995-3.55c-3.74,1.78-5.329,6.255-3.55,9.995    c3.86,8.111,5.817,16.808,5.817,25.848c0,33.221-27.026,60.248-60.247,60.248s-60.248-27.027-60.248-60.248    c0-33.22,27.027-60.247,60.248-60.247c12.541,0,24.573,3.832,34.796,11.082C146.523,291.228,151.202,290.43,153.6,287.052z"/>
		<path id="XMLID_3600_" d="M115.115,306.67c0-4.142-3.357-7.5-7.5-7.5s-7.5,3.358-7.5,7.5v11.858c0,4.142,3.357,7.5,7.5,7.5    s7.5-3.358,7.5-7.5V306.67z"/>
		<path id="XMLID_3601_" d="M107.615,349.965c-4.143,0-7.5,3.358-7.5,7.5v11.858c0,4.142,3.357,7.5,7.5,7.5s7.5-3.358,7.5-7.5    v-11.858C115.115,353.323,111.758,349.965,107.615,349.965z"/>
		<path id="XMLID_3605_" d="M127.083,330.496c-4.143,0-7.5,3.358-7.5,7.5s3.357,7.5,7.5,7.5h11.858c4.143,0,7.5-3.358,7.5-7.5    s-3.357-7.5-7.5-7.5H127.083z"/>
		<path id="XMLID_3606_" d="M76.289,330.496c-4.143,0-7.5,3.358-7.5,7.5s3.357,7.5,7.5,7.5h11.857c4.143,0,7.5-3.358,7.5-7.5    s-3.357-7.5-7.5-7.5H76.289z"/>
		<path id="XMLID_3610_" d="M219.146,321.212c-4.143,0-7.5,3.358-7.5,7.5s3.357,7.5,7.5,7.5h13.433c4.143,0,7.5-3.358,7.5-7.5    s-3.357-7.5-7.5-7.5H219.146z"/>
		<path id="XMLID_3611_" d="M292.853,336.212c4.143,0,7.5-3.358,7.5-7.5s-3.357-7.5-7.5-7.5h-13.432c-4.143,0-7.5,3.358-7.5,7.5    s3.357,7.5,7.5,7.5H292.853z"/>
		<path id="XMLID_3612_" d="M270.216,302.537c0-4.142-3.357-7.5-7.5-7.5h-13.433c-4.143,0-7.5,3.358-7.5,7.5s3.357,7.5,7.5,7.5    h13.433C266.858,310.037,270.216,306.679,270.216,302.537z"/>
	</g>
</g>















</svg>
