<?xml version="1.0" encoding="iso-8859-1"?>
<!-- Generator: Adobe Illustrator 19.0.0, SVG Export Plug-In . SVG Version: 6.00 Build 0)  -->
<svg xmlns="http://www.w3.org/2000/svg" xmlns:xlink="http://www.w3.org/1999/xlink" version="1.1" id="Layer_1" x="0px" y="0px" viewBox="0 0 512 512" style="enable-background:new 0 0 512 512;" xml:space="preserve" width="512" height="512">
<g id="XMLID_2240_">
	<g id="XMLID_2241_">
		<path id="XMLID_2252_" style="fill:#48709B;" d="M504.5,128.89v299.82H7.5v-136.8H36v-26.64H7.5V128.89    c0-25.19,20.42-45.6,45.61-45.6h405.78C484.08,83.29,504.5,103.7,504.5,128.89z"/>
		<path id="XMLID_2258_" style="fill:#304E75;" d="M444.52,112.43v218.98c0,23.21-18.88,42.09-42.09,42.09H109.57    c-23.21,0-42.09-18.88-42.09-42.09V112.43c0-11.3,4.47-21.57,11.74-29.14h353.56C440.05,90.86,444.52,101.13,444.52,112.43z"/>
		<path id="XMLID_2261_" style="fill:#629ACC;" d="M503.91,121.58c-7.49-15.26-23.37-25.79-41.75-25.79H49.84    c-18.38,0-34.26,10.53-41.75,25.79c3.49-21.72,22.32-38.29,45.02-38.29h405.78C481.59,83.29,500.42,99.86,503.91,121.58z"/>
		<path id="XMLID_2265_" style="fill:#0064DB;" d="M431.52,112.39v218.98c0,16.06-13.03,29.09-29.09,29.09H109.57    c-16.06,0-29.09-13.03-29.09-29.09V112.39c0-6.18,1.93-11.92,5.23-16.64c5.25-7.53,13.98-12.46,23.86-12.46h292.86    c9.88,0,18.61,4.93,23.86,12.46C429.59,100.47,431.52,106.21,431.52,112.39z"/>
		<path id="XMLID_2269_" style="fill:#0043C9;" d="M142.67,83.29v277.17h-33.1c-16.06,0-29.09-13.03-29.09-29.09V112.39    c0-16.07,13.03-29.1,29.09-29.1H142.67z"/>
		<path id="XMLID_2272_" style="fill:#0086F4;" d="M426.29,95.75H85.71c5.25-7.53,13.98-12.46,23.86-12.46h292.86    C412.31,83.29,421.04,88.22,426.29,95.75z"/>
		<path id="XMLID_2273_" style="fill:#E94141;" d="M129.67,83.286v277.17h-20.1c-16.06,0-29.09-13.03-29.09-29.09v-218.98    c0-6.18,1.93-11.92,5.23-16.64c5.25-7.53,13.98-12.46,23.86-12.46H129.67z"/>
		<path id="XMLID_2274_" style="fill:#F28383;" d="M129.67,83.286v12.46H85.71c5.25-7.53,13.98-12.46,23.86-12.46H129.67z"/>
		<g id="XMLID_2996_">
			<g id="XMLID_3066_">
				<g id="XMLID_3090_">
					<polygon id="XMLID_3092_" style="fill:#FFDC13;" points="260.169,196.08 176.745,171.917 176.745,142.991 260.169,167.154             "/>
				</g>
				<g id="XMLID_3087_">
					<polygon id="XMLID_3089_" style="fill:#E94141;" points="260.169,217.074 199.729,199.568 199.729,228.494 260.169,246             "/>
				</g>
			</g>
			<g id="XMLID_2997_">
				<g id="XMLID_3023_">
					<polygon id="XMLID_3047_" style="fill:#FFDC13;" points="291.831,196.08 375.255,171.917 375.255,142.991 291.831,167.154             "/>
				</g>
				<g id="XMLID_3020_">
					<polygon id="XMLID_3022_" style="fill:#E94141;" points="291.831,217.074 352.271,199.568 352.271,228.494 291.831,246             "/>
				</g>
			</g>
		</g>
		<rect id="XMLID_2279_" x="176.745" y="275.116" style="fill:#E4EAF6;" width="196.255" height="27"/>
	</g>
	<g id="XMLID_2284_">
		<path id="XMLID_2285_" d="M504.5,251.409c4.143,0,7.5-3.358,7.5-7.5V128.89c0-29.279-23.825-53.1-53.109-53.1H202.089    c-4.143,0-7.5,3.358-7.5,7.5s3.357,7.5,7.5,7.5h200.339c11.906,0,21.592,9.687,21.592,21.593v218.978    c0,11.906-9.686,21.592-21.592,21.592H137.17V90.79h30.741c4.143,0,7.5-3.358,7.5-7.5s-3.357-7.5-7.5-7.5H53.11    C23.825,75.79,0,99.611,0,128.89v136.378c0,4.142,3.357,7.5,7.5,7.5h21v11.639h-21c-4.143,0-7.5,3.358-7.5,7.5V428.71    c0,4.142,3.357,7.5,7.5,7.5h175.411c4.143,0,7.5-3.358,7.5-7.5s-3.357-7.5-7.5-7.5H49.665v-16.094h412.67v16.094H217.089    c-4.143,0-7.5,3.358-7.5,7.5s3.357,7.5,7.5,7.5H504.5c4.143,0,7.5-3.358,7.5-7.5V278.087c0-4.142-3.357-7.5-7.5-7.5    s-7.5,3.358-7.5,7.5V421.21h-19.665v-23.594c0-4.142-3.357-7.5-7.5-7.5H42.165c-4.143,0-7.5,3.358-7.5,7.5v23.594H15V299.407h21    c4.143,0,7.5-3.358,7.5-7.5v-26.639c0-4.142-3.357-7.5-7.5-7.5H15V128.89c0-21.008,17.097-38.1,38.11-38.1h26.945    c-4.443,6.057-7.074,13.522-7.074,21.593v218.978c0,20.177,16.415,36.592,36.592,36.592h292.855    c20.177,0,36.592-16.415,36.592-36.592V112.383c0-8.071-2.632-15.536-7.074-21.593h26.946c21.014,0,38.109,17.092,38.109,38.1    v115.019C497,248.051,500.357,251.409,504.5,251.409z M87.98,331.361V112.383c0-11.906,9.686-21.593,21.592-21.593h12.598v262.163    h-12.598C97.666,352.953,87.98,343.267,87.98,331.361z"/>
		<path id="XMLID_2288_" d="M169.245,142.991v28.926c0,3.338,2.207,6.275,5.413,7.204l83.424,24.163    c0.687,0.199,1.389,0.296,2.087,0.296c1.606,0,3.191-0.517,4.506-1.504c1.885-1.417,2.994-3.637,2.994-5.996v-28.926    c0-3.338-2.207-6.275-5.413-7.204l-83.424-24.163c-2.265-0.656-4.706-0.208-6.593,1.208    C170.354,138.412,169.245,140.632,169.245,142.991z M184.245,152.971l68.424,19.818v13.31l-68.424-19.818V152.971z"/>
		<path id="XMLID_2293_" d="M258.082,253.204c0.687,0.199,1.389,0.296,2.087,0.296c1.606,0,3.191-0.517,4.506-1.504    c1.885-1.417,2.994-3.637,2.994-5.996v-28.926c0-3.338-2.207-6.275-5.413-7.204l-60.439-17.506    c-2.265-0.655-4.707-0.209-6.593,1.208c-1.885,1.417-2.994,3.637-2.994,5.996v28.926c0,3.338,2.207,6.275,5.413,7.204    L258.082,253.204z M207.229,209.548l45.439,13.161v13.31l-45.439-13.161V209.548z"/>
		<path id="XMLID_2296_" d="M382.755,142.991c0-2.358-1.109-4.579-2.994-5.996s-4.326-1.862-6.593-1.208l-83.424,24.163    c-3.206,0.929-5.413,3.866-5.413,7.204v28.926c0,2.358,1.109,4.579,2.994,5.996c1.314,0.988,2.899,1.504,4.506,1.504    c0.698,0,1.4-0.098,2.087-0.296l83.424-24.163c3.206-0.929,5.413-3.866,5.413-7.204V142.991z M367.755,166.281L299.331,186.1    v-13.31l68.424-19.818V166.281z"/>
		<path id="XMLID_2299_" d="M291.831,253.5c0.698,0,1.4-0.098,2.087-0.296l60.439-17.506c3.206-0.929,5.413-3.866,5.413-7.204    v-28.926c0-2.358-1.109-4.579-2.994-5.996c-1.886-1.417-4.326-1.862-6.593-1.208l-60.439,17.506    c-3.206,0.929-5.413,3.866-5.413,7.204V246c0,2.358,1.109,4.579,2.994,5.996C288.64,252.983,290.225,253.5,291.831,253.5z     M299.331,222.709l45.439-13.161v13.31l-45.439,13.161V222.709z"/>
		<path id="XMLID_2302_" d="M380.5,302.116v-27c0-4.142-3.357-7.5-7.5-7.5H176.745c-4.143,0-7.5,3.358-7.5,7.5v27    c0,4.142,3.357,7.5,7.5,7.5H373C377.143,309.616,380.5,306.258,380.5,302.116z M365.5,294.616H184.245v-12H365.5V294.616z"/>
		<path id="XMLID_2305_" d="M227.694,320.616c-4.143,0-7.5,3.358-7.5,7.5s3.357,7.5,7.5,7.5h94.356c4.143,0,7.5-3.358,7.5-7.5    s-3.357-7.5-7.5-7.5H227.694z"/>
		<path id="XMLID_2306_" d="M282,120.116h-14.255c-4.143,0-7.5,3.358-7.5,7.5s3.357,7.5,7.5,7.5H282c4.143,0,7.5-3.358,7.5-7.5    S286.143,120.116,282,120.116z"/>
		<path id="XMLID_2307_" d="M461.995,123.678v0.938c0,4.142,3.357,7.5,7.5,7.5s7.5-3.358,7.5-7.5v-0.938c0-4.142-3.357-7.5-7.5-7.5    S461.995,119.536,461.995,123.678z"/>
		<path id="XMLID_2308_" d="M35.005,123.678v0.938c0,4.142,3.357,7.5,7.5,7.5s7.5-3.358,7.5-7.5v-0.938c0-4.142-3.357-7.5-7.5-7.5    S35.005,119.536,35.005,123.678z"/>
	</g>
</g>















</svg>
