<svg id="Layer_1" enable-background="new 0 0 512 512" height="512" viewBox="0 0 512 512" width="512" xmlns="http://www.w3.org/2000/svg"><g><path d="m415 504.5h-318c-13.255 0-24-10.745-24-24v-449c0-13.255 10.745-24 24-24h318c13.255 0 24 10.745 24 24v449c0 13.255-10.745 24-24 24z" fill="#ffd740"/><path d="m415 7.5h-30c13.255 0 24 10.745 24 24v449c0 13.255-10.745 24-24 24h30c13.255 0 24-10.745 24-24v-449c0-13.255-10.745-24-24-24z" fill="#ffc400"/><path d="m135 5.5h242v306h-242z" fill="#e1f5fe" transform="matrix(0 1 -1 0 414.5 -97.5)"/><path d="m379 37.5h30v242h-30z" fill="#b3e5fc"/><circle cx="180" cy="377" fill="#0477b0" r="65"/><path d="m180 312c-5.165 0-10.183.621-15 1.759 28.663 6.774 50 32.508 50 63.241s-21.337 56.467-50 63.241c4.817 1.138 9.835 1.759 15 1.759 35.898 0 65-29.102 65-65s-29.102-65-65-65z" fill="#046ea3"/><circle cx="320" cy="414.228" fill="#81d4fa" r="26"/><path d="m320 388.228c-5.589 0-10.761 1.769-15 4.77 6.653 4.709 11 12.46 11 21.23s-4.347 16.521-11 21.23c4.239 3.001 9.411 4.77 15 4.77 14.359 0 26-11.641 26-26 0-14.36-11.641-26-26-26z" fill="#4fc3f7"/><circle cx="372" cy="351.491" fill="#ff5722" r="26"/><path d="m372 325.491c-5.589 0-10.761 1.769-15 4.77 6.653 4.709 11 12.46 11 21.23s-4.347 16.521-11 21.23c4.239 3.001 9.411 4.77 15 4.77 14.359 0 26-11.641 26-26s-11.641-26-26-26z" fill="#f4511e"/><path d="m206 362c-6.075 0-11-4.925-11-11 0-6.075-4.925-11-11-11h-8c-6.075 0-11 4.925-11 11 0 6.075-4.925 11-11 11-6.075 0-11 4.925-11 11v8c0 6.075 4.925 11 11 11 6.075 0 11 4.925 11 11 0 6.075 4.925 11 11 11h8c6.075 0 11-4.925 11-11 0-6.075 4.925-11 11-11 6.075 0 11-4.925 11-11v-8c0-6.075-4.925-11-11-11z" fill="#fff7e6"/><g><circle cx="310" cy="158" fill="#ff5722" r="38"/><path d="m310 120c-5.328 0-10.398 1.101-15 3.081 13.526 5.818 23 19.261 23 34.919s-9.474 29.101-23 34.919c4.602 1.98 9.672 3.081 15 3.081 20.987 0 38-17.013 38-38s-17.013-38-38-38z" fill="#f4511e"/><path d="m164 120h76v76h-76z" fill="#81d4fa"/><path d="m210 120h30v76h-30z" fill="#4fc3f7"/></g><path d="m351 504.5h-190v-10c0-11.046 8.954-20 20-20h150c11.046 0 20 8.954 20 20z" fill="#ff5722"/><path d="m331 474.5h-30c11.046 0 20 8.954 20 20v10h30v-10c0-11.046-8.954-20-20-20z" fill="#f4511e"/><g><path d="m439 457.09c-4.143 0-7.5 3.358-7.5 7.5v15.91c0 9.098-7.402 16.5-16.5 16.5h-56.5v-2.5c0-15.164-12.337-27.5-27.5-27.5h-150c-15.164 0-27.5 12.336-27.5 27.5v2.5h-56.5c-9.098 0-16.5-7.402-16.5-16.5v-384.885c0-4.142-3.358-7.5-7.5-7.5s-7.5 3.358-7.5 7.5v384.885c0 17.369 14.131 31.5 31.5 31.5h318c17.369 0 31.5-14.131 31.5-31.5v-15.91c0-4.142-3.357-7.5-7.5-7.5zm-270.5 39.91v-2.5c0-6.893 5.607-12.5 12.5-12.5h150c6.893 0 12.5 5.607 12.5 12.5v2.5z"/><path d="m415 0h-318c-17.369 0-31.5 14.131-31.5 31.5v32.423c0 4.142 3.358 7.5 7.5 7.5s7.5-3.358 7.5-7.5v-32.423c0-9.098 7.402-16.5 16.5-16.5h318c9.098 0 16.5 7.402 16.5 16.5v400.269c0 4.142 3.357 7.5 7.5 7.5s7.5-3.358 7.5-7.5v-400.269c0-17.369-14.131-31.5-31.5-31.5z"/><path d="m359.475 37.5c0-4.142-3.357-7.5-7.5-7.5h-248.975c-4.142 0-7.5 3.358-7.5 7.5v242c0 4.142 3.358 7.5 7.5 7.5h306c4.143 0 7.5-3.358 7.5-7.5v-242c0-4.142-3.357-7.5-7.5-7.5h-24.82c-4.143 0-7.5 3.358-7.5 7.5s3.357 7.5 7.5 7.5h17.32v227h-291v-227h241.475c4.142 0 7.5-3.358 7.5-7.5z"/><path d="m107.5 377c0 39.977 32.523 72.5 72.5 72.5s72.5-32.523 72.5-72.5-32.523-72.5-72.5-72.5-72.5 32.523-72.5 72.5zm130 0c0 31.706-25.794 57.5-57.5 57.5s-57.5-25.794-57.5-57.5 25.794-57.5 57.5-57.5 57.5 25.794 57.5 57.5z"/><path d="m320 380.728c-18.472 0-33.5 15.028-33.5 33.5s15.028 33.5 33.5 33.5 33.5-15.028 33.5-33.5-15.028-33.5-33.5-33.5zm0 52c-10.201 0-18.5-8.299-18.5-18.5s8.299-18.5 18.5-18.5 18.5 8.299 18.5 18.5-8.299 18.5-18.5 18.5z"/><path d="m405.5 351.491c0-18.472-15.028-33.5-33.5-33.5s-33.5 15.028-33.5 33.5 15.028 33.5 33.5 33.5 33.5-15.028 33.5-33.5zm-52 0c0-10.201 8.299-18.5 18.5-18.5s18.5 8.299 18.5 18.5-8.299 18.5-18.5 18.5-18.5-8.299-18.5-18.5z"/><path d="m310 112.5c-25.089 0-45.5 20.411-45.5 45.5s20.411 45.5 45.5 45.5 45.5-20.411 45.5-45.5-20.411-45.5-45.5-45.5zm0 76c-16.817 0-30.5-13.682-30.5-30.5s13.683-30.5 30.5-30.5 30.5 13.682 30.5 30.5-13.683 30.5-30.5 30.5z"/><path d="m164 112.5c-4.142 0-7.5 3.358-7.5 7.5v76c0 4.142 3.358 7.5 7.5 7.5h76c4.142 0 7.5-3.358 7.5-7.5v-76c0-4.142-3.358-7.5-7.5-7.5zm68.5 76h-61v-61h61z"/><path d="m157.5 351c0 1.93-1.57 3.5-3.5 3.5-10.201 0-18.5 8.299-18.5 18.5v8c0 10.201 8.299 18.5 18.5 18.5 1.93 0 3.5 1.57 3.5 3.5 0 10.201 8.299 18.5 18.5 18.5h8c10.201 0 18.5-8.299 18.5-18.5 0-1.93 1.57-3.5 3.5-3.5 10.201 0 18.5-8.299 18.5-18.5v-8c0-10.201-8.299-18.5-18.5-18.5-1.93 0-3.5-1.57-3.5-3.5 0-10.201-8.299-18.5-18.5-18.5h-8c-10.201 0-18.5 8.299-18.5 18.5zm30 0c0 10.201 8.299 18.5 18.5 18.5 1.93 0 3.5 1.57 3.5 3.5v8c0 1.93-1.57 3.5-3.5 3.5-10.201 0-18.5 8.299-18.5 18.5 0 1.93-1.57 3.5-3.5 3.5h-8c-1.93 0-3.5-1.57-3.5-3.5 0-10.201-8.299-18.5-18.5-18.5-1.93 0-3.5-1.57-3.5-3.5v-8c0-1.93 1.57-3.5 3.5-3.5 10.201 0 18.5-8.299 18.5-18.5 0-1.93 1.57-3.5 3.5-3.5h8c1.93 0 3.5 1.57 3.5 3.5z"/></g></g></svg>