<?xml version="1.0" encoding="iso-8859-1"?>
<!-- Generator: Adobe Illustrator 19.0.0, SVG Export Plug-In . SVG Version: 6.00 Build 0)  -->
<svg xmlns="http://www.w3.org/2000/svg" xmlns:xlink="http://www.w3.org/1999/xlink" version="1.1" id="Layer_1" x="0px" y="0px" viewBox="0 0 512 512" style="enable-background:new 0 0 512 512;" xml:space="preserve" width="512" height="512">
<g id="XMLID_1583_">
	<g id="XMLID_4967_">
		<path id="XMLID_4942_" style="fill:#FFDC13;" d="M443.451,18.809v421.874H68.549V18.809c0-6.246,5.063-11.309,11.309-11.309    h352.284C438.388,7.5,443.451,12.563,443.451,18.809z"/>
		<rect id="XMLID_4939_" x="406.666" y="26.648" style="fill:#FFA511;" width="36.785" height="414.034"/>
		<rect id="XMLID_4943_" x="68.549" y="26.648" style="fill:#FFA511;" width="36.785" height="414.034"/>
		<rect id="XMLID_4862_" x="68.549" y="246.349" style="fill:#FFA511;" width="374.902" height="194.334"/>
		<rect id="XMLID_4833_" x="68.549" y="259.45" style="fill:#0064DB;" width="374.902" height="181.233"/>
		<g id="XMLID_4820_">
			<g id="XMLID_2398_">
				<g id="XMLID_2403_">
					<path id="XMLID_2404_" style="fill:#0043C9;" d="M443.451,284.171v132.425c-6.601,4.979-14.794,7.921-23.683,7.921       c-21.758,0-39.465-17.707-39.465-39.466c0-14.935,8.345-27.966,20.62-34.668c-12.275-6.702-20.62-19.723-20.62-34.668       c0-21.758,17.707-39.466,39.465-39.466C428.656,276.25,436.85,279.193,443.451,284.171z"/>
				</g>
				<g id="XMLID_2400_">
					<path id="XMLID_2401_" style="fill:#0043C9;" d="M131.698,385.052c0,21.758-17.707,39.466-39.465,39.466       c-8.889,0-17.082-2.943-23.683-7.921V284.171c6.601-4.979,14.794-7.921,23.683-7.921c21.758,0,39.465,17.707,39.465,39.466       c0,14.945-8.345,27.966-20.62,34.668C123.353,357.085,131.698,370.117,131.698,385.052z"/>
				</g>
			</g>
		</g>
		<rect id="XMLID_4788_" x="406.666" y="259.45" style="fill:#0043C9;" width="36.785" height="181.233"/>
		<rect id="XMLID_4785_" x="68.549" y="259.45" style="fill:#0043C9;" width="36.785" height="181.233"/>
		<path id="XMLID_4871_" style="fill:#FFA511;" d="M443.451,18.809v66.292H68.549V18.809c0-6.246,5.063-11.309,11.309-11.309    h352.284C438.388,7.5,443.451,12.563,443.451,18.809z"/>
		<path id="XMLID_4790_" style="fill:#0064DB;" d="M443.451,18.809v53.19H68.549v-53.19c0-6.246,5.063-11.309,11.309-11.309h352.284    C438.388,7.5,443.451,12.563,443.451,18.809z"/>
		<path id="XMLID_4140_" style="fill:#0043C9;" d="M105.334,38.742v33.257H68.549V26.648H93.24    C99.922,26.648,105.334,32.06,105.334,38.742z"/>
		<path id="XMLID_4787_" style="fill:#0043C9;" d="M443.451,26.648v45.351h-36.785V38.742c0-6.682,5.412-12.094,12.094-12.094    H443.451z"/>
		<g id="XMLID_3999_">
			<path id="XMLID_3927_" style="fill:#E94141;" d="M335.616,347.465v122.448H176.384V347.465c0-9.826,4.454-18.604,11.459-24.419     c5.503-4.586,12.577-7.327,20.287-7.327h95.741c7.71,0,14.784,2.741,20.287,7.327     C331.162,328.861,335.616,337.639,335.616,347.465z"/>
			<path id="XMLID_3922_" style="fill:#C62525;" d="M304.294,387.163v18.251h2.6c6.682,0,12.094,5.412,12.094,12.094v52.406H193.013     v-52.406c0-6.682,5.412-12.094,12.094-12.094h2.6v-18.251c-2.056-2.137-3.799-4.616-5.079-7.387l-11.428-24.57     c-4.817-10.37-5.916-21.526-3.356-32.159c5.503-4.586,12.577-7.327,20.287-7.327h95.741c7.71,0,14.784,2.741,20.287,7.327     c2.56,10.632,1.461,21.789-3.356,32.159l-11.428,24.57C308.093,382.547,306.35,385.026,304.294,387.163z"/>
			<rect id="XMLID_3825_" x="220.811" y="371.653" style="fill:#304E75;" width="70.378" height="54.253"/>
			<rect id="XMLID_2104_" x="206.114" y="418.515" style="fill:#48709B;" width="99.772" height="67.523"/>
			<circle id="XMLID_2596_" style="fill:#E4EAF6;" cx="301.195" cy="488.449" r="16.051"/>
			<circle id="XMLID_3821_" style="fill:#E4EAF6;" cx="301.195" cy="456.348" r="16.051"/>
			<path id="XMLID_3520_" style="fill:#48709B;" d="M284.616,382.47h-57.232c-5.526,0-10.551-3.205-12.881-8.216l-11.425-24.575     c-13.502-29.041,13.731-59.826,52.922-59.826h0c39.191,0,66.424,30.785,52.922,59.826l-11.425,24.575     C295.167,379.265,290.142,382.47,284.616,382.47z"/>
			<path id="XMLID_3905_" style="fill:#629ACC;" d="M312.417,334.293c0,2.116-0.191,4.253-0.595,6.39     c-3.88-20.841-26.505-38.065-55.822-38.065s-51.942,17.223-55.822,38.065c-4.858-26.062,20.67-50.833,55.822-50.833     C288.26,289.85,312.417,310.711,312.417,334.293z"/>
			<rect id="XMLID_3521_" x="237.86" y="350.489" style="fill:#E94141;" width="36.281" height="42.328"/>
			<g id="XMLID_3557_">
				<g id="XMLID_3554_">
					<circle id="XMLID_3527_" style="fill:#FFDC13;" cx="330.767" cy="377.554" r="13.521"/>
				</g>
				<g id="XMLID_3718_">
					<circle id="XMLID_3720_" style="fill:#FFDC13;" cx="181.233" cy="377.554" r="13.521"/>
				</g>
			</g>
		</g>
		<g id="XMLID_4213_">
			<rect id="XMLID_4184_" x="419.767" y="39.75" style="fill:#E94141;" width="47.367" height="430.163"/>
		</g>
		<g id="XMLID_4215_">
			<rect id="XMLID_4217_" x="44.866" y="39.75" style="fill:#E94141;" width="47.367" height="430.163"/>
		</g>
		<path id="XMLID_4537_" style="fill:#00F0F5;" d="M386.298,115.818v97.797c0,9.725-7.881,17.616-17.616,17.616H143.318    c-9.735,0-17.616-7.891-17.616-17.616v-97.797c0-9.725,7.881-17.616,17.616-17.616h225.364c3.578,0,6.913,1.068,9.685,2.913    C383.154,104.259,386.298,109.671,386.298,115.818z"/>
		<polygon id="XMLID_4483_" style="fill:#6CFFFF;" points="342.127,98.202 209.097,231.232 158.334,231.232 291.354,98.202   "/>
		<path id="XMLID_4457_" style="fill:#6CFFFF;" d="M378.367,101.115L248.25,231.232h-20.549l133.02-133.03h7.962    C372.26,98.202,375.596,99.27,378.367,101.115z"/>
		<g id="XMLID_4739_">
			<g id="XMLID_4660_">
				<circle id="XMLID_4538_" style="fill:#E4EAF6;" cx="419.767" cy="315.72" r="26.364"/>
			</g>
			<g id="XMLID_4670_">
				<circle id="XMLID_4674_" style="fill:#E4EAF6;" cx="419.767" cy="385.053" r="26.364"/>
			</g>
		</g>
		<g id="XMLID_4758_">
			<g id="XMLID_4765_">
				<circle id="XMLID_4768_" style="fill:#E4EAF6;" cx="92.233" cy="315.72" r="26.364"/>
			</g>
			<g id="XMLID_4759_">
				<circle id="XMLID_4762_" style="fill:#E4EAF6;" cx="92.233" cy="385.053" r="26.364"/>
			</g>
		</g>
	</g>
	<g id="XMLID_1584_">
		<path id="XMLID_1675_" d="M467.134,275.411c4.143,0,7.5-3.358,7.5-7.5V39.75c0-4.142-3.357-7.5-7.5-7.5h-16.183V18.809    C450.951,8.438,442.514,0,432.143,0h-39.054c-4.143,0-7.5,3.358-7.5,7.5s3.357,7.5,7.5,7.5h39.054c2.1,0,3.809,1.708,3.809,3.809    V32.25h-16.184c-4.143,0-7.5,3.358-7.5,7.5v24.75H99.732V39.75c0-4.142-3.357-7.5-7.5-7.5H76.049V18.809    c0-2.1,1.709-3.809,3.809-3.809h279.054c4.143,0,7.5-3.358,7.5-7.5s-3.357-7.5-7.5-7.5H79.857    C69.486,0,61.049,8.438,61.049,18.809V32.25H44.866c-4.143,0-7.5,3.358-7.5,7.5v430.164c0,4.142,3.357,7.5,7.5,7.5h47.366    c4.143,0,7.5-3.358,7.5-7.5v-21.726h69.151v21.726c0,4.142,3.357,7.5,7.5,7.5h22.23v8.625c0,4.142,3.357,7.5,7.5,7.5h72.089    C280.537,504.085,289.956,512,301.194,512c12.986,0,23.551-10.565,23.551-23.551c0-3.986-0.999-7.742-2.754-11.036h13.625    c4.143,0,7.5-3.358,7.5-7.5v-21.726h69.151v21.726c0,4.142,3.357,7.5,7.5,7.5h47.366c4.143,0,7.5-3.358,7.5-7.5V302.089    c0-4.142-3.357-7.5-7.5-7.5s-7.5,3.358-7.5,7.5v160.324h-32.366v-44.344c15.074-3.423,26.364-16.922,26.364-33.016    s-11.29-29.593-26.364-33.016v-3.3c15.074-3.423,26.364-16.922,26.364-33.016s-11.29-29.593-26.364-33.016V47.25h32.366v220.662    C459.634,272.053,462.991,275.411,467.134,275.411z M412.268,79.499V251.95H99.732V79.499H412.268z M92.232,403.917    c-10.401,0-18.864-8.462-18.864-18.864s8.463-18.864,18.864-18.864s18.864,8.462,18.864,18.864S102.634,403.917,92.232,403.917z     M92.232,334.583c-10.401,0-18.864-8.462-18.864-18.864s8.463-18.864,18.864-18.864s18.864,8.462,18.864,18.864    S102.634,334.583,92.232,334.583z M52.366,462.413V47.25h32.366v235.454c-15.074,3.423-26.364,16.922-26.364,33.016    s11.29,29.593,26.364,33.016v3.3c-15.074,3.423-26.364,16.922-26.364,33.016s11.29,29.593,26.364,33.016v44.344H52.366z     M330.767,371.533c3.32,0,6.021,2.701,6.021,6.021c0,3.32-2.701,6.021-6.021,6.021s-6.021-2.701-6.021-6.021    C324.745,374.234,327.446,371.533,330.767,371.533z M328.116,356.719c-7.783,0.986-14.239,6.236-16.964,13.336h-3.432    l8.002-17.213c3.576-7.692,4.826-15.872,3.817-23.868c5.283,4.491,8.576,11.175,8.576,18.492V356.719z M292.644,456.348    c0-4.715,3.836-8.551,8.551-8.551s8.551,3.836,8.551,8.551s-3.836,8.551-8.551,8.551S292.644,461.063,292.644,456.348z     M228.311,411.015V389.97h2.049v2.846c0,4.142,3.357,7.5,7.5,7.5h36.281c4.143,0,7.5-3.358,7.5-7.5v-2.846h2.049v21.045H228.311z     M245.359,385.316v-27.328h21.281v27.328H245.359z M302.121,346.518l-11.425,24.574c-1.096,2.356-3.482,3.878-6.08,3.878h-2.976    v-24.481c0-4.142-3.357-7.5-7.5-7.5h-36.281c-4.143,0-7.5,3.358-7.5,7.5v24.481h-2.976c-2.598,0-4.984-1.522-6.08-3.878    l-11.425-24.575c-4.314-9.279-3.59-19.249,2.038-28.073c8.299-13.01,25.19-21.091,44.083-21.091s35.784,8.082,44.083,21.091    C305.711,327.268,306.436,337.238,302.121,346.518z M196.277,352.841l8.002,17.213h-3.432c-2.725-7.1-9.18-12.35-16.964-13.336    v-9.253c0-7.291,3.297-13.975,8.574-18.473C191.453,336.982,192.704,345.155,196.277,352.841z M181.233,383.575    c-3.32,0-6.021-2.701-6.021-6.021c0-3.32,2.701-6.021,6.021-6.021s6.021,2.701,6.021,6.021    C187.255,380.874,184.554,383.575,181.233,383.575z M183.884,462.413v-64.024c7.783-0.986,14.239-6.236,16.964-13.335h12.463    v25.961h-7.196c-4.143,0-7.5,3.358-7.5,7.5v43.898H183.884z M213.614,468.007h20.214c4.143,0,7.5-3.358,7.5-7.5    s-3.357-7.5-7.5-7.5h-20.214v-4.82h40.706c4.143,0,7.5-3.358,7.5-7.5s-3.357-7.5-7.5-7.5h-40.706v-7.172h84.771v6.955    c-11.666,1.393-20.742,11.342-20.742,23.377c0,6.198,2.411,11.841,6.339,16.051c-1.685,1.806-3.089,3.875-4.144,6.14h-66.224    V468.007z M301.194,497c-4.715,0-8.551-3.836-8.551-8.551s3.836-8.551,8.551-8.551s8.551,3.836,8.551,8.551    S305.909,497,301.194,497z M323.949,462.413c0.517-1.936,0.796-3.969,0.796-6.065c0-8.527-4.555-16.009-11.359-20.143v-17.69    c0-4.142-3.357-7.5-7.5-7.5h-7.196v-25.961h12.463c2.725,7.099,9.18,12.349,16.964,13.335v64.024H323.949z M343.116,433.187    v-38.659c5.244-3.826,8.672-10,8.672-16.974c0-6.974-3.428-13.148-8.672-16.974v-13.115c0-15.406-9.017-29.091-22.432-35.462    l6.741-6.742h21.628c4.143,0,7.5-3.358,7.5-7.5s-3.357-7.5-7.5-7.5h-24.734c-1.989,0-3.896,0.79-5.304,2.197l-11.308,11.308    c-11.904-13.367-30.968-21.413-51.708-21.413s-39.803,8.046-51.708,21.413l-11.308-11.308c-1.407-1.407-3.314-2.197-5.304-2.197    h-24.734c-4.143,0-7.5,3.358-7.5,7.5s3.357,7.5,7.5,7.5h21.628l6.746,6.747c-13.406,6.383-22.437,20.097-22.437,35.457v13.115    c-5.244,3.826-8.672,10-8.672,16.974c0,6.974,3.428,13.147,8.672,16.974v38.659H99.732v-15.118    c15.074-3.423,26.364-16.922,26.364-33.016s-11.29-29.593-26.364-33.016v-3.3c15.074-3.423,26.364-16.922,26.364-33.016    s-11.29-29.593-26.364-33.016V266.95h312.535v15.753c-15.074,3.423-26.364,16.922-26.364,33.016s11.29,29.593,26.364,33.016v3.3    c-15.074,3.423-26.364,16.922-26.364,33.016s11.29,29.593,26.364,33.016v15.118H343.116z M438.632,385.053    c0,10.401-8.463,18.864-18.864,18.864s-18.864-8.462-18.864-18.864s8.463-18.864,18.864-18.864S438.632,374.651,438.632,385.053z     M438.632,315.72c0,10.401-8.463,18.864-18.864,18.864s-18.864-8.462-18.864-18.864s8.463-18.864,18.864-18.864    S438.632,305.318,438.632,315.72z"/>
		<path id="XMLID_1707_" d="M450.951,109.624c0-4.142-3.357-7.5-7.5-7.5s-7.5,3.358-7.5,7.5v63.828c0,4.142,3.357,7.5,7.5,7.5    s7.5-3.358,7.5-7.5V109.624z"/>
		<path id="XMLID_1708_" d="M68.549,180.951c4.143,0,7.5-3.358,7.5-7.5v-63.828c0-4.142-3.357-7.5-7.5-7.5s-7.5,3.358-7.5,7.5    v63.828C61.049,177.593,64.406,180.951,68.549,180.951z"/>
		<path id="XMLID_1709_" d="M443.451,188.123c-4.143,0-7.5,3.358-7.5,7.5v15.453c0,4.142,3.357,7.5,7.5,7.5s7.5-3.358,7.5-7.5    v-15.453C450.951,191.48,447.594,188.123,443.451,188.123z"/>
		<path id="XMLID_1710_" d="M68.549,218.576c4.143,0,7.5-3.358,7.5-7.5v-15.453c0-4.142-3.357-7.5-7.5-7.5s-7.5,3.358-7.5,7.5    v15.453C61.049,215.218,64.406,218.576,68.549,218.576z"/>
		<path id="XMLID_1711_" d="M143.315,238.731h29.596c4.143,0,7.5-3.358,7.5-7.5s-3.357-7.5-7.5-7.5h-29.596    c-5.578,0-10.116-4.538-10.116-10.116v-97.798c0-5.578,4.538-10.116,10.116-10.116h225.37c5.577,0,10.115,4.538,10.115,10.116    v97.798c0,5.578-4.538,10.116-10.115,10.116H207.089c-4.143,0-7.5,3.358-7.5,7.5s3.357,7.5,7.5,7.5h161.597    c13.849,0,25.115-11.267,25.115-25.116v-97.798c0-13.849-11.267-25.116-25.115-25.116h-225.37    c-13.85,0-25.116,11.267-25.116,25.116v97.798C118.199,227.464,129.466,238.731,143.315,238.731z"/>
		<path id="XMLID_1712_" d="M412.757,307.809c-4.143,0-7.5,3.358-7.5,7.5v0.822c0,4.142,3.357,7.5,7.5,7.5s7.5-3.358,7.5-7.5v-0.822    C420.257,311.167,416.899,307.809,412.757,307.809z"/>
		<path id="XMLID_1713_" d="M412.757,377.142c-4.143,0-7.5,3.358-7.5,7.5v0.822c0,4.142,3.357,7.5,7.5,7.5s7.5-3.358,7.5-7.5v-0.822    C420.257,380.5,416.899,377.142,412.757,377.142z"/>
		<path id="XMLID_1714_" d="M106.743,315.309c0-4.142-3.357-7.5-7.5-7.5s-7.5,3.358-7.5,7.5v0.822c0,4.142,3.357,7.5,7.5,7.5    s7.5-3.358,7.5-7.5V315.309z"/>
		<path id="XMLID_1715_" d="M106.743,384.642c0-4.142-3.357-7.5-7.5-7.5s-7.5,3.358-7.5,7.5v0.822c0,4.142,3.357,7.5,7.5,7.5    s7.5-3.358,7.5-7.5V384.642z"/>
		<path id="XMLID_1716_" d="M169.784,32.25c-4.143,0-7.5,3.358-7.5,7.5s3.357,7.5,7.5,7.5h172.432c4.143,0,7.5-3.358,7.5-7.5    s-3.357-7.5-7.5-7.5H169.784z"/>
	</g>
</g>















</svg>
