<?xml version="1.0" encoding="iso-8859-1"?>
<!-- Generator: Adobe Illustrator 19.0.0, SVG Export Plug-In . SVG Version: 6.00 Build 0)  -->
<svg xmlns="http://www.w3.org/2000/svg" xmlns:xlink="http://www.w3.org/1999/xlink" version="1.1" id="Layer_1" x="0px" y="0px" viewBox="0 0 512 512" style="enable-background:new 0 0 512 512;" xml:space="preserve" width="512" height="512">
<g id="XMLID_1378_">
	<g id="XMLID_1379_">
		<g id="XMLID_1380_">
			<g id="XMLID_1381_">
				<path id="XMLID_1388_" style="fill:#E4EAF6;" d="M454.177,321.303c0-6.549-5.309-11.859-11.859-11.859      c-4.586,0-8.56,2.604-10.533,6.413c-1.936-3.916-5.97-6.61-10.634-6.61c-6.549,0-11.859,5.309-11.859,11.859      c0,11.621,22.358,26.86,22.358,26.86S454.177,332.727,454.177,321.303z"/>
			</g>
		</g>
		<g id="XMLID_1392_">
			<path id="XMLID_1393_" style="fill:#F288E8;" d="M496.182,144.335c0-18.834-15.268-34.102-34.102-34.102     c-13.187,0-24.617,7.49-30.291,18.442c-5.569-11.261-17.168-19.009-30.581-19.009c-18.834,0-34.102,15.268-34.102,34.102     c0,33.42,64.296,77.241,64.296,77.241S496.182,177.189,496.182,144.335z"/>
			<path id="XMLID_1401_" style="fill:#DD66D8;" d="M483.793,173.302c-18.8,24.985-52.388,47.708-52.388,47.708     s-33.018-22.507-51.73-47.56c14.238,11.406,32.31,18.23,51.966,18.23C451.385,191.679,469.526,184.806,483.793,173.302z"/>
			<path id="XMLID_1403_" style="fill:#F288E8;" d="M136.576,318.864c0-18.834-15.268-34.102-34.102-34.102     c-13.187,0-24.617,7.49-30.291,18.442c-5.569-11.261-17.168-19.009-30.581-19.009c-18.834,0-34.102,15.268-34.102,34.102     c0,33.42,64.296,77.241,64.296,77.241S136.576,351.717,136.576,318.864z"/>
			<path id="XMLID_1408_" style="fill:#DD66D8;" d="M124.194,347.822c-18.8,24.985-52.398,47.718-52.398,47.718     s-33.028-22.507-51.73-47.57c14.247,11.416,32.31,18.24,51.975,18.24C91.785,366.209,109.927,359.326,124.194,347.822z"/>
			<path id="XMLID_1409_" style="fill:#F288E8;" d="M316.379,318.864c0-18.834-15.268-34.102-34.102-34.102     c-13.187,0-24.617,7.49-30.291,18.442c-5.569-11.261-17.168-19.009-30.581-19.009c-18.834,0-34.102,15.268-34.102,34.102     c0,33.42,64.296,77.241,64.296,77.241S316.379,351.717,316.379,318.864z"/>
			<path id="XMLID_1418_" style="fill:#DD66D8;" d="M304.023,347.802c-18.81,24.995-52.428,47.737-52.428,47.737     s-33.038-22.517-51.749-47.59c14.238,11.426,32.32,18.259,51.995,18.259C271.595,366.209,289.756,359.316,304.023,347.802z"/>
			<path id="XMLID_1421_" style="fill:#F288E8;" d="M136.576,144.335c0-18.834-15.268-34.102-34.102-34.102     c-13.187,0-24.617,7.49-30.291,18.442c-5.569-11.261-17.168-19.009-30.581-19.009c-18.834,0-34.102,15.268-34.102,34.102     c0,33.42,64.296,77.241,64.296,77.241S136.576,177.189,136.576,144.335z"/>
			<path id="XMLID_1433_" style="fill:#DD66D8;" d="M124.184,173.302c-18.8,24.985-52.388,47.708-52.388,47.708     s-33.018-22.507-51.73-47.56c14.247,11.406,32.31,18.23,51.975,18.23C91.785,191.679,109.927,184.806,124.184,173.302z"/>
			<path id="XMLID_1435_" style="fill:#F288E8;" d="M316.379,144.335c0-18.834-15.268-34.102-34.102-34.102     c-13.187,0-24.617,7.49-30.291,18.442c-5.569-11.261-17.168-19.009-30.581-19.009c-18.834,0-34.102,15.268-34.102,34.102     c0,33.42,64.296,77.241,64.296,77.241S316.379,177.189,316.379,144.335z"/>
			<path id="XMLID_1446_" style="fill:#DD66D8;" d="M304.013,173.283c-18.81,24.995-52.418,47.728-52.418,47.728     s-33.038-22.517-51.739-47.58c14.238,11.426,32.32,18.249,51.985,18.249C271.595,191.679,289.746,184.797,304.013,173.283z"/>
		</g>
	</g>
	<g id="XMLID_1451_">
		<path id="XMLID_1452_" d="M442.318,301.944c-3.778,0-7.373,1.085-10.424,3.035c-3.111-2.075-6.82-3.232-10.744-3.232    c-10.674,0-19.358,8.684-19.358,19.358c0,7.068,4.428,14.672,13.538,23.249c5.951,5.603,11.848,9.64,12.096,9.809    c1.274,0.869,2.749,1.303,4.224,1.303c1.466,0,2.933-0.429,4.202-1.288c0.25-0.169,6.181-4.199,12.169-9.768    c9.189-8.546,13.656-16.104,13.656-23.107C461.677,310.628,452.993,301.944,442.318,301.944z M431.652,338.685    c-8.937-6.957-14.86-14.449-14.86-17.58c0-2.403,1.955-4.358,4.358-4.358c1.67,0,3.168,0.933,3.912,2.435    c1.253,2.534,3.825,4.148,6.652,4.175c0.024,0,0.047,0,0.071,0c2.8,0,5.37-1.561,6.659-4.05c0.755-1.458,2.239-2.363,3.874-2.363    c2.403,0,4.358,1.955,4.358,4.358C446.677,324.891,439.394,332.652,431.652,338.685z"/>
		<path id="XMLID_1460_" d="M424.234,256.802v20.947c0,4.142,3.358,7.5,7.5,7.5s7.5-3.358,7.5-7.5v-20.947    c0-4.142-3.358-7.5-7.5-7.5S424.234,252.66,424.234,256.802z"/>
		<path id="XMLID_1461_" d="M431.734,373.886c-4.142,0-7.5,3.358-7.5,7.5v20.948c0,4.142,3.358,7.5,7.5,7.5s7.5-3.358,7.5-7.5    v-20.948C439.234,377.244,435.876,373.886,431.734,373.886z"/>
		<path id="XMLID_1462_" d="M504.5,322.068h-20.948c-4.142,0-7.5,3.358-7.5,7.5s3.358,7.5,7.5,7.5H504.5c4.142,0,7.5-3.358,7.5-7.5    S508.642,322.068,504.5,322.068z"/>
		<path id="XMLID_1463_" d="M387.417,329.568c0-4.142-3.358-7.5-7.5-7.5h-20.948c-4.142,0-7.5,3.358-7.5,7.5s3.358,7.5,7.5,7.5    h20.948C384.059,337.068,387.417,333.71,387.417,329.568z"/>
		<path id="XMLID_1464_" d="M477.884,272.812l-14.812,14.812c-2.929,2.929-2.929,7.678,0,10.606    c1.464,1.464,3.384,2.197,5.303,2.197s3.839-0.732,5.303-2.197l14.812-14.812c2.929-2.929,2.929-7.678,0-10.606    C485.562,269.883,480.813,269.883,477.884,272.812z"/>
		<path id="XMLID_1465_" d="M389.79,360.905l-14.812,14.812c-2.929,2.929-2.929,7.678,0,10.606c1.464,1.464,3.384,2.197,5.303,2.197    s3.839-0.732,5.303-2.197l14.812-14.812c2.929-2.929,2.929-7.678,0-10.606C397.468,357.977,392.719,357.977,389.79,360.905z"/>
		<path id="XMLID_1467_" d="M473.679,360.905c-2.929-2.929-7.678-2.929-10.606,0c-2.929,2.929-2.929,7.678,0,10.606l14.812,14.812    c1.464,1.464,3.384,2.197,5.303,2.197c1.919,0,3.839-0.732,5.303-2.197c2.929-2.929,2.929-7.678,0-10.606L473.679,360.905z"/>
		<path id="XMLID_1468_" d="M374.978,272.812c-2.929,2.929-2.929,7.678,0,10.606l14.812,14.812c1.464,1.464,3.384,2.197,5.303,2.197    s3.839-0.732,5.303-2.197c2.929-2.929,2.929-7.678,0-10.606l-14.812-14.812C382.656,269.883,377.907,269.883,374.978,272.812z"/>
		<path id="XMLID_1469_" d="M394.113,200.383c16.316,15.36,32.389,26.364,33.065,26.824c1.274,0.869,2.749,1.303,4.224,1.303    c1.466,0,2.933-0.429,4.202-1.288c0.681-0.461,16.865-11.456,33.296-26.737c23.08-21.465,34.783-40.356,34.783-56.149    c0-22.939-18.663-41.602-41.602-41.602c-11.614,0-22.428,4.775-30.162,12.937c-7.75-8.516-18.769-13.503-30.71-13.503    c-22.939,0-41.602,18.663-41.602,41.602C359.606,159.778,371.216,178.826,394.113,200.383z M401.208,117.167    c10.192,0,19.334,5.684,23.859,14.834c1.253,2.534,3.825,4.148,6.652,4.175c2.83,0.044,5.429-1.539,6.73-4.05    c4.599-8.877,13.653-14.392,23.631-14.392c14.668,0,26.602,11.934,26.602,26.602c0,11.107-10.606,27.104-29.866,45.042    c-10.743,10.007-21.62,18.243-27.396,22.432c-5.734-4.196-16.513-12.437-27.159-22.476    c-19.123-18.032-29.655-34.214-29.655-45.566C374.606,129.1,386.54,117.167,401.208,117.167z"/>
		<path id="XMLID_1475_" d="M102.474,277.262c-11.615,0-22.428,4.774-30.162,12.937c-7.75-8.517-18.768-13.503-30.71-13.503    C18.663,276.695,0,295.358,0,318.297c0,11.074,5.589,23.683,16.611,37.477c2.585,3.235,7.305,3.762,10.541,1.177    c3.236-2.586,3.763-7.305,1.177-10.542C19.609,335.497,15,325.776,15,318.297c0-14.668,11.934-26.602,26.602-26.602    c10.192,0,19.333,5.684,23.858,14.833c1.253,2.534,3.825,4.148,6.652,4.175c2.841,0.069,5.429-1.539,6.729-4.049    c4.599-8.878,13.654-14.393,23.632-14.393c14.668,0,26.602,11.934,26.602,26.602c0,11.107-10.606,27.104-29.866,45.042    c-10.743,10.007-21.621,18.244-27.396,22.432c-4.539-3.32-12.234-9.172-20.505-16.43c-3.113-2.731-7.852-2.422-10.584,0.69    c-2.732,3.113-2.423,7.852,0.69,10.584c13.735,12.053,25.655,20.21,26.156,20.552c1.274,0.869,2.749,1.303,4.225,1.303    c1.466,0,2.933-0.429,4.202-1.288c0.681-0.461,16.865-11.456,33.296-26.737c23.08-21.465,34.782-40.356,34.782-56.149    C144.076,295.924,125.414,277.262,102.474,277.262z"/>
		<path id="XMLID_1478_" d="M282.277,277.262c-11.614,0-22.428,4.775-30.162,12.937c-7.75-8.516-18.768-13.503-30.71-13.503    c-22.939,0-41.602,18.663-41.602,41.602c0,16.01,11.61,35.057,34.507,56.614c16.316,15.36,32.389,26.364,33.065,26.824    c1.274,0.869,2.749,1.303,4.224,1.303c1.466,0,2.933-0.429,4.202-1.288c0.681-0.461,16.865-11.456,33.296-26.737    c23.08-21.465,34.782-40.356,34.782-56.149C323.879,295.924,305.217,277.262,282.277,277.262z M279.014,363.906    c-10.744,10.008-21.622,18.245-27.398,22.433c-5.702-4.17-16.396-12.345-27.023-22.35c-19.21-18.084-29.789-34.312-29.789-45.692    c0-14.668,11.934-26.602,26.602-26.602c10.192,0,19.333,5.684,23.858,14.833c1.253,2.534,3.825,4.148,6.652,4.175    c2.835,0.069,5.429-1.539,6.73-4.05c4.599-8.877,13.653-14.392,23.631-14.392c14.668,0,26.602,11.934,26.602,26.602    C308.879,329.971,298.273,345.967,279.014,363.906z"/>
		<path id="XMLID_1491_" d="M102.474,102.733c-11.615,0-22.428,4.774-30.162,12.937c-7.75-8.517-18.768-13.504-30.71-13.504    C18.663,102.167,0,120.829,0,143.769c0,9.594,4.193,20.356,12.463,31.986c2.4,3.376,7.083,4.165,10.458,1.766    c3.376-2.4,4.167-7.083,1.766-10.458C18.259,158.022,15,150.185,15,143.769c0-14.668,11.934-26.602,26.602-26.602    c10.192,0,19.333,5.684,23.858,14.834c1.253,2.534,3.826,4.148,6.653,4.175c2.784,0.044,5.429-1.539,6.729-4.05    c4.599-8.877,13.654-14.392,23.632-14.392c14.668,0,26.602,11.934,26.602,26.602c0,11.107-10.606,27.104-29.866,45.042    c-10.744,10.008-21.622,18.245-27.397,22.433c-5.361-3.922-15.135-11.383-25.114-20.574c-3.047-2.807-7.792-2.612-10.598,0.436    c-2.806,3.047-2.611,7.792,0.436,10.598c15.615,14.382,30.412,24.512,31.034,24.937c1.274,0.868,2.749,1.303,4.225,1.303    c1.466,0,2.933-0.429,4.202-1.288c0.681-0.461,16.865-11.456,33.296-26.737c23.08-21.465,34.782-40.356,34.782-56.149    C144.076,121.396,125.414,102.733,102.474,102.733z"/>
		<path id="XMLID_1494_" d="M282.277,102.733c-11.614,0-22.428,4.775-30.162,12.937c-7.75-8.517-18.768-13.503-30.71-13.503    c-22.939,0-41.602,18.663-41.602,41.602c0,10.269,4.809,21.871,14.292,34.482c2.489,3.31,7.191,3.977,10.501,1.487    c3.311-2.489,3.977-7.191,1.487-10.501c-7.379-9.814-11.28-18.621-11.28-25.467c0-14.668,11.934-26.602,26.602-26.602    c10.192,0,19.333,5.684,23.858,14.834c1.253,2.534,3.826,4.148,6.653,4.175c2.835,0.044,5.429-1.539,6.73-4.05    c4.599-8.877,13.653-14.392,23.631-14.392c14.668,0,26.602,11.934,26.602,26.602c0,11.107-10.606,27.104-29.866,45.042    c-10.744,10.008-21.622,18.245-27.397,22.433c-4.998-3.655-13.829-10.386-23.085-18.726c-3.078-2.773-7.82-2.525-10.592,0.551    c-2.773,3.078-2.526,7.82,0.551,10.592c14.819,13.352,28.317,22.591,28.885,22.978c1.274,0.869,2.749,1.303,4.225,1.303    c1.466,0,2.933-0.429,4.202-1.288c0.681-0.461,16.865-11.456,33.296-26.737c23.08-21.465,34.782-40.356,34.782-56.149    C323.879,121.396,305.217,102.733,282.277,102.733z"/>
	</g>
</g>















</svg>
