<?xml version="1.0" encoding="iso-8859-1"?>
<!-- Generator: Adobe Illustrator 19.0.0, SVG Export Plug-In . SVG Version: 6.00 Build 0)  -->
<svg xmlns="http://www.w3.org/2000/svg" xmlns:xlink="http://www.w3.org/1999/xlink" version="1.1" id="Layer_1" x="0px" y="0px" viewBox="0 0 512 512" style="enable-background:new 0 0 512 512;" xml:space="preserve" width="512" height="512">
<g id="XMLID_932_">
	<g id="XMLID_1431_">
		<g id="XMLID_4516_">
			<g id="XMLID_4528_">
				<rect id="XMLID_3342_" x="325.172" y="280.203" style="fill:#FFA511;" width="102.924" height="24.918"/>
				<rect id="XMLID_2955_" x="325.172" y="280.203" style="fill:#EB6B24;" width="15.279" height="24.918"/>
				<rect id="XMLID_2875_" x="411.953" y="280.203" style="fill:#EB6B24;" width="16.143" height="24.918"/>
			</g>
			<g id="XMLID_4522_">
				<rect id="XMLID_3341_" x="325.172" y="345.405" style="fill:#FFA511;" width="102.924" height="24.918"/>
				<rect id="XMLID_2979_" x="325.172" y="345.405" style="fill:#EB6B24;" width="15.279" height="24.918"/>
				<rect id="XMLID_2961_" x="411.953" y="345.405" style="fill:#EB6B24;" width="16.143" height="24.918"/>
			</g>
			<g id="XMLID_4517_">
				<rect id="XMLID_3339_" x="325.172" y="410.607" style="fill:#FFA511;" width="102.924" height="24.918"/>
				<rect id="XMLID_2995_" x="325.172" y="410.607" style="fill:#EB6B24;" width="15.279" height="24.918"/>
				<rect id="XMLID_2977_" x="411.953" y="410.607" style="fill:#EB6B24;" width="16.143" height="24.918"/>
			</g>
		</g>
		<g id="XMLID_4501_">
			<g id="XMLID_4498_">
				<rect id="XMLID_3267_" x="107.453" y="79.743" style="fill:#FFA511;" width="102.924" height="24.918"/>
				<rect id="XMLID_2957_" x="107.453" y="79.743" style="fill:#EB6B24;" width="15.706" height="24.918"/>
				<rect id="XMLID_2994_" x="194.661" y="79.743" style="fill:#EB6B24;" width="15.716" height="24.918"/>
			</g>
			<g id="XMLID_4505_">
				<rect id="XMLID_3264_" x="107.453" y="144.945" style="fill:#FFA511;" width="102.924" height="24.918"/>
				<rect id="XMLID_2976_" x="107.453" y="144.945" style="fill:#EB6B24;" width="15.706" height="24.918"/>
				<rect id="XMLID_2999_" x="194.661" y="144.945" style="fill:#EB6B24;" width="15.716" height="24.918"/>
			</g>
			<g id="XMLID_4510_">
				<rect id="XMLID_3260_" x="107.453" y="210.147" style="fill:#FFA511;" width="102.924" height="24.918"/>
				<rect id="XMLID_2982_" x="107.453" y="210.147" style="fill:#EB6B24;" width="15.706" height="24.918"/>
				<rect id="XMLID_3000_" x="194.661" y="210.147" style="fill:#EB6B24;" width="15.716" height="24.918"/>
			</g>
		</g>
		<g id="XMLID_4433_">
			<g id="XMLID_4444_">
				<rect id="XMLID_4446_" x="93.042" y="55.139" style="fill:#AFB9D2;" width="17.502" height="226.995"/>
				<rect id="XMLID_3001_" x="93.042" y="268.544" style="fill:#959CB3;" width="17.502" height="13.59"/>
			</g>
			<g id="XMLID_4435_">
				<rect id="XMLID_4437_" x="207.285" y="55.139" style="fill:#AFB9D2;" width="17.502" height="226.995"/>
				<rect id="XMLID_3567_" x="207.285" y="268.544" style="fill:#959CB3;" width="17.502" height="13.59"/>
			</g>
		</g>
		<g id="XMLID_4343_">
			<rect id="XMLID_3678_" x="7.5" y="79.743" style="fill:#E94141;" width="85.538" height="77.656"/>
			<rect id="XMLID_3645_" x="80.419" y="79.743" style="fill:#C62525;" width="12.619" height="77.656"/>
			<rect id="XMLID_3634_" x="7.5" y="118.571" style="fill:#F28383;" width="85.538" height="38.828"/>
			<rect id="XMLID_1722_" x="80.419" y="118.571" style="fill:#E94141;" width="12.619" height="38.828"/>
		</g>
		<g id="XMLID_4345_">
			<rect id="XMLID_3682_" x="224.792" y="79.743" style="fill:#E94141;" width="279.708" height="77.656"/>
			<rect id="XMLID_3646_" x="224.792" y="79.743" style="fill:#C62525;" width="12.619" height="77.656"/>
			<rect id="XMLID_2768_" x="404.518" y="79.743" style="fill:#F28383;" width="68.92" height="38.83"/>
			<rect id="XMLID_2770_" x="266.678" y="79.743" style="fill:#C62525;" width="68.92" height="38.83"/>
			<rect id="XMLID_2767_" x="300.167" y="118.572" style="fill:#F28383;" width="68.92" height="38.83"/>
		</g>
		<g id="XMLID_4348_">
			<rect id="XMLID_3674_" x="7.5" y="280.203" style="fill:#E94141;" width="302.83" height="77.656"/>
			<rect id="XMLID_3644_" x="297.711" y="280.203" style="fill:#C62525;" width="12.619" height="77.656"/>
			<rect id="XMLID_1785_" x="65.641" y="280.201" style="fill:#F28383;" width="68.92" height="38.83"/>
			<rect id="XMLID_2007_" x="203.481" y="280.201" style="fill:#C62525;" width="68.92" height="38.83"/>
			<rect id="XMLID_2009_" x="170.714" y="319.031" style="fill:#F28383;" width="68.92" height="38.83"/>
			<rect id="XMLID_2528_" x="32.874" y="319.031" style="fill:#C62525;" width="68.92" height="38.83"/>
		</g>
		<g id="XMLID_4351_">
			<rect id="XMLID_3607_" x="442.074" y="280.203" style="fill:#E94141;" width="62.426" height="77.656"/>
			<rect id="XMLID_3580_" x="442.074" y="280.203" style="fill:#C62525;" width="12.619" height="77.656"/>
			<rect id="XMLID_3609_" x="442.074" y="319.031" style="fill:#F28383;" width="62.426" height="38.828"/>
			<rect id="XMLID_3603_" x="442.074" y="319.031" style="fill:#E94141;" width="12.619" height="38.828"/>
		</g>
		<g id="XMLID_4402_">
			<g id="XMLID_4398_">
				<rect id="XMLID_4359_" x="310.33" y="258.352" style="fill:#AFB9D2;" width="17.502" height="198.509"/>
			</g>
			<g id="XMLID_4417_">
				<rect id="XMLID_4422_" x="424.572" y="258.352" style="fill:#AFB9D2;" width="17.502" height="198.509"/>
			</g>
		</g>
	</g>
	<path id="XMLID_933_" d="M281.089,149.902c-4.143,0-7.5,3.357-7.5,7.5s3.357,7.5,7.5,7.5H504.5c4.143,0,7.5-3.357,7.5-7.5v-77.66   c0-4.143-3.357-7.5-7.5-7.5H386.089c-4.143,0-7.5,3.357-7.5,7.5s3.357,7.5,7.5,7.5h10.929v23.83h-53.92v-23.83h8.813   c4.143,0,7.5-3.357,7.5-7.5s-3.357-7.5-7.5-7.5H232.287V55.14c0-4.143-3.358-7.5-7.5-7.5h-17.502c-4.142,0-7.5,3.357-7.5,7.5   v17.103h-81.74V55.14c0-4.143-3.358-7.5-7.5-7.5H93.042c-4.142,0-7.5,3.357-7.5,7.5v17.103H7.5c-4.142,0-7.5,3.357-7.5,7.5v77.66   c0,4.143,3.358,7.5,7.5,7.5h78.042v107.799H7.5c-4.142,0-7.5,3.357-7.5,7.5v77.659c0,4.143,3.358,7.5,7.5,7.5h180.411   c4.142,0,7.5-3.357,7.5-7.5s-3.358-7.5-7.5-7.5h-9.698v-23.83h53.92v23.83h-10.044c-4.142,0-7.5,3.357-7.5,7.5s3.358,7.5,7.5,7.5   h80.741v91.5c0,4.143,3.357,7.5,7.5,7.5h17.502c4.143,0,7.5-3.357,7.5-7.5V443.02h81.74v13.841c0,4.143,3.357,7.5,7.5,7.5h17.502   c4.143,0,7.5-3.357,7.5-7.5v-91.5H504.5c4.143,0,7.5-3.357,7.5-7.5v-77.659c0-4.143-3.357-7.5-7.5-7.5h-54.926v-14.35   c0-4.143-3.357-7.5-7.5-7.5h-17.502c-4.143,0-7.5,3.357-7.5,7.5v14.35h-81.74v-14.35c0-4.143-3.357-7.5-7.5-7.5H310.33   c-4.143,0-7.5,3.357-7.5,7.5v14.35h-70.543V164.902h14.624c4.142,0,7.5-3.357,7.5-7.5s-3.358-7.5-7.5-7.5h-14.624v-23.83h60.38   v23.83H281.089z M430.507,126.072v23.83h-53.92v-23.83H430.507z M445.507,149.902v-23.83H497v23.83H445.507z M497,111.072h-16.063   v-23.83H497V111.072z M412.018,87.242h53.92v23.83h-53.92V87.242z M328.098,111.072h-53.92v-23.83h53.92V111.072z M264.9,287.701   v23.829h-53.92v-23.829H264.9z M142.061,311.53v-23.829h53.92v23.829H142.061z M73.141,311.53v-23.829h53.92v23.829H73.141z    M94.293,326.53v23.83h-53.92v-23.83H94.293z M199.785,202.646h-81.74v-25.287h81.74V202.646z M199.785,162.359h-81.74v-9.915   h81.74V162.359z M118.045,217.646h81.74v9.915h-81.74V217.646z M199.785,137.444h-81.74v-25.287h81.74V137.444z M118.045,242.562   h81.74v30.14h-81.74V242.562z M199.785,87.242v9.915h-81.74v-9.915H199.785z M85.542,111.072H61.594v-23.83h23.949V111.072z    M46.594,87.242v23.83H15v-23.83H46.594z M15,149.902v-23.83h70.542v23.83H15z M100.542,157.402v-77.66V62.64h2.502v210.062h-2.502   V157.402z M58.141,287.701v23.829H15v-23.829H58.141z M15,326.53h10.374v23.83H15V326.53z M163.213,350.36h-53.92v-23.83h53.92   V350.36z M247.133,350.36v-23.83h55.697v23.83H247.133z M417.072,362.817h-81.74v-9.914h81.74V362.817z M335.332,377.817h81.74   v25.288h-81.74V377.817z M417.072,337.903h-81.74v-25.288h81.74V337.903z M335.332,428.02v-9.914h81.74v9.914H335.332z    M449.574,350.36v-23.83H497v23.83H449.574z M497,287.701v23.829h-47.426v-23.829H497z M432.072,265.852h2.502v14.35v77.659v91.5   h-2.502V265.852z M417.072,287.701v9.914h-81.74v-9.914H417.072z M317.83,265.852h2.502V449.36h-2.502v-91.5v-77.659V265.852z    M302.83,311.53H279.9v-23.829h22.93V311.53z M214.785,272.701V62.64h2.502v17.103v77.66v115.299H214.785z M232.287,87.242h26.891   v23.83h-26.891V87.242z M307.667,126.072h53.92v23.83h-53.92V126.072z"/>
</g>















</svg>
