<svg width="64" height="65" viewBox="0 0 64 65" fill="none" xmlns="http://www.w3.org/2000/svg">
<g clip-path="url(#clip0_34_920)">
<path d="M56.25 20.5976V24.6317C56.25 30.3469 53.8914 35.6446 49.9656 39.4377C48.5092 40.845 47.6941 42.7884 47.6941 44.8136V59.9095C43.0571 62.5241 37.7027 64.0159 32 64.0159C29.3809 64.0159 26.8352 63.7012 24.3989 63.1076V51.6097C24.3989 50.7616 23.5722 50.1597 22.7651 50.4201L22.6636 50.4529C17.7736 52.0302 12.8481 48.1379 13.2525 43.0157L13.8762 35.1142C13.9336 34.3874 13.3592 33.7659 12.6301 33.7659H10.7725C9.84323 33.7659 9.23886 32.788 9.65448 31.9569L14.3104 22.6451C14.742 21.7819 15.003 20.8434 15.0789 19.8812L15.1502 18.9779C15.9954 8.27237 24.9294 0.0158691 35.6682 0.0158691C47.0352 0.0158691 56.25 9.23062 56.25 20.5976Z" fill="#FED2A4"/>
<path d="M29.2147 49.0634V63.8964C27.5707 63.7546 25.9624 63.4886 24.3989 63.1077V51.6099C24.3989 50.7618 23.5722 50.1599 22.7651 50.4202L22.6636 50.453C17.7736 52.0304 12.8481 48.138 13.2525 43.0159L13.8762 35.1144C13.9336 34.3875 13.3592 33.766 12.6301 33.766H10.7725C9.84323 33.766 9.23886 32.7881 9.65448 31.957L14.3104 22.6452C14.742 21.782 15.003 20.8435 15.0789 19.8814L15.1502 18.978C15.7989 10.7612 21.2125 3.98749 28.5497 1.28187C23.7477 4.70337 20.4624 10.1451 19.9661 16.4314L19.8947 17.3347C19.8187 18.2969 19.5579 19.2354 19.1262 20.0986L14.4704 29.4104C14.0549 30.2415 14.6591 31.2194 15.5884 31.2194H17.446C18.1751 31.2194 18.7495 31.8409 18.6921 32.5677L18.0684 40.4693C17.664 45.5914 22.5895 49.4839 27.4795 47.9064L27.581 47.8736C28.3881 47.6134 29.2147 48.2153 29.2147 49.0634V49.0634Z" fill="#FFBD86"/>
<path d="M51.8017 22.0075C51.8596 22.2609 51.8902 22.5247 51.8902 22.7956C51.8902 24.743 50.3115 26.3217 48.3641 26.3217H31.4429C29.4955 26.3217 27.9167 24.743 27.9167 22.7956C27.9167 22.6632 27.9241 22.5325 27.9384 22.4039H25.7284C23.781 22.4039 22.2022 20.8251 22.2022 18.8777C22.2022 17.5166 22.9734 16.3357 24.1026 15.748C24.0447 15.4946 24.0141 15.2307 24.0141 14.9599C24.0141 13.1126 25.4346 11.5972 27.2427 11.4462C27.2276 11.3136 27.2199 11.1787 27.2199 11.042C27.2199 9.09462 28.7986 7.51587 30.746 7.51587H43.904C45.8514 7.51587 47.4301 9.09462 47.4301 11.042C47.4301 11.1744 47.4227 11.3051 47.4085 11.4337H48.3641C50.3115 11.4337 51.8902 13.0125 51.8902 14.9599C51.8902 15.2309 51.8596 15.4946 51.8017 15.748C52.931 16.3357 53.7021 17.5166 53.7021 18.8777C53.7021 20.2389 52.931 21.4197 51.8017 22.0075V22.0075Z" fill="#FFA78F"/>
<path d="M35.6392 26.3219H31.4427C29.4954 26.3219 27.9166 24.7431 27.9166 22.7957C27.9166 22.6634 27.924 22.5326 27.9382 22.404H25.7282C23.7809 22.404 22.2021 20.8252 22.2021 18.8779C22.2021 17.5167 22.9732 16.3359 24.1025 15.7481C24.0446 15.4947 24.014 15.2309 24.014 14.96C24.014 13.1127 25.4345 11.5974 27.2426 11.4464C27.2275 11.3137 27.2197 11.1789 27.2197 11.0421C27.2197 9.09474 28.7985 7.51599 30.7459 7.51599H34.9424C32.995 7.51599 31.4162 9.09474 31.4162 11.0421C31.4162 11.1789 31.424 11.3137 31.4391 11.4464C29.6309 11.5974 28.2105 13.1127 28.2105 14.96C28.2105 15.231 28.2411 15.4947 28.299 15.7481C27.1697 16.3359 26.3986 17.5167 26.3986 18.8779C26.3986 20.8252 27.9774 22.404 29.9247 22.404H32.1347C32.1205 22.5326 32.1131 22.6634 32.1131 22.7957C32.1131 24.7431 33.6919 26.3219 35.6392 26.3219V26.3219Z" fill="#F89580"/>
<path d="M42.732 25.1465C42.732 27.0939 41.1532 28.6726 39.2058 28.6726H37.8557C37.2848 31.1885 35.3688 33.1935 32.9038 33.8915C32.2976 34.0631 31.6976 33.5954 31.6976 32.9652V28.0999H30.379C28.1941 28.0999 26.423 26.3287 26.423 24.1439C26.423 23.5077 26.5731 22.9069 26.8398 22.3744C27.3112 22.0032 27.8795 21.7497 28.5005 21.6582C28.7586 21.6201 29.0208 21.6205 29.281 21.6402C32.3291 21.872 35.39 21.8829 38.4397 21.6731L38.9682 21.6367C39.2063 21.6204 39.446 21.6204 39.6825 21.6522C41.4043 21.8849 42.732 23.3606 42.732 25.1465V25.1465Z" fill="#EC806B"/>
<path d="M33.1299 33.8232C32.4515 34.0404 31.7286 34.1576 30.9782 34.1576H30.1946V28.6725H29.0192C27.0719 28.6725 25.4931 27.0937 25.4931 25.1464C25.4931 23.763 26.2897 22.5656 27.4494 21.9881C27.3799 22.2964 27.3432 22.617 27.3432 22.9461C27.3432 25.343 29.2864 27.2861 31.6832 27.2861C32.4822 27.2861 33.1299 27.9339 33.1299 28.7327V33.8232Z" fill="#C6715A"/>
<path d="M36.6144 11.3279C36.6144 12.6497 36.1245 13.8594 35.3169 14.7849C35.2941 14.8139 35.2694 14.8417 35.2426 14.8685C35.2419 14.8692 35.2411 14.8699 35.2404 14.8706C34.2769 15.9276 32.8897 16.5919 31.3502 16.5919H31.1901V19.0821C31.1901 19.5999 30.7704 20.0196 30.2526 20.0196C29.7349 20.0196 29.3151 19.5999 29.3151 19.0821V16.5919H27.1566C26.6389 16.5919 26.2191 16.1721 26.2191 15.6544C26.2191 15.1366 26.6389 14.7169 27.1566 14.7169H31.3502C32.036 14.7169 32.6749 14.5121 33.2089 14.1606L30.7534 11.705C30.3872 11.3389 30.3872 10.7452 30.7534 10.3792C31.1195 10.0131 31.7131 10.013 32.0791 10.3792L34.4337 12.7339C34.6299 12.3054 34.7394 11.8292 34.7394 11.328C34.7394 10.8102 35.1591 10.3905 35.6769 10.3905C36.1946 10.3905 36.6144 10.8101 36.6144 11.3279V11.3279ZM50.2947 18.3741C49.9286 18.0079 49.335 18.008 48.969 18.3741C48.3289 19.0142 47.4779 19.3667 46.5726 19.3667C45.6674 19.3667 44.8164 19.0142 44.1762 18.3741L41.9154 16.1132C42.4 15.8456 42.9567 15.6931 43.5485 15.6931H47.7422C48.26 15.6931 48.6797 15.2734 48.6797 14.7556C48.6797 14.2379 48.26 13.8181 47.7422 13.8181H44.486V10.5784C44.486 10.0606 44.0662 9.64087 43.5485 9.64087C43.0307 9.64087 42.611 10.0606 42.611 10.5784V13.9017C41.8586 14.0375 41.1612 14.3337 40.5559 14.7536L39.5214 13.7191C39.1552 13.353 38.5616 13.353 38.1956 13.7191C37.8295 14.0852 37.8295 14.6789 38.1956 15.0449L39.2284 16.0776C38.6337 16.9301 38.2846 17.966 38.2846 19.082C38.2846 19.5997 38.7044 20.0195 39.2221 20.0195C39.7399 20.0195 40.1596 19.5997 40.1596 19.082C40.1596 18.4851 40.3147 17.9237 40.5869 17.4361L42.8506 19.6999C43.8449 20.6941 45.1667 21.2416 46.5729 21.2416C47.979 21.2416 49.3009 20.6941 50.295 19.6999C50.6609 19.3337 50.6609 18.7402 50.2947 18.3741V18.3741Z" fill="#EC806B"/>
</g>
<defs>
<clipPath id="clip0_34_920">
<rect width="64" height="64" fill="white" transform="translate(0 0.0158691)"/>
</clipPath>
</defs>
</svg>
