<svg width="64" height="58" viewBox="0 0 64 58" fill="none" xmlns="http://www.w3.org/2000/svg">
<g clip-path="url(#clip0_66_2)">
<path d="M3.67481 34.7373C-9.41015 11.0186 15.3882 -5.95118 31.9995 11.6353C54.1255 -11.7886 90.7759 26.0913 33.0864 59.5723C32.4082 59.9654 31.5913 59.9654 30.9131 59.5723C30.3618 59.253 29.8198 58.9327 29.2866 58.6119L19.0796 44.8399L3.67481 34.7373Z" fill="#80C0E4"/>
<path d="M31.0444 59.6426C31.2222 59.73 31.4116 59.7935 31.606 59.8296C31.7481 59.856 31.8916 59.8682 32.0352 59.8662C30.8384 59.1299 29.6856 58.3921 28.5762 57.6533L29.2866 58.6118C29.5532 58.7725 29.8218 58.9326 30.0933 59.0928C30.3643 59.2529 31 59.6206 31.0444 59.6426V59.6426Z" fill="#5BA0D3"/>
<path d="M47.0703 41.3008C44.9571 43.4204 36.8135 51.3247 29.2866 58.6118C15.8892 50.5689 7.85108 42.3091 3.6748 34.7373C10.1226 28.1904 19.4238 18.7681 22.0986 16.1396C24.4136 13.8413 27.8701 13.5684 29.8159 15.5293C30.6655 16.3872 31.0879 17.5293 31.0982 18.7358C31.2363 18.5708 31.3818 18.4102 31.5376 18.2568C33.854 15.958 37.3076 15.6851 39.2549 17.645C40.6904 19.0928 40.9019 21.3525 39.9839 23.3613C41.999 22.4585 44.2578 22.6865 45.6948 24.1338C47.6406 26.0952 47.3404 29.5479 45.0249 31.8462C44.8682 32.001 44.7085 32.145 44.542 32.2813C45.749 32.3008 46.8887 32.7319 47.7398 33.5898C49.6856 35.5513 49.3853 39.0034 47.0703 41.3008V41.3008Z" fill="#323031"/>
<path d="M24.396 6.08154C20.4468 4.29638 15.9131 3.82763 11.7446 5.12109C8.76316 6.0459 6.04245 7.83496 4.02292 10.2417C0.573213 14.3501 -0.54544 19.9658 0.271455 25.19C0.278779 25.2373 0.28708 25.2852 0.294893 25.3325C0.831514 28.6372 2.06198 31.8135 3.67478 34.7373L8.08835 37.6319C7.89792 37.3096 7.71433 36.9888 7.53806 36.669C-3.35355 16.9258 12.0019 1.86035 27.0361 7.50635C26.1899 6.97217 25.3076 6.49365 24.396 6.08154V6.08154Z" fill="#5BA0D3"/>
<path d="M35.8984 20.6235C34.917 19.6348 33.0542 19.8926 31.7378 21.1992C30.4214 22.5059 30.1494 24.3662 31.1304 25.355C32.1118 26.3437 33.9746 26.0864 35.291 24.7798C36.6079 23.4731 36.8799 21.6123 35.8984 20.6235Z" fill="#E1738C"/>
<path d="M27.3687 18.9268C26.3877 17.938 24.5249 18.1953 23.208 19.5019C21.8916 20.8086 21.6196 22.6694 22.6006 23.6582C23.582 24.647 25.4448 24.3892 26.7612 23.0825C28.0781 21.7759 28.3501 19.9155 27.3687 18.9268Z" fill="#E1738C"/>
<path d="M42.3384 27.1123C41.3569 26.1235 39.4941 26.3813 38.1777 27.688C36.8608 28.9946 36.5889 30.8555 37.5703 31.8442C38.5513 32.833 40.4141 32.5752 41.731 31.2685C43.0474 29.9619 43.3193 28.1011 42.3384 27.1123V27.1123Z" fill="#E1738C"/>
<path d="M44.3506 36.0459C43.3692 35.0571 41.5064 35.3149 40.19 36.6216C38.8731 37.9282 38.6016 39.7891 39.5825 40.7778C40.564 41.7666 42.4268 41.5088 43.7432 40.2021C45.0601 38.8955 45.332 37.0347 44.3506 36.0459V36.0459Z" fill="#E1738C"/>
<path d="M34.9243 38.1973C32.5947 35.8501 35.0132 33.6826 32.3218 30.9707C29.6304 28.2593 27.4448 30.6611 25.1152 28.314C23.3013 26.4858 18.2251 27.458 17.1103 31.8755C15.9956 36.293 20.5791 37.0874 23.3476 39.8775C26.1162 42.667 26.8765 47.2564 31.3022 46.1753C35.728 45.0943 36.7383 40.0254 34.9243 38.1973Z" fill="#E1738C"/>
<path d="M29.5889 58.3193C18.3071 50.9868 11.3301 43.5444 7.53809 36.6689C6.79688 35.3257 6.17871 34.0044 5.67236 32.71C4.98438 33.4077 4.31543 34.0869 3.6748 34.7373C5.17578 37.4585 7.17529 40.2686 9.74316 43.125C9.96631 43.3735 10.1938 43.6226 10.4258 43.8716C11.7012 45.2412 13.1084 46.6211 14.6543 48.0064C14.7949 48.1323 14.9365 48.2583 15.0791 48.3843C17.936 50.9048 21.2549 53.4409 25.0806 55.9658C25.272 56.0923 25.4644 56.2183 25.6582 56.3447C26.8213 57.1016 28.0303 57.8574 29.2866 58.6118C29.3872 58.5142 29.4878 58.417 29.5889 58.3193V58.3193Z" fill="#323031" style="mix-blend-mode:darken"/>
</g>
<defs>
<clipPath id="clip0_66_2">
<rect width="64" height="64" fill="white"/>
</clipPath>
</defs>
</svg>
