<svg id="Capa_1" enable-background="new 0 0 512 512" height="512" viewBox="0 0 512 512" width="512" xmlns="http://www.w3.org/2000/svg"><path d="m512 256c0 73.94-31.35 140.57-81.49 187.31-45.73 42.61-107.07 68.69-174.51 68.69s-128.78-26.08-174.51-68.69c-50.14-46.74-81.49-113.37-81.49-187.31 0-141.38 114.62-256 256-256s256 114.62 256 256z" fill="#da4a54"/><path d="m430.51 443.31c-45.73 42.61-107.07 68.69-174.51 68.69-38.31 0-74.65-8.41-107.28-23.5-24.81-11.46-47.47-26.78-67.23-45.19l12.38-103.39h324.26z" fill="#595454"/><path d="m148.72 488.5c-24.81-11.46-47.47-26.78-67.23-45.19l12.38-103.39h59.67c-3.42 33.89-8.3 95.92-4.82 148.58z" fill="#454045"/><path d="m512 172.26c0 63.91-93.87 167.66-93.87 167.66l-.48.22c-84 38.52-178.33 45.51-266.07 20.97-19.63-5.48-38.93-12.55-57.71-21.19 0 0-23.47-25.94-46.93-59.86-23.47-33.93-46.94-75.84-46.94-107.8z" fill="#90d8f9"/><path d="m151.58 361.11c-19.63-5.48-38.93-12.55-57.71-21.19 0 0-23.47-25.94-46.93-59.86-23.47-33.93-46.94-75.84-46.94-107.8h58.58l69.88 50.6s1.01 87.61 23.12 138.25z" fill="#6bbef6"/><path d="m512 172.26c0 26.21-36.81 49.61-94.45 64.96-44.06 11.74-100.29 18.78-161.55 18.78-7.59 0-15.11-.11-22.53-.32-22.95-.65-45.03-2.3-65.84-4.81-26.79-3.22-51.46-7.86-73.18-13.65-57.64-15.35-94.45-38.75-94.45-64.96 0-28.88 44.69-54.34 112.68-69.4 24.64-5.45 52.34-9.54 82.09-11.92 12.56-1.02 25.48-1.72 38.7-2.09 7.42-.22 14.94-.33 22.53-.33 53.1 0 102.43 5.29 143.32 14.34 67.99 15.06 112.68 40.52 112.68 69.4z" fill="#efe7e4"/><path d="m233.47 88.85v166.83c-22.95-.65-45.03-2.3-65.84-4.81-26.79-3.22-51.46-7.86-73.18-13.65-57.64-15.35-94.45-38.75-94.45-64.96 0-28.88 44.69-54.34 112.68-69.4 24.64-5.45 52.34-9.54 82.09-11.92 12.56-1.02 25.48-1.72 38.7-2.09z" fill="#e0d8d5"/><path d="m417.55 237.22c-44.06 11.74-100.29 18.78-161.55 18.78s-117.49-7.04-161.55-18.78l5.41-39.86 12.82-94.5.63-4.62s3.34-23.67 10.16-46.48c6.33-21.19 15.67-41.65 28.12-41.65 0 0 8.98 3.08 19.03 10.93 8.53 6.64 17.84 16.72 23.12 31.22 0 0 7.52-5.33 21.31-9.88 10.11-3.36 23.61-6.29 39.99-6.4.32-.01.64-.01.96-.01 39.27 0 62.25 16.29 62.25 16.29 5.28-14.5 14.59-24.58 23.12-31.22 10.06-7.85 19.04-10.93 19.04-10.93 12.45 0 21.79 20.46 28.12 41.65 6.82 22.81 10.16 46.48 10.16 46.48l.63 4.62z" fill="#595454"/><path d="m255.04 35.98c-23.59.55-44.89 21.18-60.27 54.96-11.05 24.27-19.05 55.33-22.64 90.61-2.24 21.95-3.32 45.77-4.5 69.32-26.79-3.22-51.46-7.86-73.18-13.65l5.41-39.86 12.82-94.5.63-4.62s3.34-23.67 10.16-46.48c6.33-21.19 15.67-41.65 28.12-41.65 0 0 8.98 3.08 19.03 10.93 8.53 6.64 17.84 16.72 23.12 31.22 0 0 7.52-5.33 21.31-9.88 10.11-3.36 23.61-6.29 39.99-6.4z" fill="#454045"/><circle cx="180.15" cy="115.511" fill="#fff" r="32.092"/><circle cx="180.15" cy="115.511" fill="#211f21" r="19.884"/><circle cx="331.85" cy="115.511" fill="#fff" r="32.092"/><g fill="#211f21"><circle cx="331.85" cy="115.511" r="19.884"/><path d="m234.04 150.113c1.257 3.812 4.972 6.517 9.26 6.23 4.827-.323 8.47-4.555 8.47-9.393v-24.195c0-1.881 1.276-3.589 3.12-3.962 2.536-.512 4.764 1.413 4.764 3.858v24.169c0 9.495-7.769 17.581-17.263 17.423-7.483-.125-13.803-5.116-15.926-11.938-.778-2.502 1.147-5.035 3.767-5.035h.038c1.75.002 3.222 1.181 3.77 2.843z"/><path d="m284.959 152.307c-2.123 6.823-8.443 11.813-15.926 11.938-9.494.158-17.263-7.928-17.263-17.423v-24.067c0-1.881 1.276-3.589 3.12-3.962 2.536-.512 4.764 1.413 4.764 3.858v24.299c0 4.838 3.643 9.069 8.47 9.392 4.288.287 8.003-2.418 9.26-6.23.548-1.662 2.02-2.841 3.77-2.841h.038c2.62.001 4.546 2.534 3.767 5.036z"/><path d="m152.358 73.261c6.496-2.828 10.319-9.727 9.074-16.702-2.196-12.305-11.589-27.362-19.077-26.739-10.854.904-21.423 47.987-8.855 47.987 6.858 0 13.887-2.382 18.858-4.546z"/></g><path d="m359.642 73.261c-6.496-2.828-10.319-9.727-9.074-16.702 2.196-12.305 11.589-27.362 19.077-26.739 10.854.904 21.423 47.987 8.855 47.987-6.858 0-13.887-2.382-18.858-4.546z" fill="#454045"/><path d="m267.551 136.97 10.775-18.663c5.134-8.892-1.283-20.008-11.551-20.008h-21.55c-10.268 0-16.685 11.115-11.551 20.008l10.775 18.663c5.134 8.893 17.968 8.893 23.102 0z" fill="#211f21"/><path d="m421.82 349.23c-52.36 24.01-109.03 36.18-165.89 36.18-35.32 0-70.71-4.69-105.19-14.16 0 0-.01 0-.01-.01-.61-.16-1.23-.33-1.84-.5-20.17-5.63-40.09-12.94-59.2-21.74-5.02-2.3-7.21-8.24-4.9-13.26 2.3-5.021 8.24-7.21 13.26-4.9 15.86 7.3 32.3 13.52 48.99 18.54 2.4.72 4.81 1.42 7.23 2.1 85.99 24.05 178.04 16.79 259.21-20.43 5.02-2.3 10.96-.1 13.26 4.92s.1 10.96-4.92 13.26z" fill="#efe7e4"/><path d="m150.73 371.24c-.61-.16-1.23-.33-1.84-.5-20.17-5.63-40.09-12.94-59.2-21.74-5.02-2.3-7.21-8.24-4.9-13.26 2.3-5.021 8.24-7.21 13.26-4.9 15.86 7.3 32.3 13.52 48.99 18.54-9.75 13.96 3 21.47 3.69 21.86z" fill="#e0d8d5"/></svg>