<svg id="Capa_1" enable-background="new 0 0 512 512" height="512" viewBox="0 0 512 512" width="512" xmlns="http://www.w3.org/2000/svg"><path d="m512 256c0 60.2-20.79 115.56-55.57 159.27-17.38 21.84-38.25 40.77-61.77 55.95-39.96 25.81-87.56 40.78-138.66 40.78-40.62 0-79.04-9.46-113.15-26.31-8.8-4.34-17.32-9.18-25.51-14.47 0 0-.01 0-.01-.01-23.52-15.18-44.38-34.1-61.76-55.95-34.79-43.71-55.57-99.06-55.57-159.26 0-141.38 114.62-256 256-256s256 114.62 256 256z" fill="#80e29d"/><path d="m439.011 3.185 64.923 64.923c10.755 10.755 10.755 28.192 0 38.947l-200.334 200.333c-10.755 10.755-28.192 10.755-38.947 0l-64.923-64.923c-4.246-4.246-4.246-11.131 0-15.377 4.246-4.246 11.131-4.246 15.377 0l38.857 38.857c8.197 8.197 21.487 8.197 29.685 0l178.842-178.841c8.197-8.197 8.197-21.487 0-29.685l-38.857-38.857c-4.246-4.246-4.246-11.131 0-15.377 4.246-4.247 11.13-4.247 15.377 0z" fill="#ffd939"/><path d="m495.013 59.187 8.921 8.921c10.751 10.751 10.757 28.19 0 38.946l-200.334 200.334c-10.757 10.757-28.195 10.752-38.947 0l-8.921-8.921c10.757 10.757 28.19 10.757 38.947 0l200.334-200.334c10.757-10.756 10.757-28.189 0-38.946z" fill="#ffb43b"/><g fill="#ffd939"><path d="m221.776 207.832c-1.878 1.878-1.878 4.924 0 6.802l61.216 61.216c1.878 1.878 4.924 1.878 6.802 0 1.878-1.878 1.878-4.924 0-6.802l-61.216-61.216c-1.879-1.878-4.924-1.878-6.802 0z"/><path d="m238.376 191.232c-1.878 1.878-1.878 4.924 0 6.802l61.216 61.216c1.878 1.878 4.924 1.878 6.802 0 1.878-1.878 1.878-4.924 0-6.802l-61.216-61.216c-1.878-1.878-4.924-1.878-6.802 0z"/><path d="m254.976 174.632c-1.878 1.878-1.878 4.924 0 6.802l61.216 61.216c1.878 1.878 4.924 1.878 6.802 0 1.878-1.878 1.878-4.924 0-6.802l-61.216-61.216c-1.878-1.878-4.924-1.878-6.802 0z"/><path d="m271.576 158.032c-1.878 1.878-1.878 4.924 0 6.802l61.216 61.216c1.878 1.878 4.924 1.878 6.802 0 1.878-1.878 1.878-4.924 0-6.802l-61.216-61.216c-1.878-1.878-4.923-1.878-6.802 0z"/><path d="m288.177 141.432c-1.878 1.878-1.878 4.924 0 6.802l61.216 61.216c1.878 1.878 4.924 1.878 6.802 0 1.878-1.878 1.878-4.924 0-6.802l-61.216-61.216c-1.879-1.879-4.924-1.879-6.802 0z"/><path d="m304.777 124.831c-1.878 1.878-1.878 4.924 0 6.802l61.216 61.216c1.878 1.878 4.924 1.878 6.802 0 1.878-1.878 1.878-4.924 0-6.802l-61.216-61.216c-1.879-1.878-4.924-1.878-6.802 0z"/><path d="m321.377 108.231c-1.878 1.878-1.878 4.924 0 6.802l61.216 61.216c1.878 1.878 4.924 1.878 6.802 0 1.878-1.878 1.878-4.924 0-6.802l-61.216-61.216c-1.878-1.878-4.924-1.878-6.802 0z"/><path d="m337.977 91.631c-1.878 1.878-1.878 4.924 0 6.802l61.216 61.216c1.878 1.878 4.924 1.878 6.802 0 1.878-1.878 1.878-4.924 0-6.802l-61.216-61.216c-1.878-1.878-4.924-1.878-6.802 0z"/><path d="m354.577 75.031c-1.878 1.878-1.878 4.924 0 6.802l61.216 61.216c1.878 1.878 4.924 1.878 6.802 0 1.878-1.878 1.878-4.924 0-6.802l-61.216-61.216c-1.878-1.878-4.923-1.878-6.802 0z"/><path d="m371.178 58.431c-1.878 1.878-1.878 4.924 0 6.802l61.216 61.216c1.878 1.878 4.924 1.878 6.802 0 1.878-1.878 1.878-4.924 0-6.802l-61.216-61.216c-1.879-1.879-4.924-1.879-6.802 0z"/><path d="m387.778 41.83c-1.878 1.878-1.878 4.924 0 6.802l61.216 61.216c1.878 1.878 4.924 1.878 6.802 0 1.878-1.878 1.878-4.924 0-6.802l-61.216-61.216c-1.879-1.878-4.924-1.878-6.802 0z"/><path d="m404.378 25.23c-1.878 1.878-1.878 4.924 0 6.802l61.216 61.216c1.878 1.878 4.924 1.878 6.802 0 1.878-1.878 1.878-4.924 0-6.802l-61.216-61.216c-1.878-1.878-4.924-1.878-6.802 0z"/></g><path d="m228.632 155.145-38.327-4.846-16.025-17.665 23.399-9.693 40.241-16.671c31.218-12.932 66.613-11.042 96.272 5.145l-82.162 34.037z" fill="#fff"/><path d="m330.73 230.96-52.22-10.73-59.13-12.15c41.27 1.88 48.62-86.9 1.93-115.39 0 0 42.03 3.17 49.21 39.81 0 0 12.39-39.36-25.08-65.19 0 0 62.39 14.26 63.85 72.02 0 0 15.46-36.85-2.39-60.61 1.98 1.44 88.1 64.96 23.83 152.24z" fill="#efe7e4"/><path d="m285.28 199.26c-1.83 8.03-4.12 14.98-6.77 20.97l-59.13-12.15c41.27 1.88 48.62-86.9 1.93-115.39 0 0 42.03 3.17 49.21 39.81 0 0 12.39-39.36-25.08-65.19 31.86 20.21 61.13 38.84 39.84 131.95z" fill="#e0d8d5"/><path d="m228.632 155.145-38.327-4.846-16.025-17.665 23.4-9.693 30.952 12.819 23.399 9.692z" fill="#efe7e4"/><path d="m456.43 415.27c-46.9 58.94-119.25 96.73-200.43 96.73s-153.54-37.79-200.43-96.74l2.36-17.4 17.07-125.74s4.23-30.02 12.88-58.95c8.03-26.89 19.88-52.84 35.68-52.84 0 0 11.38 3.91 24.14 13.87 10.82 8.42 22.63 21.2 29.32 39.6 0 0 9.54-6.76 27.03-12.54 12.83-4.26 29.96-7.97 50.73-8.11.41-.01.81-.01 1.22-.01 49.82 0 78.97 20.66 78.97 20.66 6.69-18.4 18.5-31.18 29.32-39.61 12.76-9.95 24.15-13.86 24.15-13.86 15.8 0 27.65 25.95 35.68 52.84 8.65 28.93 12.88 58.95 12.88 58.95z" fill="#efe7e4"/><path d="m254.78 193.15c-51.41 1.19-94.27 77.61-105.17 184.66-3.48 34.07-4.75 71.69-6.76 107.88-8.8-4.34-17.32-9.18-25.51-14.47 0 0-.01 0-.01-.01-23.52-15.18-44.38-34.1-61.76-55.95l2.36-17.4 17.07-125.74s4.23-30.02 12.88-58.95c8.03-26.89 19.88-52.84 35.68-52.84 0 0 11.38 3.91 24.14 13.87 10.82 8.42 22.63 21.2 29.32 39.6 0 0 9.54-6.76 27.03-12.54 12.83-4.26 29.96-7.97 50.73-8.11z" fill="#e0d8d5"/><path d="m57.934 397.864 17.063-125.739s15.755-111.792 48.563-111.792c0 0 38.877 13.369 53.455 53.466 0 0 9.545-6.755 27.033-12.541 9.556 72.12 65.605 196.606-146.114 196.606z" fill="#9b9595"/><path d="m454.066 397.864-17.063-125.739s-15.755-111.792-48.563-111.792c0 0-38.877 13.369-53.455 53.466 0 0-9.545-6.755-27.033-12.541-9.556 72.12-65.605 196.606 146.114 196.606z" fill="#9b9595"/><path d="m270.653 321.257 13.668-23.674c6.512-11.28-1.628-25.38-14.653-25.38h-27.337c-13.025 0-21.166 14.1-14.653 25.38l13.668 23.674c6.513 11.28 22.795 11.28 29.307 0z" fill="#454045"/><path d="m206.804 218.074c-28.59 31-49.95 88.61-57.19 159.74-.29 2.89-.57 5.81-.84 8.76-22.68 7.17-52.33 11.29-90.84 11.29l17.06-125.74s15.76-111.79 48.57-111.79c0 0 38.87 13.37 53.45 53.47 0 0 0 0 .01-.01.41-.29 9.92-6.88 27.02-12.53.71 5.34 1.67 10.96 2.76 16.81z" fill="#736e6e"/><circle cx="173.388" cy="294.036" fill="#fff" r="28.262"/><circle cx="173.388" cy="294.036" fill="#454045" r="17.511"/><circle cx="338.612" cy="294.036" fill="#fff" r="28.262"/><circle cx="338.612" cy="294.036" fill="#454045" r="17.511"/><path d="m239.101 355.859c-11.874 0-21.534-9.66-21.534-21.534v-6.032c0-2.762 2.239-5 5-5s5 2.238 5 5v6.032c0 6.36 5.174 11.534 11.534 11.534s11.534-5.174 11.534-11.534v-31.229c0-2.762 2.238-5 5-5s5 2.238 5 5v31.229c0 11.873-9.66 21.534-21.534 21.534z" fill="#454045"/><path d="m272.169 355.859c-11.874 0-21.534-9.66-21.534-21.534v-31.229c0-2.762 2.238-5 5-5s5 2.238 5 5v31.229c0 6.36 5.174 11.534 11.534 11.534s11.534-5.174 11.534-11.534v-6.032c0-2.762 2.238-5 5-5s5 2.238 5 5v6.032c0 11.873-9.66 21.534-21.534 21.534z" fill="#454045"/><path d="m124.528 240.441c8.241-3.588 13.09-12.339 11.511-21.187-2.786-15.609-14.7-34.709-24.2-33.918-13.769 1.146-27.175 60.872-11.232 60.872 8.7 0 17.616-3.022 23.921-5.767z" fill="#595454"/><path d="m387.472 240.441c-8.241-3.588-13.09-12.339-11.511-21.187 2.786-15.609 14.7-34.709 24.2-33.918 13.769 1.146 27.175 60.872 11.232 60.872-8.7 0-17.616-3.022-23.921-5.767z" fill="#595454"/><path d="m394.66 471.22c-39.96 25.81-87.56 40.78-138.66 40.78s-98.71-14.97-138.66-40.78c33.2-37.28 82.99-60.97 138.66-60.97s105.46 23.69 138.66 60.97z" fill="#9b9595"/><path d="m144.87 446.19c-.67 13.2-1.3 26.44-2.02 39.5-8.8-4.34-17.32-9.18-25.51-14.47 0 0-.01 0-.01-.01 8.22-9.22 17.45-17.62 27.54-25.02z" fill="#736e6e"/><path d="m174.28 177.656-38.431 15.92-35.201-4.507 19.281-33.924 53.163-5.569z" fill="#efe7e4"/><path d="m79.793 296.674c-29.441 12.189-63.188-1.785-75.385-31.227s1.785-63.196 31.227-75.385l84.294-34.918 15.92 38.431 4.62 11.155-31.138 12.899c.598 1.187 1.171 2.407 1.688 3.659 12.197 29.435-1.785 63.189-31.226 75.386zm-35.839-20.088c18.343 7.601 39.376-1.115 46.977-19.458 7.601-18.351-1.115-39.385-19.458-46.977-18.343-7.601-39.376 1.107-46.977 19.458-7.601 18.343 1.115 39.376 19.458 46.977z" fill="#da4a54"/><path d="m15.678 243.367c0-5.447 1.074-10.893 3.222-16.077 4.295-10.369 12.37-18.445 22.738-22.739 10.367-4.293 21.786-4.293 32.153.003 10.366 4.291 18.441 12.364 22.736 22.732 4.296 10.369 4.295 21.79 0 32.16-8.869 21.404-33.494 31.603-54.893 22.736-10.367-4.295-18.441-12.37-22.736-22.738-2.146-5.183-3.22-10.631-3.22-16.077zm71.949-.001c0-3.878-.764-7.754-2.293-11.443-3.056-7.378-8.802-13.122-16.179-16.176-7.379-3.057-15.505-3.058-22.882-.003-7.378 3.056-13.124 8.803-16.181 16.183-3.057 7.377-3.056 15.502 0 22.88 3.057 7.378 8.803 13.125 16.18 16.181 7.376 3.057 15.501 3.057 22.88 0 7.378-3.057 13.125-8.803 16.182-16.18 1.529-3.688 2.293-7.565 2.293-11.442z" fill="#c32430"/><path d="m334.201 198.875c-29.668 16.179-65.062 18.069-96.28 5.137l-63.64-26.356-54.352-22.511-15.242-28.27 31.162-10.161 38.431 15.92 54.352 22.511z" fill="#fff"/><circle cx="173.092" cy="155.634" fill="#666" r="6.058"/><path d="m119.929 155.145-84.294-34.918c-29.442-12.196-43.424-45.951-31.227-75.385 12.197-29.441 45.943-43.423 75.385-31.226 29.441 12.189 43.423 45.943 31.227 75.385-.517 1.252-1.09 2.464-1.688 3.659l31.138 12.899-4.62 11.155zm-75.975-55.006c18.343 7.601 39.376-1.115 46.977-19.458 7.601-18.351-1.115-39.385-19.458-46.977-18.343-7.601-39.376 1.106-46.977 19.458-7.601 18.343 1.115 39.376 19.458 46.977z" fill="#da4a54"/><path d="m15.7 66.867c0-5.35 1.028-10.782 3.2-16.024 4.295-10.369 12.37-18.445 22.738-22.739 10.367-4.293 21.786-4.292 32.154.004 10.366 4.29 18.441 12.364 22.736 22.731 4.296 10.368 4.295 21.789 0 32.16-8.869 21.404-33.494 31.603-54.893 22.737-16.161-6.697-25.935-22.378-25.935-38.869zm71.927.052c0-3.878-.764-7.754-2.293-11.443-3.056-7.378-8.802-13.122-16.178-16.175-7.38-3.057-15.505-3.059-22.882-.004-7.378 3.056-13.124 8.803-16.181 16.183-3.057 7.377-3.056 15.502 0 22.88 3.057 7.378 8.803 13.125 16.18 16.182 15.228 6.309 32.751-.95 39.062-16.181 1.528-3.689 2.292-7.565 2.292-11.442z" fill="#c32430"/></svg>