<svg id="Capa_1" enable-background="new 0 0 512 512" height="512" viewBox="0 0 512 512" width="512" xmlns="http://www.w3.org/2000/svg"><path d="m512 256c0 110.21-69.65 204.16-167.34 240.22-9.37 3.46-18.99 6.39-28.84 8.75-1.31.32-2.64.62-3.96.91-4.7 1.05-9.45 1.97-14.25 2.75-7.59 1.24-15.29 2.15-23.09 2.7-6.04.44-12.14.66-18.29.67h-.23c-3.38 0-6.75-.07-10.11-.2-14.8-.57-29.27-2.4-43.32-5.39-20.13-4.27-39.39-10.91-57.46-19.62-85.86-41.32-145.11-129.14-145.11-230.79 0-2.24.03-4.48.08-6.71-.01-.01 0-.02 0-.02 3.57-138.27 116.79-249.27 255.92-249.27 141.38 0 256 114.62 256 256z" fill="#80e29d"/><path d="m330.578 208.8c-4.418 0-8-3.582-8-8s3.582-8 8-8c47.512 0 72.434-5.907 83.333-19.75 8.428-10.705 9.435-27.775 3.17-53.722-1.269-5.253-2.519-10.273-3.712-15.066-8.884-35.671-14.752-59.237-2.418-75.019 8.72-11.157 25.349-16.133 53.919-16.133 4.418 0 8 3.582 8 8s-3.582 8-8 8c-22.548 0-36.061 3.266-41.312 9.985-7.53 9.635-2.133 31.306 5.336 61.3 1.202 4.828 2.462 9.886 3.739 15.177 7.509 31.098 5.554 52.506-6.151 67.375-14.457 18.363-42.242 25.853-95.904 25.853z" fill="#a71f29"/><path d="m460.02 295.48c0 .69 0 1.37-.02 2.06-.13 16.82-2.07 33.21-5.61 48.99-1.27 5.69-2.76 11.29-4.44 16.81-7.12 23.35-17.83 45.14-31.48 64.73-4.49 6.45-9.29 12.66-14.4 18.61-16.85 19.64-36.93 36.42-59.41 49.54-27.62 10.21-57.49 15.78-88.66 15.78-141.38 0-256-114.62-256-256 0-2.25.03-4.49.08-6.73 10.46-51.82 38.17-97.39 76.87-130.45 6.34-5.43 12.99-10.52 19.9-15.23 7.44-5.09 15.18-9.75 23.21-13.95 6.93-3.64 14.07-6.94 21.4-9.87 26.67-10.69 55.8-16.56 86.29-16.56 2.44 0 4.86.03 7.28.12 21.44.65 42.16 4.22 61.77 10.31 3.79 1.18 7.55 2.46 11.26 3.83 4.87 1.8 9.68 3.75 14.4 5.87 77.71 34.74 132.83 110.93 137.27 200.45.2 3.87.29 7.77.29 11.69z" fill="#da4a54"/><path d="m256.23 512h-.23c-141.38 0-256-114.62-256-256 0-2.24.03-4.48.08-6.71-.01-.01 0-.02 0-.02 10.46-51.82 38.17-97.39 76.87-130.45 6.34-5.43 12.99-10.52 19.9-15.23 7.44-5.09 15.18-9.75 23.21-13.95 6.93-3.64 14.07-6.94 21.4-9.87 26.67-10.69 55.8-16.56 86.29-16.56 2.44 0 4.86.03 7.28.12 16.87.51 33.28 2.83 49.07 6.77-10.26 2.55-20.24 5.8-29.91 9.67-7.33 2.93-14.47 6.23-21.41 9.87-8.02 4.2-15.76 8.86-23.2 13.95-6.91 4.71-13.56 9.8-19.9 15.23-49.86 42.59-81.47 105.93-81.47 176.66 0 98.57 61.4 182.79 148.02 216.52z" fill="#c32430"/><g fill="#a71f29"><path d="m117.64 295.48c0-108.73 76.89-199.85 179.16-221.84-19.61-6.09-40.33-9.66-61.77-10.31-43.97 9.58-84.34 31.53-116.92 64.12-44.89 44.88-69.61 104.56-69.61 168.03 0 63.48 24.72 123.15 69.61 168.04 8.49 8.49 17.52 16.26 27 23.27 18.07 8.71 37.33 15.35 57.46 19.62-83.88-33.34-143.33-115.32-143.33-210.93 0-120.42 94.32-219.23 212.96-226.46-35.71 11.36-68.43 31.17-95.69 58.43-44.88 44.88-69.6 104.56-69.6 168.03 0 63.48 24.72 123.15 69.6 168.04 20.41 20.41 43.88 36.64 69.38 48.28 3.36.13 6.73.2 10.11.2h.23c6.15-.01 12.25-.23 18.29-.67-90.96-29.59-156.88-115.15-156.88-215.85zm121.02 156.34c-5.28-5.54-10.29-11.35-14.98-17.4-15.03-19.33-26.99-41.14-35.17-64.7-1.87-5.39-3.55-10.88-5.02-16.44-4.25-16.13-6.77-32.95-7.33-50.26-.08-2.51-.13-5.02-.13-7.54 0-2.03.03-4.05.08-6.06.84-31.66 8.19-61.72 20.78-88.89 1.51-3.3 3.11-6.55 4.8-9.76 6.79-13.01 14.81-25.29 23.91-36.67 2.38-2.97 4.81-5.88 7.35-8.72 10.46-11.86 22.17-22.62 34.89-32.09 3.5-2.59 7.09-5.09 10.74-7.5 13.67-8.99 28.37-16.55 43.88-22.45-4.72-2.12-9.53-4.07-14.4-5.87-14.7 6.4-28.75 14.32-41.97 23.67-3.63 2.56-7.18 5.23-10.67 8-7.12 5.67-13.97 11.77-20.51 18.31-4.53 4.53-8.86 9.21-12.97 14.03-2.51 2.93-4.93 5.93-7.28 8.96-8.84 11.42-16.55 23.53-23.09 36.2-1.68 3.23-3.27 6.5-4.78 9.81-12.11 26.36-19.28 54.89-21.05 84.46-.28 4.59-.43 9.2-.44 13.83v.74c0 16.13 1.6 32.03 4.72 47.49 1.15 5.71 2.52 11.36 4.08 16.95 6.35 22.7 16.07 44.28 28.91 64.15 4.26 6.59 8.85 13 13.79 19.19 5.62 7.04 11.65 13.8 18.11 20.26 18.61 18.61 39.78 33.76 62.7 45.11 4.8-.78 9.55-1.7 14.25-2.75 1.32-.29 2.65-.59 3.96-.91-.99-.41-1.98-.82-2.96-1.25-28.14-12.22-53.34-29.97-74.2-51.9z"/><path d="m316.015 199.401c-3.016-3.016-6.097-5.947-9.253-8.791-2.823-2.533-5.7-5.002-8.63-7.396-19.751-16.154-41.734-28.874-65.187-37.837-2.533 2.845-4.97 5.753-7.342 8.727 24.591 8.931 47.551 22.144 67.946 39.275 2.855 2.383 5.668 4.862 8.426 7.406 2.179 2.029 4.337 4.1 6.451 6.215 33.715 33.704 55.516 76.168 63.276 122.249 3.5-.912 6.967-1.911 10.391-2.984-8.307-47.809-31.053-91.839-66.078-126.864zm0 0c-3.016-3.016-6.097-5.947-9.253-8.791-1.503 3.435-3.102 6.827-4.787 10.176 2.179 2.029 4.337 4.1 6.451 6.215 33.715 33.704 55.516 76.168 63.276 122.249 3.5-.912 6.967-1.911 10.391-2.984-8.307-47.81-31.053-91.84-66.078-126.865zm110.152 107.683c-4.433-56.289-28.488-108.617-68.848-148.976-10.315-10.315-21.414-19.568-33.168-27.694-3.306-2.297-6.666-4.497-10.069-6.601-11.335-7.031-23.217-13.042-35.508-18.022-4.111-1.675-8.276-3.22-12.484-4.648-3.628 2.555-7.181 5.228-10.669 7.997 4.175 1.256 8.319 2.651 12.419 4.154 15.414 5.657 30.334 13.052 44.449 22.165 3.317 2.136 6.58 4.358 9.8 6.698 9.682 6.988 18.935 14.845 27.64 23.55 39.651 39.651 62.826 91.399 66.057 146.926.236 3.961.365 7.932.387 11.925 3.585-1.707 7.138-3.499 10.637-5.388-.106-4.046-.321-8.082-.643-12.086zm-44.073 19.181c-8.308-47.809-31.053-91.839-66.078-126.864-3.016-3.016-6.097-5.947-9.253-8.791-2.823-2.533-5.7-5.002-8.63-7.396-19.751-16.154-41.734-28.874-65.187-37.837-3.628-1.395-7.299-2.694-11.002-3.896-2.512 2.93-4.937 5.925-7.288 8.963 3.682 1.127 7.331 2.34 10.949 3.66 24.591 8.931 47.551 22.144 67.946 39.275 2.855 2.383 5.668 4.862 8.426 7.406 2.179 2.029 4.337 4.1 6.451 6.215 33.715 33.704 55.516 76.168 63.276 122.249.612 3.564 1.127 7.149 1.546 10.755 3.51-.88 6.999-1.857 10.466-2.909-.463-3.627-1-7.245-1.622-10.83zm-49.108 9.543c-11.228-34.982-30.57-67.066-57.105-93.943-.376-.397-.762-.784-1.148-1.17-2.168-2.168-4.38-4.294-6.612-6.365-19.826-18.377-42.249-33.018-66.432-43.558-3.349-1.46-6.719-2.834-10.122-4.133-1.675 3.231-3.263 6.505-4.777 9.811 3.392 1.277 6.762 2.641 10.101 4.079 23.174 10.004 45.007 24.055 64.414 42.131 1.964 1.846 3.907 3.714 5.828 5.635.623.623 1.245 1.256 1.868 1.889 24.27 24.817 42.163 54.238 52.886 86.268 1.181 3.51 2.276 7.042 3.274 10.616 3.66-.161 7.31-.408 10.938-.741-.956-3.531-1.997-7.041-3.113-10.519z"/><path d="m314.416 394.973c-48.721 0-93.911-15.446-130.922-41.69-4.626-3.274-9.113-6.719-13.471-10.315 1.149 5.711 2.512 11.367 4.079 16.949 4.691 3.456 9.5 6.719 14.405 9.8 37.397 23.443 80.687 35.991 125.909 35.991 49.161 0 96.036-14.823 135.537-42.367 1.675-5.517 3.166-11.12 4.433-16.809-38.577 30.333-87.202 48.441-139.97 48.441zm0 58.393c-32.245 0-62.933-6.762-90.734-18.945-7.084-3.102-13.986-6.558-20.674-10.347 4.261 6.59 8.855 12.999 13.793 19.192 7.138 3.22 14.426 6.075 21.854 8.555 24.098 8.083 49.602 12.28 75.76 12.28 31.247 0 61.559-5.99 89.65-17.421 5.109-5.947 9.918-12.161 14.405-18.613-31.181 16.164-66.571 25.299-104.054 25.299zm145.316-169.575c-10.444 8.727-21.672 16.53-33.565 23.293-3.403 1.943-6.87 3.789-10.38 5.549-10.777 5.41-22.037 9.983-33.694 13.632-3.424 1.073-6.891 2.072-10.391 2.984-12.516 3.263-25.461 5.485-38.717 6.559-3.682.311-7.374.515-11.099.644-2.48.075-4.97.118-7.471.118-41.841 0-81.084-11.389-114.767-31.236-3.639-2.136-7.203-4.369-10.702-6.709-4.39-2.92-8.673-5.989-12.838-9.21-3.542-2.726-7.009-5.56-10.369-8.501-.279 4.583-.429 9.199-.44 13.825 3.553 2.877 7.17 5.635 10.863 8.276.397.29.805.58 1.213.859 3.51 2.49 7.073 4.873 10.702 7.159 37.494 23.636 80.944 36.27 126.338 36.27 3.596 0 7.17-.075 10.745-.236 3.66-.161 7.31-.408 10.938-.741 12.623-1.127 25.032-3.242 37.15-6.322 3.51-.88 6.999-1.857 10.466-2.909 11.131-3.37 21.972-7.557 32.459-12.537 3.585-1.707 7.138-3.499 10.637-5.388 11.582-6.226 22.681-13.45 33.189-21.629.021-.687.021-1.374.021-2.061.002-3.917-.095-7.825-.288-11.689z"/><path d="m275.881 241.865c-2.222 2.812-4.519 5.592-6.88 8.319-3.768 4.347-7.718 8.576-11.818 12.687-3.429 3.44-6.964 6.771-10.605 9.993-14.437 12.806-30.184 23.668-46.929 32.47-3.811 2.018-7.664 3.907-11.571 5.7-3.628-2.286-7.192-4.669-10.702-7.159 3.896-1.642 7.75-3.381 11.571-5.249 20.19-9.854 39.211-22.895 56.31-39.114 3.287-3.122 6.478-6.338 9.575-9.65 2.222-2.361 4.38-4.766 6.473-7.202 2.351-2.737 4.626-5.507 6.816-8.33 2.233 2.072 4.444 4.197 6.612 6.365.386.386.773.772 1.148 1.17z"/></g></svg>