<svg id="Capa_1" enable-background="new 0 0 512 512" height="512" viewBox="0 0 512 512" width="512" xmlns="http://www.w3.org/2000/svg"><path d="m512 256c0 56.69-18.43 109.07-49.62 151.49-16.97 23.08-37.71 43.2-61.32 59.46-7.45 5.14-15.19 9.89-23.19 14.22-36.23 19.67-77.75 30.83-121.87 30.83-42.07 0-81.78-10.15-116.79-28.14-10.55-5.42-20.67-11.55-30.31-18.33-5.73-4.02-11.28-8.28-16.65-12.76-15.97-13.3-30.3-28.51-42.63-45.28-31.19-42.42-49.62-94.8-49.62-151.49 0-141.38 114.62-256 256-256s256 114.62 256 256z" fill="#80e29d"/><path d="m462.38 407.49c-46.6 63.38-121.69 104.51-206.38 104.51s-159.78-41.13-206.38-104.51l8.31-61.24 7.2-53.04 9.87-72.7s4.23-30.02 12.88-58.95c8.03-26.89 19.88-52.84 35.68-52.84 0 0 11.38 3.91 24.14 13.87 10.82 8.42 22.63 21.2 29.32 39.6 0 0 9.54-6.76 27.03-12.54 12.83-4.26 29.96-7.97 50.73-8.11.41-.01.81-.01 1.22-.01 49.82 0 78.97 20.66 78.97 20.66 6.69-18.4 18.5-31.18 29.32-39.61 12.76-9.95 24.15-13.86 24.15-13.86 15.8 0 27.65 25.95 35.68 52.84 8.65 28.93 12.88 58.95 12.88 58.95z" fill="#efe7e4"/><path d="m254.78 141.54c-51.41 1.19-94.27 77.61-105.17 184.66-5.11 50.14-5.47 107.97-10.4 157.66-35.48-18.22-66.14-44.48-89.59-76.37l8.31-61.24 17.07-125.74s4.23-30.02 12.88-58.95c8.03-26.89 19.88-52.84 35.68-52.84 0 0 11.38 3.91 24.14 13.87 10.82 8.42 22.63 21.2 29.32 39.6 0 0 9.54-6.76 27.03-12.54 12.83-4.26 29.96-7.97 50.73-8.11z" fill="#e0d8d5"/><ellipse cx="256" cy="316.223" fill="#9b9595" rx="163.61" ry="132.351"/><path d="m92.39 316.223c0 38.028 19.833 72.305 51.58 96.446 1.475-29.397 2.849-59.082 5.641-86.473 5.309-52.143 18.203-97.012 35.972-129.467-55.114 21.292-93.193 66.794-93.193 119.494z" fill="#736e6e"/><g fill="#454045"><path d="m270.653 300.234 13.668-23.674c6.512-11.28-1.628-25.38-14.653-25.38h-27.337c-13.025 0-21.166 14.1-14.653 25.38l13.668 23.674c6.513 11.28 22.795 11.28 29.307 0z"/><path d="m239.101 334.835c-11.874 0-21.534-9.66-21.534-21.534v-6.032c0-2.762 2.239-5 5-5s5 2.238 5 5v6.032c0 6.36 5.174 11.534 11.534 11.534s11.534-5.174 11.534-11.534v-31.229c0-2.762 2.238-5 5-5s5 2.238 5 5v31.229c0 11.874-9.66 21.534-21.534 21.534z"/><path d="m272.169 334.835c-11.874 0-21.534-9.66-21.534-21.534v-31.229c0-2.762 2.238-5 5-5s5 2.238 5 5v31.229c0 6.36 5.174 11.534 11.534 11.534s11.534-5.174 11.534-11.534v-6.032c0-2.762 2.238-5 5-5s5 2.238 5 5v6.032c0 11.874-9.66 21.534-21.534 21.534z"/></g><circle cx="171.68" cy="271.663" fill="#93d8e4" r="37.399"/><circle cx="171.68" cy="271.663" fill="#454045" r="23.172"/><circle cx="340.32" cy="271.663" fill="#93d8e4" r="37.399"/><circle cx="340.32" cy="271.663" fill="#454045" r="23.172"/><path d="m177.02 162.186c-34 19.03-84.7 40.83-111.89 131.02l9.87-72.7s4.23-30.02 12.88-58.95c8.03-26.89 19.88-52.84 35.68-52.84 0 0 11.38 3.91 24.14 13.87 10.82 8.42 22.63 21.2 29.32 39.6z" fill="#9b9595"/><path d="m334.98 162.186c34 19.03 84.7 40.83 111.89 131.02l-9.87-72.7s-4.23-30.02-12.88-58.95c-8.03-26.89-19.88-52.84-35.68-52.84 0 0-11.38 3.91-24.14 13.87-10.82 8.42-22.63 21.2-29.32 39.6z" fill="#9b9595"/><path d="m124.528 188.825c8.241-3.588 13.09-12.339 11.511-21.187-2.786-15.609-14.7-34.709-24.2-33.918-13.769 1.146-27.175 60.872-11.232 60.872 8.7-.001 17.616-3.022 23.921-5.767z" fill="#595454"/><path d="m387.472 188.825c-8.241-3.588-13.09-12.339-11.511-21.187 2.786-15.609 14.7-34.709 24.2-33.918 13.769 1.146 27.175 60.872 11.232 60.872-8.7-.001-17.616-3.022-23.921-5.767z" fill="#595454"/><path d="m352.02 171.098c-42.272 27.971-93.702 35.632-140.992 22.982-17.849-4.77-35.098-12.431-51.049-22.982l8.481-14.682 10.389-18.002 26.989-46.736 11.362-19.681 38.8-67.21 28.553 49.455 9.511 16.466 19.185 33.237 9.597 16.628z" fill="#da4a54"/><path d="m256 4.787-44.972 189.292c-17.849-4.77-35.098-12.431-51.049-22.982z" fill="#c32430"/><path d="m322.847 120.574c-29.25 21.465-64.49 34.22-103.213 37.301-2.709.219-5.438.382-8.185.506-3.606.162-7.107.229-10.504.229-12.669 0-23.764-.992-32.484-2.194l10.389-18.002c9.111.916 20.177 1.45 32.407.878 4.408-.21 8.748-.534 13.022-1.002 33.81-3.625 63.641-15.149 88.97-34.344z" fill="#ffd939"/><path d="m294.065 70.708c-17.916 8.853-37.406 14.997-58.06 18.259-8.262 1.317-16.714 2.166-25.319 2.547-1.641.067-3.253.124-4.846.162l11.362-19.681c8.08-.63 15.951-1.689 23.592-3.196 15.541-3.043 30.146-7.909 43.76-14.558z" fill="#ffd939"/><path d="m224.28 138.289-4.646 19.586c-2.709.219-5.438.382-8.185.506-3.606.162-7.107.229-10.504.229-12.669 0-23.764-.992-32.484-2.194l10.389-18.002c9.111.916 20.177 1.45 32.407.878 4.408-.211 8.749-.535 13.023-1.003z" fill="#ffb43b"/><path d="m240.793 68.8-4.789 20.167c-8.262 1.317-16.714 2.166-25.319 2.547-1.641.067-3.253.124-4.846.162l11.362-19.681c8.08-.628 15.951-1.688 23.592-3.195z" fill="#ffb43b"/><path d="m416.37 23.742c-14.939 12.759-36.938 12.759-51.876 0-4.535 5.31-9.071 10.62-13.606 15.931 22.775 19.452 56.314 19.452 79.089 0-4.536-5.311-9.072-10.621-13.607-15.931z" fill="#ffd939"/><path d="m463.872 89.747c4.307 19.168-5.966 38.621-24.224 45.873 2.578 6.49 5.156 12.98 7.734 19.471 27.836-11.056 43.497-40.714 36.931-69.936-6.814 1.53-13.628 3.061-20.441 4.592z" fill="#da4a54"/><path d="m108.9 465.53c-5.73-4.02-11.28-8.28-16.65-12.76 6.01-8.87 8.41-20.07 5.92-31.17 6.81-1.53 13.62-3.06 20.44-4.6 3.9 17.36-.04 34.86-9.71 48.53z" fill="#ac80dd"/><path d="m145.856 12.321c4.307 19.168-5.966 38.621-24.224 45.873 2.578 6.49 5.156 12.98 7.734 19.471 27.836-11.056 43.497-40.714 36.931-69.936-6.814 1.53-13.628 3.061-20.441 4.592z" fill="#da4a54"/><path d="m477.46 191.606c-10.585 16.55-31.634 22.945-49.637 15.079-2.796 6.399-5.592 12.798-8.388 19.198 27.445 11.992 59.536 2.243 75.674-22.989-5.883-3.763-11.766-7.525-17.649-11.288z" fill="#ffd939"/><path d="m66.919 88.467c-10.585 16.55-31.634 22.945-49.637 15.079-2.796 6.399-5.592 12.798-8.388 19.198 27.445 11.992 59.536 2.243 75.674-22.989-5.883-3.763-11.766-7.525-17.649-11.288z" fill="#ac80dd"/><path d="m364.684 140.83c2.244-19.517 18.349-34.504 37.977-35.34-.297-6.977-.595-13.954-.892-20.931-29.924 1.275-54.477 24.123-57.898 53.878 6.938.798 13.875 1.595 20.813 2.393z" fill="#ac80dd"/><path d="m476.807 315.321c-19.032-4.873-31.694-22.863-29.858-42.423-6.953-.652-13.906-1.305-20.859-1.957-2.799 29.82 16.505 57.247 45.52 64.676 1.733-6.765 3.465-13.531 5.197-20.296z" fill="#ac80dd"/><path d="m84.714 291.641c-19.032-4.873-31.694-22.863-29.858-42.422-6.953-.652-13.906-1.305-20.859-1.957-2.799 29.82 16.505 57.247 45.52 64.676 1.733-6.766 3.464-13.532 5.197-20.297z" fill="#da4a54"/><path d="m412.98 449.65c-5.62 4.75-9.63 10.76-11.92 17.3-7.45 5.14-15.19 9.89-23.19 14.22-.29-17.77 7.2-35.36 21.59-47.52 4.51 5.33 9.01 10.67 13.52 16z" fill="#da4a54"/></svg>