<svg id="Capa_1" enable-background="new 0 0 512 512" height="512" viewBox="0 0 512 512" width="512" xmlns="http://www.w3.org/2000/svg"><path d="m512 256c0 48.1-13.27 93.1-36.34 131.54-5.71 9.52-12.03 18.64-18.89 27.3-46.89 59.19-119.4 97.16-200.77 97.16s-153.88-37.97-200.77-97.16c-6.87-8.66-13.18-17.78-18.89-27.3-5.37-8.94-10.2-18.23-14.45-27.83-4.43-9.99-8.25-20.33-11.39-30.95-6.83-23.06-10.5-47.48-10.5-72.76 0-141.38 114.62-256 256-256 66.64 0 127.34 25.47 172.89 67.2 51.08 46.8 83.11 114.06 83.11 188.8z" fill="#90d8f9"/><path d="m475.66 387.54c-5.71 9.52-12.03 18.64-18.89 27.3-46.89 59.19-119.4 97.16-200.77 97.16s-153.88-37.97-200.77-97.16c-6.87-8.66-13.18-17.78-18.89-27.3z" fill="#80e29d"/><path d="m411.774 121.093h-199.572v-79.218c0-23.09 18.785-41.875 41.875-41.875h115.822c23.09 0 41.875 18.785 41.875 41.875zm-179.572-20h159.572v-59.218c0-12.062-9.813-21.875-21.875-21.875h-115.822c-12.062 0-21.875 9.813-21.875 21.875z" fill="#595454"/><path d="m512 256c0 60.01-20.65 115.19-55.23 158.84h-307.7v-347.64h279.82c25.08 22.97 45.56 50.88 59.91 82.18 14.9 32.46 23.2 68.57 23.2 106.62z" fill="#da4a54"/><path d="m488.8 149.38h-339.73v-82.18h279.82c25.08 22.97 45.56 50.88 59.91 82.18z" fill="#c32430"/><path d="m292.07 414.84h-236.84c-13.31-16.79-24.55-35.3-33.34-55.13-4.43-9.99-8.25-20.33-11.39-30.95 15.75-150.36 71.82-261.56 138.57-261.56 78.98 0 143 155.64 143 347.64z" fill="#c32430"/><path d="m277.95 400.84v14h-222.72c-13.31-16.79-24.55-35.3-33.34-55.13 4.63-70.05 18.08-134.46 39.02-185.36 24.35-59.2 56.48-93.15 88.16-93.15s63.82 33.95 88.17 93.15c24.97 60.72 39.3 140.69 40.71 226.49z" fill="#454045"/><circle cx="129.785" cy="256" fill="#80e29d" r="21.348"/><ellipse cx="129.785" cy="256" fill="#211f21" rx="13.227" ry="13.227" transform="matrix(.099 -.995 .995 .099 -137.758 359.928)"/><circle cx="208.265" cy="256" fill="#80e29d" r="21.348"/><circle cx="208.265" cy="256" fill="#211f21" r="13.227"/><path d="m317.34 387.54v27.3h-262.11c-6.87-8.66-13.18-17.78-18.89-27.3z" fill="#da4a54"/></svg>