<svg id="Capa_1" enable-background="new 0 0 512 512" height="512" viewBox="0 0 512 512" width="512" xmlns="http://www.w3.org/2000/svg"><path d="m512 256c0 10.52-.63 20.89-1.87 31.08-5.32 43.98-21.8 84.51-46.51 118.71-8.53 11.8-18.04 22.85-28.41 33.01-46.18 45.28-109.43 73.2-179.21 73.2-42.51 0-82.6-10.37-117.89-28.71-13.58-7.05-26.45-15.29-38.47-24.58-19.52-15.08-36.8-32.91-51.26-52.92-24.71-34.2-41.19-74.73-46.51-118.71-1.24-10.19-1.87-20.56-1.87-31.08 0-141.38 114.62-256 256-256s256 114.62 256 256z" fill="#da4a54"/><circle cx="164.969" cy="139.127" fill="#efe7e4" r="28.427"/><path d="m99.62 295.29h119.89v214.12c-28.98-4.13-56.4-13.13-81.4-26.12-35.63-18.51-66.36-45.17-89.73-77.5-24.71-34.2-41.19-74.73-46.51-118.71 4.7-10.06 14.91-17.03 26.76-17.03 5.83 0 11.27 1.7 15.85 4.61 3.46-12.47 14.89-21.62 28.46-21.62 16.32 0 29.55 13.23 29.55 29.55 0 4.55-1.03 8.85-2.87 12.7z" fill="#8659b9"/><path d="m510.13 287.08c-5.32 43.98-21.8 84.51-46.51 118.71-46.5 64.34-122.17 106.21-207.62 106.21-6.69 0-13.31-.26-19.87-.76v-215.95h176.25c-1.84-3.85-2.87-8.15-2.87-12.7 0-16.32 13.23-29.55 29.55-29.55 13.57 0 25 9.15 28.46 21.62 4.58-2.91 10.02-4.61 15.85-4.61 11.85 0 22.06 6.97 26.76 17.03z" fill="#ac80dd"/><path d="m463.62 405.79c-46.5 64.34-122.17 106.21-207.62 106.21s-161.12-41.87-207.62-106.21l9.55-70.35 17.07-125.74s4.23-30.02 12.88-58.95c8.03-26.89 19.88-52.84 35.68-52.84 0 0 11.38 3.91 24.14 13.87 10.82 8.42 22.63 21.2 29.32 39.6 0 0 9.54-6.76 27.03-12.54 12.83-4.26 29.96-7.97 50.73-8.11.41-.01.81-.01 1.22-.01 49.82 0 78.97 20.66 78.97 20.66 6.69-18.4 18.5-31.18 29.32-39.61 12.76-9.95 24.15-13.86 24.15-13.86 15.8 0 27.65 25.95 35.68 52.84 8.65 28.93 12.88 58.95 12.88 58.95z" fill="#9b9595"/><path d="m254.78 130.73c-51.41 1.19-94.27 77.61-105.17 184.66-5.47 53.63-5.5 116.06-11.5 167.9-35.63-18.51-66.36-45.17-89.73-77.5l9.55-70.35 17.07-125.74s4.23-30.02 12.88-58.95c8.03-26.89 19.88-52.84 35.68-52.84 0 0 11.38 3.91 24.14 13.87 10.82 8.42 22.63 21.2 29.32 39.6 0 0 9.54-6.76 27.03-12.54 12.83-4.26 29.96-7.97 50.73-8.11z" fill="#736e6e"/><path d="m273.165 302.019 16.011-27.733c7.629-13.214-1.907-29.731-17.165-29.731h-32.023c-15.258 0-24.794 16.517-17.165 29.731l16.011 27.733c7.63 13.214 26.702 13.214 34.331 0z" fill="#454045"/><circle cx="159.226" cy="250.131" fill="#fff" r="33.107"/><circle cx="159.226" cy="250.131" fill="#454045" r="20.513"/><circle cx="352.774" cy="250.131" fill="#fff" r="33.107"/><g fill="#454045"><circle cx="352.774" cy="250.131" r="20.513"/><path d="m236.204 341.694c-13.437 0-24.368-10.932-24.368-24.368v-7.066c0-2.762 2.239-5 5-5s5 2.238 5 5v7.066c0 7.923 6.445 14.368 14.368 14.368s14.368-6.445 14.368-14.368v-36.584c0-2.762 2.238-5 5-5s5 2.238 5 5v36.584c0 13.437-10.931 24.368-24.368 24.368z"/><path d="m274.94 341.694c-13.437 0-24.368-10.932-24.368-24.368v-36.584c0-2.762 2.238-5 5-5s5 2.238 5 5v36.584c0 7.923 6.445 14.368 14.368 14.368 7.922 0 14.367-6.445 14.367-14.368v-7.066c0-2.762 2.238-5 5-5s5 2.238 5 5v7.066c.001 13.437-10.93 24.368-24.367 24.368z"/></g><path d="m124.528 178.016c8.241-3.588 13.09-12.339 11.511-21.187-2.786-15.609-14.7-34.709-24.2-33.918-13.769 1.146-27.175 60.872-11.232 60.872 8.7-.001 17.616-3.022 23.921-5.767z" fill="#595454"/><path d="m387.472 178.016c-8.241-3.588-13.09-12.339-11.511-21.187 2.786-15.609 14.7-34.709 24.2-33.918 13.769 1.146 27.175 60.872 11.232 60.872-8.7-.001-17.616-3.022-23.921-5.767z" fill="#595454"/><path d="m435.21 438.8c-46.18 45.28-109.43 73.2-179.21 73.2-22.1 0-43.55-2.8-64.01-8.08-18.89-4.86-36.94-11.83-53.88-20.63-13.58-7.05-26.45-15.29-38.47-24.58 4.93-2.88 10.66-4.53 16.78-4.53.07 0 .15.01.23.01 1.62-12.02 11.91-21.29 24.38-21.29 4.67 0 9.04 1.3 12.76 3.57 9.65-17.96 28.61-30.18 50.42-30.18 5.54 0 10.91.79 15.98 2.26 2.42.71 4.77 1.57 7.05 2.57.03.01.05.02.07.03 5.78 2.56 11.04 6.04 15.63 10.27 4.51-5.58 11.4-9.14 19.13-9.14 9.02 0 16.9 4.85 21.18 12.09 5.69-4.53 12.89-7.25 20.72-7.25 12.79 0 23.88 7.22 29.45 17.8 9.8-7.9 22.26-12.63 35.83-12.63 17.45 0 33.07 7.82 43.56 20.14 4.79-2.68 10.31-4.21 16.2-4.21 2.12 0 4.19.2 6.2.58z" fill="#ac80dd"/><path d="m204.21 406.29c5.54 0 10.91.79 15.98 2.26-26.54-4.49-55.5 44.03-7.34 62.92 0 0-16.62 4.66-10.64 23.28 0 0-7.33 1.88-10.22 9.17-18.89-4.86-36.94-11.83-53.88-20.63-13.58-7.05-26.45-15.29-38.47-24.58 4.93-2.88 10.66-4.53 16.78-4.53.07 0 .15.01.23.01 1.62-12.02 11.91-21.29 24.38-21.29 4.67 0 9.04 1.3 12.76 3.57 9.65-17.96 28.61-30.18 50.42-30.18z" fill="#8659b9"/><path d="m227.31 411.15v.01c-.02-.01-.05-.03-.07-.04.03.01.05.02.07.03z" fill="#efe7e4"/><path d="m340.05 139.09c0 15.7-12.73 28.43-28.43 28.43-9.52 0-17.94-4.69-23.1-11.87-6.96 8.39-17.47 13.74-29.23 13.74-4.54 0-8.89-.8-12.92-2.26-14.6-5.28-25.04-19.28-25.04-35.7 0-20.97 17-37.97 37.96-37.97 1.59 0 3.14.11 4.68.3 1.5-12.82 12.4-22.77 25.63-22.77 6.87 0 13.12 2.69 17.75 7.08.2.18.4.37.6.57 4.62 4.66 7.47 11.08 7.47 18.17 0 5.1-1.48 9.85-4.04 13.86.08 0 .16-.01.24-.01 15.7 0 28.43 12.73 28.43 28.43z" fill="#efe7e4"/><path d="m307.35 78.07c-13.69-12.28-39.56 10.15-27.32 28.94 0 0-24.39-10.2-36.8 25.27-4.71 13.45-2.02 25.31 3.14 34.85-14.6-5.28-25.04-19.28-25.04-35.7 0-20.97 17-37.97 37.96-37.97 1.59 0 3.14.11 4.68.3 1.5-12.82 12.4-22.77 25.63-22.77 6.87 0 13.12 2.69 17.75 7.08z" fill="#e0d8d5"/><circle cx="378.959" cy="42.662" fill="#efe7e4" r="27.435"/><path d="m386.914 68.932c-2.52.76-5.19 1.17-7.96 1.17-15.15 0-27.43-12.29-27.43-27.44s12.28-27.43 27.43-27.43c2.77 0 5.44.41 7.96 1.17-11.27 3.41-19.48 13.88-19.48 26.26s8.21 22.85 19.48 26.27z" fill="#e0d8d5"/><ellipse cx="394.422" cy="42.163" fill="#fff" rx="5.986" ry="8.979"/><circle cx="450.786" cy="79.572" fill="#efe7e4" r="17.955"/><path d="m455.993 96.765c-1.649.497-3.397.766-5.21.766-9.915 0-17.952-8.044-17.952-17.959s8.037-17.952 17.952-17.952c1.813 0 3.56.268 5.21.766-7.376 2.232-12.749 9.084-12.749 17.187-.001 8.101 5.373 14.954 12.749 17.192z" fill="#e0d8d5"/><ellipse cx="460.906" cy="79.245" fill="#fff" rx="3.918" ry="5.876"/><circle cx="31.808" cy="201.886" fill="#efe7e4" r="17.955"/><path d="m37.015 219.079c-1.649.497-3.397.766-5.21.766-9.915 0-17.952-8.044-17.952-17.959s8.037-17.952 17.952-17.952c1.813 0 3.56.268 5.21.766-7.376 2.232-12.749 9.084-12.749 17.187 0 8.101 5.373 14.954 12.749 17.192z" fill="#e0d8d5"/><ellipse cx="41.929" cy="201.559" fill="#fff" rx="3.918" ry="5.876"/><circle cx="363.047" cy="422.617" fill="#efe7e4" r="17.955"/><path d="m368.254 439.81c-1.649.497-3.397.766-5.21.766-9.915 0-17.952-8.044-17.952-17.959s8.037-17.952 17.952-17.952c1.813 0 3.56.268 5.21.766-7.376 2.232-12.749 9.084-12.749 17.187 0 8.101 5.373 14.953 12.749 17.192z" fill="#e0d8d5"/><ellipse cx="373.168" cy="422.29" fill="#fff" rx="3.918" ry="5.876"/><circle cx="212.462" cy="465.98" fill="#efe7e4" r="23.77"/><path d="m219.355 488.741c-2.183.659-4.497 1.014-6.897 1.014-13.127 0-23.766-10.649-23.766-23.775s10.64-23.766 23.766-23.766c2.4 0 4.713.355 6.897 1.014-9.765 2.955-16.878 12.026-16.878 22.753 0 10.726 7.113 19.797 16.878 22.76z" fill="#e0d8d5"/><ellipse cx="225.86" cy="465.548" fill="#fff" rx="5.186" ry="7.779"/><circle cx="438.733" cy="226.972" fill="#efe7e4" r="33.67"/><path d="m448.497 259.213c-3.093.933-6.37 1.436-9.769 1.436-18.593 0-33.664-15.083-33.664-33.677 0-18.593 15.071-33.664 33.664-33.664 3.399 0 6.676.503 9.769 1.436-13.831 4.185-23.907 17.035-23.907 32.228-.001 15.194 10.075 28.044 23.907 32.241z" fill="#e0d8d5"/><ellipse cx="457.711" cy="226.36" fill="#fff" rx="7.346" ry="11.019"/><circle cx="154.743" cy="51.44" fill="#efe7e4" r="33.67"/><path d="m164.507 83.68c-3.093.933-6.37 1.436-9.769 1.436-18.593 0-33.664-15.083-33.664-33.677 0-18.593 15.071-33.664 33.664-33.664 3.399 0 6.676.503 9.769 1.436-13.831 4.185-23.907 17.035-23.907 32.228-.001 15.195 10.075 28.044 23.907 32.241z" fill="#e0d8d5"/><ellipse cx="173.721" cy="50.828" fill="#fff" rx="7.346" ry="11.019"/><ellipse cx="325.586" cy="137.27" fill="#fff" rx="6.983" ry="12.304"/><ellipse cx="302.471" cy="92.042" fill="#fff" rx="6.489" ry="9.309"/></svg>