<svg id="Capa_1" enable-background="new 0 0 512 512" height="512" viewBox="0 0 512 512" width="512" xmlns="http://www.w3.org/2000/svg"><circle cx="256" cy="256" fill="#ffd939" r="256"/><path d="m473.53 391.03c-45.18 72.63-125.71 120.97-217.53 120.97-50.43 0-97.46-14.58-137.09-39.77-32.52-20.66-60.07-48.47-80.44-81.2l19.46-143.39 17.07-125.74s4.23-30.02 12.88-58.95c8.03-26.89 19.88-52.84 35.68-52.84 0 0 11.38 3.91 24.14 13.87 10.82 8.42 22.63 21.2 29.32 39.6 0 0 9.54-6.76 27.03-12.54 12.83-4.26 29.96-7.97 50.73-8.11.41-.01.81-.01 1.22-.01 49.82 0 78.97 20.66 78.97 20.66 6.69-18.4 18.5-31.18 29.32-39.61 12.76-9.95 24.15-13.86 24.15-13.86 15.8 0 27.65 25.95 35.68 52.84 8.65 28.93 12.88 58.95 12.88 58.95z" fill="#efe7e4"/><path d="m254.78 42.93c-51.41 1.19-94.27 77.61-105.17 184.66-8.69 85.28-3.64 192.79-30.7 244.64-32.52-20.66-60.07-48.47-80.44-81.2l19.46-143.39 17.07-125.74s4.23-30.02 12.88-58.95c8.03-26.89 19.88-52.84 35.68-52.84 0 0 11.38 3.91 24.14 13.87 10.82 8.42 22.63 21.2 29.32 39.6 0 0 9.54-6.76 27.03-12.54 12.83-4.26 29.96-7.97 50.73-8.11z" fill="#e0d8d5"/><path d="m57.934 247.641 17.063-125.739s15.755-111.792 48.563-111.792c0 0 38.877 13.369 53.455 53.466 0 0 9.545-6.755 27.033-12.541 9.556 72.12 65.605 196.606-146.114 196.606z" fill="#9b9595"/><path d="m454.066 247.641-17.063-125.739s-15.755-111.792-48.563-111.792c0 0-38.877 13.369-53.455 53.466 0 0-9.545-6.755-27.033-12.541-9.556 72.12-65.605 196.606 146.114 196.606z" fill="#9b9595"/><path d="m206.804 67.851c-28.59 31-49.95 88.61-57.19 159.74-.29 2.89-.57 5.81-.84 8.76-22.68 7.17-52.33 11.29-90.84 11.29l17.06-125.74s15.76-111.79 48.57-111.79c0 0 38.87 13.37 53.45 53.47 0 0 0 0 .01-.01.41-.29 9.92-6.88 27.02-12.53.71 5.34 1.67 10.96 2.76 16.81z" fill="#736e6e"/><path d="m124.528 90.219c8.241-3.588 13.09-12.339 11.511-21.187-2.786-15.609-14.7-34.709-24.2-33.918-13.769 1.146-27.175 60.872-11.232 60.872 8.7-.001 17.616-3.022 23.921-5.767z" fill="#595454"/><path d="m387.472 90.219c-8.241-3.588-13.09-12.339-11.511-21.187 2.786-15.609 14.7-34.709 24.2-33.918 13.769 1.146 27.175 60.872 11.232 60.872-8.7-.001-17.616-3.022-23.921-5.767z" fill="#595454"/><path d="m239.101 205.635c-11.874 0-21.534-9.66-21.534-21.534v-6.032c0-2.761 2.239-5 5-5s5 2.239 5 5v6.032c0 6.36 5.174 11.534 11.534 11.534s11.534-5.174 11.534-11.534v-31.23c0-2.761 2.238-5 5-5s5 2.239 5 5v31.23c0 11.874-9.66 21.534-21.534 21.534z" fill="#454045"/><path d="m272.169 205.635c-11.874 0-21.534-9.66-21.534-21.534v-31.23c0-2.761 2.238-5 5-5s5 2.239 5 5v31.23c0 6.36 5.174 11.534 11.534 11.534s11.534-5.174 11.534-11.534v-6.032c0-2.761 2.238-5 5-5s5 2.239 5 5v6.032c0 11.874-9.66 21.534-21.534 21.534z" fill="#454045"/><path d="m255.995 122.153c5.633 0 11.889.731 13.802 13.957 1.358 8.446 4.001 16.515 6.551 23.312 9.543 25.43 17.594 38.517 28.719 46.675 13.318 9.767 35.965 9.753 49.52 9.753 13.554 0 36.198.014 49.518-9.753 11.126-8.159 19.179-21.245 28.72-46.674 5.237-13.685 15.352-41.578 17.169-59.96.274-2.773.416-6.965.488-10.904.106-5.757-4.536-10.476-10.294-10.476h-84.166c-59.103 0-87.172 9.895-100.029 9.895s-40.927-9.895-100.029-9.895h-84.165c-5.758 0-10.4 4.72-10.294 10.476.072 3.939.215 8.13.488 10.904 1.817 18.383 11.931 46.276 17.169 59.96 9.541 25.429 17.594 38.515 28.72 46.674 13.321 9.768 35.965 9.753 49.518 9.753s36.201.014 49.52-9.753c11.125-8.158 19.176-21.244 28.719-46.675 2.55-6.797 5.193-14.865 6.551-23.312 1.916-13.226 8.172-13.957 13.805-13.957z" fill="#da4a54"/><path d="m218.544 153.015c-17.511 46.658-27.631 44.587-61.138 44.587-4.967 0-9.429.051-13.47-.033-23.203-.421-32.767-4.816-47.685-44.553-21.384-56.979 15.087-56.676 61.155-56.676 11.433 0 22.293-.017 31.79.825 28.809 2.558 45.428 13.015 29.348 55.85z" fill="#8659b9"/><path d="m415.733 153.015c-17.511 46.658-27.631 44.587-61.138 44.587-4.378 0-8.352.034-11.989 0-24.28-.286-33.945-4.024-49.167-44.587-21.384-56.979 15.087-56.676 61.155-56.676 12.039 0 23.422-.017 33.272.96 27.9 2.795 43.661 13.621 27.867 55.716z" fill="#8659b9"/><path d="m415.733 153.015c-17.511 46.658-27.631 44.587-61.138 44.587-4.378 0-8.352.034-11.989 0 32.127-36.622 42.482-74.002 45.26-100.303 27.9 2.795 43.661 13.621 27.867 55.716z" fill="#ac80dd"/><path d="m218.544 153.015c-17.511 46.658-27.631 44.587-61.138 44.587-4.967 0-9.429.051-13.47-.033 32.177-36.69 42.499-74.104 45.26-100.404 28.809 2.558 45.428 13.015 29.348 55.85z" fill="#ac80dd"/><path d="m437.01 430.7c0 2.16-.04 4.3-.12 6.44-46.31 46.26-110.26 74.86-180.89 74.86s-134.58-28.6-180.89-74.86c-.08-2.14-.12-4.28-.12-6.44 0-94.26 81.04-170.67 181.01-170.67s181.01 76.41 181.01 170.67z" fill="#9b9595"/><path d="m144.874 295.971c-3.46 68.18-5.81 137.65-25.96 176.26-.03-.02-.06-.03-.09-.06-15.84-10.07-30.49-21.83-43.71-35.03-.08-2.14-.12-4.28-.12-6.44 0-54.76 27.35-103.5 69.88-134.73z" fill="#736e6e"/><g fill="#454045"><path d="m270.653 171.034 13.668-23.674c6.512-11.28-1.628-25.38-14.653-25.38h-27.337c-13.025 0-21.166 14.1-14.653 25.38l13.668 23.674c6.513 11.28 22.795 11.28 29.307 0z"/><circle cx="430.912" cy="96.433" r="11.306"/><circle cx="81.078" cy="96.433" r="11.306"/></g><path d="m406.272 136.705 20.683-7.108c6.212-2.135 6.212-10.92 0-13.055l-20.683-7.108c-2.012-.691-3.593-2.272-4.284-4.284l-7.108-20.683c-2.135-6.212-10.92-6.212-13.055 0l-7.108 20.683c-.691 2.012-2.272 3.593-4.284 4.284l-20.683 7.108c-6.212 2.135-6.212 10.92 0 13.055l20.683 7.108c2.012.691 3.593 2.272 4.284 4.284l7.108 20.684c2.135 6.212 10.92 6.212 13.055 0l7.108-20.683c.691-2.013 2.272-3.594 4.284-4.285z" fill="#fff"/></svg>