<svg height="512" viewBox="0 0 60 60" width="512" xmlns="http://www.w3.org/2000/svg"><g id="Page-1" fill="none" fill-rule="evenodd"><g id="046---Cat-In-Witch-Hat" fill-rule="nonzero"><g id="Icons" transform="translate(1 1)"><path id="Shape" d="m58 22c0 2.26-2.69 4.33-7.13 5.91-5.32 1.89-13.14 3.09-21.87 3.09s-16.55-1.2-21.87-3.09c-4.44-1.58-7.13-3.65-7.13-5.91 0-2.86 4.29-5.4 10.97-7.05-1.15 1.55-2.24 4.88-3.1 8.95 3.7143787 1.5009469 7.6176741 2.4835006 11.6 2.92-.3910649-2.2207633-1.0666261-4.381887-2.01-6.43 2.35.98 6.3 1.61 11.54 1.61s9.19-.63 11.54-1.61c-.9433739 2.048113-1.6189351 4.2092367-2.01 6.43 3.9823259-.4364994 7.8856213-1.4190531 11.6-2.92-.86-4.06-1.94-7.39-3.09-8.94 6.68 1.65 10.96 4.19 10.96 7.04z" fill="#a0522d"/><path id="Shape" d="m36.963 26.643 1.664-.3c.4037084-2.0520486 1.0457252-4.0499188 1.913-5.953-1.0980277.433004-2.2372118.7533157-3.4.956-.5510637 1.3279157-.9990547 2.696294-1.34 4.093-.0748687.3291209.0213421.6738015.255842.9165683.2344998.2427669.5756416.3508571.907158.2874317z" fill="#783e22"/><path id="Shape" d="m47.04 14.96c.240456.3395056.4534641.69764.637 1.071 4.554 1.589 7.323 3.678 7.323 5.969 0 2.26-2.69 4.33-7.13 5.91-5.013 1.781-12.247 2.948-20.37 3.077.4973333.0086667.9973333.013 1.5.013 8.73 0 16.55-1.2 21.87-3.09 4.44-1.58 7.13-3.65 7.13-5.91 0-2.85-4.28-5.39-10.96-7.04z" fill="#783e22"/><path id="Shape" d="m7.332 16.021c-.91353214 1.9591381-1.60645373 4.0137546-2.066 6.126-.24837527 1.0140707.30740464 2.0523314 1.289 2.408 3.21220205 1.1153961 6.5371005 1.8749417 9.915 2.265-.024-.155-.067-.323-.1-.482-2.9130369-.5034348-5.7629861-1.3208673-8.5-2.438.86-4.07 1.95-7.4 3.1-8.95-1.31333333.324-2.526.681-3.638 1.071z" fill="#783e22"/><path id="Shape" d="m38.58 7.14c-.8055346-.81025532-1.6677125-1.56215469-2.58-2.25" fill="#607d8b"/><path id="Shape" d="m53.46 7.22-3.35 2.93c-1.1859202 1.0374804-2.9723593.9806988-4.09-.13l-2.71-2.71c-.8045136-.80182711-1.992881-1.08053217-3.07-.72l-1.66.55c2.0337732 1.83753075 3.4515074 4.2574563 4.06 6.93.0751802.3125974.1286412.6300221.16.95-2.78 1.19-7.92 1.98-13.8 1.98-5.84 0-10.94-.78-13.74-1.94.06-.34.13-.68.22-1.01 1.0390317-3.7200508 3.3452772-6.96011355 6.52-9.16 2-1.5 3.75-3 5-4.12.5485199-.49514074 1.261056-.76946713 2-.77 4.63 0 12.24.6 15.47.87.9587777.08239289 1.8206813.61736753 2.32 1.44l1.19 1.98c.6167429 1.03640356 1.7960749 1.60043193 2.99 1.43l1.69-.24c.4370247-.06093068.8623302.17177899 1.0466557.57268704.1843255.40090804.0840977.87524219-.2466557 1.16731296z" fill="#a0522d"/><path id="Shape" d="m41.47.87c.9587777.08239289 1.8206813.61736753 2.32 1.44l1.19 1.98c.6167429 1.03640356 1.7960749 1.60043193 2.99 1.43l1.437-.2c-.5961611-.24489944-1.0968585-.67647457-1.427-1.23l-1.19-1.98c-.4993187-.82263247-1.3612223-1.35760711-2.32-1.44-3.23-.27-10.84-.87-15.47-.87-.1676749.00101767-.334954.01640735-.5.046 4.517.144 10.271.598 12.97.824z" fill="#783e22"/><path id="Shape" d="m38.58 7.14 1.037-.34-.049-.025c-.7048676-.3287277-1.5429345-.13718404-2.035013.46511066s-.5126644 1.46172549-.049987 2.08688934c1.0625037 1.4010795 1.7993684 3.021362 2.157 4.743.0751802.3125974.1286412.6300221.16.95-2.54 1.087-7.06 1.833-12.3 1.955.5.012.995.025 1.5.025 5.88 0 11.02-.79 13.8-1.98-.0313588-.3199779-.0848198-.6374026-.16-.95-.6084926-2.6725437-2.0262268-5.09246925-4.06-6.93z" fill="#783e22"/><path id="Shape" d="m52.66 5.48-1.69.24c-.1600202.02188821-.3215372.03091711-.483.027.2062277.19124977.3211697.46132878.3160151.74253999-.0051546.28121122-.1299171.54689646-.3430151.73046001l-3.35 2.93c-.1442939.1255291-.2999662.2373454-.465.334 1.1076372.6408514 2.5001657.5066221 3.465-.334l3.35-2.93c.3307534-.29207077.4309812-.76640492.2466557-1.16731296-.1843255-.40090805-.609631-.63361772-1.0466557-.57268704z" fill="#783e22"/><path id="Shape" d="m52 41.31c0 11.31-10.3 16.69-23 16.69s-23-5.38-23-16.69c.0373119-4.4888132.41506219-8.9683299 1.13-13.4 5.32 1.89 13.14 3.09 21.87 3.09s16.55-1.2 21.87-3.09c.7149378 4.4316701 1.0926881 8.9111868 1.13 13.4z" fill="#607d8b"/><path id="Shape" d="m50.87 27.91c-.887.315-1.849.609-2.868.883.6307482 4.1431937.9642663 8.3262053.998 12.517 0 10.861-9.5 16.25-21.5 16.661.5.017 1 .029 1.5.029 12.7 0 23-5.38 23-16.69-.0373119-4.4888132-.4150622-8.9683299-1.13-13.4z" fill="#37474f"/><path id="Shape" d="m19.47 26.82c-3.9823259-.4364994-7.8856213-1.4190531-11.6-2.92.86-4.07 1.95-7.4 3.1-8.95.284086-.5124827.7904483-.8636099 1.37-.95.3912317.0272538.7646919.1738456 1.07.42.6574292.4963113 1.228436 1.0977268 1.69 1.78.9251848 1.3139919 1.7158323 2.7177264 2.36 4.19.9433739 2.048113 1.6189351 4.2092367 2.01 6.43z" fill="#e91e63"/><path id="Shape" d="m12.1 16.2c.9251848 1.3139919 1.7158323 2.7177264 2.36 4.19.866906 1.9014877 1.5089161 3.8976592 1.913 5.948.971.178 1.989.345 3.1.482-.3910649-2.2207633-1.0666261-4.381887-2.01-6.43-.6451207-1.4723965-1.4367757-2.8761352-2.363-4.19-.461564-.6822732-1.0325708-1.2836887-1.69-1.78-.3053081-.2461544-.6787683-.3927462-1.07-.42-.5634491.0831148-1.0574861.4204609-1.34.915.4048427.3941205.773024.8242232 1.1 1.285z" fill="#ad1457"/><path id="Shape" d="m42.93 16.14v.01c-.9394339 1.3279672-1.7402851 2.7487242-2.39 4.24-2.35.98-6.3 1.61-11.54 1.61s-9.19-.63-11.54-1.61c-.6441677-1.4722736-1.4348152-2.8760081-2.36-4.19.04-.39.09-.77.16-1.14 2.8 1.16 7.9 1.94 13.74 1.94 5.88 0 11.02-.79 13.8-1.98h.01c.05.36.09.73.12 1.12z" fill="#60a917"/><path id="Shape" d="m42.81 15.02h-.01c-.9378366.3803025-1.9058896.6813557-2.894.9.007.076.018.145.024.222v.01c-.9394339 1.3279672-1.7402851 2.7487242-2.39 4.24-3.2309742 1.1003243-6.6271921 1.6364802-10.04 1.585.491.012.984.023 1.5.023 5.24 0 9.19-.63 11.54-1.61.6497149-1.4912758 1.4505661-2.9120328 2.39-4.24v-.01c-.03-.39-.07-.76-.12-1.12z" fill="#549414"/><path id="Shape" d="m50.13 23.9c-3.7143787 1.5009469-7.6176741 2.4835006-11.6 2.92.3910649-2.2207633 1.0666261-4.381887 2.01-6.43.6497149-1.4912758 1.4505661-2.9120328 2.39-4.24v-.01c.4594259-.6570726 1.0196472-1.2375428 1.66-1.72.3053081-.2461544.6787683-.3927462 1.07-.42.46 0 .92.34 1.38.96 1.15 1.55 2.23 4.88 3.09 8.94z" fill="#e91e63"/><path id="Shape" d="m47.04 14.96c-.46-.62-.92-.96-1.38-.96-.3912317.0272538-.7646919.1738456-1.07.42-.2091223.1484202-.4060796.3132757-.589.493.013.017.026.029.039.047 1.15 1.55 2.23 4.88 3.09 8.94-2.7370139 1.1171327-5.5869631 1.9345652-8.5 2.438-.03.159-.073.327-.1.482 3.9823259-.4364994 7.8856213-1.4190531 11.6-2.92-.86-4.06-1.94-7.39-3.09-8.94z" fill="#ad1457"/><g fill="#607d8b"><path id="Shape" d="m21 27c-.52-.05-1.03-.11-1.53-.17v-.01"/><path id="Shape" d="m7.87 23.9c-.64115546-.261468-1.26566235-.5620328-1.87-.9"/><path id="Shape" d="m37 27c.52-.05 1.03-.11 1.53-.17v-.01"/><path id="Shape" d="m52 23c-.6043377.3379672-1.2288445.638532-1.87.9"/></g><ellipse id="Oval" cx="16" cy="42" fill="#a4c400" rx="4" ry="5"/><path id="Shape" d="m16 37c-.5223149.0032138-1.036407.1303659-1.5.371 1.623796.9633425 2.5848638 2.7428557 2.5 4.629.0848638 1.8861443-.876204 3.6656575-2.5 4.629.463593.2406341.9776851.3677862 1.5.371 2.209 0 4-2.239 4-5s-1.791-5-4-5z" fill="#90ac00"/><ellipse id="Oval" cx="42" cy="42" fill="#a4c400" rx="4" ry="5"/><path id="Shape" d="m42 37c-.5223149.0032138-1.036407.1303659-1.5.371 1.623796.9633425 2.5848638 2.7428557 2.5 4.629.0848638 1.8861443-.876204 3.6656575-2.5 4.629.463593.2406341.9776851.3677862 1.5.371 2.209 0 4-2.239 4-5s-1.791-5-4-5z" fill="#90ac00"/></g><g id="Icons_copy" fill="#000"><path id="Shape" d="m48.6 15.072c-.3871381-.5670188-.9968212-.9429971-1.6772923-1.0343496-.6804712-.0913525-1.3677291.1105129-1.8907077.5553496-.132.09-.267.2-.4.309 0-.013 0-.025-.007-.038-.5048897-2.3418716-1.6293783-4.5051998-3.256-6.264l.187-.062c.7176988-.24319892 1.5112304-.05789941 2.047.478l2.71 2.71c1.4914824 1.4794979 3.8722662 1.5562974 5.456.176l3.352-2.932c.662469-.58393318.8635567-1.53322944.4947493-2.33561603-.3688074-.8023866-1.2202049-1.26792061-2.0947493-1.14538397l-1.692.239c-.795748.11550607-1.582278-.26194932-1.99-.955l-1.195-1.984c-.6668565-1.09387399-1.8146188-1.80495935-3.091-1.915-3.895-.327-11.095-.874-15.553-.874-.9847394.00140892-1.9343541.36601539-2.667 1.024-1.66 1.488-3.319 2.856-4.933 4.066-3.3642235 2.31984801-5.8014442 5.7529223-6.882 9.694-.019.066-.027.134-.044.2-.1536907-.1361098-.3153069-.2629986-.484-.38-.5193199-.4533919-1.2079426-.6626793-1.8917251-.5749365-.6837826.0877429-1.2972536.4641147-1.6852749 1.0339365-7.359 1.869-11.413 4.68-11.413 7.937 0 2.529 2.426 4.789 7.021 6.563-.64713784 4.2188358-.98836095 8.4789445-1.021 12.747-.0589667 3.4054542.99428416 6.7372378 3 9.49l-3.555 2.368c-.45950088.306518-.58351798.9274991-.27699996 1.387.30651803.4595009.92749905.583518 1.38699996.277l3.748-2.5c.441234.4599409.90868.8939979 1.4 1.3l-2.535 3.813c-.1982824.297245-.22292459.6776931-.0646441.9980331.1582805.3203401.4754371.5319049.832.555s.6983617-.1457881.8966441-.4430331l2.487-3.735c4.101 2.686 9.769 4.18 16.681 4.18s12.58-1.494 16.681-4.18l2.487 3.735c.1982824.297245.5400812.4661282.8966441.4430331s.6737195-.2346599.832-.555c.1582805-.32034.1336383-.7007881-.0646441-.9980331l-2.538-3.811c.49132-.4060021.958766-.8400591 1.4-1.3l3.748 2.5c.297245.1982824.6776931.2229246.9980331.0646441.3203401-.1582805.5319049-.4754371.555-.832s-.1457881-.6983617-.4430331-.8966441l-3.552-2.37c2.0055081-2.7524877 3.0587482-6.0838862 3-9.489-.032639-4.2680555-.3738622-8.5281642-1.021-12.747 4.595-1.775 7.021-4.035 7.021-6.564 0-3.252-4.051-6.06-11.4-7.928zm-2.426 1.163c.1363856-.1188484.3015398-.199874.479-.235 0 0 .208.049.584.556.913 1.23 1.9 4.031 2.73 7.731-2.9657391 1.1149669-6.0442949 1.9029645-9.181 2.35.4038161-1.66073.9619079-3.2801003 1.667-4.837.6214141-1.4257581 1.3860027-2.7847288 2.282-4.056.0197125-.0258182.0377495-.0528737.054-.081.3839591-.5440257.8494151-1.0256715 1.38-1.428zm-26.986 4.357c-.4801586-1.0485257-1.0286727-2.0643792-1.642-3.041 4.0680774 1.0365615 8.2566073 1.5238893 12.454 1.449 4.1991488.0780657 8.3895373-.4127247 12.457-1.459-.6137431.9803516-1.1632307 1.9994924-1.645 3.051-3.5010923 1.0651543-7.1548809 1.5409713-10.812 1.408-3.6571191.1329713-7.3109077-.3428457-10.812-1.408zm4.412-13.903c1.66-1.245 3.365-2.649 5.066-4.174.3660061-.33019631.8410618-.51359484 1.334-.515 4.385 0 11.522.543 15.387.866.6381618.05668781 1.2116992.41245908 1.546.959l1.188 1.975c.8198426 1.38610022 2.3951564 2.14038685 3.989 1.91l1.69-.243-3.35 2.93c-.7896714.6913321-1.979409.6546576-2.725-.084l-2.708-2.713c-1.068332-1.07511834-2.6554907-1.44833925-4.091-.962l-1.097.362c-.7038735-.68126777-1.448227-1.31942819-2.229-1.911-.4418278-.33137085-1.0686292-.2418278-1.4.2s-.2418278 1.06862915.2 1.4c.873754.65840875 1.6992015 1.3785866 2.47 2.155 1.9060246 1.7047955 3.2329564 3.9615584 3.796 6.456.005.022.007.047.012.07-4.1178636 1.1880581-8.393532 1.7377772-12.678 1.63-4.2476995.0975566-8.4863192-.4366099-12.577-1.585.011-.04.015-.078.026-.118.9735542-3.5037301 3.1516397-6.5518458 6.151-8.608zm-10.26 9.311c.1874786.0342306.3620744.1189355.505.245.565137.4292733 1.0536799.9509493 1.445 1.543.8846453 1.2586433 1.6410826 2.6026764 2.258 4.012.7047446 1.5569368 1.2625011 3.1763056 1.666 4.837-3.1369017-.4476825-6.2157193-1.2356613-9.182-2.35.832-3.694 1.818-6.5 2.742-7.743.366-.496.571-.544.566-.544zm16.66 42c-10.636 0-22-4.122-22-15.69.03071425-4.0414348.34549009-8.0757116.942-12.073 6.8476862 1.9398238 13.9416708 2.8706187 21.058 2.763 7.1163292.1076187 14.2103138-.8231762 21.058-2.763.5965099 3.9972884.9112857 8.0315652.942 12.073 0 11.568-11.364 15.69-22 15.69zm21.535-30.032c-5.425 1.932-13.274 3.032-21.535 3.032s-16.11-1.1-21.535-3.032c-4.048-1.441-6.465-3.298-6.465-4.968 0-1.923 3.007-3.951 7.99-5.469-.77469736 1.9278595-1.38683004 3.9171235-1.83 5.947-.414-.2-.637-.33-.647-.336-.47236473-.2690038-1.07310214-.1114032-1.35257763.3548424-.2794755.4662456-.13531673 1.0703496.32457763 1.3601576.215.127 5.309 3.127 15.415 4.143h.1c.5522847.0276142 1.0223857-.3977153 1.05-.95.0276142-.5522847-.3977153-1.0223858-.95-1.05-.272-.027-.527-.061-.792-.091-.269521-1.3303168-.6433423-2.6373537-1.118-3.909 3.2180681.7255145 6.5117307 1.0612599 9.81 1 3.2982693.0612599 6.5919319-.2744855 9.81-1-.4750605 1.2742455-.8488861 2.5839727-1.118 3.917-.265.03-.52.064-.792.091-.5522847.0276142-.9776142.4977153-.95 1.05.0276143.5522847.4977153.9776142 1.05.95h.1c10.106-1.011 15.2-4.011 15.415-4.138.4598944-.289808.6040531-.893912.3245776-1.3601576s-.8802129-.6238462-1.3525776-.3548424c-.01.006-.234.134-.648.336-.4422983-2.0263705-1.052059-4.0125247-1.823-5.938 4.984 1.504 7.984 3.528 7.984 5.447 0 1.67-2.417 3.527-6.465 4.968z"/><path id="Shape" d="m34.56 46.258c-.1970276.1777652-.3153188.4265546-.3288233.6915791-.0135044.2650245.0788854.5245492.2568233.7214209.3298479.3640077.5123681.8377759.512 1.329 0 1.1045695-.8954305 2-2 2s-2-.8954305-2-2c0-.5522847-.4477153-1-1-1s-1 .4477153-1 1c0 1.1045695-.8954305 2-2 2s-2-.8954305-2-2c-.0003681-.4912241.1821521-.9649923.512-1.329.370583-.4100714.3385714-1.0429169-.0715-1.4135-.4100714-.370583-1.0429169-.3385714-1.4135.0715-.8071726.8922767-1.1666297 2.1022068-.9775591 3.2904566.1890707 1.1882497.9063086 2.2268595 1.9505591 2.8245434v1.556c0 .5522847.4477153 1 1 1s1-.4477153 1-1v-1c1.1487161.0006041 2.2419626-.4939077 3-1.357.7580374.8630923 1.8512839 1.3576041 3 1.357v1c0 .5522847.4477153 1 1 1s1-.4477153 1-1v-1.556c1.0442505-.5976839 1.7614884-1.6362937 1.9505591-2.8245434.1890706-1.1882498-.1703865-2.3981799-.9775591-3.2904566-.177903-.1968865-.4267654-.3149917-.691787-.3283085-.2650217-.0133167-.5244697.0792471-.721213.2573085z"/><path id="Shape" d="m17 37c-2.757 0-5 2.691-5 6s2.243 6 5 6 5-2.691 5-6-2.243-6-5-6zm0 10c-1.654 0-3-1.794-3-4s1.346-4 3-4 3 1.794 3 4-1.346 4-3 4z"/><path id="Shape" d="m43 37c-2.757 0-5 2.691-5 6s2.243 6 5 6 5-2.691 5-6-2.243-6-5-6zm0 10c-1.654 0-3-1.794-3-4s1.346-4 3-4 3 1.794 3 4-1.346 4-3 4z"/></g></g></g></svg>