<svg id="Capa_1" enable-background="new 0 0 512 512" height="512" viewBox="0 0 512 512" width="512" xmlns="http://www.w3.org/2000/svg"><path d="m512 256c0 55.17-17.45 106.26-47.13 148.05-37.41 52.69-94.26 90.6-160.09 103.3-15.79 3.05-32.1 4.65-48.78 4.65-2.45 0-4.9-.03-7.34-.1-80.16-2.26-151.11-41.38-196.49-101.01-32.74-43-52.17-96.68-52.17-154.89 0-141.38 114.62-256 256-256s256 114.62 256 256z" fill="#ffd939"/><path d="m132.22 50.747h252.61v145.653h-252.61z" fill="#e0d8d5"/><path d="m52.171 165.292 80.047-97.72 80.047 97.72z" fill="#e0d8d5"/><path d="m384.83 29.02v38.55h-252.61v-38.55c0-16.03 12.99-29.02 29.01-29.02h194.59c16.02 0 29.01 12.99 29.01 29.02z" fill="#6bbef6"/><path d="m464.87 165.3v238.75c-5.49 7.74-11.4 15.16-17.71 22.22-31.58 35.44-72.88 62.04-119.71 75.62-22.68 6.58-46.65 10.11-71.45 10.11-2.45 0-4.9-.03-7.34-.1v-346.6z" fill="#90d8f9"/><path d="m304.78 165.29v342.06c-6.98 1.35-14.06 2.42-21.23 3.18-9.05.97-18.24 1.47-27.55 1.47-2.45 0-4.9-.03-7.34-.1-69.26-1.95-131.64-31.42-176.6-77.87-7.08-7.31-13.72-15.03-19.89-23.14v-245.6z" fill="#6bbef6"/><path d="m304.787 165.292 80.047-97.72 80.047 97.72z" fill="#efe7e4"/><path d="m384.834 165.292v-97.72l80.047 97.72z" fill="#e0d8d5"/><path d="m384.834 165.292h-80.047l100.838-24.95z" fill="#e0d8d5"/><path d="m447.16 205.82v220.45c-31.58 35.44-72.88 62.04-119.71 75.62v-296.07c0-9.61 7.79-17.4 17.4-17.4h84.91c9.61 0 17.4 7.79 17.4 17.4z" fill="#efe7e4"/><path d="m283.55 205.82v304.71c-9.05.97-18.24 1.47-27.55 1.47-2.45 0-4.9-.03-7.34-.1-69.26-1.95-131.64-31.42-176.6-77.87v-228.21c0-9.61 7.79-17.4 17.4-17.4h176.69c9.61 0 17.4 7.79 17.4 17.4z" fill="#e0d8d5"/><g fill="#454045"><path d="m149.917 248.161c-.587-2.881-3.046-5.008-5.981-5.173-2.911-.165-5.617 1.672-6.523 4.468-.019.057-.036.114-.053.171l-14.699 51.562-15.229-51.617c-.018-.059-.036-.117-.056-.175-.936-2.787-3.632-4.595-6.57-4.402-2.934.196-5.372 2.349-5.939 5.295l-11.484 63.631c-.49 2.717 1.315 5.318 4.033 5.808 2.708.489 5.317-1.315 5.809-4.032l8.84-48.981 14.46 49.012c.018.06.036.119.057.178.888 2.644 3.352 4.414 6.138 4.414h.036c2.8-.015 5.262-1.815 6.125-4.479.018-.057.035-.113.052-.17l13.964-48.984 9.377 49.062c.519 2.712 3.146 4.49 5.85 3.972 2.713-.518 4.491-3.137 3.973-5.85z"/><path d="m217.151 308.265c-.01 0-.02 0-.029 0-5.327.03-12.963.056-17.853.055v-60.342c0-2.761-2.238-5-5-5s-5 2.239-5 5v65.287c0 2.435 1.755 4.516 4.154 4.928.363.062.757.13 7.774.13 3.457 0 8.522-.017 15.98-.058 2.761-.016 4.987-2.267 4.972-5.028-.014-2.752-2.25-4.972-4.998-4.972z"/><path d="m271.383 309.721-31.557-30.445 29.149-26.793c2.033-1.869 2.166-5.032.298-7.065-1.87-2.034-5.032-2.166-7.065-.298l-26.766 24.602v-21.745c0-2.761-2.238-5-5-5s-5 2.239-5 5v65.342c0 2.761 2.238 5 5 5s5-2.239 5-5v-24.377l28.997 27.975c.971.936 2.222 1.402 3.471 1.402 1.31 0 2.618-.511 3.6-1.528 1.917-1.987 1.86-5.152-.127-7.07z"/><path d="m175.726 242.978c-2.762 0-5 2.239-5 5v65.342c0 2.761 2.238 5 5 5s5-2.239 5-5v-65.342c0-2.762-2.239-5-5-5z"/><path d="m246.152 346.044c-11.903 0-28.862 14.004-38.355 22.815-8.934-4.793-19.144-7.518-29.992-7.518s-21.058 2.725-29.992 7.518c-9.493-8.811-26.453-22.815-38.356-22.815-9.785 0-12.72 44.214 6.731 63.287-1.253 4.977-1.925 10.185-1.925 15.551 0 35.093 28.448 43.537 63.541 43.537s63.541-8.445 63.541-43.537c0-5.366-.672-10.574-1.924-15.551 19.451-19.073 16.517-63.287 6.731-63.287z"/></g><path d="m195.147 426.027c-1.303 0-2.359 1.056-2.359 2.359v3.164c0 3.481-2.831 6.312-6.312 6.312s-6.312-2.832-6.312-6.312v-16.379c0-1.303-1.056-2.359-2.359-2.359s-2.359 1.056-2.359 2.359v16.379c0 3.481-2.831 6.312-6.312 6.312-3.48 0-6.311-2.832-6.311-6.312v-3.164c0-1.303-1.056-2.359-2.359-2.359s-2.359 1.056-2.359 2.359v3.164c0 6.082 4.947 11.03 11.029 11.03 3.518 0 6.65-1.662 8.671-4.236 2.021 2.574 5.153 4.236 8.671 4.236 6.082 0 11.03-4.948 11.03-11.03v-3.164c0-1.303-1.057-2.359-2.359-2.359z" fill="#fff"/><path d="m183.562 425.286 5.37-9.301c2.559-4.432-.64-9.971-5.757-9.971h-10.74c-5.117 0-8.316 5.54-5.757 9.971l5.37 9.301c2.559 4.431 8.955 4.431 11.514 0z" fill="#fff"/><circle cx="215.569" cy="416.645" fill="#fff" r="14.905"/><ellipse cx="215.569" cy="416.645" fill="#454045" rx="5.765" ry="9.021"/><circle cx="140.041" cy="416.645" fill="#fff" r="14.905"/><ellipse cx="140.041" cy="416.645" fill="#454045" rx="5.765" ry="9.021"/></svg>