<svg id="Layer_1" enable-background="new 0 0 512 512" height="512" viewBox="0 0 512 512" width="512" xmlns="http://www.w3.org/2000/svg"><g id="XMLID_1_"><g id="XMLID_3461_"><g id="XMLID_1439_"><path id="XMLID_1440_" d="m384.3 450.3-10.5-38.6h-.1c.2-.1 23.9-7 47-29.5 30.7-29.9 46.3-72.4 46.3-126.2 0-96.9-52.2-135.9-78.5-149.5-8.4-4.3-12.7-13.9-10.2-23 3.3-12.3 17.1-18.3 28.5-12.5s25.7 14.9 40 28.4c27.5 26 60.3 74.3 60.3 156.6s-32.8 130.6-60.3 156.6c-30.4 28.7-61.2 37.3-62.5 37.7z" fill="#504c43"/></g><path id="XMLID_1441_" d="m415.7 436.1c-2-14.2-5-28.2-8.9-42.1-17.8 13.2-33 17.7-33.2 17.7h.1l10.5 38.6c.9-.2 14.1-3.9 31.5-14.2z" fill="#35322b"/><path id="XMLID_1442_" d="m47 187v49.6c0 25.9 10 50.8 28 69.4 18 18.7 28 43.5 28 69.4v79.6l-8.5 4.3c-18.1 9-29.5 27.5-29.5 47.7h309.9c13.3 0 24.1-10.8 24.1-24.1 0-135.1-87.5-254.6-216.3-295.4" fill="#504c43"/><path id="XMLID_1994_" d="m47 211.3c17.5 8.3 39.8 13.7 68 13.7 43.1 0 72.2-12.6 91.9-28.8-7.9-3.2-15.9-6.2-24.1-8.8l-135.8-.4z" fill="#35322b"/><path id="XMLID_1452_" d="m5 122.5s9.3 82.5 110 82.5 110-82.5 110-82.5l-18.3-39.5 3.3-78c-45.8 15.5-51.7 53.2-51.7 53.2s-15-9.6-43.3-9.6-43.3 9.6-43.3 9.6-5.8-37.7-51.6-53.2l3.3 78z" fill="#504c43"/><path id="XMLID_1455_" d="m90 155h-18c-17.7 0-32-14.3-32-32v-18h18c17.7 0 32 14.3 32 32z" fill="#ffc96f"/><g id="XMLID_1454_"><path id="XMLID_1253_" d="m60 115h10v27h-10z" fill="#504c43"/></g><path id="XMLID_1991_" d="m20.6 19.1s22 8.8 26.6 51.3l-23.9 12.6z" fill="#eaeae0"/><path id="XMLID_1451_" d="m140 155h18c17.7 0 32-14.3 32-32v-18h-18c-17.7 0-32 14.3-32 32z" fill="#ffc96f"/><g id="XMLID_1449_"><path id="XMLID_1245_" d="m160 115h10v27h-10z" fill="#504c43"/></g><path id="XMLID_1453_" d="m209.4 19.1s-22 8.8-26.6 51.3l24 12.7z" fill="#eaeae0"/><g id="XMLID_1447_"><path id="XMLID_1965_" d="m110 165h10v40h-10z" fill="#35322b"/></g><g id="XMLID_1446_"><path id="XMLID_1996_" d="m21 170h51v10h-51z" fill="#6d6759"/></g><g id="XMLID_1445_"><path id="XMLID_1995_" d="m48 180.8h10v45h-10z" fill="#6d6759" transform="matrix(.535 .845 -.845 .535 196.342 49.73)"/></g><g id="XMLID_1444_"><path id="XMLID_1993_" d="m158 170h51v10h-51z" fill="#6d6759"/></g><g id="XMLID_1443_"><path id="XMLID_1992_" d="m154.5 198.3h45v10h-45z" fill="#6d6759" transform="matrix(.845 .535 -.535 .845 136.261 -63.174)"/></g><g id="XMLID_1448_"><path id="XMLID_1244_" d="m156.6 507h-10c0-13.9 4.5-25.3 13.4-33.8 13.9-13.3 34.5-15.9 44.1-16.4.9-35.2 11.4-61.9 31.2-79.5 30.2-26.8 70.6-22.2 72.3-22l-1.2 9.9c-.4 0-37.8-4.2-64.6 19.6-18.5 16.4-27.8 42.3-27.8 76.9 0 1.4-.6 2.7-1.5 3.6-1 .9-2.3 1.4-3.7 1.4-.3 0-26.9-.8-41.9 13.7-6.8 6.6-10.3 15.5-10.3 26.6z" fill="#35322b"/></g><path id="XMLID_1450_" d="m135 165-20 20-20-20z" fill="#6d6759"/><path id="XMLID_1187_" d="m177 336.8s20.9 55.8 50.1 55.8c0 0-19.7 33.2-18.9 68.7l-46.4 17.1c.1.1-8.2-91.7 15.2-141.6z" fill="#35322b"/></g><g id="XMLID_3251_"><g id="XMLID_313_"><path id="XMLID_2742_" d="m90 160h-18c-20.4 0-37-16.6-37-37v-18c0-2.8 2.2-5 5-5h18c20.4 0 37 16.6 37 37v18c0 2.8-2.2 5-5 5zm-45-50v13c0 14.9 12.1 27 27 27h13v-13c0-14.9-12.1-27-27-27z" fill="#272526"/></g><g id="XMLID_316_"><path id="XMLID_2741_" d="m60 115h10v27h-10z" fill="#272526"/></g><g id="XMLID_317_"><path id="XMLID_2740_" d="m42.3 70.9c-4.2-38.4-22.8-46.8-23.6-47.2l3.8-9.3c1 .4 24.9 10.5 29.8 55.4z" fill="#272526"/></g><g id="XMLID_335_"><path id="XMLID_2737_" d="m115 210c-54.1 0-82.5-23.6-96.8-43.3-15.5-21.5-18.1-42.8-18.2-43.7s0-1.8.4-2.7l17.9-38.3-3.2-76.8c-.1-1.6.6-3.2 2-4.2 1.3-1 3-1.3 4.6-.7 36.9 12.5 49.4 38.7 53.3 50.9 7.2-3.1 20.7-7.2 40-7.2 19.3 0 32.8 4.1 40 7.2 3.9-12.1 16.4-38.3 53.4-50.8 1.6-.5 3.3-.3 4.6.7s2.1 2.5 2 4.2l-3.3 76.7 17.8 38.3c.4.8.5 1.8.4 2.7s-2.6 22.2-18.1 43.6c-14.3 19.8-42.7 43.4-96.8 43.4zm-104.8-86.8c.8 4.7 4.3 21.5 16.4 38 18.8 25.7 48.5 38.8 88.4 38.8 40.1 0 69.9-13.2 88.7-39.2 11.9-16.4 15.3-32.9 16.1-37.6l-17.7-38.1c-.3-.7-.5-1.5-.5-2.3l3-70.4c-35.9 15.4-41.2 45.3-41.4 46.6-.3 1.7-1.4 3.1-2.9 3.8s-3.3.6-4.7-.3c-.1-.1-14.4-8.8-40.6-8.8-26.4 0-40.4 8.7-40.6 8.8-1.4.9-3.2 1-4.7.3s-2.6-2.1-2.9-3.8c-.2-1.3-5.5-31.2-41.4-46.6l3 70.4c0 .8-.1 1.6-.5 2.3z" fill="#272526"/></g><g id="XMLID_320_"><path id="XMLID_2730_" d="m158 160h-18c-2.8 0-5-2.2-5-5v-18c0-20.4 16.6-37 37-37h18c2.8 0 5 2.2 5 5v18c0 20.4-16.6 37-37 37zm-13-10h13c14.9 0 27-12.1 27-27v-13h-13c-14.9 0-27 12.1-27 27z" fill="#272526"/></g><g id="XMLID_334_"><path id="XMLID_2724_" d="m115 190c-1.3 0-2.6-.5-3.5-1.5l-20-20c-1.4-1.4-1.9-3.6-1.1-5.4.8-1.9 2.6-3.1 4.6-3.1h40c2 0 3.8 1.2 4.6 3.1s.3 4-1.1 5.4l-20 20c-.9 1-2.2 1.5-3.5 1.5zm-7.9-20 7.9 7.9 7.9-7.9z" fill="#272526"/></g><g id="XMLID_318_"><path id="XMLID_2723_" d="m160 115h10v27h-10z" fill="#272526"/></g><g id="XMLID_314_"><path id="XMLID_2722_" d="m187.7 70.9-9.9-1.1c4.9-44.9 28.7-55 29.8-55.4l3.7 9.3-1.9-4.6 1.9 4.6c-.8.4-19.4 8.8-23.6 47.2z" fill="#272526"/></g><g id="XMLID_312_"><path id="XMLID_2721_" d="m110 185h10v20h-10z" fill="#272526"/></g><g id="XMLID_315_"><path id="XMLID_2720_" d="m21 170h51v10h-51z" fill="#272526"/></g><g id="XMLID_319_"><path id="XMLID_2719_" d="m48 180.8h10v45h-10z" fill="#272526" transform="matrix(.535 .845 -.845 .535 196.342 49.73)"/></g><g id="XMLID_322_"><path id="XMLID_2718_" d="m158 170h51v10h-51z" fill="#272526"/></g><g id="XMLID_321_"><path id="XMLID_2717_" d="m154.5 198.3h45v10h-45z" fill="#272526" transform="matrix(.845 .535 -.535 .845 136.261 -63.174)"/></g><g id="XMLID_324_"><path id="XMLID_2713_" d="m374.9 512h-309.9c-2.8 0-5-2.2-5-5 0-22.2 12.4-42.2 32.2-52.2l5.8-2.9v-76.4c0-24.7-9.4-48.2-26.6-66-19-19.6-29.4-45.5-29.4-72.9v-29.6h10v29.6c0 24.7 9.4 48.2 26.6 66 19 19.7 29.4 45.6 29.4 72.9v79.5c0 1.9-1.1 3.6-2.8 4.5l-8.5 4.3c-15 7.5-24.8 21.9-26.5 38.3h304.6c10.5 0 19.1-8.6 19.1-19.1 0-133.5-85.5-250.3-212.8-290.6-2.6-.8-4.1-3.6-3.3-6.3.8-2.6 3.6-4.1 6.3-3.3 64.2 20.3 119.2 59.8 159 114.2 39.8 54.3 60.8 118.7 60.8 186 .1 15.9-13 29-29 29z" fill="#272526"/></g><g id="XMLID_49_"><path id="XMLID_2712_" d="m156.6 507h-10c0-13.9 4.5-25.3 13.4-33.8 13.9-13.3 34.5-15.9 44.1-16.4.9-35.2 11.4-61.9 31.2-79.5 30.2-26.8 70.6-22.2 72.3-22l-1.2 9.9c-.4 0-37.8-4.2-64.6 19.6-18.5 16.4-27.8 42.3-27.8 76.9 0 1.4-.6 2.7-1.5 3.6-1 .9-2.3 1.4-3.7 1.4-.3 0-26.9-.8-41.9 13.7-6.8 6.6-10.3 15.5-10.3 26.6z" fill="#272526"/></g><g id="XMLID_351_"><g id="XMLID_209_"><path id="XMLID_2711_" d="m398.7 450.3-3.9-9.2c12.1-5.2 30.4-15 48.5-32.1 26.8-25.3 58.7-72.4 58.7-153s-31.9-127.7-58.7-153c-11.7-11-24.7-20.3-38.8-27.5-4.1-2.1-8.8-2.2-13-.4-4.1 1.8-7.2 5.4-8.4 9.7-1.8 6.8 1.4 14 7.7 17.3 14 7.2 34.1 20.8 50.9 45.1 20.1 29 30.3 65.6 30.3 108.8 0 55.2-16.1 98.9-47.9 129.8-3.9 3.8-8.1 7.5-12.5 10.8l-6.1-7.9c4.1-3.1 8-6.5 11.6-10 29.8-29 44.8-70.2 44.8-122.7 0-92.3-47.5-130.5-75.8-145-10.5-5.4-15.8-17.5-12.7-28.8 2-7.3 7.1-13.2 14-16.3s14.8-2.8 21.6.7c14.9 7.7 28.8 17.5 41.1 29.2 28.3 26.6 61.9 76.1 61.9 160.2s-33.6 133.6-61.8 160.3c-19.2 18.1-38.6 28.5-51.5 34z" fill="#272526"/></g></g></g></g></svg>