<svg id="Layer_1" enable-background="new 0 0 512 512" height="512" viewBox="0 0 512 512" width="512" xmlns="http://www.w3.org/2000/svg"><g><path d="m269.536 28.172c-8.155-12.445-22.217-20.672-38.207-20.672-25.216 0-45.658 20.442-45.658 45.658s20.442 45.658 45.658 45.658h14.386v45.863l23.822 23.822 23.822-23.822v-45.863h14.386c25.216 0 45.658-20.442 45.658-45.658s-20.443-45.658-45.659-45.658c-15.991 0-30.053 8.227-38.208 20.672zm53.207 24.986c0 8.284-6.716 15-15 15s-15-6.716-15-15 6.716-15 15-15 15 6.716 15 15zm-76.415 0c0 8.284-6.716 15-15 15s-15-6.716-15-15 6.716-15 15-15c8.285 0 15 6.716 15 15z" fill="#ffce71"/><g><path d="m453.029 260.353-21.918 21.918 25.44 25.44c18.189 18.189 22.123 46.167 9.816 68.755-29.499 54.142-85.03 92.144-149.665 97.075-8.057.615-14.327 7.235-14.327 15.315v.297c0 8.972 7.66 15.981 16.606 15.302 75.55-5.728 140.419-50.204 174.781-113.52 18.756-34.56 12.497-77.352-15.308-105.157z" fill="#ffb5c0"/><circle cx="69.494" cy="223.903" fill="#676fb2" r="61.994"/><path d="m302.375 131.853c-28.147 0-54.547 7.474-77.325 20.544l-62.564 35.9-87.494 50.205c-32.919 18.89-55.093 54.386-55.093 95.062 0 60.488 49.035 109.523 109.523 109.523h136.153 36.8c85.945 0 155.617-69.672 155.617-155.617 0-85.944-69.672-155.617-155.617-155.617z" fill="#9ea2e3"/><path d="m162.486 273.437v-85.14l-87.494 50.205c-32.919 18.89-55.093 54.386-55.093 95.062 0 60.488 49.035 109.523 109.523 109.523h136.153c-63.315-32.862-103.089-98.267-103.089-169.65z" fill="#8288cb"/><circle cx="162.486" cy="223.903" fill="#8288cb" r="61.994"/><circle cx="161.557" cy="223.903" fill="#ff8e9e" r="30.997"/></g><g fill="#ffb5c0"><path d="m107.057 337.875c-16.212 0-29.355 10.466-29.355 23.376 0 12.911 13.143 23.377 29.355 23.377s29.355-10.466 29.355-23.377c-.001-12.909-13.143-23.376-29.355-23.376z"/><path d="m27.5 332.007c-11.046 0-20 6.321-20 14.118s8.954 17.882 20 17.882 20-10.085 20-17.882-8.954-14.118-20-14.118z"/></g><g><path d="m483.758 280.475-20.614-20.614c-13.139-76.745-80.331-136.122-162.287-135.492v-18.053h6.886c29.312 0 53.158-23.847 53.158-53.158s-23.846-53.158-53.158-53.158c-14.587 0-28.285 5.921-38.207 16.201-9.922-10.28-23.62-16.201-38.208-16.201-29.311 0-53.157 23.847-53.157 53.158 0 9.176 2.378 18.224 6.877 26.165 2.041 3.604 6.619 4.871 10.222 2.829 3.604-2.041 4.871-6.618 2.829-10.222-3.224-5.691-4.928-12.183-4.928-18.772 0-21.04 17.117-38.158 38.157-38.158 12.905 0 24.844 6.461 31.935 17.282 2.958 4.512 9.585 4.518 12.547 0 7.09-10.821 19.029-17.282 31.933-17.282 21.04 0 38.158 17.118 38.158 38.158s-17.118 38.158-38.158 38.158h-14.386c-4.143 0-7.5 3.357-7.5 7.5v26.298c-12.034 1.137-22.719 3.506-32.644 6.759v-33.057c0-4.143-3.357-7.5-7.5-7.5-14.951 0-20.547.678-29.231-2.994-3.811-1.612-8.214.172-9.828 3.988-1.612 3.814.173 8.215 3.988 9.828 11.168 4.72 19.549 4.178 27.571 4.178v31.318c-15.13 6.643-29.032 15.117-44.603 24.141-9.628-4.83-20.299-7.367-31.125-7.367-17.248 0-33.796 6.444-46.496 17.883-12.701-11.439-29.248-17.883-46.496-17.883-38.318 0-69.493 31.175-69.493 69.494 0 21.433 9.725 41.306 26.323 54.44-8.1 15.114-12.906 32.011-13.764 49.54-7.606 3.806-12.559 10.484-12.559 18.243 0 9.228 7.426 19.629 18.126 23.658 15.028 46.087 58.4 80.805 111.295 80.805h172.953c76.55 0 140.942-53.01 158.424-124.246 7.39 14.977 6.694 32.374-1.018 46.536-29.27 53.72-82.97 88.555-143.649 93.184-11.487.876-21.257 10.375-21.257 23.091 0 12.599 10.277 22.848 22.91 22.848 10.365 0 40.584-4.156 69.909-16.213 3.831-1.575 5.66-5.957 4.085-9.788-1.575-3.832-5.959-5.659-9.788-4.085-20.271 8.333-41.661 13.4-63.575 15.063-10.574.774-11.757-15.15-1.144-15.958 32.572-2.485 64.233-13.308 91.562-31.297 26.686-17.566 48.857-41.657 64.12-69.669 12.941-23.763 10.282-53.75-8.435-74.8.778-7.143 1.107-14.357.921-21.881l7.71 7.71c26.238 26.236 30.703 65.532 14.02 96.276-18.437 33.972-45.837 62.232-79.236 81.727-3.578 2.088-4.785 6.681-2.697 10.258s6.68 4.785 10.258 2.697c35.771-20.878 65.114-51.145 84.859-87.527 7.62-14.04 11.647-29.896 11.647-45.852 0-25.759-10.03-49.974-28.242-68.187zm-468.758-56.573c0-30.048 24.446-54.494 54.494-54.494 13.54 0 26.532 5.066 36.499 14.062-7.554 10.542-12.005 22.989-12.841 35.964l-21.892 12.563c-14.797 8.491-27.312 20.005-36.949 33.496-12.201-10.295-19.311-25.372-19.311-41.591zm12.5 115.605c7.631 0 12.5 3.92 12.5 6.618 0 3.463-5.404 10.382-12.5 10.382s-12.5-6.919-12.5-10.382c0-2.698 4.869-6.618 12.5-6.618zm274.875 96.081h-172.953c-42.154 0-79.976-26.298-95.075-64.99 12.041-3.233 20.653-14.535 20.653-24.473 0-12.036-11.911-21.479-27.175-21.612 2.956-32.942 21.909-62.871 50.9-79.506l15.373-8.821c1.414 7.86 4.167 15.455 8.178 22.405 2.071 3.587 6.657 4.816 10.245 2.747 3.588-2.071 4.817-6.657 2.747-10.245-20.705-35.875 5.08-81.685 47.219-81.685 41.87 0 68.102 45.596 47.188 81.735-2.075 3.585-.851 8.174 2.734 10.248 3.591 2.077 8.177.846 10.248-2.734 16.911-29.223 10.185-65.989-15.122-87.628 29.781-17.309 53.686-31.677 94.84-31.677 81.672 0 148.117 66.445 148.117 148.117 0 81.674-66.445 148.119-148.117 148.119z"/><path d="m231.328 75.658c12.406 0 22.5-10.094 22.5-22.5s-10.094-22.5-22.5-22.5-22.5 10.094-22.5 22.5 10.094 22.5 22.5 22.5zm0-30c4.136 0 7.5 3.364 7.5 7.5s-3.364 7.5-7.5 7.5-7.5-3.364-7.5-7.5 3.364-7.5 7.5-7.5z"/><path d="m307.744 75.658c12.406 0 22.499-10.094 22.499-22.5s-10.093-22.5-22.499-22.5c-12.407 0-22.501 10.094-22.501 22.5s10.094 22.5 22.501 22.5zm0-30c4.135 0 7.499 3.364 7.499 7.5s-3.364 7.5-7.499 7.5c-4.136 0-7.501-3.364-7.501-7.5s3.365-7.5 7.501-7.5z"/><path d="m89.948 319.249c-4.143 0-7.5 3.357-7.5 7.5v12c0 4.143 3.357 7.5 7.5 7.5s7.5-3.357 7.5-7.5v-12c0-4.143-3.357-7.5-7.5-7.5z"/><path d="m162.486 185.406c-21.228 0-38.498 17.27-38.498 38.496 0 21.228 17.271 38.498 38.498 38.498s38.496-17.271 38.496-38.498c0-21.226-17.269-38.496-38.496-38.496zm0 61.994c-12.957 0-23.498-10.541-23.498-23.498 0-12.956 10.541-23.496 23.498-23.496 12.956 0 23.496 10.54 23.496 23.496 0 12.957-10.54 23.498-23.496 23.498z"/></g></g></svg>